<svg version="1.1" id="Layer_1" xmlns="http://www.w3.org/2000/svg" xmlns:xlink="http://www.w3.org/1999/xlink" x="0" y="0" height="134" width="274" viewBox="0 0 274.3 134.5" xml:space="preserve"><style>.st0{fill:#fff}.st2{fill:#061828}</style><g id="Logo"><path class="st0" d="M53.6 45.8c0 8.2-4 15.3-11.4 20.2-5 3.3-10.2 6.3-10.2 6.3V34.9c0-.8.7-1.4 1.5-1.4h7.6v-4.9h12.5v17.2zM30.9 29.1v2.6h-.6v-3.5h.8l1.2 2.6v-2.6h.7v3.5h-.8l-1.3-2.6zm-.4 43.2s-5.2-2.9-10.2-6.2C12.9 61.1 8.9 54 8.9 45.8V28.6h12.3v4.9h8.1c.6.1 1.2.6 1.2 1.3v37.5zm-5.8-44h.7l1.3 3.5H26l-.3-.8h-1.3l-.3.8h-.7l1.3-3.5zm1.6-4.4h1.9v.6h-1.3v.9h1.2v.6h-1.2v1h1.3v.6h-1.9v-3.7zm2.3 7.4h.4v-.9h-.7v-.6h1.3v1.9c-.3.1-.7.2-1.1.2-1.1 0-1.8-.6-1.8-1.8 0-1.2.7-1.9 1.8-1.9.4 0 .7.1 1 .1v.6c-.3-.1-.6-.2-.8-.2-.8 0-1.2.6-1.2 1.3 0 .8.4 1.3 1.1 1.3zm1.7-7.5c.2 0 .5 0 .7.2v.6c-.2-.2-.5-.2-.7-.2-.7 0-1.1.6-1.1 1.3 0 .7.4 1.3 1.1 1.3.3 0 .6-.1.7-.1v.6c-.2.1-.5.1-.7.1-1.1 0-1.8-.6-1.8-1.8 0-1.3.7-2 1.8-2zm2.8 0c.2 0 .5 0 .7.2v.6c-.2-.2-.5-.2-.7-.2-.7 0-1.1.6-1.1 1.3 0 .7.4 1.3 1.1 1.3.3 0 .6-.1.7-.1v.6c-.2.1-.5.1-.7.1-1.1 0-1.8-.6-1.8-1.8.1-1.3.7-2 1.8-2zm1.8 7.5c.5 0 .7-.4.7-1v-2h.7v2.3c0 .9-.5 1.3-1.3 1.3s-1.3-.4-1.3-1.3v-2.3h.7v2c-.2.6 0 1 .5 1zm-.5-7.4h1.9v.6H35v.9h1.2v.6H35v1h1.3v.6h-1.9v-3.7zm3.5 4.3c.3 0 .5 0 .8.1l-.1.6c-.2-.1-.4-.2-.7-.2-.2 0-.5.1-.5.5 0 .6 1.4.4 1.4 1.5 0 .8-.6 1.1-1.2 1.1-.4 0-.5 0-.8-.1l.1-.6c.2.1.5.2.7.2.2 0 .6-.1.6-.5 0-.7-1.4-.4-1.4-1.6 0-.7.5-1 1.1-1zm5.3-17.5v-2l-1.5-.4c-.7-.3-1.4-.6-2.1-1l-.1-.1c-.1-.1-.3-.2-.6-.4V1.7h-4.4C33.7.7 32.6 0 31.3 0c-1.3 0-2.5.7-3.2 1.7h-4.5v5.1s-.1 0-.1.1c-.1 0-.2.1-.3.2-.8.5-1.6.8-2.5 1.1l-1.5.4v2H6.9v35.2c0 8.8 4.4 16.6 12.3 21.9 5.1 3.4 10.9 6.6 11.2 6.7l1 .5 1-.5c.2-.1 6.1-3.4 11.1-6.7 7.9-5.3 12.3-13.1 12.3-21.9V10.7H43.2z"/><path class="st0" d="M25 29l-.4 1.4h.9zM94.1 54.9c-2 0-2 1-2 4v7.2c0 3.4-2.1 6-6.5 6-4.1 0-6.6-2-6.7-6.3v-9.2c0-1.8-1-1.8-2.3-1.8v-.7h7.1v.7c-1.3 0-2.3 0-2.3 1.8v8.5c0 3 1 5.9 4.9 5.9 4.2 0 4.6-3.2 4.6-4.9V59c0-4.1-.2-4-2.4-4.1v-.7h5.7l-.1.7zM115.1 72h-.6l-13.1-14.4V67c0 3.5.3 4.2 3 4.2v.7h-6.6v-.7c1.5 0 2.7 0 2.7-3.2V57.9c0-2.2-.9-2.9-3.1-2.9v-.7h4.4c1 1.5 3.4 3.8 6.2 7 2.1 2.4 4.5 4.8 6.2 6.7V58c0-2.3-.5-3-3-3v-.7h6.4v.7c-1.5 0-2.4.1-2.4 2.6l-.1 14.4zM123 56.7c0-1.8-1-1.8-2.3-1.8v-.7h7.1v.7c-1.3 0-2.3 0-2.3 1.8v12.6c0 1.8 1 1.8 2.3 1.8v.7h-7v-.7c1.3 0 2.3-.1 2.3-1.8l-.1-12.6zM135.2 61.8c-.6-1.6-1.4-3.2-1.9-4.9-.6-1.5-1-2-2.6-2v-.7h6.7v.7c-.4 0-.7 0-1.1.1-.4 0-.7.2-.7.6 0 .8 1.3 3.9 1.6 4.6l3.3 8.6 1.9-5c.6-1.6 1.3-3.2 1.8-4.9.3-.8.8-2 .8-2.9 0-1.2-1-1.1-1.9-1.2v-.7h5.3v.7c-.9 0-1.3.4-1.7 1-.2.3-1.9 4.6-1.9 4.7L140.2 72h-.9l-4.1-10.2zM156.1 62.2h3.3c2 0 2-1.6 2.1-2.2h.5c0 .5-.1 1.9-.1 2.8 0 .8.1 2 .1 2.8h-.5c0-2.4-.8-2.4-2.7-2.4h-2.7v4.3c0 2.8.1 3.5 2.6 3.5h1.6c2.5-.1 3.6-.5 4.5-3.1l.6.1c-.4 1.3-.8 2.5-1 3.8h-13.1v-.7c2.2 0 2.4-.4 2.4-2.8V57.2c0-2.1-.4-2.2-2.4-2.2v-.7h12.3V58l-.5.1c-.4-2.4-1.5-3.1-4-3.1h-2.9l-.1 7.2zM173.7 55.1c-.6 0-1.1.1-1.5.2v7.4c.4.1.9.1 1.3.1 3.1 0 4.3-2 4.3-3.8 0-2.3-1.1-3.9-4.1-3.9m-1.5 8.4v5.8c0 1.8 1 1.8 2.3 1.8v.7h-7v-.7c1.3.1 2.3-.2 2.3-1.7V56.7c0-1.8-1-1.8-2.3-1.8v-.7H174.7c4.7 0 5.8 2.7 5.8 4.4 0 2.1-1.6 3.7-3.6 4.3 2.3 3.3 3.5 5.3 4.6 6.5.8.9 1.6 1.6 2.8 1.6v.7h-4c-2.3-2.5-4-5.4-5.8-8.3h-2.3v.1zM185.9 67.7h.6c.4 1.9 1.8 3.7 3.9 3.7 1.9 0 3.4-1.4 3.4-3.3 0-4.7-7.4-3.3-7.4-9.2 0-3.2 2.3-4.9 5.4-4.9 1 0 2.1.2 3.1.4l.4 3.2h-.6c-.3-1.8-1.4-2.8-3.2-2.8-1.9 0-3 1.4-3 3.2 0 4.7 7.7 3.4 7.7 9.2 0 3.3-2.9 5.1-5.9 5.1-1.3 0-2.7-.3-3.8-.9l-.6-3.7zM201.3 56.7c0-1.8-1-1.8-2.3-1.8v-.7h7.1v.7c-1.3 0-2.3 0-2.3 1.8v12.6c0 1.8 1 1.8 2.3 1.8v.7h-7v-.7c1.3 0 2.3-.1 2.3-1.8l-.1-12.6zM224.8 57.6h-.7c-.1-1.3 0-2.3-2-2.3h-3.8v14c0 1.8 1 1.8 2.3 1.8v.7h-7v-.7c1.3 0 2.3 0 2.3-1.8v-14h-3.3c-2.3 0-2.4.6-2.8 2.3h-.6l.3-4h.5c.3.7 1 .7 1.6.7H223c.9 0 1.5-.2 1.6-.7h.5l-.3 4zM238.1 69.3c0 1.8 1 1.8 2.3 1.8v.7h-7.1v-.7c1.3 0 2.3 0 2.3-1.8v-6.1l-5.2-7.2c-.7-1-.9-1-2.3-1.1v-.7h6.6v.7c-.4 0-1.4 0-1.4.5 0 .3.3.9.8 1.6l3.5 4.9 3.3-4.5c.3-.4 1-1.2 1-1.8 0-.7-.5-.7-1.8-.7v-.7h5v.7c-1.1 0-1.5.7-2.1 1.5l-4.8 6.5-.1 6.4zM77.2 34h.9c.7 3.1 3 6 6.4 6 3.1 0 5.6-2.2 5.6-5.4 0-7.6-12.1-5.3-12.1-15 0-5.3 3.8-8 8.7-8 1.7 0 3.3.4 5 .6l.7 5.2h-.9c-.4-2.9-2.3-4.5-5.3-4.5-3.1 0-4.9 2.2-4.9 5.2 0 7.6 12.6 5.5 12.6 14.9 0 5.3-4.8 8.3-9.6 8.3-2.1 0-4.3-.5-6.2-1.4l-.9-5.9zM98.5 19.7c-2.4 0-2.5.6-3 3h-1c.1-.9.3-1.8.4-2.8.1-.9.2-1.8.2-2.8h.8c.3 1 1.1.9 2 .9h16.8c.9 0 1.7 0 1.8-1l.8.1c-.1.9-.3 1.8-.4 2.6-.1.9-.1 1.8-.1 2.6l-1 .4c-.1-1.2-.2-3.1-2.4-3.1H108V37c0 2.5 1.1 2.8 2.7 2.8h.6v1c-1.3 0-3.5-.1-5.3-.1-2 0-4.2.1-5.5.1v-1h.6c1.8 0 2.7-.2 2.7-2.7V19.7h-5.3zM116.5 41.2c-1.4 0-2.6-1.2-2.6-2.6 0-1.4 1.2-2.6 2.6-2.6 1.4 0 2.6 1.2 2.6 2.6 0 1.5-1.2 2.6-2.6 2.6M137.9 37.2c0 5.5-.8 6.9-1.9 8.8-1.1 1.9-3.8 3.4-6.4 3.4-2 0-4.2-.8-4.2-2.7 0-1.2.9-1.8 1.7-1.8.7 0 1.3.5 1.3 1.5 0 1.1 1 1.8 2.2 1.8 3.2 0 3.2-5.1 3.2-8.4V16.2c0-2.9-1.6-2.9-3.7-2.9v-1.1c1.9 0 3.8.1 5.6.1 1.9 0 3.8 0 5.8-.1v1.1c-2.2 0-3.7.1-3.7 2.9l.1 21zM154.1 39.8c6.3 0 7.4-5.6 7.4-10.3 0-4.8-2.6-10.5-8-10.5-5.7 0-7.4 5.1-7.4 9.4.1 5.8 2.7 11.4 8 11.4m-.5-22.3c6.9 0 12.5 4.3 12.5 11.2 0 7.5-5.4 12.5-12.3 12.5s-12.2-4.7-12.2-11.7c0-6.7 5.2-12 12-12M174.7 37.9c0 1.8 1.4 1.9 2.5 1.9h.6v1c-1.4 0-3.5-.1-5.3-.1-1.7 0-3.6.1-4.9.1v-1h.5c1.2 0 2.4-.2 2.4-1.9v-17c0-1.7-1.2-1.8-2.4-1.8h-.5v-1c1.3 0 3.3.1 4.9.1 1.8 0 3.8-.1 5.3-.1v1h-.6c-1.2 0-2.5.1-2.5 1.8V28h11.8v-7.1c0-1.8-1.4-1.8-2.5-1.8h-.6v-1c1.4 0 3.5.1 5.3.1 1.7 0 3.6-.1 4.9-.1v1h-.5c-1.2 0-2.4.2-2.4 1.8V38c0 1.7 1.2 1.9 2.4 1.9h.5v1c-1.3 0-3.3-.1-4.9-.1-1.8 0-3.8.1-5.3.1v-1h.6c1.2 0 2.5-.1 2.5-1.9v-8.1h-11.8v8zM217.4 34.3l.1-12.3c0-2.7-1.9-3.1-2.8-3.1h-.7v-1c1.5 0 3 .1 4.6.1 1.3 0 2.7-.1 4-.1v1h-.6c-1.4 0-2.9.3-2.9 4.1v14.8c0 1.1 0 2.3.2 3.3h-1.2l-16.8-18.7V36c0 2.8.6 3.8 3.1 3.8h.6v1c-1.4 0-2.8-.1-4.2-.1-1.5 0-3 .1-4.4.1v-1h.5c2.2 0 2.9-1.5 2.9-4.1V21.9c0-1.8-1.5-2.9-3-2.9h-.4v-1c1.2 0 2.5.1 3.7.1 1 0 1.9-.1 2.9-.1l14.4 16.3zM224.5 26.2c1.4-.3 3.3-1.2 3.3-2.8 0-1-.7-1.2-1.4-1.4-.7-.3-1.4-.6-1.4-1.8 0-1.4 1.1-2.2 2.4-2.2 1.9 0 2.9 1.6 2.9 3.4 0 3.1-2.6 5-5.4 5.8l-.4-1zM244 22.8c-.2-2.1-1.6-4.1-3.8-4.1-2.6 0-4 1.5-4 4.1 0 5.4 9.8 3.8 9.8 11.6 0 4.5-3.7 6.8-7.9 6.8-1.8 0-3.6-.6-5.2-1.5-.2-1.7-.4-3.3-.6-4.9l.9-.2c.4 2.8 2 5.2 5 5.2 2.2 0 4-1.4 4-3.7 0-5.8-9.6-4-9.6-11.8 0-4.2 3-6.7 7.2-6.7.9 0 3.7.4 4.7.5 0 1.5.1 3.1.3 4.7h-.8zM43 42.1c0-1.9 1.6-3.5 3.5-3.5s3.5 1.6 3.5 3.5c0 .7-.1 1.1-.6 1.9-.5.8-6.3 8.6-6.3 8.6s-5.8-7.9-6.3-8.6c-.5-.7-.6-1.2-.6-1.9 0-1.9 1.6-3.5 3.5-3.5s3.4 1.6 3.3 3.5M23 44.2c-.8 0-1.5.3-2 .8l-.1.1h-.1c-.2 0-.3-.1-.3-.3 0-.1 0-.1.1-.2.6-.5 1-1.3 1-2.3 0-.3-.1-.5-.2-.8-.3-1.1-2.2-3-2.2-3s-1.9 2-2.2 3c-.1.3-.2.4-.2.8 0 1 .4 1.8 1 2.3.1 0 .1.1.1.2 0 .2-.1.3-.3.3h-.1s-.1 0-.1-.1c-.5-.5-1.2-.8-2-.8-1.6 0-2.9 1.3-2.9 2.9 0 1.3.8 2.3 1.9 2.7-.2-.3-.3-.7-.3-1.1 0-1.2 1-2.2 2.2-2.2.6 0 1.2.3 1.6.7.4.5.5 1 .5 1.7h-1.9c-.3 0-.6.3-.6.6s.3.6.6.6h1.8c-.1.7-.4 1.3-.9 1.8h.9c-.1.1-.1.3-.1.4 0 .6.4 1 1 1 .5 0 1-.4 1-1 0-.1 0-.3-.1-.4h.9c-.4-.5-.7-1.1-.9-1.8h1.8c.3 0 .6-.3.6-.6s-.3-.6-.6-.6H20c0-.7.2-1.2.5-1.7.4-.4 1-.7 1.6-.7 1.2 0 2.2 1 2.2 2.2 0 .4-.1.8-.3 1.1 1.1-.4 1.9-1.5 1.9-2.7 0-1.6-1.3-2.9-2.9-2.9"/><path d="M40.9 12.7c.2-.8.3-1.7.3-2.6-.9-.3-1.8-.6-2.6-1.1-.5-.2-1.6-1.1-1.7-1.2V3.7h-3.8C33 2.8 32.2 2 31.3 2c-1 0-1.7.8-1.9 1.7h-3.8v4.1s-.6.5-.9.7c0 0-.4.2-.4.3-.9.6-1.9 1-3 1.3 0 .9.1 1.7.4 2.5H8.9v14.5h12.3V22H29.5c.6.1 1.2.3 1.9.9.6-.6 1.2-.8 1.9-.9h8v5.1h12.5V12.7H40.9z" fill="#071c2c"/><path class="st0" d="M31.2 5c-.2 5.1-.4 10.2-.7 15.4H32c-.3-5.1-.6-10.2-.8-15.4zM29.9 6.2c-.9 4.1-2.5 8.2-4.8 12.1.4.3.7.5 1.1.8 1.9-4.2 3.1-8.5 3.7-12.9M28.2 6.8c-1.4 2.6-3.5 5.1-6.2 7.1.2.4.3.9.6 1.3 2.5-2.5 4.4-5.4 5.6-8.4M34.3 6.8c1.2 3 3 5.8 5.6 8.3.2-.4.4-.8.5-1.3-2.6-1.9-4.7-4.4-6.1-7M32.6 6.2c.6 4.3 1.8 8.7 3.6 12.8.4-.2.8-.5 1.1-.8-2.3-3.8-3.8-7.9-4.7-12"/><path class="st2" d="M22.5 15.2"/><path class="st0" d="M3.6 36.6v1.9h-.5v-1.2h-1v1.1h-.5v-1.1h-1v1.3H0v-2zM.5 40.1v.2c0 .7.5 1.1 1.3 1.1s1.3-.3 1.3-1.1v-.2H.5zm3.1-.6v.9c0 1.1-.6 1.7-1.8 1.7-1.2 0-1.8-.7-1.8-1.7v-.9h3.6z"/><defs><path id="SVGID_1_" d="M0 0h245.9v81H0z"/></defs><clipPath id="SVGID_2_"><use xlink:href="#SVGID_1_" overflow="visible"/></clipPath><path d="M3.6 43.5H1.3c-.6 0-.8.2-.8.6 0 .4.2.6.8.6h2.3v.7H1.3C.4 45.3 0 44.7 0 44s.4-1.2 1.3-1.2h2.3v.7z" clip-path="url(#SVGID_2_)" fill="#fff"/><defs><path id="SVGID_3_" d="M0 0h245.9v81H0z"/></defs><clipPath id="SVGID_4_"><use xlink:href="#SVGID_3_" overflow="visible"/></clipPath><path d="M.2 48.6c-.1-.1-.2-.4-.2-.8 0-1.1.7-1.7 1.8-1.7 1 0 1.8.5 1.9 1.6 0 .4-.1.7-.1.8H3c.1-.1.2-.3.2-.7 0-.5-.4-1-1.3-1s-1.3.5-1.3 1c0 .3.1.5.2.7l-.6.1z" clip-path="url(#SVGID_4_)" fill="#fff"/><path class="st0" d="M1.9 51.1l1.6-.7-1.7-.2.1.9zm-.5.2l-.2-1.2-.9-.1-.1-.6 3.7.6.1.7-3.4 1.6-.1-.7.9-.3zM4 52.6l-.2-.7.5-.1.5 2.1-.5.1-.2-.7-2.9.7-.2-.6zM5.1 54.8l.2.6L2 56.5l-.3-.6zM3.4 58.7c.2.3.7.5 1.6.1.8-.4 1-.8.9-1.2-.2-.4-.6-.5-1.5-.2-.9.4-1.1.9-1 1.3zm2.9-1.3c.3.7.1 1.5-1.1 2-1.2.5-2 .1-2.2-.6-.3-.7-.1-1.5 1.1-2s1.9-.1 2.2.6zM6.7 65.4c-.1-.1-.4-.3-.6-.6-.6-.9-.3-1.8.5-2.4.8-.6 1.8-.6 2.4.3.2.3.3.6.3.7l-.3.3c0-.1 0-.4-.2-.7-.3-.4-.9-.6-1.6-.1-.8.5-.8 1.1-.5 1.6.2.3.3.4.5.5l-.5.4zM9.9 63.9l.5.5-1.1 1 .7.7 1.1-1 .4.5L9 68.1l-.5-.5 1.2-1.1-.8-.7-1.1 1-.5-.4zM11.8 68c.3.2.5.3.8 0 .3-.3.2-.5-.1-.8l-.2-.2-.7.8.2.2zm.4-1.8l.8.8c.5.4.6.9.1 1.4-.3.3-.7.4-1.1.1.1.1.2.2 0 .6l-.6 1.3-.4-.5.5-1.1c.1-.3.1-.4-.1-.6l-.1-.1-1 1.1-.5-.4 2.4-2.6zM14.5 68.2l.5.4-2.3 2.7-.5-.4zM14 71.4c.1.1.2.4.5.6.2.2.5.2.7-.1.2-.2.1-.4 0-.7l-.2-.3c-.2-.4-.2-.7.1-1.1.4-.5 1-.5 1.5-.1.3.2.5.5.5.6l-.4.4c-.1-.1-.2-.3-.4-.5-.3-.2-.5-.2-.6 0-.2.2-.1.4 0 .6l.2.4c.2.4.2.7-.1 1.1-.4.6-1.1.5-1.6.1-.3-.2-.5-.4-.5-.6l.3-.4zM18.1 71.4l-.7-.4.3-.4 1.9 1.2-.3.4-.7-.4-1.7 2.5-.5-.3zM20.2 72.2l.6.4-2 3-.5-.4zM21.8 75.8l.5-1.6-1.3 1.1.8.5zm-.2.5l-1-.7-.7.6-.6-.3 2.9-2.4.6.4-.9 3.6-.6-.4.3-.8zM24.3 74.7l.7.4-.3 3 1.4-2.4.5.3-1.8 3.1-.7-.4.4-3-1.4 2.4-.5-.3zM27.7 79.1l.4-1.7-1.2 1.3.8.4zm-.1.5l-1.1-.6-.6.6-.6-.3 2.7-2.6.6.3-.6 3.8-.6-.3.2-.9zM35.6 78.8l-1.2-1.2.4 1.7.8-.5zm.4.4l-1.1.6.2.9-.5.3-.8-3.7.6-.4 2.8 2.5-.6.3-.6-.5zM36.5 75.9l.6-.4 2.5 1.8-1.4-2.4.5-.4 1.9 3.1-.7.4-2.5-1.7 1.5 2.3-.5.4zM40 73.7l.5-.4 1.9 3.1-.5.3zM44.6 71.4l.9 3-.4.2-2.3-2 1.6 2.5-.5.3-2-2.9.8-.6 2.1 1.8-.8-2.6.8-.5 2 3-.5.3zM48.5 70.6l-1.4-1 .7 1.6.7-.6zm.4.3l-1 .8.3.8-.5.4-1.3-3.5.6-.4 3.2 2.1-.5.4-.8-.6zM48.8 67.7l1.4-1.2.3.3-.9.9.7.7.8-.8.4.4-.9.8.7.7 1-.8.3.3-1.4 1.4zM54.5 63.8c.2-.3.2-.6-.1-.8-.3-.2-.6-.2-.8.1l-.1.2 1 .7v-.2zm-1.9-.3l.6-.8c.4-.6 1-.7 1.5-.3.6.4.7.9.2 1.6l-.2.3 1.1.8-.4.5-2.8-2.1zM54.6 61.1l1-1.7.4.3-.6 1 .9.5.5-1 .5.2-.6 1.1.9.5.7-1.2.4.3-.9 1.7zM58 57.8c.1-.3.1-.6-.3-.7-.4-.2-.6 0-.7.3l-.1.3 1 .4.1-.3zm-1.8.3l.4-1c.2-.6.7-.9 1.3-.6.4.2.6.6.5 1 .1-.1.2-.2.5-.2l1.4.1-.3.6-1.2-.1c-.3 0-.4.1-.5.3l-.1.1 1.4.6-.2.6-3.2-1.4zM57.5 54.8l.5-1.7.5.1-.3 1.1.9.3.3-1.1.5.2-.3 1 1.5.4-.2.7zM58.3 51.7l.3-1.9.5.1-.2 1.2.9.2.2-1.2.5.1-.1 1.1 1 .2.2-1.2h.5l-.3 1.9zM62.3 46.5c.1.1.1.5.1.8 0 1.1-.9 1.6-1.9 1.6-1 0-1.8-.6-1.8-1.7 0-.4.1-.7.2-.8l.6.1c-.1.1-.2.3-.2.7 0 .5.3 1 1.3 1.1.9 0 1.3-.4 1.3-1 0-.3-.1-.5-.2-.7l.6-.1zM59.4 44.4v.8h-.5V43h.5v.8h3.1v.6zM58.8 41.6V41h3.6v.6zM62 38.2c0-.4-.4-.7-1.3-.7-1 0-1.3.3-1.3.7s.4.7 1.3.7c1 .1 1.3-.3 1.3-.7zm-3.2 0c0-.7.6-1.4 1.8-1.4 1.3 0 1.8.7 1.8 1.4s-.6 1.4-1.8 1.4c-1.2 0-1.8-.7-1.8-1.4z"/></g><path fill="none" stroke="#fff" stroke-width=".562" stroke-miterlimit="10" d="M74 82.7h172.4" id="Line"/><g id="Layer_5"><path class="st0" d="M74.7 96.8H74c0-.3 0-.6-.1-.9 0-.3-.1-.5-.2-.7-.1-.2-.3-.3-.5-.4-.3-.1-.6-.2-1.1-.2h-3.6V108c0 .4.1.7.2 1 .1.2.3.4.4.5.2.1.4.2.7.2h.9v.6h-6.8v-.6h.9c.3 0 .5-.1.7-.2.2-.1.3-.3.4-.5.1-.2.2-.6.2-1V94.7H63c-.5 0-1 0-1.3.1s-.5.2-.7.4c-.2.2-.3.4-.4.7-.1.3-.2.6-.3 1h-.6L60 93h.5c.1.2.2.3.3.4.1.1.2.2.4.2.1 0 .3.1.4.1H72.8c.4 0 .8-.1 1.1-.2.3-.1.4-.3.5-.5h.5l-.2 3.8zM75.9 100.3c0-.2 0-.4-.1-.5l-.3-.3c-.2-.1-.3-.1-.6-.1h-.7v-.6h5.6v.6h-.7c-.2 0-.4.1-.6.1-.2.1-.3.2-.4.3-.1.1-.1.3-.1.6v3.6h6.5v-3.6c0-.2 0-.4-.1-.6-.1-.1-.2-.2-.4-.3-.2-.1-.3-.1-.6-.1h-.7v-.6h5.6v.6h-.7c-.2 0-.4.1-.6.1-.2.1-.3.2-.3.3-.1.1-.1.3-.1.5v8.3c0 .2 0 .4.1.5l.3.3c.2.1.3.1.6.2h.7v.6h-5.6v-.6h.7c.2 0 .4-.1.6-.1.2-.1.3-.2.4-.3.1-.1.1-.3.1-.6v-4H78v4c0 .2 0 .4.1.6.1.1.2.2.4.3.2.1.3.1.6.1h.7v.6h-5.6v-.6h.7c.2 0 .4-.1.6-.2.2-.1.3-.2.3-.3.1-.1.1-.3.1-.5v-8.3zM99.7 110.3h-9.8v-.6h.7c.2 0 .4-.1.6-.2.2-.1.3-.2.3-.3.1-.1.1-.3.1-.5v-8.3c0-.2 0-.4-.1-.5l-.3-.3c-.2-.1-.3-.1-.6-.1h-.7v-.6h9l.1 2.5h-.5c-.1-.4-.2-.7-.3-1-.1-.2-.3-.4-.5-.5-.2-.1-.5-.2-.9-.2h-3.3v4.5h2.8c.2 0 .4-.1.5-.2.1-.1.2-.3.3-.5.1-.2.1-.5.1-1h.6v3.9h-.6c0-.3 0-.6-.1-.8 0-.2-.1-.3-.3-.4-.1-.1-.3-.2-.5-.2h-2.9v3.5c0 .3 0 .5.1.7.1.2.2.3.4.4.2.1.5.2.8.2.3 0 .7.1 1.2.1.6 0 1.1 0 1.4-.1.4 0 .6-.1.9-.3.2-.1.4-.3.6-.6.2-.2.4-.6.6-1h.6l-.3 2.4zM108.3 93.7c.5 0 1.1 0 1.6.1H114.2c.4 0 .8 0 1.3.1s.9.2 1.3.3c.4.1.9.3 1.3.6.4.2.8.5 1.1.9.3.4.6.8.7 1.2.2.5.3 1 .3 1.6 0 .7-.1 1.4-.4 1.9-.3.6-.7 1.1-1.2 1.5-.5.4-1 .7-1.6 1-.6.2-1.2.3-1.9.3H113.8v-.8h1c.5 0 1-.1 1.3-.3.4-.2.7-.5.9-.9.2-.4.4-.8.5-1.2.1-.4.2-.9.2-1.3 0-.8-.1-1.5-.4-2.1-.3-.5-.6-1-1-1.3-.4-.3-.8-.5-1.3-.7-.5-.1-.9-.2-1.3-.2h-.6c-.2 0-.4 0-.5.1V108c0 .4.1.7.2 1s.3.4.5.5c.2.1.4.2.7.2h.9v.6h-6.8v-.6h.9c.3 0 .5-.1.7-.2.2-.1.3-.3.4-.5.1-.2.2-.6.2-1V96.6c0-.5 0-.8-.1-1.1 0-.3-.2-.5-.3-.7-.2-.2-.4-.3-.6-.4-.3-.1-.6-.1-1.1-.1l.1-.6zM131.5 110.3h-9.8v-.6h.7c.2 0 .4-.1.6-.2.2-.1.3-.2.3-.3.1-.1.1-.3.1-.5v-8.3c0-.2 0-.4-.1-.5l-.3-.3c-.2-.1-.3-.1-.6-.1h-.7v-.6h9l.1 2.5h-.5c-.1-.4-.2-.7-.3-1-.1-.2-.3-.4-.5-.5-.2-.1-.5-.2-.9-.2h-3.3v4.5h2.8c.2 0 .4-.1.5-.2.1-.1.2-.3.3-.5.1-.2.1-.5.1-1h.6v3.9h-.6c0-.3 0-.6-.1-.8 0-.2-.1-.3-.3-.4-.1-.1-.3-.2-.5-.2h-2.9v3.5c0 .3 0 .5.1.7.1.2.2.3.4.4.2.1.5.2.8.2.3 0 .7.1 1.2.1.6 0 1.1 0 1.4-.1.4 0 .6-.1.9-.3.2-.1.4-.3.6-.6.2-.2.4-.6.6-1h.6l-.3 2.4zM137.7 99.4h-1.8c-.4 0-.7 0-.9.1-.2 0-.4.1-.6.2-.2.1-.3.3-.4.6-.1.2-.2.6-.3 1h-.6l.3-3.2h.5c0 .1 0 .2.1.3l.2.2c.1 0 .2.1.3.1h8.4c.1 0 .2 0 .3-.1.1 0 .2-.1.3-.2l.3-.3h.5l-.2 3.2h-.6c0-.4-.1-.7-.1-.9 0-.2-.1-.4-.2-.6-.1-.1-.2-.2-.4-.3-.2 0-.4-.1-.6-.1h-2.4v9.2c0 .2 0 .4.1.5s.2.2.4.3c.2.1.4.1.6.2h.8v.6h-5.9v-.6h.8c.2 0 .4-.1.6-.2s.3-.2.4-.3c.1-.1.1-.3.1-.5v-9.2zM155.3 110.3h-9.8v-.6h.7c.2 0 .4-.1.6-.2.2-.1.3-.2.3-.3.1-.1.1-.3.1-.5v-8.3c0-.2 0-.4-.1-.5l-.3-.3c-.2-.1-.3-.1-.6-.1h-.7v-.6h9l.1 2.5h-.5c-.1-.4-.2-.7-.3-1-.1-.2-.3-.4-.5-.5-.2-.1-.5-.2-.9-.2h-3.3v4.5h2.8c.2 0 .4-.1.5-.2.1-.1.2-.3.3-.5.1-.2.1-.5.1-1h.6v3.9h-.6c0-.3 0-.6-.1-.8 0-.2-.1-.3-.3-.4-.1-.1-.3-.2-.5-.2H149v3.5c0 .3 0 .5.1.7.1.2.2.3.4.4.2.1.5.2.8.2.3 0 .7.1 1.2.1.6 0 1.1 0 1.4-.1.4 0 .6-.1.9-.3.2-.1.4-.3.6-.6.2-.2.4-.6.6-1h.6l-.3 2.4zM159.3 100.3c0-.2 0-.4-.1-.5l-.3-.3c-.2-.1-.3-.1-.6-.1h-.7v-.6h6.3c.5 0 1 .1 1.4.2.4.1.8.3 1.1.5.3.2.6.5.8.9.2.4.3.8.3 1.3 0 .7-.2 1.3-.7 1.7-.4.5-1.1.8-1.9 1.1.4.7.8 1.4 1.1 1.9.3.5.6 1 .9 1.4.3.4.5.7.7.9l.6.6c.2.2.4.3.6.3.2.1.4.2.7.2v.6h-3c-.2-.3-.5-.6-.8-1-.3-.4-.6-.9-.9-1.4-.3-.5-.6-1-1-1.6-.3-.5-.6-1.1-1-1.6h-1.6v3.9c0 .2 0 .4.1.6s.2.2.4.3c.2.1.3.1.6.1h.7v.6h-5.6v-.6h.7c.2 0 .4-.1.6-.2.2-.1.3-.2.3-.3.1-.1.1-.3.1-.5l.2-8.4zm2.9 3.8c1 0 1.8-.2 2.3-.6.5-.4.8-1.1.8-1.9 0-.8-.3-1.3-.7-1.7-.5-.4-1.2-.6-2.1-.6h-1.1v4.7l.8.1zM183 108.3c0 .8 0 1.5-.1 2s-.1 1-.2 1.4c-.1.4-.2.7-.3 1-.1.3-.3.5-.4.8-.2.3-.4.5-.6.8-.3.2-.6.5-.9.6-.3.2-.7.3-1.1.4-.4.1-.8.2-1.1.2-.3 0-.6 0-.9-.1-.3-.1-.6-.2-.8-.3-.2-.1-.4-.3-.6-.5s-.2-.4-.2-.7c0-.2 0-.3.1-.5.1-.1.1-.2.2-.3.1-.1.2-.2.3-.2.1 0 .2-.1.4-.1s.4.1.5.2c.2.1.2.4.2.7 0 .2 0 .3.1.4l.3.3c.1.1.3.2.4.2.2 0 .3.1.5.1.3 0 .6-.1.8-.2.2-.2.4-.4.5-.6l.3-.9c.1-.3.1-.7.2-1 0-.4.1-.7.1-1.1V96c0-.4-.1-.7-.2-1-.1-.2-.3-.4-.4-.5-.2-.1-.4-.2-.7-.2h-.9v-.6h6.7v.6h-.9c-.3 0-.5.1-.7.2-.2.1-.3.3-.4.5-.1.2-.2.5-.2 1v12.3zM188.5 110.7c-.2 0-.4 0-.6-.1-.2-.1-.4-.2-.5-.3-.1-.1-.3-.3-.3-.5-.1-.2-.1-.4-.1-.6 0-.2 0-.4.1-.6s.2-.4.3-.5c.1-.1.3-.3.5-.4.2-.1.4-.1.6-.1.2 0 .4 0 .6.1.2.1.4.2.5.3.1.1.3.3.3.5s.1.4.1.6c0 .2 0 .4-.1.6-.1.2-.2.4-.3.5-.1.1-.3.2-.5.3-.2.1-.4.2-.6.2zM211.9 96.8h-.7c0-.3 0-.6-.1-.9 0-.3-.1-.5-.2-.7-.1-.2-.3-.3-.5-.4-.3-.1-.6-.2-1.1-.2h-3.6V108c0 .4.1.7.2 1 .1.2.3.4.4.5.2.1.4.2.7.2h.9v.6h-6.7v-.6h.9c.3 0 .5-.1.7-.2.2-.1.3-.3.4-.5.1-.2.2-.6.2-1V94.7h-3.1c-.5 0-1 0-1.3.1-.3.1-.5.2-.7.4-.2.2-.3.4-.4.7-.1.3-.2.6-.3 1h-.6l.3-3.8h.5c.1.2.2.3.3.4.1.1.2.2.4.2.1 0 .3.1.4.1H210.1c.4 0 .8-.1 1.1-.2.3-.1.4-.3.5-.5h.5l-.3 3.7zM210.9 104.4c0-.9.2-1.8.6-2.5.4-.8.9-1.4 1.5-1.9s1.3-.9 2.1-1.2c.8-.3 1.6-.4 2.5-.4 1 0 1.8.2 2.6.5s1.5.7 2 1.3c.6.5 1 1.2 1.3 1.9.3.7.5 1.5.5 2.4 0 .5-.1 1-.2 1.5s-.3 1-.6 1.4c-.3.5-.6.9-.9 1.3-.4.4-.8.7-1.3 1-.5.3-1 .5-1.6.7-.6.2-1.2.3-1.9.3-1 0-1.9-.2-2.7-.5-.8-.3-1.5-.7-2.1-1.3-.6-.5-1-1.2-1.3-2-.4-.7-.5-1.6-.5-2.5zm2.3-.2c0 .8.1 1.5.3 2.2.2.7.5 1.3.9 1.8s.9.9 1.4 1.2c.5.3 1.1.4 1.8.4.8 0 1.4-.2 1.9-.4.5-.3.9-.7 1.2-1.2.3-.5.5-1 .7-1.7.1-.6.2-1.3.2-1.9 0-.8-.1-1.6-.3-2.3-.2-.7-.5-1.3-.9-1.7-.4-.5-.9-.9-1.4-1.1-.5-.3-1.1-.4-1.8-.4s-1.3.1-1.8.4c-.5.3-.9.7-1.2 1.1-.3.5-.6 1-.7 1.6-.2.7-.3 1.3-.3 2zM228.3 100.3c0-.2 0-.4-.1-.5l-.3-.3c-.2-.1-.3-.1-.6-.1h-.7v-.6h6.3c.3 0 .6 0 .9.1.3.1.6.1.9.2.3.1.5.3.8.4.2.2.4.4.5.7.1.3.2.6.2 1 0 .5-.1.8-.2 1.1-.2.3-.4.5-.6.7-.3.2-.6.4-.9.5-.4.1-.7.2-1.1.3.6.1 1.2.1 1.7.3.5.1.9.3 1.3.5s.6.5.8.9c.2.4.3.9.3 1.5 0 .5-.1.9-.3 1.3-.2.4-.5.7-.9 1-.4.3-.9.5-1.4.7-.6.2-1.2.2-1.9.2h-6.2v-.6h.7c.2 0 .4-.1.6-.2.2-.1.3-.2.3-.3.1-.1.1-.3.1-.5l-.2-8.3zm2 3.3h1c.4 0 .8-.1 1.2-.2.3-.1.6-.3.8-.5.2-.2.4-.4.5-.7.1-.3.2-.6.2-.9 0-.5-.1-.9-.3-1.1-.2-.3-.4-.5-.7-.6-.3-.1-.5-.2-.8-.2h-1.9v4.2zm0 5.1c0 .2.1.4.2.5.1.1.3.2.4.3.2.1.4.1.6.1h.6c.3 0 .6 0 .9-.1.3 0 .6-.1.9-.3.3-.2.5-.4.7-.7s.3-.8.3-1.3c0-.6-.1-1.1-.3-1.4-.2-.4-.5-.6-.8-.8-.3-.2-.7-.3-1.1-.4-.4-.1-.7-.1-1.1-.1h-1.3v4.2zM241.5 100.3c0-.2 0-.4-.1-.5l-.3-.3c-.2-.1-.3-.1-.6-.1h-.7v-.6h5.6v.6h-.8c-.2 0-.4.1-.6.1-.2.1-.3.2-.3.3-.1.1-.1.3-.1.5v8.3c0 .2 0 .4.1.5l.3.3c.1.1.3.1.6.2h.8v.6h-5.6v-.6h.7c.2 0 .4-.1.6-.2.2-.1.3-.2.3-.3.1-.1.1-.3.1-.5v-8.3zM249.2 100.4c0-.3-.1-.5-.2-.6-.2-.2-.3-.3-.5-.3-.2-.1-.4-.1-.6-.1h-.5v-.6h3.3l7.3 8.5v-6.2c0-.4 0-.7-.1-1-.1-.2-.2-.4-.4-.5-.2-.1-.4-.2-.6-.2h-.8v-.6h4.6v.6h-.7c-.2 0-.4.1-.5.1-.1.1-.2.2-.3.4-.1.2-.1.4-.1.7v10.1h-.6l-8.1-9.4v6.4c0 .4 0 .8.1 1.1 0 .3.1.5.3.6.1.2.3.3.6.3s.6.1 1.1.1v.6h-4.9v-.6c.5 0 .9-.1 1.1-.2.3-.1.5-.3.6-.5.1-.2.2-.5.2-.8v-1.2l-.3-6.7zM60.9 121.8h-.6c-.1-.7-.3-1.3-.6-1.8s-.7-.9-1.1-1.2c-.4-.3-1-.5-1.5-.7-.6-.1-1.2-.2-1.9-.2-.5 0-.9.1-1.4.2-.5.1-1 .3-1.5.5s-1 .6-1.4.9c-.5.4-.9.9-1.2 1.4-.3.6-.6 1.2-.8 2-.2.7-.3 1.6-.3 2.5 0 1.2.2 2.3.6 3.3.4 1 .9 1.9 1.6 2.6.7.7 1.4 1.3 2.3 1.7.9.4 1.7.6 2.7.6.6 0 1.1-.1 1.7-.3.5-.2 1-.5 1.4-.8.4-.4.8-.8 1.1-1.3.3-.5.5-1.1.6-1.7l.5.1-.5 3.5c-.2.2-.6.3-1 .5s-.9.3-1.4.4l-1.5.3c-.5.1-1 .1-1.3.1-1.4 0-2.7-.2-3.8-.6-1.1-.4-2.1-1-2.9-1.8-.8-.8-1.4-1.7-1.8-2.8-.4-1.1-.6-2.3-.6-3.7 0-.8.1-1.6.3-2.3s.5-1.4 1-2c.4-.6.9-1.2 1.5-1.7s1.2-.9 1.9-1.3 1.4-.6 2.1-.8c.7-.2 1.5-.3 2.3-.3.5 0 1 0 1.4.1.5.1.9.2 1.4.3s.9.2 1.4.4c.5.2.9.3 1.4.5l-.1 3.4zM63.3 128.2c0-.9.2-1.8.6-2.5.4-.8.9-1.4 1.5-1.9s1.3-.9 2.1-1.2c.8-.3 1.6-.4 2.5-.4 1 0 1.8.2 2.6.5s1.5.7 2 1.3c.6.5 1 1.2 1.3 1.9.3.7.5 1.5.5 2.4 0 .5-.1 1-.2 1.5s-.3 1-.6 1.4c-.3.5-.6.9-.9 1.3-.4.4-.8.7-1.3 1-.5.3-1 .5-1.6.7-.6.2-1.2.3-1.9.3-1 0-1.9-.2-2.7-.5-.8-.3-1.5-.7-2.1-1.3-.6-.5-1-1.2-1.3-2-.4-.7-.5-1.5-.5-2.5zm2.3-.2c0 .8.1 1.5.3 2.2.2.7.5 1.3.9 1.8s.9.9 1.4 1.2c.5.3 1.1.4 1.8.4.8 0 1.4-.2 1.9-.4.5-.3.9-.7 1.2-1.2.3-.5.5-1 .7-1.7.1-.6.2-1.3.2-1.9 0-.8-.1-1.6-.3-2.3-.2-.7-.5-1.3-.9-1.7-.4-.5-.9-.9-1.4-1.1-.5-.3-1.1-.4-1.8-.4s-1.3.1-1.8.4c-.5.3-.9.7-1.2 1.1-.3.5-.6 1-.7 1.6-.2.7-.3 1.4-.3 2zM81 124.1c0-.2 0-.4-.1-.5l-.3-.3c-.2-.1-.3-.1-.6-.1h-.7v-.6h5.6v.6h-.7c-.2 0-.4.1-.6.1-.2.1-.3.2-.4.3-.1.1-.1.3-.1.6v7.9c0 .2 0 .5.1.6 0 .2.2.3.3.4.2.1.4.2.7.2.3 0 .7.1 1.1.1.5 0 1 0 1.3-.1.4-.1.7-.2.9-.3.3-.2.5-.4.7-.7.2-.3.4-.7.6-1.2h.6l-.7 3h-9.4v-.6h.7c.2 0 .4-.1.6-.2.2-.1.3-.2.3-.3.1-.1.1-.3.1-.5v-8.4zM92.9 124.1c0-.2 0-.4-.1-.5l-.3-.3c-.2-.1-.3-.1-.6-.1h-.7v-.6h5.6v.6h-.7c-.2 0-.4.1-.6.1-.2.1-.3.2-.4.3-.1.1-.1.3-.1.6v7.9c0 .2 0 .5.1.6 0 .2.2.3.3.4.2.1.4.2.7.2.3 0 .7.1 1.1.1.5 0 1 0 1.3-.1.4-.1.7-.2.9-.3.3-.2.5-.4.7-.7.2-.3.4-.7.6-1.2h.6l-.7 3h-9.4v-.6h.7c.2 0 .4-.1.6-.2.2-.1.3-.2.3-.3.1-.1.1-.3.1-.5v-8.4zM112.2 134.1h-9.8v-.6h.7c.2 0 .4-.1.6-.2.2-.1.3-.2.3-.3.1-.1.1-.3.1-.5v-8.3c0-.2 0-.4-.1-.5l-.3-.3c-.2-.1-.3-.1-.6-.1h-.7v-.6h9l.1 2.5h-.5c-.1-.4-.2-.7-.3-1-.1-.2-.3-.4-.5-.5-.2-.1-.5-.2-.9-.2H106v4.5h2.8c.2 0 .4-.1.5-.2.1-.1.2-.3.3-.5.1-.2.1-.5.1-1h.6v3.9h-.3c0-.3 0-.6-.1-.8 0-.2-.1-.3-.3-.4-.1-.1-.3-.2-.5-.2h-2.9v3.5c0 .3 0 .5.1.7.1.2.2.3.4.4.2.1.5.2.8.2.3 0 .7.1 1.2.1.6 0 1.1 0 1.4-.1.4 0 .6-.1.9-.3.2-.1.4-.3.6-.6.2-.2.4-.6.6-1h.6l-.6 2.4zM126.2 125.6h-.5c-.2-.3-.3-.6-.5-1-.2-.3-.4-.6-.7-.9-.3-.3-.6-.5-1-.6-.4-.2-.9-.2-1.5-.2-.7 0-1.3.1-1.8.3-.6.2-1.1.5-1.5 1s-.8 1-1 1.7c-.3.7-.4 1.5-.4 2.4 0 .4 0 .8.1 1.2l.3 1.2c.1.4.4.8.6 1.1.3.4.6.7.9.9.4.3.8.5 1.3.7.5.2 1.1.2 1.7.2.3 0 .6 0 .9-.1.3-.1.6-.2.8-.3v-.3-.5-.6-.4c0-.3 0-.6-.1-.8s-.1-.4-.2-.5c-.1-.1-.3-.2-.6-.3-.2-.1-.6-.1-1-.1v-.6h5v.6h-.7c-.2 0-.3.1-.4.1-.1.1-.2.2-.2.3s-.1.3-.1.5v2.1c0 .1.1.2.1.2.1.1.1.1.3.1v.5c-.3.1-.6.2-1 .3l-1.2.3c-.4.1-.9.2-1.3.2-.5.1-.9.1-1.4.1-1 0-1.8-.2-2.6-.5s-1.5-.7-2.1-1.3c-.6-.5-1-1.2-1.3-1.9-.3-.7-.5-1.5-.5-2.4 0-1 .2-1.8.5-2.6s.8-1.4 1.4-2c.6-.5 1.3-1 2.1-1.2.8-.3 1.7-.4 2.6-.4h1c.2 0 .4 0 .6.1.2 0 .5.1.7.1.1 0 .2 0 .4.1.2 0 .4.1.7.1.2 0 .5.1.7.1.2 0 .4.1.4.1l.5 2.9zM138.7 134.1h-9.8v-.6h.7c.2 0 .4-.1.6-.2.2-.1.3-.2.3-.3.1-.1.1-.3.1-.5v-8.3c0-.2 0-.4-.1-.5l-.3-.3c-.2-.1-.3-.1-.6-.1h-.7v-.6h9l.1 2.5h-.5c-.1-.4-.2-.7-.3-1-.1-.2-.3-.4-.5-.5-.2-.1-.5-.2-.9-.2h-3.3v4.5h2.8c.2 0 .4-.1.5-.2.1-.1.2-.3.3-.5.1-.2.1-.5.1-1h.6v3.9h-.6c0-.3 0-.6-.1-.8 0-.2-.1-.3-.3-.4-.1-.1-.3-.2-.5-.2h-2.9v3.5c0 .3 0 .5.1.7.1.2.2.3.4.4.2.1.5.2.8.2.3 0 .7.1 1.2.1.6 0 1.1 0 1.4-.1s.6-.1.9-.3c.2-.1.4-.3.6-.6.2-.2.4-.6.6-1h.6l-.3 2.4zM148 128.2c0-.9.2-1.8.6-2.5.4-.8.9-1.4 1.5-1.9s1.3-.9 2.1-1.2c.8-.3 1.6-.4 2.5-.4 1 0 1.8.2 2.6.5s1.5.7 2 1.3c.6.5 1 1.2 1.3 1.9.3.7.5 1.5.5 2.4 0 .5-.1 1-.2 1.5s-.3 1-.6 1.4c-.3.5-.6.9-.9 1.3-.4.4-.8.7-1.3 1-.5.3-1 .5-1.6.7-.6.2-1.2.3-1.9.3-1 0-1.9-.2-2.7-.5-.8-.3-1.5-.7-2.1-1.3-.6-.5-1-1.2-1.3-2s-.5-1.5-.5-2.5zm2.3-.2c0 .8.1 1.5.3 2.2.2.7.5 1.3.9 1.8s.9.9 1.4 1.2c.5.3 1.1.4 1.8.4.8 0 1.4-.2 1.9-.4.5-.3.9-.7 1.2-1.2.3-.5.5-1 .7-1.7.1-.6.2-1.3.2-1.9 0-.8-.1-1.6-.3-2.3-.2-.7-.5-1.3-.9-1.7-.4-.5-.9-.9-1.4-1.1-.5-.3-1.1-.4-1.8-.4s-1.3.1-1.8.4c-.5.3-.9.7-1.2 1.1s-.6 1-.7 1.6c-.2.7-.3 1.4-.3 2zM165.4 124.1c0-.2 0-.4-.1-.5l-.3-.3c-.2-.1-.3-.1-.6-.1h-.8v-.6h9.6l.1 2.6h-.5c-.1-.4-.2-.7-.3-1-.1-.2-.3-.4-.5-.6-.2-.1-.5-.2-.8-.2-.3 0-.8-.1-1.3-.1h-2.5v4.5h3c.2 0 .4-.1.5-.2.1-.1.2-.2.3-.4.1-.2.1-.5.1-.8h.6v3.9h-.6c0-.4 0-.7-.1-.9 0-.2-.1-.4-.3-.5-.1-.1-.3-.2-.5-.2h-3.1v3.5c0 .3 0 .6.1.8.1.2.2.4.3.5.1.1.3.2.5.2s.4.1.7.1h.5v.6h-6v-.6h.8c.2 0 .4-.1.6-.2s.3-.2.3-.3c.1-.1.1-.3.1-.5l.2-8.7zM181.9 133.5h.8c.3 0 .5-.1.7-.2.2-.1.4-.3.5-.5.1-.2.2-.5.2-.8v-12.1c0-.4-.1-.7-.2-1-.1-.2-.3-.4-.4-.5-.2-.1-.4-.2-.7-.2h-.9v-.6H187.7c.3 0 .6 0 1 .1s.8.1 1.2.2c.4.1.8.2 1.2.4.4.2.8.4 1.1.7.3.3.6.6.8 1s.3.9.3 1.4c0 .6-.1 1-.3 1.5-.2.4-.5.8-.9 1.1-.4.3-.8.6-1.2.8-.5.2-.9.4-1.4.5.3 0 .6 0 1 .1l1.2.3c.4.1.8.3 1.2.6.4.2.7.5 1 .9.3.3.5.7.7 1.2.2.4.3.9.3 1.5s-.1 1.2-.4 1.8c-.3.5-.7 1-1.2 1.4-.5.4-1.2.7-2 .9-.8.2-1.7.3-2.8.3h-6.6v-.8zm4.5-8.5h.9c.5 0 .9 0 1.4-.1.4-.1.8-.3 1.1-.5.3-.3.6-.6.8-1.1.2-.5.3-1.1.3-1.8s-.1-1.2-.3-1.6c-.2-.4-.4-.7-.8-1-.3-.2-.7-.4-1.1-.4-.4-.1-.9-.1-1.4-.1h-1l.1 6.6zm0 6.4v.8c0 .2.1.4.2.6.1.2.3.3.6.4.3.1.7.2 1.2.2.7 0 1.3-.1 1.8-.3.5-.2.9-.5 1.2-.8.3-.3.5-.7.6-1.1.1-.4.2-.8.2-1.2 0-.9-.1-1.6-.4-2.1s-.6-1-1-1.3c-.4-.3-.9-.5-1.4-.6-.5-.1-1.1-.2-1.7-.2h-1.4l.1 5.6zM197.7 123.9c0-.2-.1-.4-.2-.5-.1-.1-.2-.2-.4-.3-.2-.1-.3-.1-.5-.1h-.5v-.6H201.5v.6h-.5c-.2 0-.4 0-.5.1-.2.1-.3.1-.4.2-.1.1-.1.3-.1.5v6.5c0 .6.1 1 .2 1.4.2.4.4.7.7 1 .3.2.6.4 1 .5.4.1.8.2 1.3.2.6 0 1-.1 1.4-.2.4-.1.7-.3.9-.6.2-.2.4-.5.6-.8.1-.3.2-.7.3-1 .1-.4.1-.8.1-1.1v-4c0-.6 0-1.1-.1-1.4 0-.3-.1-.6-.3-.8-.1-.2-.3-.3-.6-.3s-.6-.1-1-.1v-.6h4.4v.6h-.6c-.2 0-.3.1-.5.2-.1.1-.2.3-.3.5-.1.2-.1.5-.1.9v4.8c0 .7-.1 1.3-.3 1.9-.2.6-.5 1.1-.8 1.5-.4.4-.9.8-1.5 1-.6.2-1.3.4-2.2.4-.8 0-1.4-.1-2-.2-.6-.2-1.1-.4-1.5-.7-.4-.3-.7-.7-1-1.2-.2-.5-.3-1.1-.3-1.8l-.1-6.5zM211.2 131.2h.5c.1.4.3.8.4 1.1.2.3.4.6.6.8.2.2.5.4.8.5.3.1.7.2 1.1.2.5 0 .8-.1 1.1-.2.3-.1.5-.3.7-.5.2-.2.3-.4.4-.6.1-.2.1-.4.1-.6 0-.2 0-.5-.1-.7-.1-.2-.2-.4-.4-.6-.2-.2-.4-.4-.7-.6s-.6-.4-1-.6c-.7-.3-1.2-.6-1.6-.9-.4-.3-.8-.6-1-.9-.3-.3-.4-.7-.5-1-.1-.4-.1-.8-.1-1.2 0-.4.1-.8.3-1.2.2-.4.4-.7.7-1 .3-.3.7-.5 1.1-.7.4-.2.9-.3 1.4-.3h.7c.3 0 .5 0 .7.1.2 0 .5.1.7.1h.6l.2 2.3h-.5c-.1-.2-.2-.5-.3-.7-.1-.2-.2-.4-.4-.6-.2-.2-.4-.3-.7-.4-.3-.1-.6-.2-1-.2-.3 0-.6 0-.8.1-.3.1-.5.2-.7.4-.2.2-.3.4-.4.6-.1.2-.2.5-.2.8 0 .3 0 .5.1.8.1.2.2.4.4.6.2.2.5.4.8.6.3.2.8.5 1.4.7.6.3 1.1.6 1.5.9.4.3.7.6.9.9.2.3.4.6.4.9.1.3.1.7.1 1 0 .5-.1.9-.3 1.3-.2.4-.5.7-.9 1-.4.3-.8.5-1.3.7-.5.2-1.1.2-1.7.2-.6 0-1.1-.1-1.5-.2-.5-.1-1-.3-1.4-.5l-.2-2.4zM223.2 124.1c0-.2 0-.4-.1-.5l-.3-.3c-.2-.1-.3-.1-.6-.1h-.7v-.6h5.6v.6h-.8c-.2 0-.4.1-.6.1-.2.1-.3.2-.3.3-.1.1-.1.3-.1.5v8.3c0 .2 0 .4.1.5l.3.3c.1.1.3.1.6.2h.8v.6h-5.6v-.6h.7c.2 0 .4-.1.6-.2.2-.1.3-.2.3-.3.1-.1.1-.3.1-.5v-8.3zM230.8 124.2c0-.3-.1-.5-.2-.6-.2-.2-.3-.3-.5-.3-.2-.1-.4-.1-.6-.1h-.5v-.6h3.3l7.3 8.5v-6.2c0-.4 0-.7-.1-1-.1-.2-.2-.4-.4-.5-.2-.1-.4-.2-.6-.2h-.8v-.6h4.6v.6h-.7c-.2 0-.4.1-.5.1-.1.1-.2.2-.3.4-.1.2-.1.4-.1.7v10.1h-.6l-8.1-9.4v6.4c0 .4 0 .8.1 1.1 0 .3.1.5.3.6.1.2.3.3.6.3.3.1.6.1 1.1.1v.6h-4.9v-.6c.5 0 .9-.1 1.1-.2.3-.1.5-.3.6-.5.1-.2.2-.5.2-.8v-1.2l-.3-6.7zM253.3 134.1h-9.8v-.6h.7c.2 0 .4-.1.6-.2s.3-.2.3-.3c.1-.1.1-.3.1-.5v-8.3c0-.2 0-.4-.1-.5l-.3-.3c-.2-.1-.3-.1-.6-.1h-.7v-.6h9l.1 2.5h-.5c-.1-.4-.2-.7-.3-1-.1-.2-.3-.4-.5-.5-.2-.1-.5-.2-.9-.2h-3.3v4.5h2.8c.2 0 .4-.1.5-.2.1-.1.2-.3.3-.5.1-.2.1-.5.1-1h.6v3.9h-.6c0-.3 0-.6-.1-.8 0-.2-.1-.3-.3-.4-.1-.1-.3-.2-.5-.2H247v3.5c0 .3 0 .5.1.7.1.2.2.3.4.4.2.1.5.2.8.2.3 0 .7.1 1.2.1.6 0 1.1 0 1.4-.1.4 0 .6-.1.9-.3.2-.1.4-.3.6-.6.2-.2.4-.6.6-1h.6l-.3 2.4zM256.2 131.2h.5c.1.4.3.8.4 1.1.2.3.4.6.6.8.2.2.5.4.8.5.3.1.7.2 1.1.2.5 0 .8-.1 1.1-.2.3-.1.5-.3.7-.5.2-.2.3-.4.4-.6.1-.2.1-.4.1-.6 0-.2 0-.5-.1-.7-.1-.2-.2-.4-.4-.6-.2-.2-.4-.4-.7-.6-.3-.2-.6-.4-1-.6-.7-.3-1.2-.6-1.6-.9-.4-.3-.8-.6-1-.9-.3-.3-.4-.7-.5-1-.1-.4-.1-.8-.1-1.2 0-.4.1-.8.3-1.2.2-.4.4-.7.7-1 .3-.3.7-.5 1.1-.7.4-.2.9-.3 1.4-.3h.7c.3 0 .5 0 .7.1.2 0 .5.1.7.1h.6l.2 2.3h-.5c-.1-.2-.2-.5-.3-.7-.1-.2-.2-.4-.4-.6-.2-.2-.4-.3-.7-.4-.3-.1-.6-.2-1-.2-.3 0-.6 0-.8.1-.3.1-.5.2-.7.4-.2.2-.3.4-.4.6-.1.2-.2.5-.2.8 0 .3 0 .5.1.8.1.2.2.4.4.6.2.2.5.4.8.6.3.2.8.5 1.4.7.6.3 1.1.6 1.5.9.4.3.7.6.9.9.2.3.4.6.4.9.1.3.1.7.1 1 0 .5-.1.9-.3 1.3-.2.4-.5.7-.9 1-.4.3-.8.5-1.3.7-.5.2-1.1.2-1.7.2-.6 0-1.1-.1-1.5-.2-.5-.1-1-.3-1.4-.5l-.2-2.4zM266.8 131.2h.5c.1.4.3.8.4 1.1.2.3.4.6.6.8.2.2.5.4.8.5.3.1.7.2 1.1.2.5 0 .8-.1 1.1-.2.3-.1.5-.3.7-.5.2-.2.3-.4.4-.6.1-.2.1-.4.1-.6 0-.2 0-.5-.1-.7-.1-.2-.2-.4-.4-.6-.2-.2-.4-.4-.7-.6-.3-.2-.6-.4-1-.6-.7-.3-1.2-.6-1.6-.9-.4-.3-.8-.6-1-.9-.3-.3-.4-.7-.5-1-.1-.4-.1-.8-.1-1.2 0-.4.1-.8.3-1.2.2-.4.4-.7.7-1 .3-.3.7-.5 1.1-.7.4-.2.9-.3 1.4-.3h.7c.3 0 .5 0 .7.1.2 0 .5.1.7.1h.6l.2 2.3h-.5c-.1-.2-.2-.5-.3-.7-.1-.2-.2-.4-.4-.6-.2-.2-.4-.3-.7-.4-.3-.1-.6-.2-1-.2-.3 0-.6 0-.8.1-.3.1-.5.2-.7.4-.2.2-.3.4-.4.6-.1.2-.2.5-.2.8 0 .3 0 .5.1.8.1.2.2.4.4.6.2.2.5.4.8.6.3.2.8.5 1.4.7.6.3 1.1.6 1.5.9.4.3.7.6.9.9.2.3.4.6.4.9.1.3.1.7.1 1 0 .5-.1.9-.3 1.3-.2.4-.5.7-.9 1-.4.3-.8.5-1.3.7-.5.2-1.1.2-1.7.2-.6 0-1.1-.1-1.5-.2-.5-.1-1-.3-1.4-.5l-.2-2.4z"/></g></svg>
