<svg version="1.1" id="Layer_1" xmlns="http://www.w3.org/2000/svg" xmlns:xlink="http://www.w3.org/1999/xlink" x="0" y="0" height="103" width="274" viewBox="0 0 273.6 103.2" xml:space="preserve"><style>.st0{fill:#fff}</style><g id="Logo"><path class="st0" d="M72.3 42.6c0 7.6-3.8 14.3-10.6 18.8-4.6 3.1-9.4 5.9-9.4 5.9V32.5c0-.8.7-1.3 1.3-1.3h7.1v-4.6h11.6v16zM51.1 27.1v2.4h-.6v-3.3h.8l1.1 2.4v-2.4h.6v3.3h-.8l-1.1-2.4zm-.3 40.2s-4.9-2.7-9.5-5.9c-6.9-4.5-10.6-11.2-10.6-18.8v-16h11.4v4.5h7.5c.6.1 1.1.6 1.1 1.2v35h.1zm-5.4-41.1h.7l1.2 3.3h-.7l-.3-.8h-1.2l-.2.8h-.7l1.2-3.3zm1.4-3.9h1.8v.6h-1.2v.8h1.1v.6h-1.1v.7h1.2v.4h-1.8v-3.1zm2.2 6.8h.4v-.9h-.8v-.6h1.2v1.8c-.3.1-.7.2-1 .2-1 0-1.7-.6-1.7-1.7s.7-1.8 1.7-1.8c.3 0 .7 0 .9.1v.6c-.2-.1-.6-.2-.8-.2-.7 0-1.1.6-1.1 1.2.1.8.6 1.3 1.2 1.3zm1.6-7c.2 0 .4 0 .7.1v.6c-.2-.1-.4-.2-.7-.2-.7 0-1 .6-1 1.2 0 .7.3 1.2 1 1.2.2 0 .6-.1.7-.1v.6c-.2.1-.4.1-.7.1-1 0-1.7-.6-1.7-1.7s.7-1.8 1.7-1.8zm2.6 0c.2 0 .4 0 .7.1v.6c-.2-.1-.4-.2-.7-.2-.7 0-1 .6-1 1.2 0 .7.3 1.2 1 1.2.2 0 .6-.1.7-.1v.6c-.2.1-.4.1-.7.1-1 0-1.7-.6-1.7-1.7s.8-1.8 1.7-1.8zm1.7 7c.4 0 .7-.3.7-.9v-1.9h.6v2.1c0 .9-.4 1.2-1.2 1.2s-1.2-.3-1.2-1.2v-2.1h.6v1.9c-.2.6 0 .9.5.9zm-.5-6.8h1.8v.6H55v.8h1v.6h-1.1v.7h1.2v.4h-1.8v-3.1zm3.3 3.9c.2 0 .6 0 .8.1l-.1.6c-.2-.1-.4-.1-.7-.1-.2 0-.4.1-.4.4 0 .6 1.3.3 1.3 1.4 0 .8-.6 1-1.1 1-.3 0-.4 0-.8-.1l.1-.6c.2.1.4.2.7.2.2 0 .6-.1.6-.4 0-.7-1.3-.3-1.3-1.4-.2-.8.3-1.1.9-1.1zm5-16.2V8l-1.4-.3c-.8-.2-1.4-.4-2-.9l-.1-.1c-.1 0-.3-.2-.6-.3V1.7h-4.1c-.7-1-1.8-1.7-3-1.7s-2.3.7-3 1.7h-4.2v4.8h-.1s-.2.1-.3.2c-.7.4-1.4.8-2.3 1l-1.4.3v1.9H28.8v32.7c0 8.2 4.1 15.5 11.4 20.4 4.8 3.2 10.2 6.1 10.4 6.2l.9.4.9-.4c.2-.2 5.6-3.2 10.3-6.3C70 58 74.1 50.7 74.1 42.5V10H62.7z"/><path class="st0" d="M45.7 26.9l-.4 1.4h.9l-.5-1.4zm64.2 24.2c-1.9 0-1.9.9-1.9 3.8v6.8c0 3.2-2 5.5-6.1 5.5-3.9 0-6.2-1.9-6.2-5.9v-8.5c0-1.7-.9-1.7-2.1-1.7v-.6h6.5v.6c-1.2 0-2.1 0-2.1 1.7v8c0 2.8.9 5.4 4.5 5.4 3.9 0 4.2-3 4.2-4.6V55c0-3.9-.1-3.8-2.2-3.9v-.6h5.3v.6zM129.5 67h-.5l-12.2-13.4v8.7c0 3.2.2 3.9 2.8 3.9v.6h-6.2v-.6c1.4 0 2.5 0 2.5-3v-9.4c0-2-.9-2.8-2.9-2.8v-.6h4c1 1.4 3.1 3.5 5.8 6.5 2 2.2 4.2 4.5 5.8 6.2v-9.3c0-2.1-.4-2.8-2.8-2.8v-.6h5.9v.6c-1.4 0-2.2.1-2.2 2.4-.1.2 0 13.6 0 13.6zm7.3-14.2c0-1.7-.9-1.7-2.1-1.7v-.6h6.5v.6c-1.2 0-2.1 0-2.1 1.7v11.7c0 1.7.9 1.7 2.1 1.7v.6h-6.5v-.6c1.2 0 2.1 0 2.1-1.7V52.8zm11.3 4.7c-.6-1.4-1.2-3-1.8-4.5-.6-1.4-.9-1.9-2.4-1.9v-.6h6.3v.5c-.3 0-.7 0-1 .1-.3 0-.7.2-.7.6 0 .8 1.2 3.7 1.5 4.3l3.1 8 1.8-4.6c.6-1.5 1.2-3 1.7-4.5.2-.8.8-1.9.8-2.7 0-1.1-.9-1-1.8-1.1v-.6h5v.5c-.8 0-1.2.3-1.5.9-.1.2-1.8 4.3-1.8 4.4L153 67.1h-.9l-4-9.6zm19.5.4h3.1c1.9 0 1.9-1.4 2-2h.4c0 .6-.1 1.8-.1 2.7 0 .8.1 1.9.1 2.5h-.4c0-2.2-.8-2.2-2.5-2.2h-2.5v4c0 2.5.1 3.2 2.4 3.2h1.4c2.3-.1 3.3-.4 4.2-2.9l.6.1c-.3 1.2-.8 2.3-1 3.5h-12.2v-.6c2 0 2.2-.3 2.2-2.7V53.1c0-1.9-.3-2-2.2-2.1v-.6h11.5v3.4l-.4.1c-.3-2.2-1.4-2.9-3.8-2.9h-2.8v6.9zm16.4-6.6c-.6 0-1 .1-1.4.1v6.9c.3.1.9.1 1.2.1 2.9 0 4-1.9 4-3.5.1-2.2-1-3.6-3.8-3.6m-1.3 7.8v5.4c0 1.7.9 1.7 2.1 1.7v.6h-6.5v-.6c1.2.1 2.1-.2 2.1-1.5V52.8c0-1.7-.9-1.7-2.1-1.7v-.6h6.6c4.4 0 5.4 2.4 5.4 4.1 0 2-1.4 3.4-3.3 4 2.1 3.1 3.2 5 4.2 6.1.8.9 1.4 1.4 2.7 1.4v.6h-3.8c-2.1-2.3-3.7-5.1-5.3-7.7l-2.1.1zm12.7 3.9h.6c.4 1.8 1.7 3.4 3.7 3.4 1.8 0 3.2-1.2 3.2-3.1 0-4.3-6.9-3.1-6.9-8.5 0-3 2.1-4.5 5-4.5 1 0 1.9.2 2.9.3l.3 3h-.6c-.2-1.7-1.3-2.5-3-2.5-1.8 0-2.8 1.3-2.8 3 0 4.3 7.2 3.1 7.2 8.5 0 3-2.8 4.8-5.5 4.8-1.2 0-2.4-.3-3.5-.8l-.6-3.6zm14.3-10.2c0-1.7-.9-1.7-2.1-1.7v-.6h6.5v.6c-1.2 0-2.1 0-2.1 1.7v11.7c0 1.7.9 1.7 2.1 1.7v.6h-6.5v-.6c1.2 0 2.1 0 2.1-1.7V52.8zm21.9.8h-.7c-.1-1.2 0-2.1-1.9-2.1h-3.5v13.1c0 1.7.9 1.7 2.1 1.7v.6h-6.5v-.6c1.2 0 2.1 0 2.1-1.7V51.5h-3.1c-2.1 0-2.2.6-2.5 2.1h-.6l.2-3.7h.4c.2.7.9.7 1.4.7h10.6c.9 0 1.4-.2 1.5-.7h.4l.1 3.7zm12.3 10.9c0 1.7.9 1.7 2.1 1.7v.6h-6.5v-.6c1.2 0 2.1 0 2.1-1.7v-5.6l-4.9-6.8c-.7-1-.8-.9-2.2-1v-.6h6.1v.6c-.3 0-1.3 0-1.3.4 0 .3.3.8.8 1.4l3.3 4.5 3.1-4.2c.3-.4.9-1.1.9-1.7 0-.7-.4-.7-1.7-.7v-.6h4.5v.8c-1 0-1.4.7-1.9 1.3l-4.4 6v6.2zM94.2 31.7h.9c.7 2.9 2.8 5.6 6 5.6 2.9 0 5.2-2 5.2-5.1 0-7.1-11.3-5-11.3-13.9 0-4.9 3.5-7.4 8.1-7.4 1.5 0 3.1.3 4.6.6l.6 4.9h-.9c-.4-2.7-2.2-4.2-4.9-4.2-2.9 0-4.5 2.1-4.5 4.9 0 7.1 11.7 5.1 11.7 13.8 0 5-4.4 7.7-9 7.7-2 0-4-.4-5.8-1.3.1-.1-.7-5.6-.7-5.6zM114 18.3c-2.3 0-2.3.6-2.8 2.8h-.9c.1-.9.2-1.7.3-2.5.1-.9.2-1.7.2-2.5h.8c.2.9 1 .9 1.8.9H129c.8 0 1.5 0 1.7-.9l.8.1c-.1.8-.2 1.7-.3 2.4-.1.8-.1 1.7-.1 2.4l-.9.3c-.1-1.1-.2-2.9-2.2-2.9h-5.1v16.1c0 2.3 1.1 2.7 2.5 2.7h.6v.8c-1.2 0-3.3-.1-5-.1-1.8 0-4 .1-5.1.1v-.9h.6c1.7 0 2.5-.1 2.5-2.5V18.3h-5zm16.9 20c-1.2 0-2.4-1.1-2.4-2.4 0-1.2 1.1-2.4 2.4-2.4 1.3 0 2.4 1.1 2.4 2.4 0 1.4-1.1 2.4-2.4 2.4m19.8-3.6c0 5.1-.8 6.4-1.8 8.2-1 1.8-3.5 3.1-5.9 3.1-1.9 0-3.9-.8-3.9-2.5 0-1.1.9-1.7 1.5-1.7s1.2.4 1.2 1.3c0 1 1 1.7 2.1 1.7 3 0 3-4.8 3-7.7V15.2c0-2.7-1.4-2.7-3.4-2.8v-1c1.8 0 3.5.1 5.2.1 1.8 0 3.5 0 5.4-.1v1c-2 0-3.4.1-3.4 2.8v19.5zm15.1 2.3c5.9 0 6.9-5.2 6.9-9.6s-2.4-9.7-7.4-9.7c-5.3 0-6.9 4.8-6.9 8.7 0 5.5 2.5 10.6 7.4 10.6m-.5-20.7c6.4 0 11.6 4 11.6 10.4 0 7-5 11.6-11.4 11.6s-11.3-4.3-11.3-10.8c0-6.4 4.9-11.2 11.1-11.2m19.7 19c0 1.7 1.3 1.8 2.3 1.8h.6v.9c-1.3 0-3.3-.1-4.9-.1s-3.3.1-4.5.1v-.9h.4c1.1 0 2.2-.1 2.2-1.8V19.4c0-1.5-1.1-1.8-2.2-1.8h-.4v-.9c1.2 0 3 .1 4.5.1 1.7 0 3.5-.1 4.9-.1v1h-.6c-1.1 0-2.3.1-2.3 1.8v6.6h11v-6.6c0-1.7-1.2-1.8-2.3-1.8h-.6v-.9c1.3 0 3.3.1 4.9.1s3.3-.1 4.5-.1v.9h-.5c-1.1 0-2.2.1-2.2 1.8v15.8c0 1.5 1.1 1.8 2.2 1.8h.4v.9c-1.2 0-3-.1-4.5-.1-1.7 0-3.5.1-4.9.1v-.9h.6c1.1 0 2.3-.1 2.3-1.8v-7.6h-11v7.6zm39.6-3.4l.1-11.4c0-2.4-1.8-2.9-2.7-2.9h-.7v-.9c1.4 0 2.8.1 4.2.1 1.2 0 2.4-.1 3.8-.1v1h-.4c-1.2 0-2.7.2-2.7 3.9v13.7c0 1.1 0 2.1.2 3.1h-1.1L209.7 21v12.5c0 2.7.6 3.5 2.9 3.5h.6v1c-1.3 0-2.7-.1-3.9-.1-1.3 0-2.8.1-4.1.1v-.9h.4c2.1 0 2.8-1.4 2.8-3.9V20.4c0-1.7-1.4-2.8-2.8-2.8h-.4v-.9c1.1 0 2.3.1 3.4.1.9 0 1.8-.1 2.7-.1l13.3 15.2zm6.7-7.5c1.3-.2 3.1-1.1 3.1-2.5 0-.9-.7-1.1-1.3-1.3-.7-.2-1.2-.6-1.2-1.7 0-1.3 1-2.1 2.2-2.1 1.8 0 2.7 1.5 2.7 3.1 0 2.9-2.4 4.6-5 5.4l-.5-.9zm18.1-3.1c-.2-2-1.4-3.9-3.5-3.9-2.4 0-3.8 1.4-3.8 3.8 0 5 9.1 3.5 9.1 10.7 0 4.2-3.4 6.3-7.3 6.3-1.7 0-3.3-.6-4.8-1.3-.1-1.5-.3-3.1-.6-4.6l.9-.2c.3 2.5 1.8 4.9 4.6 4.9 2.1 0 3.8-1.3 3.8-3.4 0-5.3-8.9-3.7-8.9-11 0-4 2.8-6.3 6.6-6.3.9 0 3.4.3 4.3.4 0 1.4.1 2.9.3 4.3l-.7.3zm-187 17.9c0-1.8 1.4-3.2 3.2-3.2 1.8 0 3.2 1.4 3.2 3.2 0 .7-.1 1.1-.6 1.8-.4.8-5.9 8.1-5.9 8.1S57 41.6 56.6 41c-.4-.7-.6-1.1-.6-1.8 0-1.8 1.4-3.2 3.2-3.2s3.2 1.4 3.2 3.2m-18.7 2c-.8 0-1.4.3-1.9.8l-.1.1h-.1c-.1 0-.2-.1-.2-.2s0-.1.1-.2c.6-.4 1-1.2 1-2.1 0-.3 0-.4-.1-.8-.3-1-2.1-2.8-2.1-2.8s-1.8 1.9-2.1 2.8c-.1.3-.1.4-.1.8 0 .9.3 1.7 1 2.1 0 0 .1.1.1.2s-.1.2-.2.2h-.1s-.1 0-.1-.1c-.4-.4-1.1-.8-1.9-.8-1.5 0-2.7 1.2-2.7 2.8 0 1.2.8 2.2 1.8 2.5-.2-.3-.3-.7-.3-1 0-1.1.9-2 2-2 .6 0 1.1.2 1.4.7.3.4.4 1 .6 1.7h-1.8c-.3 0-.6.2-.6.6s.2.6.6.6h1.7c-.1.7-.4 1.2-.8 1.7h.8c0 .1-.1.2-.1.3 0 .6.4.9.9.9s.9-.4.9-.9c0-.1 0-.2-.1-.3h.8c-.4-.4-.7-1.1-.8-1.7h1.7c.3 0 .6-.2.6-.6s-.2-.6-.6-.6H41c0-.7.1-1.1.6-1.7.3-.4.9-.7 1.4-.7 1.1 0 2 .9 2 2 0 .3-.1.8-.3 1 1-.3 1.8-1.3 1.8-2.5 0-1.6-1.2-2.8-2.8-2.8"/><path d="M60.4 11.7c.2-.8.3-1.5.3-2.4-.9-.2-1.7-.6-2.4-1-.4-.2-1.4-1-1.5-1.1V3.4h-3.5c-.1-.9-.9-1.7-1.8-1.7s-1.7.7-1.8 1.7h-3.5v3.9s-.6.4-.9.7c0 0-.3.2-.4.2-.9.6-1.8.9-2.8 1.2 0 .8.1 1.7.3 2.3H30.7v13.5h11.4v-4.8h7.7c.6.1 1.1.3 1.8.9.6-.6 1.1-.8 1.8-.9h7.4v4.8h11.6V11.7h-12z" fill="#071c2c"/><path class="st0" d="M51.5 4.6c-.1 4.8-.4 9.5-.7 14.3h1.4c-.3-4.7-.5-9.5-.7-14.3zm-1.2 1.2c-.8 3.9-2.3 7.6-4.4 11.3l1 .7c1.7-4 2.8-7.9 3.4-12m-1.7.5c-1.3 2.4-3.2 4.8-5.8 6.6.1.4.3.8.6 1.2 2.3-2.3 4.1-4.9 5.2-7.8m5.8 0c1.1 2.8 2.9 5.4 5.2 7.7.2-.3.3-.8.6-1.2-2.6-1.7-4.5-4.1-5.8-6.5m-1.7-.5c.6 4 1.7 8.1 3.4 12l1-.7c-2.1-3.7-3.5-7.5-4.4-11.3"/><path d="M45.8 17c-.1 0-.1 0 0 0-.1 0-.1 0 0 0" fill="#061828"/><path class="st0" d="M25.8 34.1v1.8h-.6v-1.2h-.9v1.1h-.4v-1.1h-1v1.2h-.4v-1.8h3.3zm-2.9 3.2v.2c0 .7.4 1 1.2 1 .8 0 1.2-.3 1.2-1v-.2h-2.4zm2.9-.5v.9c0 1-.6 1.5-1.7 1.5s-1.7-.7-1.7-1.5v-.9h3.4z"/><defs><path id="SVGID_1_" d="M22.4 0h228.8v75.4H22.4z"/></defs><clipPath id="SVGID_2_"><use xlink:href="#SVGID_1_" overflow="visible"/></clipPath><path d="M25.8 40.4h-2.1c-.6 0-.8.2-.8.6s.2.6.8.6h2.1v.6h-2.1c-.9 0-1.2-.6-1.2-1.1 0-.7.3-1.1 1.2-1.1h2.1v.4z" clip-path="url(#SVGID_2_)" fill="#fff"/><g><defs><path id="SVGID_3_" d="M22.4 0h228.8v75.4H22.4z"/></defs><clipPath id="SVGID_4_"><use xlink:href="#SVGID_3_" overflow="visible"/></clipPath><path d="M22.6 45.2c-.1-.1-.1-.4-.1-.7 0-1 .7-1.5 1.7-1.5s1.8.4 1.8 1.4c0 .3-.1.7-.1.8h-.6c.1-.1.2-.3.1-.7 0-.6-.3-.9-1.2-.9s-1.2.4-1.2 1c0 .3.1.4.2.7-.1 0-.6-.1-.6-.1z" clip-path="url(#SVGID_4_)" fill="#fff"/></g><path class="st0" d="M24.1 47.5l1.4-.7-1.5-.2.1.9zm-.4.2l-.1-1.1-.9-.1-.1-.6 3.4.7.1.7-3.1 1.4-.1-.7.8-.3zm2.4 1.2l-.2-.7.6-.1.4 2-.4.1-.2-.7-2.8.7-.1-.6 2.7-.7zm1 2l.2.6-3.1 1.1-.2-.6 3.1-1.1zm-1.5 3.7c.1.3.6.6 1.4.1.9-.3 1-.8.9-1.1-.1-.3-.6-.6-1.4-.1-.9.3-1 .7-.9 1.1zm2.7-1.2c.2.7.1 1.4-1 1.9s-1.8.1-2.1-.6c-.2-.7-.1-1.4 1-1.9 1.1-.4 1.8 0 2.1.6zm.4 7.4c-.1-.1-.3-.2-.6-.6-.6-.8-.3-1.7.6-2.2.8-.6 1.7-.6 2.2.2.2.2.3.6.3.7l-.4.3c0-.1 0-.3-.2-.7-.3-.4-.8-.6-1.5-.1-.7.6-.8 1-.4 1.4.2.2.3.3.6.4-.2.1-.6.6-.6.6zm3-1.4l.4.4-1 .9.7.8 1-.9.3.3-2.3 2.3-.4-.4 1.1-1-.8-.7-1 1-.4-.4 2.4-2.3zm1.7 3.8c.2.2.6.2.8 0s.2-.4-.1-.7l-.2-.2-.7.8.2.1zm.4-1.6l.8.7c.4.4.6.9.1 1.3-.3.3-.7.3-1 .1.1.1.1.2 0 .6l-.6 1.2-.4-.5.4-1c.1-.2.1-.4-.1-.6l-.1-.1-1 1-.4-.4c-.1 0 2.3-2.3 2.3-2.3zm2.1 1.8l.4.3-2.1 2.5-.4-.2 2.1-2.6zm-.5 3c0 .1.2.4.4.6.2.1.4.2.7-.1.1-.2.1-.3 0-.7l-.1-.3c-.1-.3-.1-.7.1-1 .3-.4.9-.4 1.3-.1.3.2.4.4.4.6l-.2.2c-.1-.1-.2-.3-.4-.4-.2-.2-.4-.1-.6 0-.1.2-.1.3 0 .6l.1.3c.2.4.2.7-.1 1.1-.4.6-1 .6-1.4.1l-.6-.5.4-.4zm3.8 0l-.6-.3.2-.4 1.8 1.2-.2.3-.7-.4-1.5 2.4-.6-.3 1.6-2.5zm2 .8l.6.3-1.8 2.8-.6-.3 1.8-2.8zm1.4 3.3L43 69l-1.2 1.1.8.4zm-.1.5l-1-.6-.5.6-.6-.3 2.7-2.2.6.3-.9 3.3-.6-.3.3-.8zm2.6-1.5l.7.3-.3 2.9 1.2-2.3.6.3-1.7 2.9-.7-.3.3-2.9-1.2 2.3-.6-.3 1.7-2.9zm3.1 4.1l.3-1.5-1.1 1.2.8.3zm-.2.5l-1-.6-.6.7-.6-.3 2.5-2.4.6.3-.6 3.4-.6-.3c.2-.1.3-.8.3-.8zm7.6-.8l-1.1-1.1.4 1.5.7-.4zm.3.3l-1 .6.2.8-.6.3-.7-3.3.6-.3L57 74l-.6.3-.5-.7zm.4-3l.7-.4 2.3 1.7-1.4-2.2.4-.2 1.8 2.8-.6.4-2.3-1.7 1.3 2.2-.4.3-1.8-2.9zm3.3-2.1l.6-.3 1.8 2.9-.6.3-1.8-2.9zm4.3-2.1l.9 2.8-.3.2-2.2-1.9 1.5 2.3-.6.3-1.8-2.8.8-.6 1.9 1.8-.8-2.5.8-.4 1.8 2.8-.4.3-1.6-2.3zm3.6-.8l-1.3-1 .7 1.5c0 .1.6-.5.6-.5zm.5.4l-.9.8.3.8-.4.3-1.2-3.3.6-.4 2.9 1.9-.6.4-.7-.5zm-.2-3l1.3-1.1.3.3-.9.8.7.7.8-.8.3.3-.8.8.7.7.9-.8.3.3-1.3 1.2-2.3-2.4zm5.3-3.7c.2-.3.2-.6-.1-.8-.3-.2-.6-.2-.8.1l-.1.2.9.7c0 .1.1-.2.1-.2zm-1.7-.2l.6-.8c.4-.6.9-.7 1.4-.2.6.3.7.9.2 1.4l-.2.2 1.1.8-.3.5-2.8-1.9zm1.9-2.3l.8-1.5.4.2-.6 1 .8.4.6-.9.4.2-.6.9.9.6.6-1.1.4.2-.9 1.7-2.8-1.7zm3.1-3c.1-.3 0-.6-.2-.7-.3-.1-.6 0-.7.3l-.1.2.9.3c0 .1.1-.1.1-.1zm-1.7.2l.4-1c.2-.6.7-.8 1.2-.6.4.1.6.6.4.9.1-.1.2-.2.4-.2l1.3.1-.2.6-1.1-.1c-.2 0-.4.1-.4.3v.1l1.3.6-.4.7c.1 0-2.9-1.4-2.9-1.4zm1.1-3l.4-1.7.6.1-.3 1.1.9.2.2-1 .6.1-.3 1 1.4.3-.3.8-3.2-.9zm.8-3l.3-1.7h.4l-.2 1.2.9.1.2-1.1.4.1-.1 1.1.9.1.2-1.2.6.1-.3 1.8-3.3-.5zm3.8-4.7c.1.1.1.4.1.8 0 1-.8 1.4-1.8 1.4S77 44.9 77 44c0-.3.1-.7.2-.8l.6.1c-.1.1-.2.3-.2.7 0 .6.3 1 1.2 1s1.2-.3 1.2-.9c0-.3 0-.4-.1-.7l.5-.1zm-2.7-1.9v.7h-.6V40h.6v.8h2.8v.7l-2.8-.1zm-.5-2.7V38h3.3v.7h-3.3zm2.9-3.2c0-.4-.3-.7-1.2-.7-.9 0-1.2.3-1.2.7 0 .3.3.7 1.2.7.9 0 1.2-.2 1.2-.7zm-2.9 0c0-.7.6-1.3 1.7-1.3 1.2 0 1.7.7 1.7 1.3s-.6 1.3-1.7 1.3c-1.2.1-1.7-.6-1.7-1.3z"/></g><path id="Line" d="M91.3 76.9h160.3" fill="none" stroke="#fff" stroke-width=".562" stroke-miterlimit="10"/><g id="Layer_5"><path class="st0" d="M13.8 90.1h-.6v-.8c0-.2-.1-.4-.2-.7-.1-.2-.2-.3-.6-.4-.2-.1-.6-.1-1-.1H8.2v12.4c0 .4 0 .7.1.9.1.2.2.3.4.4.2.1.4.1.7.2h.8v.6H4v-.6h.8c.2 0 .4-.1.7-.2.2-.1.3-.2.4-.4.1-.2.1-.6.1-.9V88H3c-.4 0-.9 0-1.2.1s-.4.2-.6.4c-.1.1-.3.3-.3.7-.1.2-.2.6-.2.9H0l.2-3.5h.4c.1.1.1.2.2.3.2.1.3.1.4.2.1 0 .2.1.4.1h10.5c.4 0 .8 0 1-.1s.4-.2.4-.4h.4c.2 0-.1 3.4-.1 3.4z"/><path class="st0" d="M14.9 93.3c0-.2 0-.3-.1-.6l-.3-.3c-.1-.1-.3-.1-.6-.1h-.7v-.6h5.1v.6h-.7c-.2 0-.3.1-.6.1-.1.1-.2.1-.3.3-.1.1-.1.3-.1.6v3.3h6.1v-3.3c0-.2 0-.4-.1-.6l-.3-.3c-.1-.1-.3-.1-.6-.1H21v-.6h5.1v.6h-.7c-.2 0-.3.1-.6.1l-.3.3c-.1.1-.1.3-.1.6v7.7c0 .2 0 .3.1.6l.5.4c.1.1.3.1.6.1h.7v.6h-5.1v-.6h.7c.2 0 .3 0 .6-.1.1-.1.2-.1.3-.3s.1-.3.1-.6v-3.7h-6.1v3.7c0 .2 0 .4.1.6l.3.3c.1.1.3.1.6.1h.7v.6h-5.1v-.6h.7c.2 0 .3-.1.6-.1l.3-.3c.1-.1.1-.3.1-.6-.2 0-.2-7.8-.2-7.8zm22.3 9.3h-9.1v-.6h.7c.2 0 .3-.1.6-.1l.3-.3c.1-.1.1-.3.1-.6v-7.7c0-.2 0-.3-.1-.6l-.3-.3c-.1-.1-.3-.1-.6-.1h-.7v-.6h8.4l.1 2.3h-.4c-.1-.3-.1-.7-.2-.9-.1-.2-.2-.3-.4-.4s-.4-.2-.9-.2h-3.1v4.2h2.7c.2 0 .3-.1.4-.2.1-.1.2-.2.3-.4.1-.2.1-.6.1-.9h.6v3.5h-.6c0-.3 0-.6-.1-.8 0-.2-.1-.3-.2-.4-.1 0-.2-.1-.4-.1h-2.7v3.2c0 .2 0 .4.1.6s.2.3.4.4.4.2.8.2c.3 0 .7.1 1.1.1.6 0 1 0 1.3-.1.3 0 .6-.1.8-.2.2-.1.4-.3.6-.6s.3-.6.6-.9h.6c-.1.1-.8 2.5-.8 2.5zm8.3-3.6h.6c.1.4.2.8.4 1.2.2.4.4.8.8 1 .3.3.7.6 1 .8.3.2.8.2 1.2.2.4 0 .8-.1 1.2-.2.3-.1.7-.3 1-.6.2-.2.4-.6.7-.9.1-.3.2-.8.2-1.2 0-.6-.1-1-.3-1.3-.2-.3-.4-.7-.8-1-.3-.2-.7-.6-1-.8-.4-.2-.8-.4-1.2-.7-.4-.2-.8-.4-1.2-.7-.4-.2-.8-.6-1-.9-.3-.3-.6-.8-.8-1.2-.2-.4-.3-1-.3-1.7s.1-1.3.3-1.9.6-1 1-1.3c.4-.3.9-.7 1.5-.8.6-.2 1.2-.2 1.9-.2.4 0 .9 0 1.3.1s.9.1 1.3.2l.3 2.9H53c-.1-.8-.4-1.4-.9-1.8-.4-.4-1.1-.7-1.9-.7-.4 0-.8.1-1.1.2s-.6.3-.9.6c-.2.2-.4.6-.6.9s-.2.8-.2 1.1c0 .6.1 1 .3 1.3.2.3.4.7.8 1s.7.6 1.1.8c.4.2.8.4 1.2.7.4.2.9.4 1.2.7.4.2.8.6 1.1.9s.6.8.8 1.2.3 1 .3 1.7c0 .8-.1 1.3-.4 1.9s-.7 1-1.2 1.4c-.4.3-1 .7-1.7.9-.7.2-1.2.3-1.9.3-.6 0-1.2-.1-1.8-.2s-1.1-.3-1.7-.6V99zm21 3.2l-1 .3c-.3.1-.6.2-.8.2-.2.1-.6.1-.8.1h-1c-1 0-1.9-.1-2.7-.4-.8-.3-1.4-.7-2-1.2s-.9-1.1-1.2-1.8c-.3-.7-.4-1.4-.4-2.2 0-.9.1-1.7.4-2.3s.8-1.3 1.3-1.8 1.2-.9 1.9-1.1c.8-.2 1.5-.4 2.3-.4h.8c.2 0 .4.1.7.1.2 0 .3.1.6.1.2 0 .3.1.6.1.2 0 .4.1.7.1.2 0 .4.1.8.1l.1 2.5h-.3c0-.1 0-.3-.1-.6s-.2-.6-.6-.8c-.2-.3-.6-.6-1-.8s-1-.3-1.7-.3c-.4 0-1 .1-1.4.2s-1 .4-1.4.8c-.4.3-.8.9-1 1.4s-.4 1.3-.4 2.2c0 .7.1 1.2.3 1.9s.4 1.2.9 1.7c.3.6.8.9 1.3 1.2.6.3 1.1.4 1.8.4.3 0 .8 0 1.1-.1.3-.1.7-.2.9-.4.3-.2.6-.4.8-.8.2-.3.4-.8.7-1.3l.6.1c-.2.1-.8 2.8-.8 2.8zm3.9-8.9c0-.2 0-.3-.1-.6l-.3-.3c-.1-.1-.3-.1-.6-.1h-.7v-.6h5.1v.6h-.7c-.2 0-.3.1-.6.1-.1.1-.2.1-.3.3-.1.1-.1.3-.1.6v3.3h6.1v-3.3c0-.2 0-.4-.1-.6l-.3-.3c-.1-.1-.3-.1-.6-.1h-.7v-.6h5.1v.6H81c-.2 0-.3.1-.6.1l-.3.3c-.1.2-.1.4-.1.6v7.7c0 .2 0 .3.1.6l.3.3c.1.1.3.1.6.1h.7v.6h-5.1v-.6h.7c.2 0 .3 0 .6-.1.1-.1.2-.1.3-.3.1-.1.1-.3.1-.6v-3.7h-6.1v3.7c0 .2 0 .4.1.6l.3.3c.1.1.3.1.6.1h.7v.6h-5.1v-.6h.7c.2 0 .3-.1.6-.1l.3-.3c.1-.1.1-.3.1-.6-.1.1-.1-7.7-.1-7.7zM84 97.2c0-.9.2-1.7.6-2.3s.8-1.3 1.3-1.8c.6-.4 1.2-.9 2-1.1.8-.2 1.5-.4 2.3-.4.9 0 1.7.1 2.4.4.8.3 1.3.7 1.9 1.2s.9 1.1 1.2 1.8c.3.7.4 1.4.4 2.2 0 .4-.1.9-.2 1.3s-.3.9-.6 1.3l-.9 1.2c-.3.3-.8.7-1.2 1-.4.2-1 .4-1.5.7-.6.1-1.1.2-1.8.2-.9 0-1.8-.1-2.5-.4-.8-.3-1.4-.7-1.9-1.2-.6-.6-.9-1.1-1.2-1.8-.2-.8-.3-1.5-.3-2.3zm2.2-.2c0 .8.1 1.4.3 2.1.2.7.6 1.2.9 1.7s.8.9 1.3 1.1 1 .4 1.7.4 1.3-.1 1.8-.4c.4-.3.9-.7 1.1-1.1.3-.4.4-1 .6-1.5.1-.6.2-1.2.2-1.8 0-.8-.1-1.4-.3-2.1-.2-.7-.4-1.2-.9-1.7-.3-.4-.8-.8-1.3-1-.6-.2-1-.3-1.7-.3s-1.2.1-1.7.4c-.4.2-.9.7-1.1 1.1s-.6 1-.7 1.5c-.2.4-.2.9-.2 1.6zm12.7.2c0-.9.2-1.7.6-2.3.2-.8.8-1.3 1.3-1.9.6-.4 1.2-.9 2-1.1.8-.2 1.5-.4 2.3-.4.9 0 1.7.1 2.4.4.8.3 1.3.7 1.9 1.2s.9 1.1 1.2 1.8c.3.7.4 1.4.4 2.2 0 .4-.1.9-.2 1.3s-.3.9-.6 1.3c-.2.4-.6.8-.9 1.2-.3.3-.8.7-1.2 1-.4.2-1 .4-1.5.7-.6.1-1.1.2-1.8.2-.9 0-1.8-.1-2.5-.4-.8-.3-1.4-.7-1.9-1.2-.6-.6-.9-1.1-1.2-1.8-.2-.7-.3-1.4-.3-2.2zm2.1-.2c0 .8.1 1.4.3 2.1.2.7.6 1.2.9 1.7s.8.9 1.3 1.1 1 .4 1.7.4 1.3-.1 1.8-.4.9-.7 1.1-1.1c.3-.4.4-1 .6-1.5.1-.6.2-1.2.2-1.8 0-.8-.1-1.4-.3-2.1-.2-.7-.4-1.2-.9-1.7-.3-.4-.8-.8-1.3-1-.6-.2-1-.3-1.7-.3s-1.2.1-1.7.4c-.4.2-.9.7-1.1 1.1s-.6 1-.7 1.5c-.1.4-.2.9-.2 1.6zm14.4-3.7c0-.2 0-.3-.1-.6l-.3-.3c-.1-.1-.3-.1-.6-.1h-.7v-.6h5.3v.6h-.7c-.2 0-.3.1-.6.1-.1.1-.2.1-.3.3-.1.1-.1.3-.1.6v7.4c0 .2 0 .4.1.6 0 .1.1.3.3.3.1.1.3.1.7.2.2 0 .7.1 1.1.1s.9 0 1.2-.1c.3 0 .6-.1.9-.3.2-.1.4-.3.7-.7.2-.2.3-.7.6-1.1h.6l-.7 2.8h-8.9v-.5h.7c.2 0 .3-.1.6-.1l.3-.3c.1-.1.1-.3.1-.6l-.2-7.7zm15.5 3.9c0-.9.2-1.7.6-2.3s.8-1.3 1.3-1.8c.6-.4 1.2-.9 2-1.1s1.5-.4 2.3-.4c.9 0 1.7.1 2.4.4.8.3 1.3.7 1.9 1.2s.9 1.1 1.2 1.8c.3.7.4 1.4.4 2.2 0 .4-.1.9-.2 1.3s-.3.9-.6 1.3c-.2.4-.6.8-.9 1.2-.3.3-.8.7-1.2 1-.4.2-1 .4-1.5.7-.6.1-1.1.2-1.8.2-.9 0-1.8-.1-2.5-.4s-1.4-.7-1.9-1.2c-.6-.6-.9-1.1-1.2-1.8-.2-.8-.3-1.5-.3-2.3zm2.2-.2c0 .8.1 1.4.3 2.1.2.7.6 1.2.9 1.7.3.4.8.9 1.3 1.1.6.2 1 .4 1.7.4s1.3-.1 1.8-.4c.4-.3.9-.7 1.1-1.1.3-.4.4-1 .6-1.5.1-.6.2-1.2.2-1.8 0-.8-.1-1.4-.3-2.1s-.4-1.2-.9-1.7c-.3-.4-.8-.8-1.3-1-.6-.2-1-.3-1.7-.3s-1.2.1-1.7.4c-.4.2-.9.7-1.1 1.1s-.6 1-.7 1.5c-.2.4-.2.9-.2 1.6zm13.9-3.7c0-.2 0-.3-.1-.6l-.3-.3c-.1-.1-.3-.1-.6-.1h-.7v-.6h9l.1 2.4h-.4c-.1-.3-.1-.7-.2-.9-.1-.2-.2-.4-.4-.6s-.4-.2-.8-.2H149v4.2h2.8c.2 0 .3-.1.4-.1.1-.1.2-.2.3-.4.1-.2.1-.4.1-.8h.6V99h-.6c0-.3 0-.7-.1-.8 0-.2-.1-.3-.2-.4-.1-.1-.3-.1-.4-.2H149v3.2c0 .3 0 .6.1.8.1.2.1.3.3.4.1.1.3.2.4.2.2 0 .4.1.7.1h.4v.6h-5.6v-.6h.7c.2 0 .3-.1.6-.1l.3-.3c.1-.1.1-.3.1-.6v-8zm19.6.9h2.9c.4 0 .8-.1 1-.2s.4-.3.6-.6c.1-.2.2-.4.2-.7 0-.2 0-.3.1-.6h.4V97h-.4c0-.6 0-.9-.1-1.2-.1-.3-.2-.6-.4-.7s-.5-.1-.9-.1h-3.4v5.3c0 .4.1.7.2 1 .1.2.3.4.7.4.3.1.8.1 1.3.1h1.3c.6 0 1-.1 1.4-.1.4-.1.8-.2 1.1-.4.3-.2.6-.4.8-.8.2-.3.4-.8.7-1.4l.6.1c-.2.6-.3 1.1-.6 1.7-.1.6-.3 1.1-.4 1.7h-11.5v-.6c.4 0 .9 0 1.1-.1l.7-.3c.2-.1.2-.4.2-.8 0-.3.1-.8.1-1.3v-9.7c0-.4 0-.8-.1-1.1 0-.2-.1-.4-.3-.6-.1-.1-.3-.2-.7-.2-.2 0-.7-.1-1.1-.1v-.6h10.8v3.3l-.4.1c-.1-.6-.2-1-.3-1.3-.2-.3-.4-.7-.7-.9-.3-.2-.7-.3-1-.4-.4-.1-.9-.1-1.4-.1h-2.5c-.1-.1 0 6.3 0 6.3zm11.2-.9c0-.2 0-.3-.1-.6l-.3-.3c-.1-.1-.3-.1-.6-.1h-.7v-.6h6c.8 0 1.4.1 2 .2.6.1 1.1.3 1.7.6.4.2.9.6 1.2.9.3.3.7.7.9 1.1l.6 1.2c.1.4.1.9.1 1.3 0 .7-.1 1.3-.2 1.9-.1.6-.4 1-.7 1.4-.3.4-.7.8-1.1 1-.4.3-.9.6-1.3.7-.4.2-1 .3-1.5.3-.6.1-1.1.1-1.5.1h-6v-.4h.7c.2 0 .3-.1.6-.1l.3-.3c.1-.1.1-.3.1-.6l-.2-7.7zm2 7.2c0 .3 0 .6.1.8.1.2.2.3.3.4.1.1.3.1.6.2h.8c.3 0 .8 0 1.1-.1.3 0 .8-.1 1.1-.2.3-.1.7-.3 1-.6.3-.2.6-.4.9-.8.2-.3.4-.8.6-1.2.1-.4.2-1 .2-1.7s-.1-1.3-.2-1.9c-.1-.6-.4-1.1-.8-1.5-.3-.4-.8-.8-1.3-1-.6-.2-1.2-.3-1.9-.3h-2.4l-.1 7.9zm12.1-7.4c0-.2 0-.3-.1-.4-.1-.1-.2-.2-.3-.2-.1 0-.3-.1-.4-.1h-.4v-.6h4.9v.6h-.6c-.2 0-.3 0-.4.1-.1 0-.2.1-.3.2-.1.1-.1.2-.1.4v6c0 .6.1 1 .2 1.3.1.3.3.7.7.9.2.2.6.4 1 .6.3.1.8.1 1.2.1.6 0 1-.1 1.3-.2.3-.1.7-.3.9-.6s.4-.4.6-.8c.1-.3.2-.7.2-1 .1-.3.1-.7.1-1.1v-3.8c0-.6 0-1-.1-1.3s-.1-.6-.2-.8c-.1-.1-.3-.2-.6-.3-.2 0-.6-.1-.9-.1v-.6h4v.6h-.6c-.1 0-.3.1-.4.2s-.2.2-.3.4c-.1.2-.1.4-.1.9V98c0 .7-.1 1.2-.2 1.8-.1.6-.4 1-.8 1.4-.3.4-.8.8-1.3 1-.6.2-1.2.3-2.1.3-.7 0-1.3-.1-1.9-.2-.6-.1-1-.3-1.4-.7s-.7-.7-.9-1.1-.3-1-.3-1.7l-.4-5.7zm22.1 9.1l-1 .3c-.2.1-.6.2-.8.2-.2.1-.6.1-.8.1h-1c-1 0-1.9-.1-2.7-.4-.8-.3-1.4-.7-2-1.2-.6-.6-.9-1.1-1.2-1.8-.2-.7-.4-1.4-.4-2.2 0-.9.1-1.7.4-2.3.3-.7.8-1.3 1.3-1.8.6-.4 1.2-.9 1.9-1.1.8-.2 1.5-.4 2.3-.4h.8c.2 0 .4.1.7.1.2 0 .3.1.6.1s.3.1.6.1.4.1.7.1c.2 0 .4.1.8.1l.1 2.5h-.6c0-.1 0-.3-.1-.6-.1-.2-.2-.6-.6-.8-.2-.3-.6-.6-1-.8s-1-.3-1.7-.3c-.4 0-1 .1-1.5.2-.6.1-1 .4-1.4.8-.4.3-.8.9-1 1.4s-.4 1.3-.4 2.2c0 .7.1 1.2.3 1.9s.4 1.2.9 1.7c.3.6.8.9 1.3 1.2.6.3 1.1.4 1.8.4.3 0 .8 0 1.1-.1.3-.1.7-.2.9-.4.3-.2.6-.4.8-.8.2-.3.4-.8.7-1.3l.6.1-.4 2.8zm8.5-.1h.7c.1 0 .2 0 .3-.1.1 0 .2-.1.2-.1.1-.1.1-.1.1-.2v-.3c0-.1-.1-.2-.1-.3l-.8-2.2h-3.8l-.4 1.4c0 .1 0 .2-.1.3-.1.1-.1.2-.1.4 0 .1-.1.2-.1.4v.3c0 .1 0 .2.1.3.1.1.2.1.3.2.1 0 .2.1.3.1h.6v.6h-4v-.6c.3 0 .6 0 .7-.1.2 0 .3-.1.4-.2l.3-.3c.1-.1.1-.2.2-.3l3.2-8.1c.1-.1.1-.2.1-.3 0-.1.1-.2.1-.3v-.2l1.7-.7 3.3 9.4c.1.2.2.4.2.7.1.2.2.3.3.4.1.1.3.2.6.2s.4.1.8.1v.6h-4.9l-.2-1.1zm-1.4-8.8l-1.7 4.4h3.2l-1.5-4.4zm10.8-.9h-2.4c-.2 0-.4.1-.6.2-.1.1-.2.3-.3.6-.1.2-.2.6-.3.9h-.6l.3-2.9h.4c0 .1 0 .2.1.2.1.1.1.1.2.1s.2.1.3.1h7.7c.1 0 .2 0 .3-.1.1 0 .2-.1.2-.1l.3-.3h.4l.1 2.9h-.6c0-.3-.1-.7-.1-.9 0-.2-.1-.4-.2-.6s-.2-.2-.3-.2c-.1 0-.3-.1-.6-.1H234v8.6c0 .2 0 .3.1.6l.3.3c.1.1.3.1.6.1h.8v.6h-5.5v-.6h.8c.2 0 .4-.1.6-.1l.3-.3c.1-.1.1-.3.1-.6l-.2-8.4zm9.2.9c0-.2 0-.3-.1-.6l-.3-.3c-.1-.1-.3-.1-.6-.1h-.7v-.6h5.3v.6h-.7c-.2 0-.3.1-.6.1l-.3.3c-.1.1-.1.3-.1.6v7.7c0 .2 0 .3.1.6l.3.3c.1.1.3.1.6.1h.7v.6h-5.3v-.6h.7c.2 0 .3-.1.6-.1l.3-.3c.1-.1.1-.3.1-.6v-7.7zm6 3.9c0-.9.2-1.7.6-2.3.3-.7.8-1.3 1.3-1.8.6-.4 1.2-.9 2-1.1.8-.2 1.5-.4 2.3-.4.9 0 1.7.1 2.4.4.8.3 1.3.7 1.9 1.2s.9 1.1 1.2 1.8c.3.7.4 1.4.4 2.2 0 .4-.1.9-.2 1.3s-.3.9-.6 1.3c-.2.4-.6.8-.9 1.2-.3.3-.8.7-1.2 1-.4.2-1 .4-1.5.7-.6.1-1.1.2-1.8.2-.9 0-1.8-.1-2.5-.4-.8-.3-1.4-.7-1.9-1.2-.6-.6-.9-1.1-1.2-1.8-.3-.6-.3-1.5-.3-2.3zm2.1-.2c0 .8.1 1.4.3 2.1.2.7.6 1.2.9 1.7.3.4.8.9 1.3 1.1.6.2 1.1.4 1.7.4.7 0 1.3-.1 1.8-.4.4-.3.9-.7 1.1-1.1.3-.4.4-1 .6-1.5.1-.6.2-1.2.2-1.8 0-.8-.1-1.4-.3-2.1s-.4-1.2-.9-1.7c-.3-.4-.8-.8-1.3-1-.6-.2-1-.3-1.7-.3s-1.2.1-1.7.4c-.4.2-.9.7-1.1 1.1s-.6 1-.7 1.5c-.1.4-.2.9-.2 1.6zm13.8-3.6c0-.2-.1-.4-.2-.6-.1-.1-.3-.2-.6-.3-.2-.1-.4-.1-.6-.1h-.4v-.6h3.1l6.8 8V94c0-.3 0-.7-.1-.9-.1-.2-.2-.3-.3-.4s-.3-.1-.6-.2h-.8v-.6h4.2v.6h-.7c-.2 0-.3.1-.4.1l-.3.3c-.1.1-.1.3-.1.7v9.4h-.6l-7.5-8.7v5.9c0 .4 0 .8.1 1 0 .2.1.4.2.6.1.1.3.2.6.3.2.1.6.1 1 .1v.6h-4.5v-.6c.4 0 .8-.1 1-.2s.4-.2.6-.4c.1-.2.2-.4.2-.8l-.1-7.4z"/></g></svg>
