<svg version="1.1" id="Layer_1" xmlns="http://www.w3.org/2000/svg" xmlns:xlink="http://www.w3.org/1999/xlink" x="0" y="0" height="116" width="274" viewBox="0 0 273.8 116.6" xml:space="preserve"><style>.st0{fill:#fff}.st2{fill:#061828}</style><g id="Logo"><path class="st0" d="M47.7 40.8c0 7.3-3.6 13.7-10.1 18-4.4 3-9.1 5.6-9.1 5.6V31.1c0-.7.6-1.3 1.3-1.3h6.8v-4.4h11.1v15.4zM27.5 26v2.4H27v-3.2h.7l1.1 2.4v-2.4h.6v3.2h-.7L27.5 26zm-.3 38.4s-4.6-2.5-9.1-5.6C11.5 54.4 8 48.1 8 40.8V25.5h10.9v4.4h7.3c.6.1 1 .6 1.1 1.2v33.3h-.1zM22 25.2h.7l1.1 3.2h-.6l-.2-.7h-1.2l-.3.7h-.6l1.1-3.2zm1.4-3.9h1.7v.5H24v.8h1v.4h-1v.9h1.1v.5h-1.7v-3.1zm2.1 6.6h.4V27h-.6v-.5h1.2v1.7c-.3.1-.6.2-.9.2-.9 0-1.6-.5-1.6-1.6s.6-1.7 1.6-1.7c.3 0 .6.1.9.1v.5c-.2-.1-.5-.2-.7-.2-.7 0-1.1.5-1.1 1.1-.2.8.1 1.3.8 1.3zm1.5-6.7c.2 0 .4 0 .7.1v.5c-.2-.1-.4-.2-.6-.2-.6 0-1 .5-1 1.1 0 .6.4 1.1 1 1.1.2 0 .5-.1.6-.1v.5c-.2.1-.4.1-.7.1-.9 0-1.6-.5-1.6-1.6 0-.9.6-1.5 1.6-1.5zm2.5 0c.2 0 .4 0 .7.1v.5c-.2-.1-.4-.2-.6-.2-.6 0-1 .5-1 1.1 0 .6.4 1.1 1 1.1.2 0 .5-.1.6-.1v.5c-.2.1-.4.1-.7.1-.9 0-1.6-.5-1.6-1.6 0-.9.7-1.5 1.6-1.5zm1.6 6.7c.4 0 .6-.4.6-.9v-1.8h.6v2c0 .8-.4 1.2-1.2 1.2-.7 0-1.2-.3-1.2-1.2v-2h.6V27c0 .5.2.9.6.9zm-.5-6.6h1.7v.5h-1.1v.8h1v.4h-1v.9h1.1v.5h-1.7v-3.1zm3.2 3.8c.3 0 .5 0 .7.1l-.1.5c-.2-.1-.4-.1-.6-.1-.2 0-.5.1-.5.4 0 .5 1.3.3 1.3 1.4 0 .7-.5 1-1.1 1-.3 0-.5 0-.7-.1l.1-.6c.2.1.4.2.7.2.2 0 .5-.1.5-.4 0-.6-1.3-.4-1.3-1.4 0-.7.5-1 1-1zm4.7-15.6V7.6l-1.3-.4c-.7-.2-1.3-.5-1.9-.8l-.1-.1c-.1-.1-.3-.2-.5-.3V1.6h-4C30.1.6 29 0 27.9 0c-1.2 0-2.2.6-2.9 1.6h-4v4.6h-.1s-.2.1-.3.2c-.7.4-1.4.7-2.2 1l-1.3.4v1.9h-11V41c0 7.9 3.9 14.8 10.9 19.5 4.5 3 9.7 5.9 10 6l.9.5.8-.5c.2-.1 5.4-3 9.9-6 7-4.7 10.9-11.6 10.9-19.5V9.5h-11z"/><path class="st0" d="M22.3 25.8l-.4 1.3h.8zM83.9 49c-1.8 0-1.8.9-1.8 3.6V59c0 3-1.9 5.3-5.8 5.3-3.7 0-5.9-1.8-6-5.6v-8.2c0-1.6-.8-1.6-2-1.6v-.6H74.6v.7c-1.2 0-2 0-2 1.6v7.6c0 2.7.9 5.2 4.4 5.2 3.7 0 4.1-2.9 4.1-4.4v-6.4c0-3.7-.1-3.6-2.1-3.7v-.6h5.1l-.2.7zM102.6 64.2h-.5L90.4 51.4v8.3c0 3.1.2 3.7 2.7 3.7v.6h-6v-.6c1.4 0 2.4 0 2.4-2.8v-9c0-1.9-.8-2.6-2.7-2.6v-.6H90.7c.9 1.4 3 3.4 5.5 6.2 1.9 2.1 4 4.3 5.5 6v-8.9c0-2.1-.5-2.7-2.7-2.7v-.6h5.7v.6c-1.4 0-2.1.1-2.1 2.3v12.9zM109.6 50.6c0-1.6-.8-1.6-2-1.6v-.6H113.9v.6c-1.2 0-2 0-2 1.6v11.2c0 1.6.9 1.6 2 1.6v.6h-6.2v-.6c1.2 0 2 0 2-1.6V50.6h-.1zM120.5 55.1c-.6-1.4-1.2-2.9-1.7-4.3-.5-1.3-.9-1.8-2.3-1.8v-.6h6v.6c-.3 0-.6 0-1 .1-.3 0-.6.2-.6.5 0 .7 1.2 3.4 1.4 4.1l3 7.6 1.7-4.4c.5-1.5 1.2-2.9 1.6-4.3.2-.7.7-1.8.7-2.5 0-1.1-.9-1-1.7-1v-.6h4.7v.5c-.8 0-1.2.3-1.5.9-.1.2-1.7 4.1-1.7 4.2L125 64.3h-.8l-3.7-9.2zM139.1 55.4h3c1.8 0 1.8-1.4 1.9-1.9h.4c0 .5-.1 1.7-.1 2.5 0 .7.1 1.8.1 2.5h-.4c0-2.1-.7-2.1-2.4-2.1h-2.4v3.8c0 2.5.1 3.1 2.3 3.1h1.4c2.2-.1 3.2-.4 4-2.8l.5.1c-.4 1.1-.7 2.3-.9 3.4h-11.7v-.6c1.9 0 2.1-.4 2.1-2.5V51c0-1.8-.4-1.9-2.1-2v-.6h10.9v3.3l-.4.1c-.3-2.1-1.3-2.7-3.6-2.7h-2.6v6.3zM154.8 49.1c-.6 0-.9.1-1.3.1v6.6c.3.1.8.1 1.2.1 2.7 0 3.8-1.8 3.8-3.4 0-2-1-3.4-3.7-3.4m-1.3 7.5v5.2c0 1.6.9 1.6 2 1.6v.6h-6.2v-.6c1.1.1 2-.2 2-1.5V50.6c0-1.6-.8-1.6-2-1.6v-.6h6.4c4.2 0 5.2 2.4 5.2 4 0 1.9-1.4 3.3-3.2 3.8 2 3 3.1 4.8 4.1 5.8.7.8 1.4 1.4 2.5 1.4v.6H160.7c-2-2.2-3.5-4.8-5.1-7.4h-2.1zM165.7 60.3h.5c.4 1.7 1.6 3.3 3.5 3.3 1.7 0 3.1-1.2 3.1-3 0-4.2-6.6-2.9-6.6-8.2 0-2.9 2.1-4.4 4.8-4.4.9 0 1.8.2 2.7.3l.4 2.9h-.5c-.2-1.6-1.3-2.5-2.9-2.5-1.7 0-2.7 1.2-2.7 2.9 0 4.2 6.9 3 6.9 8.2 0 2.9-2.6 4.5-5.3 4.5-1.2 0-2.4-.3-3.4-.8l-.5-3.2zM179.4 50.6c0-1.6-.9-1.6-2-1.6v-.6H183.7v.6c-1.2 0-2 0-2 1.6v11.2c0 1.6.8 1.6 2 1.6v.6h-6.2v-.6c1.2 0 2 0 2-1.6l-.1-11.2zM200.4 51.3h-.6c-.1-1.2 0-2-1.8-2h-3.4v12.5c0 1.6.9 1.6 2 1.6v.6h-6.2v-.6c1.2 0 2 0 2-1.6V49.3h-2.9c-2 0-2.1.6-2.5 2h-.6l.2-3.6h.4c.2.6.8.6 1.4.6h10.1c.8 0 1.4-.2 1.5-.6h.5l-.1 3.6zM212.2 61.8c0 1.6.8 1.6 2 1.6v.6H207.9v-.6c1.2 0 2 0 2-1.6v-5.4l-4.7-6.4c-.7-.9-.8-.9-2.1-1v-.6H208.9v.6c-.4 0-1.3 0-1.3.5 0 .3.3.8.7 1.4l3.1 4.4 2.9-4c.3-.4.9-1.1.9-1.6 0-.6-.4-.6-1.6-.6v-.6h4.4v.5c-.9 0-1.4.6-1.9 1.3l-4.3 5.8.4 5.7zM68.8 30.3h.8c.6 2.7 2.7 5.4 5.7 5.4 2.8 0 5-2 5-4.8 0-6.8-10.8-4.8-10.8-13.3 0-4.7 3.3-7.1 7.8-7.1 1.5 0 3 .3 4.4.5l.6 4.7h-.8c-.4-2.5-2.1-4-4.7-4-2.8 0-4.4 2-4.4 4.7 0 6.8 11.2 4.9 11.2 13.3 0 4.7-4.3 7.4-8.5 7.4-1.9 0-3.9-.4-5.6-1.2l-.7-5.6zM87.8 17.5c-2.2 0-2.3.5-2.7 2.6h-.9c.1-.8.3-1.6.3-2.5.1-.8.2-1.6.2-2.5h.7c.2.9 1 .8 1.7.8h15c.8 0 1.5 0 1.6-.9l.7.1-.3 2.4c-.1.8-.1 1.6-.1 2.3l-.9.3c-.1-1.1-.2-2.8-2.1-2.8h-4.8v15.4c0 2.2 1 2.5 2.4 2.5h.5v.9c-1.1 0-3.2-.1-4.7-.1-1.7 0-3.8.1-4.9.1v-.9h.6c1.6 0 2.4-.1 2.4-2.4V17.5h-4.7zM103.9 36.7c-1.2 0-2.3-1-2.3-2.3 0-1.2 1.1-2.3 2.3-2.3 1.2 0 2.3 1.1 2.3 2.3 0 1.3-1.1 2.3-2.3 2.3M122.9 33.2c0 4.9-.7 6.2-1.7 7.9-1 1.7-3.3 3-5.7 3-1.8 0-3.7-.7-3.7-2.4 0-1.1.8-1.6 1.5-1.6.6 0 1.2.4 1.2 1.3 0 1 .9 1.6 2 1.6 2.9 0 2.9-4.5 2.9-7.5v-21c0-2.5-1.4-2.6-3.3-2.6V11c1.7 0 3.4.1 5 .1 1.7 0 3.3 0 5.2-.1v.9c-1.9 0-3.3.1-3.3 2.6l-.1 18.7zM137.3 35.5c5.6 0 6.6-5 6.6-9.2 0-4.2-2.3-9.4-7.1-9.4-5.1 0-6.6 4.5-6.6 8.4.1 5.2 2.4 10.2 7.1 10.2m-.4-19.9c6.2 0 11.1 3.8 11.1 10 0 6.7-4.8 11.1-11 11.1s-10.8-4.2-10.8-10.4c0-6 4.7-10.7 10.7-10.7M155.7 33.8c0 1.6 1.2 1.7 2.3 1.7h.6v.9c-1.3 0-3.1-.1-4.7-.1-1.5 0-3.2.1-4.4.1v-.9h.4c1 0 2.1-.1 2.1-1.7V18.6c0-1.5-1.1-1.6-2.1-1.6h-.4v-.9c1.2 0 2.9.1 4.4.1 1.6 0 3.4-.1 4.7-.1v.9h-.6c-1 0-2.3.1-2.3 1.6V25h10.5v-6.4c0-1.6-1.2-1.6-2.3-1.6h-.6v-.9c1.3 0 3.1.1 4.7.1 1.5 0 3.2-.1 4.4-.1v.9h-.4c-1 0-2.1.1-2.1 1.6v15.2c0 1.5 1.1 1.7 2.1 1.7h.4v.9c-1.2 0-2.9-.1-4.4-.1-1.6 0-3.4.1-4.7.1v-.9h.6c1 0 2.3-.1 2.3-1.7v-7.2h-10.5v7.2zM193.7 30.6l.1-10.9c0-2.4-1.7-2.7-2.5-2.7h-.6v-.9c1.4 0 2.7.1 4.1.1 1.2 0 2.4-.1 3.6-.1v.9h-.4c-1.2 0-2.6.2-2.6 3.7v13.2c0 1 0 2 .2 2.9h-1.1l-14.9-16.6V32c0 2.5.5 3.4 2.7 3.4h.5v.9c-1.2 0-2.5-.1-3.7-.1-1.3 0-2.6.1-3.9.1v-.9h.4c2 0 2.6-1.4 2.6-3.7V19.5c0-1.6-1.3-2.6-2.6-2.6h-.4V16c1.1 0 2.2.1 3.3.1.9 0 1.7-.1 2.6-.1l12.6 14.6zM200.1 23.4c1.3-.2 3-1 3-2.5 0-.9-.6-1-1.2-1.3-.6-.2-1.2-.5-1.2-1.6 0-1.2 1-2 2.1-2 1.7 0 2.6 1.5 2.6 3 0 2.8-2.4 4.5-4.8 5.2l-.5-.8zM217.4 20.4c-.2-1.9-1.4-3.7-3.4-3.7-2.3 0-3.6 1.4-3.6 3.7 0 4.8 8.7 3.4 8.7 10.3 0 4-3.3 6.1-7 6.1-1.6 0-3.2-.6-4.6-1.3-.2-1.5-.4-2.9-.5-4.4l.8-.2c.3 2.5 1.7 4.6 4.5 4.6 2 0 3.6-1.2 3.6-3.3 0-5.1-8.5-3.5-8.5-10.5 0-3.8 2.7-6 6.4-6 .8 0 3.3.3 4.2.4 0 1.4.1 2.8.3 4.1l-.9.2zM38.3 37.5c0-1.7 1.4-3.1 3.1-3.1s3.1 1.4 3.1 3.1c0 .6-.1 1-.5 1.7-.5.8-5.6 7.8-5.6 7.8s-5.2-7.1-5.6-7.7c-.4-.6-.5-1.1-.5-1.7 0-1.7 1.4-3.1 3.1-3.1s3 1.3 2.9 3M20.5 39.4c-.7 0-1.3.3-1.8.7l-.1.1h-.1c-.1 0-.2-.1-.2-.3 0-.1 0-.1.1-.2.6-.5.9-1.2.9-2.1 0-.3 0-.4-.1-.7-.3-.9-2-2.7-2-2.7s-1.7 1.8-2 2.7c-.1.3-.1.4-.1.7 0 .9.4 1.6.9 2.1 0 0 .1.1.1.2s-.1.3-.2.3h-.1s-.1 0-.1-.1c-.5-.5-1.1-.7-1.8-.7-1.4 0-2.6 1.2-2.6 2.6 0 1.1.7 2.1 1.7 2.4-.2-.3-.3-.6-.3-1 0-1.1.9-1.9 1.9-1.9.6 0 1.1.2 1.4.6.3.4.5.9.5 1.5h-1.7c-.3 0-.5.2-.5.5s.2.5.5.5h1.6c-.1.6-.4 1.2-.8 1.6h.8c-.1.1-.1.2-.1.4 0 .5.4.9.9.9s.9-.4.9-.9c0-.1 0-.3-.1-.4h.8c-.4-.5-.6-1-.8-1.6h1.6c.3 0 .5-.2.5-.5s-.2-.5-.5-.5h-1.7c0-.6.1-1.1.5-1.5.4-.4.9-.6 1.4-.6 1.1 0 1.9.9 1.9 1.9 0 .4-.1.7-.3 1 1-.4 1.7-1.3 1.7-2.4 0-1.4-1.2-2.6-2.6-2.6"/><path d="M36.5 11.3c.2-.7.3-1.5.3-2.3-.8-.2-1.6-.6-2.4-1-.4-.2-1.4-1-1.5-1.1V3.3h-3.4c-.1-.9-.8-1.6-1.7-1.6-.9 0-1.6.7-1.7 1.6h-3.4V7s-.6.4-.8.6c0 0-.3.2-.4.2-.8.5-1.7.9-2.7 1.2 0 .8.1 1.5.3 2.3H7.9v12.9h10.9v-4.5h7.4c.6.1 1.1.3 1.7.8.6-.5 1.1-.7 1.7-.8H36.7v4.5h11.1V11.3H36.5z" fill="#071c2c"/><path class="st0" d="M27.8 4.5c-.2 4.6-.4 9.1-.6 13.7H28.5c-.2-4.6-.5-9.1-.7-13.7zM26.6 5.5c-.8 3.7-2.2 7.4-4.2 10.8.3.2.7.5 1 .7 1.6-3.7 2.7-7.6 3.2-11.5.1 0 0 0 0 0M25.1 6.1c-1.3 2.3-3.1 4.5-5.5 6.3.1.4.3.8.5 1.1 2.3-2.2 4-4.7 5-7.4M30.6 6.1c1 2.7 2.7 5.2 5 7.4.2-.4.3-.7.5-1.1-2.4-1.8-4.3-4-5.5-6.3M29 5.5c.5 3.9 1.6 7.7 3.2 11.4.3-.2.7-.4 1-.7-2-3.3-3.4-7-4.2-10.7"/><path class="st2" d="M22.4 16.3s-.1 0 0 0c-.1 0 0 0 0 0M20.1 13.6"/><path class="st0" d="M3.2 32.7v1.6h-.4v-1.1h-.9v1.1h-.5v-1.1H.5v1.2H0v-1.7zM.5 35.8v.2c0 .7.4.9 1.1.9.7 0 1.1-.3 1.1-.9v-.2H.5zm2.7-.6v.8c0 1-.5 1.5-1.6 1.5-1 0-1.6-.6-1.6-1.5v-.8h3.2z"/><defs><path id="SVGID_1_" d="M0 0h219.1v72.2H0z"/></defs><clipPath id="SVGID_2_"><use xlink:href="#SVGID_1_" overflow="visible"/></clipPath><path d="M3.2 38.8h-2c-.5 0-.7.2-.7.5s.2.5.7.5h2.1v.6H1.2c-.8 0-1.2-.5-1.2-1.1 0-.6.3-1.1 1.2-1.1h2.1v.6h-.1z" clip-path="url(#SVGID_2_)" fill="#fff"/><defs><path id="SVGID_3_" d="M0 0h219.1v72.2H0z"/></defs><clipPath id="SVGID_4_"><use xlink:href="#SVGID_3_" overflow="visible"/></clipPath><path d="M.2 43.3c-.1-.1-.2-.4-.2-.7 0-1 .7-1.5 1.6-1.5.9 0 1.6.4 1.7 1.4 0 .3-.1.6-.1.7h-.5c.1-.1.2-.3.2-.6 0-.5-.4-.9-1.2-.9-.8 0-1.1.5-1.1.9 0 .3.1.5.2.6l-.6.1z" clip-path="url(#SVGID_4_)" fill="#fff"/><path class="st0" d="M1.7 45.5l1.4-.6-1.5-.2.1.8zm-.4.2l-.2-1.1-.8-.1-.1-.5 3.3.6.1.6-3 1.5-.1-.6.8-.4zM3.6 46.9l-.2-.7.4-.1.5 2-.4.1-.2-.7-2.6.6-.2-.5zM4.6 48.8l.2.5-3.1 1-.1-.5zM3.1 52.3c.1.3.6.5 1.4.1.8-.3 1-.7.8-1.1-.1-.3-.6-.5-1.4-.1-.8.4-1 .7-.8 1.1zm2.5-1.1c.3.6.1 1.4-1 1.8-1 .5-1.7.1-2-.5-.3-.6-.1-1.4 1-1.8 1.1-.5 1.8-.1 2 .5zM6 58.3l-.5-.5c-.5-.8-.3-1.6.5-2.2.8-.5 1.6-.5 2.2.2.2.3.3.5.3.6l-.5.4c0-.1 0-.3-.2-.6-.3-.4-.8-.5-1.5-.1-.7.5-.7 1-.4 1.4.2.2.3.3.5.4l-.4.4zM8.8 57l.4.4-.9.9.7.7.9-.9.4.4L8 60.7l-.4-.5 1-.9-.6-.7-1.1 1-.4-.5zM10.5 60.6c.2.2.5.2.7 0 .2-.3.2-.5-.1-.7l-.1-.2-.6.7.1.2zm.4-1.6l.7.7c.4.4.5.8.1 1.3-.3.3-.7.3-1 .1.1.1.1.2 0 .5l-.5 1.2-.5-.4.5-1c.1-.2.1-.4-.1-.5l-.1-.1-.9 1-.4-.4 2.2-2.4zM12.9 60.7l.5.4-2.1 2.4-.4-.3zM12.5 63.6c0 .1.2.4.4.6.2.2.5.2.7-.1.1-.2.1-.3 0-.6l-.1-.3c-.1-.3-.2-.7.1-1 .3-.5.9-.4 1.3-.1.3.2.4.4.5.5l-.4.4c-.1-.1-.2-.3-.4-.5s-.4-.1-.6 0c-.1.2-.1.4 0 .5l.2.4c.2.4.2.7-.1 1-.4.5-.9.5-1.4.1-.3-.2-.4-.4-.5-.5l.3-.4zM16.1 63.7l-.6-.4.3-.4 1.6 1.1-.2.4-.6-.4-1.5 2.3-.5-.4zM18 64.4l.5.3-1.7 2.6-.5-.3zM19.4 67.5l.4-1.5-1.2 1 .8.5zm-.1.5l-.9-.6-.6.5-.5-.3 2.6-2.1.5.3-.8 3.2-.6-.2.3-.8zM21.7 66.6l.6.4-.3 2.6 1.2-2.1.5.2-1.6 2.8-.6-.3.3-2.7-1.2 2.1-.5-.2zM24.7 70.5L25 69l-1 1.1.7.4zm-.1.5l-1-.5-.5.5-.5-.3 2.4-2.3.6.3L25 72l-.5-.3.1-.7zM31.7 70.2l-1.1-1.1.4 1.5.7-.4zm.4.4l-.9.6.2.8-.5.3-.7-3.3.6-.3 2.5 2.2-.5.3-.7-.6zM32.5 67.7l.6-.4 2.2 1.6-1.3-2.2.5-.3 1.6 2.8-.6.3-2.2-1.5 1.3 2.1-.4.3zM35.6 65.7l.5-.3 1.7 2.7-.5.3zM39.8 63.6l.8 2.7-.4.2-2.1-1.8 1.5 2.2-.5.3-1.7-2.6.7-.5 1.9 1.6-.8-2.3.7-.5 1.8 2.7-.5.2zM43.2 62.9L42 62l.6 1.4.6-.5zm.4.3l-.9.7.3.7-.4.4-1.2-3.2.5-.4 2.8 1.8-.5.4-.6-.4zM43.5 60.4l1.2-1.2.3.4-.8.7.6.6.8-.7.3.4-.8.7.7.7.8-.8.3.3-1.3 1.2zM48.6 56.8c.2-.3.2-.5-.1-.7-.3-.2-.5-.2-.7.1l-.1.2.9.6v-.2zm-1.7-.2l.5-.7c.4-.5.9-.6 1.4-.3.5.4.6.8.2 1.4l-.2.3 1 .7-.3.5-2.6-1.9zM48.7 54.4l.8-1.4.4.2-.5.9.7.4.5-.9.4.3-.5.9.9.4.5-1 .4.3-.8 1.5zM51.7 51.5c.1-.3 0-.5-.3-.7-.3-.1-.5 0-.6.3l-.1.2.9.4.1-.2zm-1.6.3l.4-.9c.2-.5.6-.8 1.1-.6.4.2.5.5.5.9.1-.1.2-.2.5-.2l1.3.1-.2.6-1.1-.1c-.3 0-.4.1-.5.3H52l1.3.5-.3.6-2.9-1.2zM51.2 48.9l.5-1.6.4.1-.3 1 .9.3.2-1 .5.1-.3 1 1.4.3-.2.6zM51.9 46.1l.3-1.7.5.1-.2 1.1.8.1.2-1h.5l-.2 1.1.9.1.2-1.1.5.1-.3 1.7zM55.5 41.4c.1.1.1.4.1.7 0 1-.8 1.4-1.7 1.4-.9 0-1.6-.6-1.6-1.5 0-.3.1-.6.2-.7l.5.1c-.1.1-.2.3-.2.6 0 .5.3.9 1.1 1 .8 0 1.2-.4 1.2-.8 0-.3 0-.5-.1-.6l.5-.2zM52.9 39.6v.7h-.4v-2h.4v.7h2.8v.6zM52.4 37.1v-.6h3.2v.6zM55.3 34c0-.4-.3-.7-1.2-.7-.9 0-1.2.3-1.2.7s.3.7 1.2.7c.9 0 1.2-.3 1.2-.7zm-2.9 0c0-.7.5-1.3 1.6-1.3s1.6.6 1.6 1.3-.5 1.3-1.6 1.3-1.6-.6-1.6-1.3z"/></g><path fill="none" stroke="#fff" stroke-width=".562" stroke-miterlimit="10" d="M66 73.7h153.6" id="Line"/><g id="Layer_5"><path class="st0" d="M35.5 94.8h.5c.1.4.2.8.4 1.2.2.4.4.7.7 1 .3.3.6.5 1 .7.4.2.8.3 1.2.3.4 0 .8-.1 1.1-.2.4-.1.7-.3.9-.6.3-.2.5-.5.6-.9.1-.3.2-.7.2-1.2s-.1-.9-.3-1.3c-.2-.3-.4-.7-.7-.9-.3-.3-.6-.5-1-.7l-1.2-.6c-.4-.2-.8-.4-1.2-.7-.4-.2-.7-.5-1-.9-.3-.3-.5-.7-.7-1.2s-.3-1-.3-1.6c0-.7.1-1.3.3-1.8.2-.5.6-1 1-1.3.4-.3.9-.6 1.4-.8.6-.2 1.2-.3 1.8-.3.4 0 .9 0 1.3.1s.9.1 1.3.2l.3 2.7h-.5c-.1-.8-.4-1.3-.9-1.7-.5-.4-1.1-.6-1.9-.6-.4 0-.8.1-1.1.2-.3.1-.6.3-.8.6-.2.2-.4.5-.5.9-.1.3-.2.7-.2 1.1 0 .5.1.9.3 1.3.2.4.4.7.7.9.3.3.7.5 1 .7l1.2.6c.4.2.8.4 1.2.7.4.2.7.5 1 .8.3.3.6.7.7 1.1.2.4.3 1 .3 1.6 0 .7-.1 1.3-.4 1.8-.3.5-.7 1-1.1 1.4-.5.4-1 .6-1.6.8-.6.2-1.2.3-1.8.3-.6 0-1.1-.1-1.7-.2-.6-.1-1.1-.3-1.6-.5l.1-3zM49.2 88.6H46.8c-.2 0-.4.1-.5.2-.1.1-.2.3-.3.5-.1.2-.2.5-.3.9h-.5l.3-2.8h.4c0 .1 0 .2.1.3l.2.2c.1 0 .2.1.3.1H53.9c.1 0 .2 0 .3-.1.1 0 .2-.1.3-.2l.3-.3h.4l-.2 2.8h-.6c0-.3-.1-.6-.1-.8 0-.2-.1-.4-.2-.5s-.2-.2-.3-.2c-.1 0-.3-.1-.5-.1H51v8.2c0 .2 0 .4.1.5l.3.3c.1.1.3.1.5.1h.7v.5h-5.1v-.5h.7c.2 0 .4-.1.5-.1l.3-.3c.1-.1.1-.3.1-.5l.1-8.2zM57.4 98.6c-.2 0-.4 0-.5-.1-.2-.1-.3-.2-.4-.3-.1-.1-.2-.3-.3-.4s-.2-.4-.2-.5 0-.4.1-.5c.1-.2.2-.3.3-.5.1-.1.3-.2.4-.3.2-.1.3-.1.5-.1s.4 0 .5.1c.2.1.3.2.4.3.1.1.2.3.3.5.1.2.1.4.1.5 0 .2 0 .4-.1.5-.1.2-.2.3-.3.4-.1.1-.3.2-.4.3-.1.1-.2.1-.4.1zM71.2 96.5c0 .7 0 1.3-.1 1.8 0 .5-.1.9-.2 1.2l-.3.9c-.1.3-.2.5-.4.7-.1.2-.3.5-.6.7-.2.2-.5.4-.8.6-.3.2-.6.3-.9.4-.3.1-.7.1-1 .1-.3 0-.5 0-.8-.1-.3-.1-.5-.1-.7-.2-.2-.1-.4-.3-.5-.4-.1-.2-.2-.4-.2-.7 0-.2 0-.3.1-.4.1-.1.1-.2.2-.3.1-.1.2-.1.3-.2.1 0 .2-.1.3 0 .2 0 .3.1.5.2.1.1.2.3.2.6 0 .1 0 .3.1.4s.1.2.2.3c.1.1.2.1.4.2.1 0 .3.1.4.1.3 0 .5-.1.7-.2.2-.1.3-.3.5-.5.1-.2.2-.5.3-.8.1-.3.1-.6.2-.9 0-.3 0-.6.1-1V85.6c0-.4 0-.7-.1-.9-.1-.2-.2-.3-.4-.4-.2-.1-.4-.2-.6-.2h-.8v-.6h6v.5h-.8c-.2 0-.4.1-.6.2-.2.1-.3.2-.4.4-.1.2-.1.5-.1.9l-.2 11zM74.4 93.1c0-.8.2-1.6.5-2.2.3-.7.8-1.2 1.3-1.7s1.2-.8 1.9-1.1c.7-.3 1.5-.4 2.2-.4.9 0 1.6.1 2.3.4.7.3 1.3.7 1.8 1.1.5.5.9 1 1.2 1.7.3.7.4 1.4.4 2.1 0 .4-.1.9-.2 1.3s-.3.9-.5 1.3-.5.8-.8 1.1c-.3.4-.7.7-1.2.9-.3.4-.8.6-1.3.7-.5.2-1.1.2-1.7.2-.9 0-1.7-.1-2.4-.4-.7-.3-1.3-.6-1.8-1.1-.5-.5-.9-1.1-1.2-1.7s-.5-1.4-.5-2.2zm2.1-.2c0 .7.1 1.4.3 2 .2.6.5 1.1.8 1.6.4.5.8.8 1.3 1.1.5.3 1 .4 1.6.4.7 0 1.2-.1 1.7-.4s.8-.6 1.1-1.1c.3-.4.5-.9.6-1.5.1-.6.2-1.1.2-1.7 0-.7-.1-1.4-.3-2-.2-.6-.5-1.1-.8-1.6-.3-.4-.8-.8-1.2-1-.5-.2-1-.4-1.6-.4-.6 0-1.2.1-1.6.4-.5.3-.8.6-1.1 1-.3.4-.5.9-.6 1.5-.3.5-.4 1.1-.4 1.7zM89.7 89.4c0-.2 0-.4-.1-.5l-.3-.3c-.1-.1-.3-.1-.5-.1h-.7v-.6H93v.6h-.6c-.2 0-.4.1-.5.1l-.3.3c-.1.1-.1.3-.1.5v3.2h5.8v-3.2c0-.2 0-.4-.1-.5l-.3-.3c-.1-.1-.3-.1-.5-.1h-.6v-.6h4.9v.6h-.7c-.2 0-.4.1-.5.1l-.3.3c-.1.1-.1.3-.1.5v7.4c0 .2 0 .4.1.5l.3.3c.1.1.3.1.5.1h.7v.5h-4.9v-.5h.6c.2 0 .4-.1.5-.1l.3-.3c.1-.1.1-.3.1-.5v-3.5h-5.8v3.5c0 .2 0 .4.1.5l.3.3c.1.1.3.1.5.1h.6v.5h-4.9v-.5h.7c.2 0 .4-.1.5-.1l.3-.3c.1-.1.1-.3.1-.5v-7.4zM103.9 89.5c0-.2-.1-.4-.2-.6-.1-.1-.3-.2-.5-.3-.2-.1-.4-.1-.6-.1h-.4v-.6H105.1l6.5 7.6v-5.6c0-.4 0-.7-.1-.8-.1-.2-.2-.3-.3-.4-.1-.1-.3-.1-.5-.2h-.7v-.6h4.1v.6h-.6c-.2 0-.3.1-.5.1l-.3.3c-.1.1-.1.4-.1.6v9h-.5l-7.2-8.4v5.7c0 .4 0 .7.1.9 0 .2.1.4.2.6.1.1.3.2.6.3.2.1.6.1.9.1v.5h-4.4v-.5c.4 0 .8-.1 1-.2.2-.1.4-.3.5-.5.1-.2.2-.5.2-.8v-1l-.1-5.7zM116.6 85.5c0-.2 0-.4-.1-.5v-.4-.4c0-.1.1-.2.1-.3l.3-.3c.1-.1.3-.1.5-.1s.4 0 .5.1l.3.3c.1.1.1.2.1.3v.8c0 .2 0 .3-.1.5l-.3 3.1c0 .2-.1.3-.1.4-.1.1-.2.1-.4.1s-.3 0-.4-.1c-.1-.1-.1-.2-.1-.4l-.3-3.1zM121.7 95.7h.5c.1.4.2.7.4 1 .1.3.3.5.5.7.2.2.4.3.7.4.3.1.6.1 1 .1s.7-.1 1-.2c.3-.1.5-.3.6-.5.1-.2.3-.4.3-.6.1-.2.1-.4.1-.6 0-.2 0-.4-.1-.6-.1-.2-.2-.4-.3-.5-.2-.2-.3-.3-.6-.5-.2-.2-.5-.3-.9-.5-.6-.3-1.1-.6-1.4-.8-.4-.3-.7-.5-.9-.8-.2-.3-.4-.6-.5-.9-.1-.3-.1-.7-.1-1.1 0-.4.1-.7.2-1 .1-.3.4-.6.6-.9s.6-.5 1-.6c.4-.2.8-.2 1.3-.2h.6c.2 0 .4 0 .7.1.2 0 .4 0 .6.1s.4 0 .6 0l.2 2.1h-.4c-.1-.2-.1-.4-.2-.6-.1-.2-.2-.4-.4-.6-.2-.2-.4-.3-.6-.4-.2-.1-.5-.2-.9-.2-.3 0-.5 0-.8.1-.2.1-.4.2-.6.4-.2.2-.3.3-.4.5-.1.2-.1.4-.1.7 0 .3 0 .5.1.7.1.2.2.4.3.5.2.2.4.4.7.5.3.2.7.4 1.2.7.6.3 1 .5 1.4.8.3.3.6.5.8.8.2.3.3.5.4.8.1.3.1.6.1.9 0 .4-.1.8-.3 1.2-.2.4-.4.7-.8.9-.3.3-.7.5-1.2.6-.5.1-1 .2-1.5.2s-1 0-1.4-.1c-.4-.1-.8-.2-1.3-.4l-.2-2.2zM150.2 87.3h-.5c-.1-.6-.3-1.2-.5-1.6-.3-.4-.6-.8-1-1.1-.4-.3-.8-.5-1.4-.6-.5-.1-1.1-.2-1.7-.2-.4 0-.8 0-1.3.1s-.9.3-1.3.5-.9.5-1.3.8c-.4.3-.8.8-1.1 1.3-.3.5-.6 1.1-.7 1.7-.2.7-.3 1.4-.3 2.3 0 1.1.2 2.1.5 3 .4.9.8 1.7 1.4 2.3.6.7 1.3 1.2 2 1.5.8.4 1.5.5 2.4.5.5 0 1-.1 1.5-.3s.9-.4 1.3-.7c.4-.3.7-.7 1-1.2.3-.4.4-1 .6-1.5l.5.1-.5 3.1c-.2.1-.5.3-.9.4-.4.1-.8.3-1.2.4-.4.1-.9.2-1.3.3-.4.1-.8.1-1.2.1-1.2 0-2.4-.2-3.4-.6-1-.4-1.8-.9-2.6-1.6-.7-.7-1.2-1.5-1.6-2.5-.4-1-.6-2.1-.6-3.3 0-.7.1-1.4.3-2.1.2-.7.5-1.3.9-1.8.4-.6.8-1.1 1.3-1.5.5-.4 1.1-.8 1.6-1.1.6-.3 1.2-.6 1.9-.7.7-.2 1.3-.2 2-.2.4 0 .9 0 1.3.1s.8.1 1.3.2c.4.1.8.2 1.2.4.4.1.8.3 1.2.4l.2 3.1zM152.3 93.1c0-.8.2-1.6.5-2.2s.8-1.2 1.3-1.7 1.2-.8 1.9-1.1c.7-.3 1.5-.4 2.2-.4.9 0 1.6.1 2.3.4s1.3.7 1.8 1.1.9 1 1.1 1.7c.3.7.4 1.4.4 2.1 0 .4-.1.9-.2 1.3s-.3.9-.5 1.3-.5.8-.8 1.1c-.3.4-.7.7-1.2.9-.4.3-.9.5-1.4.6-.5.2-1.1.2-1.7.2-.9 0-1.7-.1-2.4-.4-.7-.3-1.3-.6-1.8-1.1-.5-.5-.9-1.1-1.2-1.7-.2-.6-.3-1.3-.3-2.1zm2.1-.2c0 .7.1 1.4.3 2 .2.6.5 1.1.8 1.6.4.5.8.8 1.3 1.1.5.3 1 .4 1.6.4.7 0 1.2-.1 1.7-.4.4-.3.8-.6 1.1-1.1.3-.4.5-.9.6-1.5.1-.6.2-1.1.2-1.7 0-.7-.1-1.4-.3-2-.2-.6-.5-1.1-.8-1.6-.3-.4-.8-.8-1.2-1s-1-.4-1.6-.4c-.6 0-1.2.1-1.6.4-.5.3-.8.6-1.1 1-.3.4-.5.9-.6 1.5-.3.5-.4 1.1-.4 1.7zM168.1 89.4c0-.2 0-.4-.1-.5l-.3-.3c-.1-.1-.3-.1-.5-.1h-.7v-.6h4.9v.6h-.6c-.2 0-.4.1-.5.1l-.3.3c-.1.1-.1.3-.1.5v7.1c0 .2 0 .4.1.6 0 .1.1.3.3.4s.3.2.6.2.6.1 1 .1c.5 0 .9 0 1.2-.1.3 0 .6-.1.8-.3.2-.1.4-.3.6-.6.2-.3.4-.6.6-1h.5l-.6 2.7h-8.3V98h.7c.2 0 .4-.1.5-.1l.3-.3c.1-.1.1-.3.1-.5l-.2-7.7zM178.7 89.4c0-.2 0-.4-.1-.5l-.3-.3c-.1-.1-.3-.1-.5-.1h-.7v-.6h4.9v.6h-.6c-.2 0-.4.1-.5.1l-.3.3c-.1.1-.1.3-.1.5v7.1c0 .2 0 .4.1.6 0 .1.1.3.3.4s.3.2.6.2.6.1 1 .1c.5 0 .9 0 1.2-.1.3 0 .6-.1.8-.3.2-.1.4-.3.6-.6.2-.3.4-.6.6-1h.5l-.6 2.7h-8.3V98h.7c.2 0 .4-.1.5-.1l.3-.3c.1-.1.1-.3.1-.5l-.2-7.7zM195.9 98.3h-8.6v-.5h.7c.2 0 .4-.1.5-.1l.3-.3c.1-.1.1-.3.1-.5v-7.4c0-.2 0-.4-.1-.5l-.3-.3c-.1-.1-.3-.1-.5-.1h-.7V88h8l.1 2.3h-.4c-.1-.4-.1-.6-.2-.9-.1-.2-.2-.4-.4-.5-.2-.1-.5-.2-.8-.2H190.7v4h2.5c.2 0 .4-.1.5-.2.1-.1.2-.2.3-.4.1-.2.1-.5.1-.9h.6v3.5h-.6c0-.3 0-.5-.1-.7 0-.2-.1-.3-.2-.4-.1-.1-.3-.1-.5-.2h-2.6v3.1c0 .2 0 .4.1.6.1.2.2.3.4.4.2.1.4.2.7.2.3 0 .7.1 1.1.1.5 0 1 0 1.3-.1.3 0 .6-.1.8-.2.2-.1.4-.3.5-.5.2-.2.3-.5.5-.9h.5l-.7 2.2zM208.4 90.7h-.5c-.1-.3-.3-.6-.4-.9s-.3-.5-.6-.8c-.2-.2-.5-.4-.9-.6-.4-.1-.8-.2-1.4-.2-.6 0-1.1.1-1.6.3-.5.2-1 .5-1.4.9s-.7.9-.9 1.5c-.2.6-.3 1.3-.3 2.2 0 .3 0 .7.1 1 .1.4.2.7.3 1.1.1.4.3.7.6 1 .2.3.5.6.8.8.3.2.7.4 1.2.6.4.1.9.2 1.5.2.3 0 .5 0 .8-.1.2-.1.5-.1.7-.3v-.3-.5-.5-.3-.7c0-.2-.1-.4-.2-.5-.1-.1-.3-.2-.5-.2s-.5-.1-.9-.1v-.5h4.6v.6h-.6c-.2 0-.3.1-.4.1-.1.1-.2.1-.2.3 0 .1-.1.3-.1.4v1.9c0 .1.1.1.1.2.1.1.1.1.2.1v.4c-.3.1-.6.2-.9.2-.3.1-.7.2-1.1.2-.4.1-.8.1-1.2.2-.4 0-.8.1-1.3.1-.9 0-1.6-.1-2.4-.4-.7-.3-1.3-.7-1.8-1.1-.5-.5-.9-1.1-1.2-1.7-.3-.7-.4-1.4-.4-2.1 0-.9.2-1.6.5-2.3.3-.7.7-1.3 1.3-1.7.5-.5 1.2-.9 1.9-1.1.7-.3 1.5-.4 2.3-.4h.8c.2 0 .3 0 .5.1.2 0 .4.1.7.1.1 0 .2 0 .4.1.2 0 .4.1.6.1.2 0 .4.1.6.1.2 0 .3.1.4.1l.3 2.4zM219.5 98.3h-8.6v-.5h.7c.2 0 .4-.1.5-.1l.3-.3c.1-.1.1-.3.1-.5v-7.4c0-.2 0-.4-.1-.5l-.3-.3c-.1-.1-.3-.1-.5-.1h-.7V88h8l.1 2.3h-.4c-.1-.4-.1-.6-.2-.9-.1-.2-.2-.4-.4-.5-.2-.1-.5-.2-.8-.2H214.3v4h2.5c.2 0 .4-.1.5-.2.1-.1.2-.2.3-.4.1-.2.1-.5.1-.9h.6v3.5h-.6c0-.3 0-.5-.1-.7 0-.2-.1-.3-.2-.4-.1-.1-.3-.1-.5-.2h-2.6v3.1c0 .2 0 .4.1.6.1.2.2.3.4.4.2.1.4.2.7.2.3 0 .7.1 1.1.1.5 0 1 0 1.3-.1.3 0 .6-.1.8-.2.2-.1.4-.3.5-.5.2-.2.3-.5.5-.9h.5l-.7 2.2zM227.8 93.1c0-.8.2-1.6.5-2.2s.8-1.2 1.3-1.7 1.2-.8 1.9-1.1c.7-.3 1.5-.4 2.2-.4.9 0 1.6.1 2.3.4s1.3.7 1.8 1.1c.5.5.9 1 1.1 1.7.3.7.4 1.4.4 2.1 0 .4-.1.9-.2 1.3s-.3.9-.5 1.3-.5.8-.8 1.1c-.3.4-.7.7-1.2.9-.4.3-.9.5-1.4.6-.5.2-1.1.2-1.7.2-.9 0-1.7-.1-2.4-.4-.7-.3-1.3-.6-1.8-1.1-.5-.5-.9-1.1-1.2-1.7-.2-.6-.3-1.3-.3-2.1zm2.1-.2c0 .7.1 1.4.3 2 .2.6.5 1.1.8 1.6.4.5.8.8 1.3 1.1.5.3 1 .4 1.6.4.7 0 1.2-.1 1.7-.4.4-.3.8-.6 1.1-1.1s.5-.9.6-1.5c.1-.6.2-1.1.2-1.7 0-.7-.1-1.4-.3-2-.2-.6-.5-1.1-.8-1.6-.3-.4-.8-.8-1.2-1s-1-.4-1.6-.4c-.6 0-1.2.1-1.6.4-.5.3-.8.6-1.1 1-.3.4-.5.9-.6 1.5-.3.5-.4 1.1-.4 1.7zM243.3 89.4c0-.2 0-.4-.1-.5l-.3-.3c-.1-.1-.3-.1-.5-.1h-.7v-.6h8.7l.1 2.3h-.5c-.1-.4-.2-.7-.3-.9-.1-.2-.2-.4-.4-.5-.2-.1-.4-.2-.7-.2-.3 0-.7-.1-1.2-.1h-2.3v4h2.7c.2 0 .4-.1.5-.2.1-.1.2-.2.3-.4.1-.2.1-.4.1-.8h.5v3.5h-.5c0-.3 0-.6-.1-.8 0-.2-.1-.3-.2-.4-.1-.1-.3-.2-.5-.2h-2.8v3.1c0 .3 0 .5.1.7.1.2.1.3.3.4.1.1.3.2.5.2s.4.1.6.1h.4v.5H241.7v-.5h.7c.2 0 .4-.1.5-.1l.3-.3c.1-.1.1-.3.1-.5v-7.4zM22.5 116.3h-11v-.5h.7c.2 0 .4-.1.6-.2.2-.1.3-.3.4-.4.1-.2.2-.4.2-.7v-10.8c0-.4 0-.7-.1-.9-.1-.2-.2-.3-.4-.4-.2-.1-.4-.2-.6-.2h-.8v-.6h5.9v.6h-.8c-.2 0-.4.1-.6.2-.2.1-.3.2-.4.4-.1.2-.1.5-.1.9v9.8c0 .4 0 .7.1 1 .1.3.2.5.4.7.2.2.6.3 1 .4.4.1 1 .1 1.8.1.6 0 1.1 0 1.6-.1.4-.1.8-.2 1.1-.4.3-.2.6-.5.8-.8.2-.3.4-.8.5-1.3l.5.1-.8 3.1zM26.3 107.4c0-.2 0-.4-.1-.5l-.3-.3c-.1-.1-.3-.1-.5-.1h-.7v-.6h4.9v.6h-.7c-.2 0-.4.1-.5.1l-.3.3c-.1.1-.1.3-.1.5v7.4c0 .2 0 .4.1.5l.3.3c.1.1.3.1.5.1h.7v.5h-4.9v-.5h.7c.2 0 .4-.1.5-.1l.3-.3c.1-.1.1-.3.1-.5v-7.4zM33.4 107.4c0-.2 0-.4-.1-.5l-.3-.3c-.1-.1-.3-.1-.5-.1h-.7v-.6H37.3c.3 0 .5 0 .8.1.3 0 .5.1.8.2.3.1.5.2.7.4.2.2.4.4.5.6.1.3.2.6.2.9 0 .4-.1.7-.2 1-.1.3-.3.5-.6.7-.2.2-.5.3-.8.4-.3.1-.7.2-1 .3.5 0 1 .1 1.5.2.4.1.8.3 1.2.5.3.2.6.5.8.8.2.3.3.8.3 1.3 0 .4-.1.8-.3 1.1-.2.3-.4.7-.8.9-.3.3-.8.5-1.3.6-.5.1-1 .2-1.7.2H31.9v-.5h.7c.2 0 .4-.1.5-.1l.3-.3c.1-.1.1-.3.1-.5l-.1-7.3zm1.8 2.9h.9c.4 0 .7-.1 1-.2.3-.1.5-.3.7-.4.2-.2.3-.4.4-.6.1-.2.1-.5.1-.8 0-.4-.1-.8-.2-1-.2-.2-.4-.4-.6-.5-.2-.1-.5-.2-.7-.2h-1.7c.1 0 .1 3.7.1 3.7zm0 4.5c0 .2.1.3.2.4.1.1.2.2.4.2s.3.1.5.1h.6c.3 0 .5 0 .8-.1.3 0 .6-.1.8-.3.2-.1.5-.4.6-.6.2-.3.2-.7.2-1.2s-.1-.9-.3-1.3c-.2-.3-.4-.6-.7-.7-.3-.2-.6-.3-1-.4-.3-.1-.7-.1-1-.1h-1.2v4zM52 116.3h-8.6v-.5h.7c.2 0 .4-.1.5-.1l.3-.3c.1-.1.1-.3.1-.5v-7.4c0-.2 0-.4-.1-.5l-.3-.3c-.1-.1-.3-.1-.5-.1h-.7v-.6h8l.1 2.3h-.4c-.1-.4-.1-.6-.2-.9-.1-.2-.2-.4-.4-.5-.2-.1-.5-.2-.8-.2H46.8v4h2.5c.2 0 .4-.1.5-.2.1-.1.2-.2.3-.4.1-.2.1-.5.1-.9h.5v3.5h-.5c0-.3 0-.5-.1-.7 0-.2-.1-.3-.2-.4-.1-.1-.3-.1-.5-.2h-2.6v3.1c0 .2 0 .4.1.6.1.2.2.3.4.4.2.1.4.2.7.2s.7.1 1.1.1c.5 0 1 0 1.3-.1.3 0 .6-.1.8-.2s.4-.3.5-.5c.2-.2.3-.5.5-.9h.5l-.7 2.2zM55.5 107.4c0-.2 0-.4-.1-.5l-.3-.3c-.1-.1-.3-.1-.5-.1h-.7v-.6H59.5c.4 0 .9.1 1.2.2.4.1.7.3 1 .5.3.2.5.5.7.8.2.3.3.7.3 1.1 0 .6-.2 1.1-.6 1.5-.4.4-1 .7-1.7 1 .4.7.7 1.2 1 1.7.3.5.6.9.8 1.2.2.3.4.6.6.8.2.2.4.4.6.5l.6.3c.2.1.4.1.6.2v.5H62c-.2-.2-.4-.5-.7-.9-.3-.4-.5-.8-.8-1.2s-.6-.9-.9-1.4c-.3-.5-.6-1-.9-1.4h-1.6v3.4c0 .2 0 .4.1.5l.3.3c.1.1.3.1.5.1h.6v.5h-4.9v-.5h.7c.2 0 .4-.1.5-.1l.3-.3c.1-.1.1-.3.1-.5l.2-7.3zm2.7 3.3c.9 0 1.6-.2 2.1-.5.5-.4.7-.9.7-1.7 0-.7-.2-1.2-.7-1.5-.4-.3-1.1-.5-1.9-.5h-1v4.2h.8zM71.8 115.7h.7c.1 0 .2-.1.3-.1.1 0 .2-.1.2-.2.1-.1.1-.1.1-.2v-.3c0-.1-.1-.2-.1-.4l-.8-2.1h-3.6l-.5 1.4c0 .1-.1.2-.1.3 0 .1-.1.2-.1.4 0 .1-.1.3-.1.4v.3c0 .1 0 .2.1.3.1.1.2.1.3.2.1 0 .2.1.4.1h.5v.5h-4v-.5c.3 0 .5 0 .7-.1.2-.1.3-.1.5-.2s.2-.2.3-.3c.1-.1.1-.2.2-.3l3-7.8c.1-.1.1-.2.1-.4 0-.1.1-.2.1-.3v-.2-.2l1.6-.6 3.2 9 .3.6c.1.2.2.3.3.4.1.1.3.2.5.2s.4.1.7.1v.5h-4.8v-.5zm-1.4-8.3l-1.6 4.3H72l-1.6-4.3zM79.7 107.4c0-.2 0-.4-.1-.5l-.3-.3c-.1-.1-.3-.1-.5-.1h-.7v-.6H83v.6h-.6c-.2 0-.4.1-.5.1l-.3.3c-.1.1-.1.3-.1.5v7.1c0 .2 0 .4.1.6 0 .1.1.3.3.4.1.1.3.2.6.2s.6.1 1 .1c.5 0 .9 0 1.2-.1.3 0 .6-.1.8-.3.2-.1.4-.3.6-.6.2-.3.4-.6.6-1h.5l-.6 2.7h-8.3v-.5h.7c.2 0 .4-.1.5-.1l.3-.3c.1-.1.1-.3.1-.5l-.2-7.7zM104.6 112c.1.2.2.5.3.8l.3.9.3.9c.1.3.2.4.3.6.2.2.4.4.7.5.3.1.6.1 1 .1v.5H102v-.5h.8c.1 0 .3-.1.4-.1.1-.1.2-.1.3-.2.1-.1.1-.2.1-.4v-.2c0-.1 0-.2-.1-.3 0-.1-.1-.2-.1-.3s-.1-.2-.1-.3l-1.1-3.1h-5l-.5 1.5c-.1.4-.3.9-.4 1.3-.1.4-.2.8-.2 1.2 0 .2 0 .4.1.6l.3.3c.1.1.3.1.5.1h1v.5h-5v-.5c.3 0 .6-.1.8-.1.2 0 .4-.1.5-.2l.4-.4c.1-.2.2-.4.4-.7.2-.4.3-.8.5-1.2.1-.4.3-.8.4-1.2l2.7-7.6c0-.1.1-.3.1-.4.1-.2.1-.3.1-.5s.1-.3.1-.5v-.5-.3-.3c.2-.1.4-.2.7-.4.2-.1.4-.3.6-.6h.4l3.9 11zm-7.2-2.2h4.4l-2.3-6.2-2.1 6.2zM110.2 107.4c0-.2 0-.4-.1-.5l-.3-.3c-.1-.1-.3-.1-.5-.1h-.7v-.6H114.2c.4 0 .9.1 1.2.2.4.1.7.3 1 .5.3.2.5.5.7.8.2.3.3.7.3 1.1 0 .6-.2 1.1-.6 1.5-.4.4-1 .7-1.7 1 .4.7.7 1.2 1 1.7s.6.9.8 1.2c.2.3.4.6.6.8.2.2.4.4.6.5l.6.3c.2.1.4.1.6.2v.5H116.7c-.2-.2-.4-.5-.7-.9-.3-.4-.5-.8-.8-1.2-.3-.4-.6-.9-.9-1.4-.3-.5-.6-1-.9-1.4h-1.6v3.4c0 .2 0 .4.1.5l.3.3c.1.1.3.1.5.1h.6v.5h-4.9v-.5h.7c.2 0 .4-.1.5-.1l.3-.3c.1-.1.1-.3.1-.5l.2-7.3zm2.6 3.3c.9 0 1.6-.2 2.1-.5.5-.4.7-.9.7-1.7 0-.7-.2-1.2-.7-1.5-.4-.3-1.1-.5-1.9-.5h-1v4.2h.8zM123.8 106.6H121.4c-.2 0-.4.1-.5.2-.1.1-.2.3-.3.5-.1.2-.2.5-.3.9h-.5l.3-2.8h.4c0 .1 0 .2.1.3l.2.2c.1 0 .2.1.3.1H128.5c.1 0 .2 0 .3-.1.1 0 .2-.1.3-.2l.3-.3h.4l-.2 2.8h-.6c0-.3-.1-.6-.1-.8 0-.2-.1-.4-.2-.5s-.2-.2-.3-.2-.3-.1-.5-.1h-2.1v8.2c0 .2 0 .4.1.5l.3.3c.1.1.3.1.5.1h.7v.5h-5.1v-.5h.7c.2 0 .4-.1.5-.1l.3-.3c.1-.1.1-.3.1-.5l-.1-8.2zM131.4 113.7h.5c.1.4.2.7.4 1 .1.3.3.5.5.7.2.2.4.3.7.4.3.1.6.1 1 .1s.7-.1 1-.2c.3-.1.5-.3.6-.5.1-.2.3-.4.3-.6s.1-.4.1-.6c0-.2 0-.4-.1-.6-.1-.2-.2-.4-.3-.5-.2-.2-.3-.3-.6-.5-.2-.2-.5-.3-.9-.5-.6-.3-1.1-.6-1.4-.8-.4-.3-.7-.5-.9-.8-.2-.3-.4-.6-.5-.9-.1-.3-.1-.7-.1-1.1 0-.4.1-.7.2-1 .1-.3.4-.6.6-.9.3-.3.6-.5 1-.6.4-.2.8-.2 1.3-.2h.6c.2 0 .4 0 .7.1.2 0 .4 0 .6.1h.6l.2 2.1h-.5c-.1-.2-.1-.4-.2-.6-.1-.2-.2-.4-.4-.6-.2-.2-.4-.3-.6-.4-.2-.1-.5-.2-.9-.2-.3 0-.5 0-.8.1-.2.1-.4.2-.6.4s-.3.3-.4.5c-.1.2-.1.4-.1.7 0 .3 0 .5.1.7.1.2.2.4.3.5.2.2.4.4.7.5.3.2.7.4 1.2.7.6.3 1 .5 1.4.8.3.3.6.5.8.8.2.3.3.5.4.8.1.3.1.6.1.9 0 .4-.1.8-.3 1.2-.2.4-.4.7-.8.9-.3.3-.7.5-1.2.6-.5.1-1 .2-1.5.2s-1 0-1.4-.1c-.4-.1-.8-.2-1.3-.4l-.1-2.2zM152.2 115.7h.7c.1 0 .2-.1.3-.1.1 0 .2-.1.2-.2.1-.1.1-.1.1-.2v-.3c0-.1-.1-.2-.1-.4l-.8-2.1H149l-.5 1.4c0 .1-.1.2-.1.3 0 .1-.1.2-.1.4 0 .1-.1.3-.1.4v.3c0 .1 0 .2.1.3.1.1.2.1.3.2.1 0 .2.1.4.1h.5v.5h-4v-.5c.3 0 .5 0 .7-.1.2-.1.3-.1.5-.2l.3-.3c.1-.1.1-.2.2-.3l3-7.8c.1-.1.1-.2.1-.4 0-.1.1-.2.1-.3v-.2-.2l1.6-.6 3.2 9 .3.6c.1.2.2.3.3.4.1.1.3.2.5.2s.4.1.7.1v.5h-4.8v-.5zm-1.4-8.3l-1.6 4.3h3.1l-1.5-4.3zM159.5 107.4c0-.2-.1-.4-.2-.6-.1-.1-.3-.2-.5-.3-.2-.1-.4-.1-.6-.1h-.4v-.6H160.7l6.5 7.6v-5.6c0-.4 0-.7-.1-.8-.1-.2-.2-.3-.3-.4-.1-.1-.3-.1-.5-.2h-.7v-.6h4.1v.6h-.6c-.2 0-.3.1-.5.1l-.3.3c-.1.1-.1.4-.1.6v9h-.5l-7.2-8.4v5.7c0 .4 0 .7.1.9 0 .2.1.4.2.6.1.1.3.2.6.3.2.1.6.1.9.1v.5h-4.4v-.5c.4 0 .8-.1 1-.2.2-.1.4-.3.5-.5.1-.2.2-.5.2-.8v-1l-.1-5.7zM172.7 107.4c0-.2 0-.4-.1-.5l-.3-.3c-.1-.1-.3-.1-.5-.1h-.7v-.6H176.8c.7 0 1.4.1 1.9.2.6.1 1.1.3 1.5.6s.8.5 1.2.9c.3.3.6.7.8 1.1.2.4.4.8.5 1.2.1.4.2.8.2 1.2 0 .7-.1 1.3-.2 1.8-.2.5-.4 1-.7 1.4-.3.4-.6.7-1 1-.4.3-.8.5-1.3.7-.5.2-.9.3-1.4.4-.5.1-1 .1-1.5.1H171.1v-.5h.7c.2 0 .4-.1.5-.1l.3-.3c.1-.1.1-.3.1-.5v-7.7zm1.9 6.9c0 .3 0 .6.1.7.1.2.2.3.3.4.1.1.3.1.5.2h.7c.3 0 .7 0 1.1-.1.4 0 .7-.1 1.1-.2.3-.1.7-.3 1-.5s.6-.5.8-.8.4-.7.6-1.2c.1-.5.2-1 .2-1.6 0-.7-.1-1.3-.2-1.8-.2-.6-.4-1.1-.7-1.5s-.7-.8-1.3-1c-.5-.2-1.1-.4-1.8-.4H174.7l-.1 7.8zM191.2 112.8h.5c.1.4.2.8.4 1.2.2.4.4.7.7 1 .3.3.6.5 1 .7.4.2.8.3 1.2.3.4 0 .8-.1 1.1-.2.4-.1.7-.3.9-.6s.5-.5.6-.9c.1-.3.2-.7.2-1.2s-.1-.9-.3-1.3c-.2-.3-.4-.7-.7-.9-.3-.3-.6-.5-1-.7l-1.2-.6c-.4-.2-.8-.4-1.2-.7-.4-.2-.7-.5-1-.9-.3-.3-.5-.7-.7-1.2-.2-.4-.3-1-.3-1.6 0-.7.1-1.3.3-1.8.2-.5.6-1 1-1.3.4-.3.9-.6 1.4-.8.6-.2 1.2-.3 1.8-.3.4 0 .9 0 1.3.1s.9.1 1.3.2l.3 2.7h-.5c-.1-.8-.4-1.3-.9-1.7-.5-.4-1.1-.6-1.9-.6-.4 0-.8.1-1.1.2-.3.1-.6.3-.8.6-.2.2-.4.5-.5.9-.1.3-.2.7-.2 1.1 0 .5.1.9.3 1.3.2.4.4.7.7.9.3.3.7.5 1 .7s.8.4 1.2.6c.4.2.8.4 1.2.7s.7.5 1 .8.6.7.7 1.1c.2.4.3 1 .3 1.6 0 .7-.1 1.3-.4 1.8-.3.5-.7 1-1.1 1.4-.5.4-1 .6-1.6.8-.6.2-1.2.3-1.8.3-.6 0-1.1-.1-1.7-.2s-1.1-.3-1.6-.5l.1-3zM211.3 115.8c-.4.1-.7.2-.9.3-.3.1-.5.2-.8.2-.3.1-.5.1-.8.1h-1c-.9 0-1.8-.1-2.5-.4-.7-.3-1.4-.7-1.9-1.1-.5-.5-.9-1.1-1.2-1.7-.3-.7-.4-1.4-.4-2.2 0-.8.2-1.6.5-2.3.3-.7.7-1.2 1.2-1.7s1.1-.8 1.9-1.1c.7-.3 1.5-.4 2.3-.4h.8c.2 0 .4.1.6.1.2 0 .4.1.5.1.2 0 .3.1.5.1s.4.1.6.1c.2 0 .5.1.8.1l.1 2.5h-.5c0-.1 0-.3-.1-.6s-.3-.5-.5-.8c-.2-.3-.6-.5-1-.7-.4-.2-.9-.3-1.6-.3-.5 0-.9.1-1.4.2-.5.2-.9.4-1.3.8-.4.3-.7.8-1 1.4-.3.6-.4 1.3-.4 2.1 0 .6.1 1.2.3 1.8.2.6.5 1.1.8 1.6.4.5.8.9 1.3 1.2.5.3 1.1.5 1.7.5.4 0 .7 0 1-.1.3-.1.6-.2.9-.4.3-.2.5-.4.7-.8.2-.3.4-.7.6-1.2l.6.1-.4 2.5zM215.2 107.4c0-.2 0-.4-.1-.5l-.3-.3c-.1-.1-.3-.1-.5-.1h-.7v-.6h4.9v.6h-.7c-.2 0-.4.1-.5.1l-.3.3c-.1.1-.1.3-.1.5v7.4c0 .2 0 .4.1.5l.3.3c.1.1.3.1.5.1h.7v.5h-4.9v-.5h.7c.2 0 .4-.1.5-.1l.3-.3c.1-.1.1-.3.1-.5v-7.4zM229.1 116.3h-8.6v-.5h.7c.2 0 .4-.1.5-.1l.3-.3c.1-.1.1-.3.1-.5v-7.4c0-.2 0-.4-.1-.5l-.3-.3c-.1-.1-.3-.1-.5-.1h-.7v-.6h8l.1 2.3h-.4c-.1-.4-.1-.6-.2-.9-.1-.2-.2-.4-.4-.5-.2-.1-.5-.2-.8-.2H223.9v4h2.5c.2 0 .4-.1.5-.2.1-.1.2-.2.3-.4.1-.2.1-.5.1-.9h.6v3.5h-.6c0-.3 0-.5-.1-.7 0-.2-.1-.3-.2-.4-.1-.1-.3-.1-.5-.2h-2.6v3.1c0 .2 0 .4.1.6.1.2.2.3.4.4.2.1.4.2.7.2.3 0 .7.1 1.1.1.5 0 1 0 1.3-.1.3 0 .6-.1.8-.2.2-.1.4-.3.5-.5.2-.2.3-.5.5-.9h.5l-.7 2.2zM232.6 107.4c0-.2-.1-.4-.2-.6-.1-.1-.3-.2-.5-.3-.2-.1-.4-.1-.6-.1h-.4v-.6H233.8l6.5 7.6v-5.6c0-.4 0-.7-.1-.8-.1-.2-.2-.3-.3-.4-.1-.1-.3-.1-.5-.2h-.7v-.6h4.1v.6h-.6c-.2 0-.3.1-.5.1l-.3.3c-.1.1-.1.4-.1.6v9h-.5l-7.2-8.4v5.7c0 .4 0 .7.1.9 0 .2.1.4.2.6.1.1.3.2.6.3.2.1.6.1.9.1v.5H231v-.5c.4 0 .8-.1 1-.2.2-.1.4-.3.5-.5s.2-.5.2-.8v-1l-.1-5.7zM253.7 115.8c-.4.1-.7.2-.9.3-.3.1-.5.2-.8.2-.3.1-.5.1-.8.1h-1c-.9 0-1.8-.1-2.5-.4-.7-.3-1.4-.7-1.9-1.1-.5-.5-.9-1.1-1.2-1.7-.3-.7-.4-1.4-.4-2.2 0-.8.2-1.6.5-2.3.3-.7.7-1.2 1.2-1.7s1.1-.8 1.9-1.1c.7-.3 1.5-.4 2.3-.4h.8c.2 0 .4.1.6.1.2 0 .4.1.5.1.2 0 .3.1.5.1s.4.1.6.1c.2 0 .5.1.8.1l.1 2.5h-.5c0-.1 0-.3-.1-.6s-.3-.5-.5-.8c-.2-.3-.6-.5-1-.7-.4-.2-.9-.3-1.6-.3-.5 0-.9.1-1.4.2-.5.2-.9.4-1.3.8-.4.3-.7.8-1 1.4-.3.6-.4 1.3-.4 2.1 0 .6.1 1.2.3 1.8.2.6.5 1.1.8 1.6.4.5.8.9 1.3 1.2.5.3 1.1.5 1.7.5.4 0 .7 0 1-.1.3-.1.6-.2.9-.4.3-.2.5-.4.7-.8.2-.3.4-.7.6-1.2l.6.1-.4 2.5zM264.5 116.3h-8.6v-.5h.7c.2 0 .4-.1.5-.1l.3-.3c.1-.1.1-.3.1-.5v-7.4c0-.2 0-.4-.1-.5l-.3-.3c-.1-.1-.3-.1-.5-.1h-.7v-.6h8l.1 2.3h-.4c-.1-.4-.1-.6-.2-.9-.1-.2-.2-.4-.4-.5-.2-.1-.5-.2-.8-.2H259.3v4h2.5c.2 0 .4-.1.5-.2.1-.1.2-.2.3-.4.1-.2.1-.5.1-.9h.6v3.5h-.6c0-.3 0-.5-.1-.7 0-.2-.1-.3-.2-.4-.1-.1-.3-.1-.5-.2h-2.6v3.1c0 .2 0 .4.1.6.1.2.2.3.4.4.2.1.4.2.7.2s.7.1 1.1.1c.5 0 1 0 1.3-.1s.6-.1.8-.2c.2-.1.4-.3.5-.5.2-.2.3-.5.5-.9h.5l-.7 2.2zM267.1 113.7h.5c.1.4.2.7.4 1s.3.5.5.7c.2.2.4.3.7.4.3.1.6.1 1 .1s.7-.1 1-.2c.3-.1.5-.3.6-.5s.3-.4.3-.6c.1-.2.1-.4.1-.6 0-.2 0-.4-.1-.6s-.2-.4-.3-.5c-.2-.2-.3-.3-.6-.5-.2-.2-.5-.3-.9-.5-.6-.3-1.1-.6-1.4-.8-.4-.3-.7-.5-.9-.8-.2-.3-.4-.6-.5-.9-.1-.3-.1-.7-.1-1.1 0-.4.1-.7.2-1 .1-.3.4-.6.6-.9.3-.3.6-.5 1-.6.4-.2.8-.2 1.3-.2h.6c.2 0 .4 0 .7.1.2 0 .4 0 .6.1h.6l.2 2.1h-.4c-.1-.2-.1-.4-.2-.6-.1-.2-.2-.4-.4-.6-.2-.2-.4-.3-.6-.4-.2-.1-.5-.2-.9-.2-.3 0-.5 0-.8.1-.2.1-.4.2-.6.4s-.3.3-.4.5c-.1.2-.1.4-.1.7 0 .3 0 .5.1.7.1.2.2.4.3.5.2.2.4.4.7.5.3.2.7.4 1.2.7.6.3 1 .5 1.4.8.3.3.6.5.8.8.2.3.3.5.4.8.1.3.1.6.1.9 0 .4-.1.8-.3 1.2-.2.4-.4.7-.8.9-.3.3-.7.5-1.2.6-.5.1-1 .2-1.5.2s-1 0-1.4-.1c-.4-.1-.8-.2-1.3-.4l-.2-2.2z"/></g></svg>
