<svg height="84" viewBox="0 0 247 84" width="247" xmlns="http://www.w3.org/2000/svg" xmlns:xlink="http://www.w3.org/1999/xlink"><mask id="a" fill="#fff"><path d="m.05330935.19280216h22.99365645v33.93762234h-22.99365645z" fill="#fff" fill-rule="evenodd"/></mask><g fill="none" fill-rule="evenodd"><g fill="#fff"><path d="m53.7447122 46.4511043c0 8.2203022-4.033741 15.3681979-11.4126439 20.3002015-4.9755395 3.3300575-10.1918597 6.2718453-10.1918597 6.2718453v-37.4986871c.0026655-.0035539.0106619-.0053309.0133274-.0071079.0257662-.7898669.6610359-1.4215827 1.4571223-1.4215827h7.6347877v-4.9177878h12.4992662zm-22.7346618-16.7373597h-.0088849v2.6548058h-.6281619v-3.5477375h.8058597l1.2465504 2.6512518h.0088849v-2.6512518h.6290503v3.5477375h-.8023057zm-.4149245 43.3040755s-5.2003273-2.8671546-10.2824856-6.2665143c-7.3762374-4.9320036-11.41175541-12.0798993-11.41175541-20.3002015v-17.2731187h12.31001801v4.9177878s7.942205.0088849 7.9608633.0106619c0 0 .1421583.0266546.1723669.0328741.6468201.1048417 1.1763597.6459316 1.2509928 1.3034136zm-5.8293777-44.1970072h.741l1.2838669 3.5477375h-.7267842l-.2798741-.8138562h-1.3265144l-.2860935.8138562h-.6796942zm1.5690719-4.397133h1.9297986v.5579712h-1.273205v.8733849h1.1656978v.5588597h-1.1656978v.9959964h1.2829784v.5588597h-1.939572zm2.3233993 7.4455395c.1794748 0 .3198561-.0186582.4318058-.0506439v-.9249172h-.6930216v-.5588597h1.3211835v1.9102518c-.3465108.1030647-.7072375.1830287-1.0599677.1830287-1.0581906 0-1.7938597-.573964-1.7938597-1.7725359 0-1.2136763.6841367-1.894259 1.7938597-1.894259.3811619 0 .6805828.0541978.9613453.1457122l-.0408705.6006187c-.2532194-.1279424-.5819604-.1892482-.8440647-.1892482-.7641007 0-1.1861331.5579712-1.1861331 1.2856439 0 .7223417.4131475 1.2652086 1.109723 1.2652086zm1.729-7.5086223c.2150144 0 .5011079.04709.741.1492662l-.0470899.5979532c-.248777-.1519316-.4735648-.1865827-.7081259-.1865827-.6743633 0-1.0972842.5579712-1.0972842 1.2838669 0 .7232302.4131475 1.2660971 1.1115 1.2660971.2576619 0 .5624137-.0613057.7178993-.1474892l.0266547.5943993c-.2381151.0613058-.4966655.1119497-.744554.1119497-1.0581906 0-1.7938597-.5739641-1.7938597-1.7734245 0-1.2136763.6823597-1.896036 1.7938597-1.896036zm2.8618238 0c.2150144 0 .5019964.04709.7401115.1492662l-.0462015.5979532c-.2487769-.1519316-.4735647-.1865827-.7081259-.1865827-.6743633 0-1.0972841.5579712-1.0972841 1.2838669 0 .7232302.4131474 1.2660971 1.1115 1.2660971.2585503 0 .5615251-.0613057.7170108-.1474892l.0284316.5943993c-.2398921.0613058-.4966655.1119497-.7454424.1119497-1.0590792 0-1.7938597-.5739641-1.7938597-1.7734245 0-1.2136763.6823597-1.896036 1.7938597-1.896036zm1.7565431 7.5086223c.5011079 0 .6805828-.3971547.6805828-1.0004388v-2.0479677h.655705v2.2656475c0 .9506835-.4966655 1.3416187-1.3362878 1.3416187-.8387338 0-1.3353992-.3909352-1.3353992-1.3416187v-2.2656475h.6565935v2.0479677c0 .6032841.1776978 1.0004388.6788057 1.0004388zm-.5295395-7.4455395h1.930687v.5579712h-1.2758705v.8733849h1.1665863v.5588597h-1.1665863v.9959964h1.2847554v.5588597h-1.9395719zm3.5415179 4.3376043c.2816511 0 .5437554.039982.782759.1261654l-.0613057.5837375c-.205241-.0959569-.4353597-.1528202-.6654784-.1528202-.2238993 0-.5144353.1066187-.5144353.4931115 0 .615723 1.4331331.3562842 1.4331331 1.5450828 0 .777428-.5668561 1.0715179-1.2270036 1.0715179-.3562842 0-.5153237-.0506438-.8387338-.1359388l.0595288-.6414892c.2265647.1323849.4824496.2185683.741.2185683.248777 0 .5810719-.1359388.5810719-.4566834 0-.6770288-1.4340216-.3980432-1.4340216-1.5699605 0-.7934208.5677446-1.0812913 1.1434856-1.0812913zm5.3407087-17.5752051c.0097734-.1830287.0177698-.365169.0204352-.5464208l.0222123-1.54863672-1.4935504-.40870503c-.7783165-.21323741-1.5157626-.51532374-2.1901259-.89826259l-.1368273-.07019065c-.1155036-.05864029-.3456223-.21501439-.5748526-.38205036v-5.10348201h-4.4513309c-.7036834-1.06441008-1.8862626-1.75298921-3.207446-1.75298921-1.3211835 0-2.5055396.68857913-3.2092231 1.75298921h-4.5001978l.0257662 5.13191366c-.0302086.02043526-.0586403.03998202-.0844065.05686331-.0559748.03820504-.2238993.14571223-.3314065.21057195-.7623237.46467985-1.6055.82540647-2.5019856 1.07329496l-1.4926618.40959353.0231007 1.54863665c.0035539.1750324.0097734.3500648.0204352.5268741h-12.39353594l-.00088849 35.2650252c0 8.8609029 4.36870143 16.6591727 12.29935613 21.9643417 5.101705 3.4117986 10.9728417 6.587259 11.2198417 6.7223094l.9595684.5188777.9551259-.5250971c.2478884-.1394928 6.1181366-3.3789245 11.1070036-6.71609 7.9324316-5.303392 12.301133-13.1034388 12.301133-21.9643417v-35.2650252z"/><path d="m25.1273633 29.5324928h-.0097734l-.4726762 1.4633417h.9551259z"/><path d="m94.4241906 55.5874388c-2.012428 0-1.9875503.9808921-1.9875503 4.0506224v7.242964c0 3.4206834-2.1368166 5.9910827-6.5650468 5.9910827-4.153687 0-6.6432338-2.0150935-6.7205323-6.2896151v-9.1860899c0-1.7600971-.953349-1.7858633-2.2887483-1.8089641v-.655705c1.1816907.0257662 2.3420576.0524209 3.4722159.0524209 1.1568129 0 2.3136259-.0266547 3.5726151-.0524209v.655705c-1.3336223.0231008-2.2887482.048867-2.2887482 1.8089641v8.5534856c0 2.9933201.9808921 5.8871295 4.9053489 5.8871295 4.1767878 0 4.5801619-3.2189964 4.5801619-4.9559928v-7.168331c0-4.1252554-.1510432-4.0497338-2.390036-4.1252554v-.655705c1.0573022.0257662 2.1110504.0524209 3.1701295.0524209.8565036 0 1.6845755-.0524209 2.5401906-.0524209z"/><path d="m115.459173 72.7175108h-.577518l-13.158526-14.4379496v9.382446c0 3.4722158.276321 4.1750108 2.995986 4.1750108v.6548165c-1.108834 0-2.243435-.0506439-3.348716-.0506439-1.107057 0-2.241658.0248777-3.3460501.0506439v-.6548165c1.5335324 0 2.6903451 0 2.6903451-3.1923417v-10.1154497c0-2.1652482-.9293595-2.9417878-3.0919422-2.9417878v-.655705c.7765396.0257662 1.5344209.0524209 2.3127374.0524209.6788058 0 1.3842658-.0524209 2.0639608-.0524209 1.030647 1.5361979 3.369151 3.8231691 6.238971 6.9932986 2.137705 2.3642698 4.503752 4.8520395 6.213205 6.7196439v-10.0150504c0-2.3127374-.530428-3.0190863-3.039522-3.0421871v-.655705c1.152371.0257662 2.334061.0524209 3.492651.0524209.981781 0 1.936907-.0524209 2.91691-.0524209v.655705c-1.531755 0-2.362492.125277-2.362492 2.5926116z"/><path d="m123.369392 57.3964029c0-1.7600971-.956014-1.7858633-2.291414-1.8089641v-.655705c1.181691.0257662 2.340281.0524209 3.473105.0524209 1.157701 0 2.31718-.0266547 3.571726-.0524209v.655705c-1.332733.0231008-2.289636.048867-2.289636 1.8089641v12.6298741c0 1.7574316.956903 1.7885288 2.289636 1.810741v.6548165c-1.206568 0-2.289636-.0506439-3.398471-.0506439-1.206568 0-2.389147.0248777-3.64636.0506439v-.6548165c1.3354-.0222122 2.291414-.0533094 2.291414-1.810741z"/><path d="m135.595004 62.451018c-.626385-1.609054-1.359389-3.2394317-1.933353-4.8778058-.581072-1.5095431-.983557-1.9857734-2.645032-1.9857734v-.655705c1.183467.0257662 2.368712.0524209 3.551291.0524209 1.056414 0 2.135928-.0524209 3.192342-.0524209v.655705c-.379385.0231008-.728561.0231008-1.079515.0755216-.353618.0204353-.659259.2230108-.659259.5979533 0 .8369568 1.336288 3.8782554 1.612608 4.607705l3.346939 8.605018 1.91114-4.981759c.605062-1.6348201 1.30608-3.2447626 1.837396-4.8795827.251443-.8023058.777428-2.0390828.777428-2.8689317 0-1.1816906-1.004881-1.1070575-1.910252-1.1559245v-.655705c.981781.0257662 1.988439.0524209 2.97022.0524209.777428 0 1.561964-.0266547 2.339392-.0524209v.655705c-.855615 0-1.332734.3767195-1.686353.9808921-.151043.2789856-1.860496 4.6281403-1.912917 4.7560828l-4.601485 11.5476942h-.932026z"/><path d="m156.567791 62.8810468h3.322062c2.037305 0 2.037305-1.5859533 2.112827-2.1634713h.501996c-.048867.5517518-.100399 1.9102518-.100399 2.8200648 0 .8014173.126165 1.9848849.100399 2.7916331h-.501996c0-2.4149137-.806748-2.4149137-2.74632-2.4149137h-2.688569v4.2771871c0 2.7925215.101288 3.4988705 2.589058 3.4988705h1.560187c2.464669-.128831 3.573504-.4566835 4.55173-3.1452518l.609504.0995108c-.402486 1.2545467-.782759 2.5366366-1.032425 3.8471582-2.514424 0-5.03418-.0506439-7.548604-.0506439-1.86405 0-3.72277 0-5.58682.0506439v-.6548165c2.188349 0 2.391813-.4024856 2.391813-2.842277v-11.1718633c0-2.061295-.400709-2.1599173-2.391813-2.2354389v-.655705c1.689018.0524209 3.396694.0524209 5.083047.0524209 2.415802 0 4.804949 0 7.246518-.0524209v3.750313l-.501108.1279424c-.380274-2.3713777-1.509543-3.0741727-4.027522-3.0741727h-2.943565z"/><path d="m174.264719 55.7358165c-.629938 0-1.05819.0755216-1.51132.1501547v7.3753489c.374943.0728562.908036.1217231 1.338065.1217231 3.091942 0 4.296734-2.0355288 4.296734-3.8489353 0-2.1865719-1.152371-3.7982914-4.123479-3.7982914m-1.51132 8.4539749v5.8364856c0 1.7592086.959569 1.7885288 2.290525 1.810741v.6548165c-1.207456 0-2.290525-.0506439-3.394028-.0506439-1.211011 0-2.392702.0248777-3.649914.0506439v-.6548165c1.257212.0764101 2.28786-.2496655 2.28786-1.6827986v-12.7578165c0-1.7600971-.955126-1.7858633-2.28786-1.8089641v-.655705c1.381601.0257662 2.592612.0524209 3.821392.0524209.881381 0 1.765428-.0524209 3.375371-.0524209 4.756971 0 5.809831 2.6707986 5.809831 4.4531079 0 2.1377051-1.609943 3.7218813-3.568173 4.3038418 2.286083 3.3433848 3.489985 5.3620323 4.576608 6.5641582.801417.908036 1.55841 1.5841763 2.838723 1.5841763v.6548165c-.624608 0-1.250993-.0506439-1.884486-.0506439-.702795 0-1.433133.0248777-2.135928.0506439-2.290525-2.5144244-3.975989-5.4597662-5.789396-8.3020431z"/><path d="m186.535644 68.3425899h.581072c.423809 1.8898166 1.832953 3.7218813 3.921791 3.7218813 1.93513 0 3.44645-1.3585 3.44645-3.3451618 0-4.6805612-7.446428-3.2954065-7.446428-9.2376223 0-3.2412087 2.313626-4.9248957 5.383356-4.9248957 1.030647 0 2.063072.2238992 3.067953.3749424l.404263 3.2225504h-.577518c-.279874-1.7645396-1.435799-2.798741-3.247428-2.798741-1.912029 0-3.020864 1.3878201-3.020864 3.2225503 0 4.6832266 7.752069 3.3975828 7.752069 9.1834245 0 3.2687518-2.945342 5.1105899-5.914673 5.1105899-1.309633 0-2.665468-.3074173-3.847158-.8573921z"/><path d="m201.943824 57.3964029c0-1.7600971-.95868-1.7858633-2.291414-1.8089641v-.655705c1.179025.0257662 2.337615.0524209 3.46955.0524209 1.15859 0 2.316292-.0266547 3.574393-.0524209v.655705c-1.336288.0231008-2.290526.048867-2.290526 1.8089641v12.6298741c0 1.7574316.954238 1.7885288 2.290526 1.810741v.6548165c-1.20568 0-2.290526-.0506439-3.397583-.0506439-1.209234 0-2.389148.0248777-3.64636.0506439v-.6548165c1.332734-.0222122 2.291414-.0533094 2.291414-1.810741z"/><path d="m225.549205 58.2235863h-.678806c-.07641-1.354946 0-2.259428-2.008874-2.259428h-3.830277v14.0621187c0 1.7592086.961346 1.7885288 2.290525 1.810741v.6548165c-1.203902 0-2.290525-.0506439-3.395805-.0506439-1.206569 0-2.388259.0248777-3.648137.0506439v-.6548165c1.336288-.0222122 2.291414-.0515324 2.291414-1.810741v-14.0621187h-3.295407c-2.261205 0-2.366047.6334928-2.792521 2.259428h-.650375l.271878-3.9946475h.505551c.273654.6788058.95246.702795 1.582399.702795h11.421529c.906259 0 1.53442-.2238993 1.640151-.702795h.524208z"/><path d="m238.849 70.026277c0 1.7592086.954237 1.7885288 2.286971 1.810741v.6548165c-1.254547-.0257662-2.415802-.0506439-3.568172-.0506439-1.132824 0-2.290526.0248777-3.47577.0506439v-.6548165c1.336288-.0222122 2.290525-.0515324 2.290525-1.810741v-6.0861511l-5.254525-7.248295c-.732115-1.0288705-.859169-.9791151-2.342058-1.1043921v-.655705c.478896.0257662 2.342058.0524209 3.494428.0524209 1.035979 0 2.039083-.0524209 3.071507-.0524209v.655705c-.402485 0-1.407366 0-1.407366.5259857 0 .3020863.350953.8822697.828072 1.561964l3.524636 4.9524388 3.295407-4.4975323c.298532-.4291403.980003-1.2358885.980003-1.8134065 0-.7294497-.501108-.7294497-1.785863-.7294497v-.655705c.956014.0257662 1.935129.0524209 2.892921.0524209.678806 0 1.3585-.0524209 2.063072-.0524209v.655705c-1.056414.0231008-1.53531.702795-2.088838 1.4580108l-4.80495 6.4921907z"/><path d="m77.4371655 34.5853309h.942687c.6947986 3.0741727 2.9879892 6.0612734 6.3873489 6.0612734 3.1523598 0 5.6081439-2.2087842 5.6081439-5.4464388 0-7.6143526-12.1198813-5.3620324-12.1198813-15.0243526 0-5.2820683 3.7654173-8.025723 8.7622806-8.025723 1.6801331 0 3.3576007.3669461 4.9968633.6148346l.6548166 5.2420863h-.9426871c-.4513525-2.8680432-2.3340611-4.5472878-5.2820683-4.5472878-3.1106008 0-4.9115684 2.2514317-4.9115684 5.2394209 0 7.617018 12.6085504 5.5317338 12.6085504 14.9470539 0 5.3229389-4.7907338 8.3118166-9.6223382 8.3118166-2.1270431 0-4.3376043-.492223-6.2638489-1.3922626z"/><path d="m98.8213237 20.1909173c-2.4477877 0-2.5472985.5881798-3.0350791 2.9702194h-.9808921c.1314964-.9133669.2949784-1.8276223.3936007-2.7747518.128831-.9142554.1945792-1.8276223.1945792-2.7747518h.7854244c.2594389.9808921 1.075072.9471295 1.9582303.9471295h16.8430899c.88227 0 1.697014-.0337626 1.762763-1.0102122l.78187.1279424c-.129719.8822698-.259439 1.7645396-.357173 2.6468094-.065748.8778273-.065748 1.7600971-.065748 2.6423669l-.980892.3616151c-.06486-1.2127878-.226565-3.1363669-2.413137-3.1363669h-5.354036v17.3646331c0 2.5153129 1.142598 2.8094028 2.709004 2.8094028h.619277v.9791151c-1.272317 0-3.557511-.1306079-5.317608-.1306079-1.960007 0-4.246978.1306079-5.518406.1306079v-.9791151h.620165c1.795637 0 2.709892-.163482 2.709892-2.7445431v-17.4294928z"/><path d="m116.906522 41.8327374c-1.370939 0-2.579285-1.1763597-2.579285-2.5801727 0-1.3691618 1.208346-2.6103812 2.579285-2.6103812 1.370938 0 2.610381 1.2412194 2.610381 2.6103812 0 1.403813-1.20568 2.5801727-2.610381 2.5801727"/><path d="m138.342212 37.8212086c0 5.5290684-.779205 6.9222195-1.885374 8.8449101-1.103503 1.9244676-3.767194 3.4038022-6.385572 3.4038022-2.047967 0-4.218547-.7809821-4.218547-2.7472087 0-1.2287805.900928-1.8427266 1.719227-1.8036331.656594 0 1.310522.4948885 1.310522 1.4757806 0 1.1070576 1.025316 1.7592086 2.212338 1.7592086 3.233212 0 3.233212-5.1176978 3.233212-8.3917805v-23.5867231c0-2.8627122-1.556633-2.9071366-3.725435-2.9462302v-1.06441c1.924467.041759 3.808953.0808525 5.65168.0808525 1.880931 0 3.765417-.0390935 5.815161-.0808525v1.06441c-2.170579.0390936-3.727212.083518-3.727212 2.9462302z"/><path d="m154.590014 40.3987158c6.332263 0 7.441098-5.5814892 7.441098-10.3500108 0-4.7658561-2.577508-10.5419244-7.996403-10.5419244-5.712986 0-7.41 5.0937086-7.41 9.464187 0 5.846259 2.677906 11.4277482 7.965305 11.4277482m-.489557-22.3295108c6.955093 0 12.501043 4.3082842 12.501043 11.2607123 0 7.5068453-5.384245 12.5028201-12.337561 12.5028201-6.921331 0-12.20873-4.6992194-12.20873-11.7191727 0-6.788946 5.256302-12.0443597 12.045248-12.0443597"/><path d="m175.29359 38.5026799c0 1.763651 1.370939 1.8622733 2.54641 1.8622733h.621054v.9791151c-1.436687 0-3.526414-.1306079-5.289176-.1306079-1.662364 0-3.623259.1306079-4.926673.1306079v-.9791151h.457572c1.173694 0 2.412248-.163482 2.412248-1.8622733v-17.1060828c0-1.6925719-1.238554-1.8560539-2.412248-1.8560539h-.457572v-.9817806c1.303414 0 3.264309.1306079 4.926673.1306079 1.762762 0 3.852489-.1306079 5.289176-.1306079v.9817806h-.621054c-1.175471 0-2.54641.0932913-2.54641 1.8560539v7.1496727h11.850669v-7.1496727c0-1.7627626-1.370939-1.8560539-2.545522-1.8560539h-.619277v-.9817806c1.436687 0 3.524637.1306079 5.2874.1306079 1.662363 0 3.619705-.1306079 4.930226-.1306079v.9817806h-.462014c-1.172806 0-2.412248.163482-2.412248 1.8560539v17.1060828c0 1.6987913 1.239442 1.8622733 2.412248 1.8622733h.462014v.9791151c-1.310521 0-3.267863-.1306079-4.930226-.1306079-1.762763 0-3.850713.1306079-5.2874.1306079v-.9791151h.619277c1.174583 0 2.545522-.0986223 2.545522-1.8622733v-8.1287878h-11.850669z"/><path d="m218.084119 34.910518.065748-.0648597v-12.2362734c0-2.6814604-1.862273-3.0715072-2.842277-3.0715072h-.717011v-.9791151c1.534421 0 3.035079.1306079 4.5695.1306079 1.338953 0 2.675241-.1306079 4.015083-.1306079v.9791151h-.489558c-1.370939 0-2.904471.2603273-2.904471 4.1465791v14.8528741c0 1.1425972.034651 2.2860828.195468 3.2954065h-1.238554l-16.81377-18.7364604v13.4490611c0 2.8378346.555306 3.8169497 3.06973 3.8169497h.553529v.9817805c-1.402036 0-2.807626-.1279424-4.211439-.1279424-1.467784 0-2.969331.1279424-4.437115.1279424v-.9817805h.454906c2.254098 0 2.939123-1.5335324 2.939123-4.1421367v-13.7467051c0-1.8267338-1.502435-2.9355683-2.971108-2.9355683h-.422921v-.9791151c1.238554 0 2.510871.1306079 3.752978.1306079.979116 0 1.926245-.1306079 2.90536-.1306079z"/><path d="m225.219576 26.7843957c1.436687-.2603274 3.359377-1.1736943 3.359377-2.7747518 0-.9791151-.718788-1.1763597-1.402036-1.4366871-.685913-.2603273-1.372716-.5881798-1.372716-1.7938597 0-1.4055899 1.081292-2.2203345 2.384705-2.2203345 1.892482 0 2.873375 1.6321547 2.873375 3.3940288 0 3.1034928-2.64681 5.0608345-5.385134 5.8107194z"/><path d="m244.738795 23.3877014c-.22923-2.1190467-1.600169-4.1412482-3.854266-4.1412482-2.577507 0-4.012417 1.5326439-4.012417 4.1128166 0 5.4162302 9.791151 3.7840755 9.791151 11.6196619 0 4.5055287-3.720993 6.8538057-7.897781 6.8538057-1.827622 0-3.590385-.6503741-5.190554-1.4704496-.16437-1.6641403-.390047-3.2936295-.555306-4.9568813l.914256-.1999101c.390935 2.7747518 1.95823 5.1932194 5.05728 5.1932194 2.221223 0 4.01686-1.4064784 4.01686-3.7201043 0-5.7813993-9.59746-3.9857626-9.59746-11.854223 0-4.240759 3.003093-6.7551835 7.21542-6.7551835.914256 0 3.689008.3598382 4.69922.4895576 0 1.5335324.131496 3.0999388.327852 4.6672338z"/><path d="m43.1477014 42.729223c0-1.9173597 1.5539677-3.4722158 3.4731044-3.4722158 1.9182482 0 3.4748813 1.5548561 3.4748813 3.4722158 0 .7196763-.0897375 1.1346007-.5926224 1.9413489-.5055503.8076367-6.3304856 8.6752087-6.3304856 8.6752087s-5.844482-7.95109-6.3216007-8.6752087c-.4762302-.7214532-.5926223-1.2216726-.5926223-1.9413489 0-1.9173597 1.5566331-3.4722158 3.4748813-3.4722158s3.4722158 1.5548561 3.4722158 3.4722158"/><path d="m23.0420791 44.8598201c-.8049712 0-1.4997697.3003094-2.0266438.8227411-.0239893.0293201-.0515324.0559748-.083518.07641-.005331.001777-.0115504.0071079-.0151044.0124389-.0017769 0 0-.005331-.0017769-.005331-.0364281.0186583-.0764101.0310972-.1208346.0310972-.1554856 0-.281651-.127054-.281651-.2825396 0-.0764101.0302086-.1457122.0808525-.1963561 0 0-.0008885 0-.0008885-.001777h.0035539s0-.003554.001777-.003554c.6254964-.5064388 1.0395324-1.354946 1.0395324-2.3198453 0-.3491762-.0541978-.4771187-.1519317-.784536-.3411798-1.0670755-2.2434352-3.0395215-2.2434352-3.0395215s-.0088849.0079964-.0133273.0133273c-.005331-.0053309-.0124389-.0133273-.0124389-.0133273s-1.9031439 1.972446-2.2434352 3.0395215c-.0977339.3074173-.1510432.4353598-.1510432.784536 0 .9648993.4113705 1.8134065 1.0404209 2.3198453l.0008884.003554h.001777v.001777c.0497554.0506439.079964.119946.079964.1963561 0 .1554856-.1243884.2825396-.2825395.2825396-.0426475 0-.0826295-.0124389-.1199461-.0310972v.005331c-.0053309-.005331-.0106618-.0106619-.0159928-.0124389-.0337626-.0204352-.0613057-.0470899-.0852949-.07641-.5250972-.5224317-1.2207842-.8227411-2.0239785-.8227411-1.6170503 0-2.9249064 1.3105216-2.9249064 2.925795 0 1.2705396.8156331 2.3376151 1.9449029 2.7436547-.1972447-.3278525-.3189677-.7081259-.3189677-1.1194964 0-1.193241.9666763-2.1599173 2.1590288-2.1599173.6432662 0 1.2154532.2807626 1.609054.7232302.3820503.5002195.5126582 1.0306475.5428669 1.7423274h-1.9386835c-.3385144 0-.613946.2763201-.613946.613946 0 .3385144.2754316.6148345.613946.6148345h1.8427266c-.1474892.6788058-.44691 1.3034137-.8760503 1.8169605h.8662769c-.0568633.1261654-.0906258.2656582-.0906258.4131475 0 .5517518.44691.9995503.9995503.9995503s.9995504-.4477985.9995504-.9995503c0-.1474893-.0328741-.2869821-.0924029-.4131475h.8600575c-.4282518-.5135468-.7276726-1.1381547-.8742733-1.8169605h1.8000791c.3394029 0 .6148345-.2763201.6148345-.6148345 0-.3376259-.2754316-.613946-.6148345-.613946h-1.896036c.0302087-.7116799.1608166-1.2421079.5419784-1.7423274.3944893-.4424676.9666763-.7232302 1.6081655-.7232302 1.1941295 0 2.1616943.9666763 2.1616943 2.1599173 0 .4113705-.1226116.7916439-.3216331 1.1194964 1.1319352-.4060396 1.9449028-1.4731151 1.9449028-2.7436547 0-1.6152734-1.3078561-2.925795-2.922241-2.925795"/></g><path d="m41.0339856 13.1851799c.205241-.8236295.3314065-1.6827986.3438453-2.5748418-.948018-.2594388-1.8400611-.62816184-2.6485863-1.08751076-.497554-.23011871-1.6028345-1.09017626-1.7227806-1.235l-.0008885-.1812518v-3.87914389h-3.7938489c-.1190575-.98711151-.9053705-1.7529892-1.8658273-1.7529892-.9613453 0-1.7494353.76587769-1.8667158 1.7529892h-3.833831l.0204353 4.12703238s-.6326043.49488849-.948018.70457194c-.0506439.03642806-.374054.24522302-.4309173.27543166-.9089244.55352877-1.9218021.99333097-3.0128669 1.29364027.0142158.8849353.1412698 1.7387734.3509532 2.557072h-12.7249424v14.5054748h12.311795v-5.1150324h8.0888057l.2007986.0355396c.6246079.0604172 1.2509928.3163021 1.8756007.900928.6263849-.5846259 1.2536583-.8405108 1.8800432-.900928l.1972446-.0355396h7.7911618v5.1150324h12.5490216v-14.5054748z" fill="#071b2c"/><path d="m31.3352374 5.53795324c-.1768093 5.13813306-.4229209 10.27804316-.7285611 15.41351076.2310072.0159928.4611259.0346511.695687.0346511.2816511 0 .5588597-.0186583.8334029-.0408705-.3260756-5.1345791-.5926223-10.2709352-.7774281-15.40729136z" fill="#fff"/><path d="m29.9829568 6.71520144c-.8911546 4.15102156-2.4611151 8.27272306-4.7738525 12.14831296.3571727.2807626.7347806.5366475 1.1292698.7685432 1.8525-4.2016655 3.0501835-8.5552626 3.6712374-12.91419069-.0071079 0-.0159928-.00088849-.0266547-.00266547" fill="#fff"/><path d="m28.2663957 7.33003597c-1.4224712 2.62815108-3.5113094 5.09548563-6.2229784 7.12035253.1554856.4398021.3367374.8671655.5535287 1.2740935 2.5917231-2.5019856 4.4886475-5.3913525 5.6952159-8.38467265-.0088849-.00266547-.0177698-.0079964-.0257662-.00977338" fill="#fff"/><path d="m34.4111871 7.33003597c-.0088849.00177698-.0177698.00710791-.0239893.00977338 1.196795 2.97377335 3.0786151 5.84714745 5.646349 8.33758275.2123489-.408705.3927122-.8342914.5455323-1.2740935-2.6876798-2.0133166-4.7560827-4.46376982-6.167892-7.07326263" fill="#fff"/><path d="m32.6706367 6.7187554c.6175 4.3464892 1.8098525 8.6903129 3.6525791 12.8795396.3927123-.2336727.7703202-.4895576 1.1239389-.7729856-2.3038525-3.8640396-3.8613741-7.9724137-4.7525288-12.11099645-.0106619.00355396-.0159928.00444245-.0239892.00444245" fill="#fff"/><path d="m25.2028849 18.8732878c.001777-.0026655.0044424-.0071079.0053309-.0097734-.0328741-.0257662-.0675252-.0497554-.1003993-.0764101.0328741.0266547.0621943.0568633.0950684.0861835" fill="#151e2c"/><g transform="translate(0 15.104317)"><path d="m22.5942806.62371942c.0044424.00977339.0106618.01865828.0168813.02932015-.0062195-.01066187-.0097734-.02221223-.0142159-.03198561-.0017769.00088849-.0017769.00266546-.0026654.00266546" fill="#151e2c" mask="url(#a)"/><g fill="#fff"><path d="m3.61970504 22.1216043v1.8756007h-.52243166v-1.2216726h-.95068345v1.1541475h-.51976619v-1.1541475h-1.05463669v1.274982h-.52154317v-1.9289101z" mask="url(#a)"/><path d="m.55264029 25.6204748v.2203453c0 .7365576.50021942 1.0670756 1.28208993 1.0670756.78098201 0 1.28475539-.330518 1.28475539-1.0670756v-.2203453zm3.06706475-.6530395v.9293597c0 1.1150539-.60328418 1.7067877-1.78497482 1.7067877-1.20123741 0-1.78408634-.7152338-1.78408634-1.7067877v-.9293597z" mask="url(#a)"/><path d="m3.61970504 28.9976223h-2.31184892c-.59173382 0-.78720144.1785863-.78720144.5624137 0 .3722769.19546762.5561942.78720144.5561942h2.31184892v.6548166h-2.31184892c-.9391331 0-1.30785612-.5437554-1.30785612-1.2110108 0-.6752518.36872302-1.2190072 1.30785612-1.2190072h2.31184892z" mask="url(#a)"/><path d="m.19102518 34.1304245c-.07552158-.1297195-.14393525-.4442446-.15370863-.7667662-.03820504-1.0848454.73211511-1.6676943 1.77520144-1.7041223 1.04219784-.0364281 1.85338848.4913345 1.89070503 1.5548561.01243885.3607266-.0737446.6628129-.12083453.7960863l-.58729137-.0151043c.06130576-.1359388.1812518-.3473993.16970144-.6823597-.01865827-.5410899-.40426259-.9924425-1.32829137-.9595684-.92491726.0328741-1.2758705.5099928-1.25632374 1.0519713.01243885.3171906.09595684.5242086.20790648.6681439z" mask="url(#a)"/></g></g><g fill="#fff"><path d="m1.88715108 51.7385036 1.58328777-.6832482-.00177698-.0124389-1.72011511-.2443345zm-.47711871.2105719-.17680935-1.2145647-.88671223-.1288309-.09417986-.6468202 3.70322303.6663669.10395323.7107914-3.36470863 1.6543669-.09773381-.6699209z"/><path d="m4.00619784 53.2906942-.19013669-.7765395.50732734-.1243885.53575899 2.179464-.50643885.1235-.1892482-.7694316-2.95955755.7312266-.15459712-.6352698z"/><path d="m5.14168705 55.3990791.2061295.622831-3.38780936 1.1194964-.20612949-.6201655z"/><path d="m3.44467266 59.3226475c.16525899.3793849.62371943.5446439 1.52198202.1492662.90092805-.3944892 1.09017626-.8405108.92402877-1.2207842-.16703597-.3758309-.62194244-.5410899-1.52109352-.1466007-.90003957.3936007-1.09017626.8396223-.92491727 1.2181187zm2.90535971-1.2705396c.29764389.6805827.06397123 1.525536-1.11238849 2.0373058-1.17635971.5153237-1.95556474.1128381-2.25143165-.5659677-.29764388-.6788057-.06397122-1.521982 1.11238849-2.0373057 1.17635971-.5153238 1.95378777-.1128381 2.25143165.5659676z"/><path d="m6.76584532 66.0449568c-.13593885-.0675251-.36605755-.2949784-.55264028-.5553057-.62993885-.8813813-.30830576-1.7956367.5428669-2.4033633.84584173-.6041727 1.81518346-.6112806 2.43446043.2549964.21057195.2967554.30297482.5935108.33940288.7285611l-.49933093.3145252c-.02310072-.1474892-.041759-.3909352-.23544964-.6628129-.31363669-.4371367-.88404677-.6059497-1.63748562-.0675252-.75343884.5393129-.7818705 1.1274928-.46823381 1.5717374.18480576.2567734.36783453.3820503.54197842.4406906z"/><path d="m9.95019065 64.586946.45135255.4762303-1.05197126 1.0031043.73122666.7632122 1.0501942-.9995504.4513525.4717878-2.58372659 2.4628921-.45135252-.4744532 1.13993165-1.0857338-.72856115-.7676547-1.14170863 1.0883993-.45135252-.4753418z"/><path d="m11.854223 68.6464532c.2549964.2354497.5499748.2656583.7969748 0 .2789857-.2967554.1901367-.5206546-.078187-.7703201l-.1954676-.1812518-.7178993.7712086zm.3856043-1.765428.8165216.7587698c.4629029.4318057.5837374.9320251.1377158 1.4126978-.3180791.3420684-.7436654.3713885-1.0768489.1457122l-.0106618.0115504c.0826295.1048417.1510431.248777.0053309.5712986l-.5846259 1.3122985-.5099928-.4744532.5313165-1.0892878c.128831-.2656583.0693022-.4495755-.1075072-.6130575l-.1083956-.0986223-1.0457518 1.1212733-.47978422-.4460215z"/><path d="m14.5410144 68.8454748.5028849.4184784-2.2816403 2.7418777-.5028849-.4167014z"/><path d="m14.0843309 72.1080072c.0524209.1421583.1936907.4238093.4700108.6334928.2283418.1732554.5277626.2016871.744554-.083518.1545971-.2043525.1039532-.3829388-.0426475-.7125683l-.1537086-.3473993c-.1625936-.3678345-.1759209-.7303381.1039532-1.0963957.3856043-.5108813 1.0066583-.4566834 1.4828885-.0941799.3011978.2292303.454018.4673454.5153237.5535288l-.3545072.4167015c-.0888489-.1457123-.19991-.3438454-.4398021-.5259856-.2612158-.1990216-.5002194-.1625936-.6485971.0328741-.1608166.2105719-.0808526.4007086.0097733.6112805l.1741439.4024856c.1919137.4424677.2141259.741-.0888489 1.1399317-.4389137.577518-1.0608561.5410899-1.6028345.1306079-.2834281-.2176798-.4726763-.4255863-.5490864-.6201655z"/><path d="m18.1465036 72.1462122-.6645899-.4424676.288759-.4353597 1.8693813 1.2456619-.288759.4344712-.661036-.4398022-1.6881295 2.5375252-.5455324-.3625036z"/><path d="m20.292205 72.9165324.5490864.3562841-1.9369065 2.9968741-.5490863-.3562841z"/><path d="m21.819518 76.5051403.5046619-1.6517015-.0097734-.0017769-1.3016367 1.1488165zm-.1492662.4984424-1.0404209-.652151-.6716978.5917338-.5553058-.3491763 2.9098022-2.3873705.6068381.3811619-.9231403 3.6356978-.57041-.3589496z"/><path d="m24.4165719 75.4558345.6752518.3829389-.3518417 3.0235288.0088849.0035539 1.3833777-2.4353489.5162122.2923129-1.763651 3.1043813-.6796943-.3891582.3465108-2.9986511-.0088849-.0053309-1.3736043 2.4175791-.5144353-.2932015z"/><path d="m27.8043813 79.8351978.3580611-1.6916834-.0088848-.003554-1.196795 1.2598777zm-.1066187.5091044-1.0919532-.5606367-.619277.6485971-.5828489-.2985324 2.6921223-2.6325935.6379352.328741-.6041727 3.701446-.6006187-.3091942z"/><path d="m35.7288165 79.535777-1.2465503-1.2101223-.0088849.0035539.4335827 1.6952374zm.377608.3625036-1.0617446.6317158.2221223.8724964-.5659677.3385144-.8023057-3.705.619277-.3660576 2.8307266 2.4939892-.5837374.3465108z"/><path d="m36.595982 76.6197554.6663669-.4095935 2.4966547 1.7734244.0079964-.0026654-1.4793345-2.4024749.5082158-.3154136 1.8862626 3.0590683-.6716979.4131475-2.4806618-1.7574317-.0097734.005331 1.4695611 2.3838165-.5064388.3145252z"/><path d="m40.0815252 74.4038633.5553057-.3518417 1.9262446 3.0297482-.5553057.3536187z"/><path d="m44.7629748 72.0911259-.0079964.0062194.9035935 2.9942087-.3918237.2585503-2.3696007-2.0222014-.0097734.0053309 1.6534784 2.4975432-.4975539.3296295-1.983108-2.9968741.8200756-.5437554 2.0986115 1.8276223.0071079-.005331-.8485072-2.6530287.7943094-.5242087 1.9813309 2.9933202-.4984424.3296295z"/><path d="m48.659 71.3172518-1.4082554-1.0190971-.0088849.0088849.6725863 1.6134964zm.4246978.3047518-.9595683.7774281.3429568.8334028-.5108813.4167015-1.3256259-3.5504029.5606367-.4531295 3.1621331 2.059518-.5295395.4300288z"/><path d="m48.9291007 68.4341043 1.3842662-1.2891978.3562842.3838273-.9000396.8378453.6521511.704572.8520611-.7925324.3571727.3829389-.8502842.7934208.7205648.7756511.9391331-.8742734.3562841.3847158-1.4198057 1.323849z"/><path d="m54.6794029 64.4483417c.2372266-.3349604.1785863-.5970647-.1412698-.8254064-.3189676-.2238993-.5837374-.1910252-.820964.1457122l-.1412698.2007985.9613453.6823598zm-1.8969245-.2327841.5943993-.8413993c.4291403-.6041727.9888885-.6814712 1.5433058-.2896475.5535287.3953777.6708093.9506834.241669 1.5566331l-.2123489.3003093 1.1470396.8156331-.3829389.535759z"/><path d="m54.8153417 61.7295647.9124784-1.6543669.459349.2549964-.5952878 1.0759605.8387338.4620144.5615252-1.0173202.4593489.252331-.5615252 1.0199856.9275828.5117698.6183885-1.1212734.4602374.2541079-.9382446 1.6987914z"/><path d="m58.1533957 58.4821367c.1314964-.3207446.0541978-.6086151-.2860935-.7472194-.3793849-.1545972-.5579713.0044424-.6956871.3482877l-.1003993.2496655.9808921.3998201zm-1.7991907.2692122.4220324-1.0377554c.2407806-.5917338.6716979-.8831582 1.2820899-.6352698.4326943.1750324.6130576.5659677.5188777.9613454l.0142159.0053309c.0701906-.1163921.1830287-.2292302.535759-.2096835l1.4446834.0817411-.2629928.6485971-1.2172302-.1128382c-.2949784-.0239892-.4433561.0986223-.5348705.3207447l-.0577518.1394928 1.4295791.5810719-.247.6103921z"/><path d="m57.6558417 55.4763777.4824497-1.7503237.5046618.1386043-.3065287 1.1159424.942687.2621043.2932014-1.0688525.5064389.1403813-.2940899 1.0670756 1.5077662.4149244-.1750324.6334928z"/><path d="m58.4688094 52.3186871.2994208-1.8640504.5179892.085295-.1963561 1.2127877.946241.1492662.1848058-1.1452626.5171007.085295-.1839173 1.1452626 1.0466403.1697014.2043525-1.2652086.5153238.081741-.3074173 1.9173597z"/><path d="m62.5185432 47.1121403c.0666367.1377158.1066187.4566834.0932913.782759-.0488669 1.0901762-.8724964 1.6126079-1.9209136 1.565518-1.0484173-.04709-1.8196259-.6459317-1.7716475-1.7130072.0177698-.3660576.1288309-.659259.1848057-.7907554l.5899569.0621942c-.0737446.1314964-.210572.3367374-.2256763.6699209-.0239892.5464208.3242986 1.0288705 1.2536583 1.0724065.9320252.041759 1.3238489-.4078166 1.3478381-.9524605.0151043-.3198561-.0533093-.5330935-.1554856-.6876906z"/><path d="m59.5998561 45.0632842v.8031942h-.5259856v-2.261205h.5259856v.7987518h3.0661763v.659259z"/><path d="m58.9814676 42.2521043h3.5921619v-.6583705h-3.5921619z"/><path d="m62.2137914 38.7976583c0-.415813-.3545072-.7507734-1.3442842-.7507734-.9853345 0-1.3425072.3349604-1.3425072.7507734 0 .4175899.3571727.7525503 1.3425072.7525503.989777 0 1.3442842-.3349604 1.3442842-.7525503zm-3.1887878 0c0-.7454425.5535288-1.4295792 1.8445036-1.4295792 1.2927518 0 1.848946.6841367 1.848946 1.4295792 0 .7481079-.5561942 1.4304676-1.848946 1.4304676-1.2909748 0-1.8445036-.6823597-1.8445036-1.4304676z"/></g></g></svg>