<?xml version="1.0" encoding="utf-8"?>
<!-- Generator: Adobe Illustrator 16.2.1, SVG Export Plug-In . SVG Version: 6.00 Build 0)  -->
<!DOCTYPE svg PUBLIC "-//W3C//DTD SVG 1.1//EN" "http://www.w3.org/Graphics/SVG/1.1/DTD/svg11.dtd">
<svg version="1.1" id="Layer_1" xmlns="http://www.w3.org/2000/svg" xmlns:xlink="http://www.w3.org/1999/xlink" x="0px" y="0px"
	 width="274px" height="120px" viewBox="0 0 274 120" enable-background="new 0 0 274 120" xml:space="preserve">
<g>
	<g>
		<defs>
			<rect id="SVGID_1_" x="30.951" y="5.545" width="214.917" height="109.416"/>
		</defs>
		<clipPath id="SVGID_2_">
			<use xlink:href="#SVGID_1_"  overflow="visible"/>
		</clipPath>
		<g clip-path="url(#SVGID_2_)">
			<path fill="#FFFFFF" d="M44.434,113.6c-1.983,0-3.125-1.294-3.125-3.58c0-0.152,0-0.556,0.017-0.723
				c0.251,0.017,0.923,0.05,1.227,0.05c0.42,0,0.839-0.017,1.21-0.05c-0.017,0.135,0,0.589,0,0.706c0,1.041,0.285,1.462,0.756,1.462
				c0.37,0,0.723-0.319,0.723-0.892c0-0.873-0.286-1.343-1.479-1.982c-0.471-0.252-0.875-0.505-1.194-0.756
				c-0.772-0.621-1.176-1.513-1.176-2.856c0-1.681,0.908-3.495,3.076-3.495c1.966,0,2.957,1.327,2.957,3.277v0.807
				c-0.772-0.068-1.63-0.084-2.403,0c0-0.084,0.017-0.69,0.017-0.774c0-0.94-0.302-1.176-0.656-1.176
				c-0.437,0-0.655,0.521-0.655,1.041c0,0.304,0.083,0.606,0.218,0.807c0.32,0.455,0.908,0.79,1.462,1.109
				c0.571,0.337,1.076,0.64,1.496,1.244c0.47,0.671,0.655,1.445,0.655,2.217C47.56,112.236,46.35,113.6,44.434,113.6z"/>
			<path fill="#FFFFFF" d="M52.096,103.936h-0.034c-0.202,0-0.218,0.019-0.218,0.338c-0.017,0.554-0.017,1.41-0.017,2.116
				c0,2.353,0.017,4.957,0.033,7.007c-0.336-0.016-0.823-0.033-1.227-0.033c-0.42,0-0.891,0.018-1.209,0.033
				c0.017-2.032,0.017-4.603,0.017-7.007c0-0.706,0.016-1.546,0-2.134c0-0.302-0.017-0.32-0.202-0.32h-0.066
				c-0.471,0-0.875,0.019-1.53,0.034c0.018-0.202,0.018-0.638,0.018-1.075c0-0.471,0-0.976-0.018-1.176
				c1.008,0.032,1.933,0.051,2.942,0.051c1.041,0,2.015-0.019,3.041-0.051c-0.017,0.267,0,0.688,0,1.127
				c0,0.402-0.017,0.805,0,1.124C53.071,103.954,52.583,103.936,52.096,103.936z"/>
			<path fill="#FFFFFF" d="M54.163,113.363c-0.437,0-0.958,0.018-1.193,0.033c0.017-0.334,0.033-0.755,0.033-1.193
				c0-0.586-0.017-1.175-0.033-1.546c0.387,0.033,0.772,0.018,1.159,0.018s0.807,0.016,1.193-0.018
				c-0.017,0.337-0.033,0.875-0.033,1.411c0,0.538,0.017,1.061,0.033,1.328C55.054,113.381,54.566,113.363,54.163,113.363z"/>
			<path fill="#FFFFFF" d="M61.589,113.615c-2.099,0-3.058-1.192-3.058-3.494c0-0.304,0.017-0.622,0.017-0.976
				c0.403,0.034,0.84,0.067,1.261,0.067c0.353,0,0.706-0.016,1.058-0.067c-0.017,0.219-0.034,0.521-0.034,0.874
				c0,1.126,0.286,1.411,0.723,1.411c0.302,0,0.622-0.202,0.638-1.328c0.017-1.177,0.034-2.52,0.034-4.031
				c0-1.429-0.017-3.293-0.034-4.353c0.336,0.016,0.741,0.032,1.076,0.032c0.42,0,0.941,0,1.361-0.032
				c-0.017,0.604-0.017,1.193-0.017,1.798v2.051c0,1.713,0.017,3.378,0.017,4.822v0.066
				C64.631,112.322,63.538,113.615,61.589,113.615z"/>
			<path fill="#FFFFFF" d="M68.782,113.6c-2.37,0-3.344-2.169-3.344-6.052c0-3.913,0.891-6.064,3.344-6.064
				c2.353,0,3.395,1.865,3.395,5.999C72.176,111.8,71.067,113.6,68.782,113.6z M68.815,103.617c-0.622,0-0.806,0.606-0.806,4.101
				c0,3.192,0.251,3.729,0.789,3.729c0.588,0,0.807-0.437,0.807-3.814C69.605,103.97,69.336,103.617,68.815,103.617z"/>
			<path fill="#FFFFFF" d="M78.208,113.363c-0.471,0-0.975,0.018-1.277,0.033c0-0.874,0.017-3.073,0.017-4.283v-0.286
				c0-0.135-0.033-0.185-0.151-0.201c-0.168-0.019-0.42-0.019-0.622-0.019c-0.218,0-0.437,0.019-0.672,0.035
				c-0.101,0-0.117,0.05-0.117,0.185v0.268c0,1.396,0.017,3.127,0.033,4.302c-0.269-0.016-0.84-0.033-1.259-0.033
				c-0.438,0-0.858,0.018-1.177,0.033c0-1.663,0.033-4.166,0.033-6.167c0-2.033-0.033-3.797-0.033-5.511
				c0.386,0.016,0.891,0.032,1.276,0.032c0.37,0,0.773-0.017,1.144-0.032c-0.017,1.143-0.017,3.042-0.017,4.234v0.286
				c0,0.1,0.033,0.219,0.134,0.219c0.218,0.016,0.437,0.016,0.655,0.016c0.202,0,0.454-0.016,0.622-0.016
				c0.118,0,0.151-0.084,0.151-0.203v-0.302c0-1.378-0.017-2.84-0.017-4.234c0.302,0.016,0.891,0.032,1.294,0.032
				c0.404,0,0.807-0.017,1.109-0.032c-0.017,1.948-0.017,3.897-0.017,5.796c0,1.917,0,3.933,0.017,5.882
				C79.066,113.381,78.578,113.363,78.208,113.363z"/>
			<path fill="#FFFFFF" d="M87.197,107.633c0,1.916-0.016,3.848,0,5.764c-0.302-0.016-0.856-0.033-1.327-0.033
				c-0.437,0-1.125,0.018-1.361,0.033c-0.42-1.578-1.529-5.293-1.882-6.535c-0.05-0.152-0.1-0.589-0.134-0.725
				c-0.033-0.134-0.016-0.202-0.067-0.202c-0.033,0-0.067,0.068-0.067,0.152l0.016,0.925l0.034,6.385
				c-0.252-0.016-0.723-0.033-1.059-0.033c-0.437,0-0.806,0.018-1.042,0.033c0.017-1.513,0.034-3.478,0.034-5.427
				c0-2.035,0-4.353-0.017-6.251c0.438,0.016,0.925,0.032,1.361,0.032c0.42,0,0.908-0.017,1.344-0.032
				c0.37,1.461,1.412,5.158,1.798,6.438c0.101,0.318,0.185,0.805,0.201,0.838c0.017,0.051,0.034,0.119,0.084,0.119
				c0.016,0,0.05-0.085,0.05-0.152c0-0.167-0.017-0.37-0.017-0.588v-0.336l-0.033-6.318c0.319,0.016,0.807,0.032,1.109,0.032
				c0.353,0,0.622-0.017,0.992-0.032C87.197,103.583,87.197,105.718,87.197,107.633z"/>
			<path fill="#FFFFFF" d="M89.567,106.307c-0.235-0.018-0.589-0.034-0.824-0.034c-0.286,0-0.588,0.017-0.891,0.034
				c0.134-1.211,0.234-3.984,0.234-4.94c0.337,0.016,0.807,0.033,1.143,0.033c0.337,0,0.656-0.018,0.991-0.033
				C90.121,102.558,89.835,104.995,89.567,106.307z"/>
			<path fill="#FFFFFF" d="M93.818,113.6c-1.983,0-3.126-1.294-3.126-3.58c0-0.152,0-0.556,0.017-0.723
				c0.252,0.017,0.924,0.05,1.227,0.05c0.42,0,0.841-0.017,1.21-0.05c-0.017,0.135,0,0.589,0,0.706c0,1.041,0.286,1.462,0.756,1.462
				c0.37,0,0.723-0.319,0.723-0.892c0-0.873-0.286-1.343-1.479-1.982c-0.471-0.252-0.873-0.505-1.193-0.756
				c-0.772-0.621-1.176-1.513-1.176-2.856c0-1.681,0.908-3.495,3.075-3.495c1.966,0,2.957,1.327,2.957,3.277v0.807
				c-0.772-0.068-1.63-0.084-2.403,0c0-0.084,0.017-0.69,0.017-0.774c0-0.94-0.303-1.176-0.655-1.176
				c-0.438,0-0.656,0.521-0.656,1.041c0,0.304,0.084,0.606,0.219,0.807c0.32,0.455,0.908,0.79,1.463,1.109
				c0.57,0.337,1.074,0.64,1.495,1.244c0.471,0.671,0.655,1.445,0.655,2.217C96.943,112.236,95.734,113.6,93.818,113.6z"/>
			<path fill="#FFFFFF" d="M103.379,113.615c-2.101,0-3.092-1.261-3.092-3.612v-0.101c0-1.446,0.034-3.412,0.034-4.974
				c0-1.193-0.017-2.354-0.034-3.21c0.302,0.016,0.655,0.032,1.025,0.032c0.453,0,1.042-0.017,1.411-0.032
				c-0.016,1.461-0.016,3.512-0.016,5.393c0,1.045,0,2.034,0.016,2.941c0.017,0.84,0.084,1.245,0.707,1.245
				c0.588,0,0.655-0.388,0.655-1.21c0-0.927,0.034-1.899,0.034-2.977c0-1.779,0-3.611-0.034-5.393
				c0.336,0.016,0.823,0.016,1.16,0.016c0.42,0,0.857,0,1.277-0.032c-0.017,1.108-0.033,1.999-0.033,3.108
				c0,1.595,0.033,3.596,0.033,5.075v0.083C106.521,112.456,105.295,113.615,103.379,113.615z"/>
			<path fill="#FFFFFF" d="M114.368,107.633c0,1.916-0.017,3.848,0,5.764c-0.303-0.016-0.857-0.033-1.327-0.033
				c-0.438,0-1.126,0.018-1.362,0.033c-0.42-1.578-1.529-5.293-1.881-6.535c-0.051-0.152-0.101-0.589-0.135-0.725
				c-0.034-0.134-0.017-0.202-0.067-0.202c-0.034,0-0.067,0.068-0.067,0.152l0.017,0.925l0.035,6.385
				c-0.253-0.016-0.723-0.033-1.06-0.033c-0.436,0-0.807,0.018-1.042,0.033c0.017-1.513,0.033-3.478,0.033-5.427
				c0-2.035,0-4.353-0.016-6.251c0.436,0.016,0.924,0.032,1.361,0.032c0.42,0,0.907-0.017,1.345-0.032
				c0.369,1.461,1.411,5.158,1.798,6.438c0.101,0.318,0.184,0.805,0.202,0.838c0.017,0.051,0.034,0.119,0.083,0.119
				c0.017,0,0.051-0.085,0.051-0.152c0-0.167-0.017-0.37-0.017-0.588v-0.336l-0.034-6.318c0.319,0.016,0.806,0.032,1.109,0.032
				c0.353,0,0.622-0.017,0.991-0.032C114.368,103.583,114.368,105.718,114.368,107.633z"/>
			<path fill="#FFFFFF" d="M116.586,113.363c-0.454,0-0.924,0.018-1.227,0.033c0.017-2.084,0.033-3.747,0.033-5.965
				c0-1.78-0.016-4.437-0.033-5.713c0.369,0.016,0.823,0.032,1.227,0.032s0.874-0.017,1.193-0.032
				c-0.017,1.395-0.017,3.629-0.017,5.696c0,2.218,0,4.521,0.017,5.981C117.493,113.381,116.972,113.363,116.586,113.363z"/>
			<path fill="#FFFFFF" d="M122.703,113.396c-0.354-0.016-0.857-0.033-1.21-0.033c-0.402,0-0.941,0.018-1.344,0.033
				c-0.521-3.176-1.496-8.721-2.033-11.678c0.437,0.016,0.856,0.032,1.26,0.032c0.386,0,0.89-0.017,1.227-0.032
				c0.437,3.21,0.74,5.546,0.806,6.133l0.101,0.823c0,0.051,0.034,0.067,0.05,0.067c0.017,0,0.017-0.017,0.033-0.084l0.135-0.79
				c0.101-0.604,0.386-2.89,0.873-6.149c0.387,0.016,0.925,0.032,1.311,0.032c0.336,0,0.639-0.017,0.975-0.032
				C124.333,104.625,123.273,110.221,122.703,113.396z"/>
			<path fill="#FFFFFF" d="M127.541,113.348c-0.823,0-1.512,0-2.318,0.033c0-1.463,0.033-3.579,0.033-5.579
				c0-2.018-0.016-4.353-0.033-6.083c0.706,0.016,1.378,0.032,2.235,0.032c0.807,0,1.445-0.017,2.419-0.032
				c-0.016,0.285-0.016,0.723-0.016,1.143c0,0.419,0,0.84,0.016,1.108c-0.874-0.016-1.377-0.034-2.134-0.034
				c-0.167,0-0.167,0.068-0.167,0.103c-0.035,0.401-0.035,1.746-0.035,1.864v0.337c0,0.219,0.018,0.234,0.202,0.234h0.084
				c0.638,0,1.327-0.016,1.932-0.033c0,0.235-0.017,0.671-0.017,1.107c0,0.438,0.017,0.892,0.017,1.127
				c-0.656-0.017-1.345-0.032-1.932-0.032h-0.101c-0.134,0-0.186,0.05-0.186,0.236v0.267c0,0.538,0,1.36,0.018,1.747
				c0,0.168,0.034,0.186,0.185,0.186c0.807,0,1.412-0.018,2.286-0.034c-0.016,0.437-0.016,0.824-0.016,1.178
				c0,0.42,0,0.822,0.016,1.159C129.155,113.348,128.365,113.348,127.541,113.348z"/>
			<path fill="#FFFFFF" d="M135.858,113.363c-0.452,0-0.906,0.018-1.311,0.033c-0.219-1.141-0.553-2.755-0.706-3.377
				c-0.185-0.706-0.319-0.906-0.588-0.906h-0.034c-0.118,0-0.134,0.032-0.134,0.217v0.472c0,1.276,0.017,2.401,0.034,3.595
				c-0.286-0.016-0.807-0.033-1.209-0.033c-0.438,0-0.807,0.018-1.16,0.033c0.017-1.328,0.017-3.058,0.017-4.889
				c0-2.219,0-4.807-0.017-6.789c0.471,0.016,1.16,0.032,1.663,0.032c0.689,0,1.026-0.032,1.714-0.032
				c1.697,0,2.79,1.411,2.79,3.579c0,1.495-0.672,2.588-1.227,2.891c-0.135,0.066-0.167,0.066-0.167,0.101
				c0,0.066,0.066,0.102,0.134,0.219c0.101,0.167,0.303,0.403,0.604,1.545c0.186,0.688,0.522,2.203,0.773,3.344
				C136.716,113.381,136.295,113.363,135.858,113.363z M133.288,103.819h-0.034c-0.101,0-0.151,0.066-0.151,0.219
				c-0.017,0.368-0.034,0.806-0.034,1.175c0,0.471,0.017,1.06,0.017,1.529c0,0.169,0.017,0.203,0.168,0.203h0.05
				c0.774,0,1.178-0.59,1.178-1.58C134.482,104.273,134.061,103.819,133.288,103.819z"/>
			<path fill="#FFFFFF" d="M140.613,113.6c-1.981,0-3.124-1.294-3.124-3.58c0-0.152,0-0.556,0.016-0.723
				c0.251,0.017,0.924,0.05,1.228,0.05c0.418,0,0.838-0.017,1.209-0.05c-0.018,0.135,0,0.589,0,0.706
				c0,1.041,0.285,1.462,0.756,1.462c0.369,0,0.722-0.319,0.722-0.892c0-0.873-0.284-1.343-1.478-1.982
				c-0.471-0.252-0.874-0.505-1.192-0.756c-0.773-0.621-1.177-1.513-1.177-2.856c0-1.681,0.906-3.495,3.075-3.495
				c1.966,0,2.959,1.327,2.959,3.277v0.807c-0.774-0.068-1.632-0.084-2.403,0c0-0.084,0.017-0.69,0.017-0.774
				c0-0.94-0.304-1.176-0.655-1.176c-0.438,0-0.655,0.521-0.655,1.041c0,0.304,0.083,0.606,0.217,0.807
				c0.32,0.455,0.909,0.79,1.464,1.109c0.57,0.337,1.074,0.64,1.493,1.244c0.472,0.671,0.656,1.445,0.656,2.217
				C143.739,112.236,142.53,113.6,140.613,113.6z"/>
			<path fill="#FFFFFF" d="M145.655,113.363c-0.453,0-0.923,0.018-1.228,0.033c0.018-2.084,0.034-3.747,0.034-5.965
				c0-1.78-0.017-4.437-0.034-5.713c0.37,0.016,0.824,0.032,1.228,0.032s0.873-0.017,1.192-0.032
				c-0.017,1.395-0.017,3.629-0.017,5.696c0,2.218,0,4.521,0.017,5.981C146.562,113.381,146.04,113.363,145.655,113.363z"/>
			<path fill="#FFFFFF" d="M151.855,103.936h-0.032c-0.202,0-0.221,0.019-0.221,0.338c-0.015,0.554-0.015,1.41-0.015,2.116
				c0,2.353,0.015,4.957,0.033,7.007c-0.337-0.016-0.823-0.033-1.227-0.033c-0.421,0-0.891,0.018-1.21,0.033
				c0.016-2.032,0.016-4.603,0.016-7.007c0-0.706,0.018-1.546,0-2.134c0-0.302-0.016-0.32-0.2-0.32h-0.068
				c-0.471,0-0.873,0.019-1.529,0.034c0.017-0.202,0.017-0.638,0.017-1.075c0-0.471,0-0.976-0.017-1.176
				c1.008,0.032,1.933,0.051,2.94,0.051c1.043,0,2.017-0.019,3.043-0.051c-0.018,0.267,0,0.688,0,1.127c0,0.402-0.018,0.805,0,1.124
				C152.83,103.954,152.343,103.936,151.855,103.936z"/>
			<path fill="#FFFFFF" d="M158.09,108.439c-0.101,0.319-0.186,0.589-0.186,0.941v1.276c0,1.109,0.018,1.648,0.035,2.739
				c-0.354-0.016-0.789-0.033-1.211-0.033c-0.454,0-0.89,0.018-1.209,0.033c0.017-1.091,0.017-1.578,0.017-2.739v-1.276
				c0-0.201-0.101-0.723-0.168-0.925c-0.638-2.117-1.126-3.695-2.051-6.737c0.403,0.016,0.874,0.032,1.311,0.032
				c0.436,0,0.74-0.017,1.144-0.032c0.335,1.326,0.621,2,0.891,3.478l0.099,0.539c0.019,0.082,0.053,0.15,0.086,0.15
				c0.032,0,0.051-0.05,0.066-0.15l0.135-0.555c0.337-1.395,0.521-2.136,0.892-3.462c0.335,0.016,0.723,0.032,1.058,0.032
				c0.387,0,0.808-0.017,1.211-0.032C159.267,104.693,158.644,106.641,158.09,108.439z"/>
		</g>
		<path clip-path="url(#SVGID_2_)" fill="#FFFFFF" d="M78.189,89.562L78.189,89.562c13.324,10.9,32.071,12.438,46.53,5.545
			c36.26-17.29,58.409-73.841,106.798-48.412c0.261,0.063,0.402,0.103,0.402,0.103c-1.733-1.433-5.477-4.115-9.538-6.513
			C157.808,1.859,139.234,106.709,78.189,89.562 M135.502,95.825c8.785,2.765,29.417,2.621,29.417-21.313v-4.732
			C155.354,79.474,146.051,89.444,135.502,95.825 M136.311,27.13c0-6.385,2.808-8.814,7.281-8.814c4.47,0,7.28,2.43,7.28,8.814
			v22.084c4.554-4.369,9.186-8.438,14.047-11.813v-9.377c0-14.303-7.533-22.479-21.327-22.479c-13.794,0-21.33,8.175-21.33,22.479
			c0,50.647-0.03,46.746,0.07,48.571c4.828-3.864,9.441-8.257,13.979-12.787V27.13z M78.08,89.562
			c0.02,0.019,0.046,0.035,0.067,0.052c0.021-0.027,0.042-0.052,0.042-0.052H78.08z M72.2,74.512v-7.411h13.283
			c0,8.731-1.381,16.987,7.28,16.987c4.47,0,7.28-2.296,7.28-8.683V55.739c0-6.386-2.811-8.814-7.28-8.814
			c-4.471,0-7.28,2.428-7.28,8.814v2.679H72.2l2.555-51.851h37.038v12.773H87.271l-1.148,21.326h0.252
			c2.555-4.212,6.516-6.513,12.134-6.513c10.344,0,15.582,7.282,15.582,20.433c0,21.498,0.284,23.55-1.069,28.494
			c-1.429,0.84-2.878,1.627-4.359,2.339v0.003c-4.066,2.274-8.677,3.51-13.058,4.142c-7.19,1.129-16.053,0.34-17.416,0
			c3.957,3.237,8.356,5.687,13.354,7.367C78.811,96.305,72.2,88.245,72.2,74.512 M41.805,27.768H30.951v-9.96
			c10.854,0,13.281-5.237,15.453-11.241h9.451v89.401h-14.05V27.768z"/>
	</g>
	<g>
		<defs>
			<rect id="SVGID_3_" x="126.619" y="39.562" width="34.238" height="52.441"/>
		</defs>
		<clipPath id="SVGID_4_">
			<use xlink:href="#SVGID_3_"  overflow="visible"/>
		</clipPath>
		<path clip-path="url(#SVGID_4_)" fill="#FFFFFF" d="M142.985,91.574c-0.171-0.091-4.23-2.288-7.76-4.648
			c-5.55-3.713-8.606-9.176-8.606-15.38V46.949h8.538c0-0.029-0.022-1.365-0.022-1.365l1.234-0.339
			c0.597-0.165,1.152-0.403,1.653-0.709c0,0,0.122-0.074,0.155-0.096l-0.018-3.668h3.238c0.542-0.739,1.401-1.21,2.357-1.21
			c0.95,0,1.812,0.471,2.354,1.21h3.203v3.652c0.104,0.073,0.193,0.133,0.248,0.162l0.061,0.029l0.044,0.023
			c0.445,0.253,0.932,0.455,1.446,0.594l1.237,0.337c0,0-0.021,1.348-0.022,1.38h8.531v24.597c0,6.207-3.059,11.67-8.605,15.38
			c-3.451,2.309-7.512,4.549-7.683,4.642l-0.789,0.436L142.985,91.574z"/>
		<path clip-path="url(#SVGID_4_)" fill="#D91A32" d="M142.356,62.844c-0.019-0.006-0.118-0.024-0.118-0.024
			c-0.013-0.002-5.49-0.007-5.49-0.007V59.42h-8.492v11.914c0,5.671,2.786,10.601,7.874,14.002c3.502,2.345,7.089,4.32,7.089,4.32
			V63.741C143.169,63.289,142.805,62.914,142.356,62.844"/>
		<path clip-path="url(#SVGID_4_)" fill="#D91A32" d="M150.564,59.42v3.392h-5.267c-0.551,0-0.987,0.436-1.003,0.981
			c-0.003,0.001-0.008,0.002-0.009,0.005v25.863c0,0,3.596-2.03,7.026-4.327c5.093-3.4,7.873-8.33,7.873-14.001V59.42H150.564z"/>
		<path clip-path="url(#SVGID_4_)" fill="#FFFFFF" d="M151.878,68.767c0-1.324,1.071-2.393,2.394-2.393
			c1.323,0,2.396,1.068,2.396,2.393c0,0.498-0.06,0.784-0.409,1.342c-0.346,0.557-4.363,5.981-4.363,5.981s-4.034-5.483-4.361-5.981
			c-0.329-0.499-0.409-0.844-0.409-1.342c0-1.324,1.073-2.393,2.396-2.393c1.323,0,2.395,1.068,2.395,2.393H151.878z"/>
		<path clip-path="url(#SVGID_4_)" fill="#FFFFFF" d="M138.012,70.239c-0.555,0-1.035,0.205-1.398,0.565
			c-0.018,0.021-0.035,0.038-0.059,0.051c-0.003,0.002-0.008,0.006-0.011,0.01v-0.004c-0.025,0.013-0.052,0.022-0.084,0.022
			c-0.106,0-0.194-0.089-0.194-0.196c0-0.052,0.021-0.099,0.055-0.134c0,0,0.001,0,0.001-0.001c0,0,0-0.002,0.003-0.002
			c0.43-0.353,0.714-0.938,0.714-1.604c0-0.238-0.035-0.326-0.103-0.539c-0.235-0.736-1.547-2.097-1.547-2.097
			s-0.005,0.007-0.01,0.01l-0.009-0.01c0,0-1.312,1.36-1.546,2.097c-0.066,0.213-0.106,0.301-0.106,0.539
			c0,0.666,0.286,1.251,0.719,1.604l0.001,0.002l0.001,0.001c0.033,0.035,0.056,0.082,0.056,0.134c0,0.107-0.088,0.196-0.196,0.196
			c-0.029,0-0.056-0.01-0.083-0.022v0.004c-0.004-0.004-0.007-0.008-0.011-0.01c-0.023-0.013-0.042-0.03-0.06-0.051
			c-0.362-0.36-0.841-0.565-1.394-0.565c-1.115,0-2.018,0.902-2.018,2.017c0,0.876,0.562,1.611,1.34,1.891
			c-0.134-0.224-0.219-0.488-0.219-0.771c0-0.823,0.667-1.49,1.488-1.49c0.443,0,0.838,0.194,1.11,0.498
			c0.264,0.345,0.354,0.713,0.376,1.201h-1.338c-0.233,0-0.423,0.19-0.423,0.425c0,0.232,0.19,0.424,0.423,0.424h1.271
			c-0.104,0.468-0.309,0.9-0.604,1.254h0.597c-0.039,0.086-0.062,0.182-0.062,0.283c0,0.38,0.308,0.689,0.689,0.689
			c0.381,0,0.69-0.31,0.69-0.689c0-0.102-0.023-0.197-0.063-0.283h0.591c-0.293-0.354-0.499-0.786-0.601-1.254h1.242
			c0.232,0,0.423-0.191,0.423-0.424c0-0.234-0.191-0.425-0.423-0.425h-1.31c0.02-0.488,0.11-0.856,0.375-1.201
			c0.271-0.304,0.666-0.498,1.109-0.498c0.823,0,1.492,0.667,1.492,1.49c0,0.282-0.087,0.547-0.223,0.771
			c0.779-0.279,1.341-1.015,1.341-1.891C140.026,71.142,139.123,70.239,138.012,70.239"/>
		<path clip-path="url(#SVGID_4_)" fill="#000021" d="M150.419,48.391c0.143-0.568,0.229-1.161,0.239-1.776
			c-0.655-0.18-1.271-0.433-1.828-0.751c-0.342-0.158-1.105-0.751-1.188-0.851l-0.001-0.125v-2.674h-2.617
			c-0.081-0.681-0.625-1.21-1.287-1.21s-1.207,0.529-1.285,1.21h-2.647l0.016,2.846c0,0-0.436,0.342-0.654,0.485
			c-0.034,0.025-0.258,0.168-0.299,0.19c-0.625,0.382-1.325,0.685-2.075,0.891c0.007,0.611,0.096,1.2,0.242,1.765h-8.777v10.004
			h8.492v-3.528h5.579l0.14,0.024c0.429,0.043,0.861,0.22,1.292,0.623c0.433-0.403,0.865-0.58,1.296-0.623l0.136-0.024h5.374v3.528
			h8.617V48.391H150.419z"/>
		<path clip-path="url(#SVGID_4_)" fill="#FFFFFF" d="M143.73,43.116c-0.122,3.543-0.291,7.089-0.503,10.63
			c0.159,0.011,0.317,0.025,0.48,0.025c0.194,0,0.386-0.014,0.575-0.028c-0.227-3.541-0.411-7.085-0.537-10.627H143.73z"/>
		<path clip-path="url(#SVGID_4_)" fill="#FFFFFF" d="M142.798,43.929c-0.614,2.861-1.698,5.707-3.293,8.378
			c0.245,0.193,0.508,0.37,0.777,0.53c1.279-2.897,2.104-5.902,2.533-8.907C142.811,43.93,142.806,43.929,142.798,43.929"/>
		<path clip-path="url(#SVGID_4_)" fill="#FFFFFF" d="M141.613,44.352c-0.981,1.812-2.422,3.515-4.292,4.912
			c0.108,0.303,0.234,0.596,0.384,0.877c1.787-1.725,3.095-3.717,3.928-5.781C141.627,44.356,141.62,44.354,141.613,44.352"/>
		<path clip-path="url(#SVGID_4_)" fill="#FFFFFF" d="M145.851,44.352c-0.006,0.001-0.011,0.004-0.015,0.008
			c0.824,2.05,2.122,4.033,3.895,5.749c0.144-0.281,0.27-0.576,0.375-0.877C148.254,47.842,146.824,46.151,145.851,44.352"/>
		<path clip-path="url(#SVGID_4_)" fill="#FFFFFF" d="M144.651,43.93c0.425,2.999,1.246,5.995,2.518,8.883
			c0.273-0.16,0.532-0.338,0.777-0.532c-1.591-2.664-2.664-5.499-3.28-8.353C144.661,43.93,144.656,43.93,144.651,43.93"/>
		<polygon clip-path="url(#SVGID_4_)" fill="#D91A32" points="140.29,56.135 141.621,56.135 141.621,56.521 140.742,56.521 
			140.742,57.122 141.548,57.122 141.548,57.507 140.742,57.507 140.742,58.195 141.627,58.195 141.627,58.58 140.29,58.58 		"/>
		<path clip-path="url(#SVGID_4_)" fill="#D91A32" d="M143.6,58.544c-0.165,0.043-0.344,0.077-0.517,0.077
			c-0.729,0-1.235-0.395-1.235-1.223c0-0.836,0.471-1.307,1.235-1.307c0.15,0,0.347,0.032,0.512,0.102l-0.03,0.413
			c-0.174-0.104-0.328-0.128-0.489-0.128c-0.465,0-0.757,0.384-0.757,0.884c0,0.5,0.285,0.874,0.765,0.874
			c0.179,0,0.391-0.041,0.496-0.101L143.6,58.544z"/>
		<path clip-path="url(#SVGID_4_)" fill="#D91A32" d="M145.569,58.544c-0.163,0.043-0.341,0.077-0.512,0.077
			c-0.729,0-1.236-0.395-1.236-1.223c0-0.836,0.471-1.307,1.236-1.307c0.149,0,0.347,0.032,0.512,0.102l-0.031,0.413
			c-0.172-0.104-0.328-0.128-0.488-0.128c-0.468,0-0.758,0.384-0.758,0.884c0,0.5,0.283,0.874,0.766,0.874
			c0.18,0,0.387-0.041,0.496-0.101L145.569,58.544z"/>
		<polygon clip-path="url(#SVGID_4_)" fill="#D91A32" points="145.903,56.135 147.236,56.135 147.236,56.521 146.355,56.521 
			146.355,57.122 147.162,57.122 147.162,57.507 146.355,57.507 146.355,58.195 147.243,58.195 147.243,58.58 145.903,58.58 		"/>
		<path clip-path="url(#SVGID_4_)" fill="#D91A32" d="M139.207,59.167h0.511l0.887,2.448h-0.5l-0.195-0.562h-0.913l-0.198,0.562
			h-0.469L139.207,59.167z M139.457,59.658h-0.007l-0.325,1.009h0.658L139.457,59.658z"/>
		<path clip-path="url(#SVGID_4_)" fill="#D91A32" d="M142.526,59.641c-0.175-0.089-0.401-0.13-0.581-0.13
			c-0.527,0-0.819,0.384-0.819,0.887c0,0.498,0.286,0.872,0.768,0.872c0.122,0,0.218-0.013,0.296-0.033v-0.64h-0.478v-0.385h0.91
			v1.317c-0.239,0.07-0.486,0.125-0.729,0.125c-0.73,0-1.238-0.395-1.238-1.221c0-0.838,0.471-1.307,1.238-1.307
			c0.261,0,0.468,0.038,0.661,0.1L142.526,59.641z"/>
		<polygon clip-path="url(#SVGID_4_)" fill="#D91A32" points="143.074,59.167 143.631,59.167 144.49,60.995 144.496,60.995 
			144.496,59.167 144.929,59.167 144.929,61.615 144.375,61.615 143.515,59.783 143.508,59.783 143.508,61.615 143.074,61.615 		"/>
		<path clip-path="url(#SVGID_4_)" fill="#D91A32" d="M145.348,59.167h0.453v1.412c0,0.416,0.125,0.691,0.469,0.691
			c0.346,0,0.47-0.275,0.47-0.691v-1.412h0.452v1.562c0,0.655-0.343,0.925-0.922,0.925s-0.922-0.27-0.922-0.925V59.167z"/>
		<path clip-path="url(#SVGID_4_)" fill="#D91A32" d="M148.844,59.615c-0.142-0.065-0.298-0.104-0.459-0.104
			c-0.154,0-0.353,0.072-0.353,0.339c0,0.424,0.985,0.245,0.985,1.064c0,0.537-0.389,0.739-0.846,0.739
			c-0.244,0-0.354-0.033-0.577-0.093l0.041-0.443c0.156,0.093,0.334,0.151,0.51,0.151c0.173,0,0.401-0.093,0.401-0.313
			c0-0.469-0.989-0.275-0.989-1.083c0-0.547,0.391-0.746,0.789-0.746c0.196,0,0.377,0.027,0.54,0.087L148.844,59.615z"/>
	</g>
	<g>
		<path fill="#FFFFFF" d="M182.593,58.109c0-0.207-0.009-0.376-0.021-0.508c-0.017-0.131-0.054-0.232-0.112-0.305
			c-0.058-0.071-0.147-0.121-0.265-0.148c-0.121-0.027-0.285-0.042-0.498-0.042h-0.754v-0.336c0.394,0.008,0.781,0.015,1.16,0.019
			c0.383,0.005,0.73,0.006,1.048,0.006c0.322,0,0.673-0.001,1.054-0.006c0.381-0.004,0.767-0.01,1.161-0.019v0.336h-0.756
			c-0.211,0-0.377,0.014-0.497,0.042c-0.121,0.027-0.211,0.077-0.27,0.148c-0.06,0.073-0.098,0.174-0.111,0.305
			c-0.016,0.131-0.022,0.301-0.022,0.508v2.949c0,0.242,0.005,0.436,0.017,0.584c0.01,0.148,0.043,0.262,0.101,0.34
			s0.147,0.13,0.275,0.155c0.123,0.025,0.301,0.039,0.533,0.039h0.73v0.335c-0.368-0.009-0.732-0.015-1.094-0.019
			c-0.363-0.004-0.736-0.008-1.121-0.008c-0.386,0-0.758,0.004-1.116,0.008c-0.36,0.004-0.723,0.01-1.092,0.019v-0.335h0.729
			c0.229,0,0.405-0.014,0.53-0.039s0.216-0.077,0.272-0.155s0.091-0.191,0.102-0.34c0.01-0.148,0.017-0.342,0.017-0.584V58.109z"/>
		<path fill="#FFFFFF" d="M188.117,56.117c0-0.33,0.065-0.626,0.197-0.889c0.133-0.261,0.308-0.483,0.529-0.666
			c0.223-0.182,0.481-0.321,0.774-0.415c0.293-0.096,0.604-0.144,0.931-0.144c0.278,0,0.552,0.037,0.818,0.112
			c0.266,0.073,0.504,0.186,0.714,0.335c0.209,0.15,0.378,0.338,0.507,0.564c0.13,0.227,0.194,0.493,0.194,0.803
			c0,0.275-0.052,0.522-0.155,0.742c-0.104,0.22-0.239,0.418-0.403,0.594s-0.353,0.331-0.562,0.466
			c-0.21,0.135-0.421,0.254-0.632,0.355c0.296,0.177,0.56,0.355,0.784,0.532c0.225,0.178,0.415,0.364,0.565,0.559
			c0.149,0.195,0.262,0.399,0.339,0.615c0.075,0.216,0.112,0.454,0.112,0.71c0,0.334-0.067,0.643-0.204,0.926
			c-0.14,0.284-0.325,0.528-0.56,0.734c-0.234,0.204-0.506,0.364-0.818,0.482c-0.311,0.116-0.639,0.174-0.985,0.174
			c-0.391,0-0.732-0.058-1.025-0.174c-0.293-0.118-0.539-0.271-0.732-0.461c-0.196-0.19-0.341-0.408-0.438-0.651
			c-0.097-0.242-0.146-0.491-0.146-0.744c0-0.233,0.046-0.46,0.139-0.679c0.093-0.22,0.224-0.427,0.389-0.619
			c0.163-0.191,0.359-0.369,0.585-0.53c0.227-0.161,0.476-0.299,0.747-0.419c-0.563-0.333-0.98-0.696-1.255-1.087
			C188.256,56.953,188.117,56.543,188.117,56.117z M191.717,60.899c0-0.169-0.026-0.345-0.077-0.529
			c-0.05-0.184-0.139-0.373-0.264-0.567c-0.124-0.195-0.292-0.391-0.504-0.591c-0.212-0.198-0.479-0.396-0.807-0.595
			c-0.257,0.206-0.462,0.397-0.618,0.571c-0.154,0.173-0.272,0.339-0.355,0.499c-0.082,0.158-0.138,0.314-0.165,0.466
			c-0.028,0.152-0.041,0.31-0.041,0.475c0,0.229,0.033,0.447,0.098,0.657c0.065,0.21,0.161,0.395,0.283,0.556
			c0.122,0.16,0.271,0.288,0.451,0.384c0.178,0.095,0.38,0.143,0.61,0.143c0.193,0,0.376-0.037,0.544-0.111
			c0.169-0.074,0.316-0.176,0.44-0.308c0.126-0.131,0.225-0.286,0.294-0.467C191.681,61.302,191.717,61.106,191.717,60.899z
			 M191.825,55.901c0-0.245-0.037-0.466-0.106-0.66c-0.07-0.194-0.165-0.358-0.285-0.491c-0.121-0.133-0.262-0.235-0.423-0.304
			c-0.159-0.07-0.331-0.106-0.513-0.106c-0.209,0-0.395,0.038-0.561,0.114c-0.163,0.077-0.305,0.18-0.42,0.308
			c-0.117,0.129-0.205,0.28-0.268,0.454c-0.062,0.173-0.092,0.357-0.092,0.551c0,0.318,0.132,0.642,0.391,0.971
			c0.26,0.33,0.653,0.679,1.183,1.046c0.373-0.299,0.647-0.6,0.826-0.9C191.734,56.584,191.825,56.256,191.825,55.901z"/>
		<path fill="#FFFFFF" d="M195.11,56.771h5.54l-4.67,8.604l-0.438-0.262l3.958-7.302h-4.129l-0.413,0.661h-0.272L195.11,56.771z"/>
		<path fill="#FFFFFF" d="M207.914,59.639c0,0.422-0.081,0.819-0.241,1.191c-0.161,0.373-0.381,0.699-0.66,0.978
			c-0.279,0.279-0.604,0.5-0.979,0.66c-0.376,0.161-0.777,0.241-1.204,0.241c-0.428,0-0.827-0.08-1.199-0.241
			c-0.372-0.16-0.697-0.381-0.977-0.66c-0.278-0.278-0.498-0.604-0.658-0.978c-0.162-0.372-0.244-0.77-0.244-1.191
			c0-0.423,0.082-0.821,0.244-1.193c0.16-0.373,0.38-0.697,0.658-0.974c0.279-0.277,0.604-0.496,0.977-0.657
			s0.771-0.242,1.199-0.242c0.427,0,0.828,0.081,1.204,0.242c0.374,0.161,0.699,0.379,0.979,0.657
			c0.279,0.277,0.499,0.602,0.66,0.974C207.833,58.817,207.914,59.215,207.914,59.639z M204.83,57.354
			c-0.316,0-0.615,0.06-0.895,0.181c-0.279,0.121-0.521,0.285-0.729,0.492c-0.205,0.208-0.371,0.45-0.492,0.727
			c-0.12,0.277-0.182,0.572-0.182,0.886c0,0.316,0.062,0.614,0.182,0.891c0.121,0.277,0.287,0.52,0.492,0.727
			c0.208,0.207,0.45,0.37,0.729,0.491s0.578,0.181,0.895,0.181c0.317,0,0.616-0.06,0.896-0.181c0.282-0.121,0.527-0.284,0.735-0.491
			c0.207-0.207,0.369-0.449,0.49-0.727c0.121-0.276,0.181-0.574,0.181-0.891c0-0.313-0.06-0.609-0.181-0.886
			c-0.121-0.277-0.283-0.519-0.49-0.727c-0.208-0.207-0.453-0.371-0.735-0.492C205.446,57.414,205.147,57.354,204.83,57.354z"/>
		<path fill="#FFFFFF" d="M208.447,58.915h6.496v0.857h-6.496V58.915z"/>
		<path fill="#FFFFFF" d="M221.313,60.823h0.286l-0.369,1.688c-0.432-0.009-0.868-0.015-1.312-0.019s-0.891-0.008-1.34-0.008
			c-0.447,0-0.897,0.004-1.348,0.008c-0.449,0.004-0.901,0.01-1.355,0.019v-0.209c0.568-0.486,1.042-0.912,1.426-1.272
			c0.382-0.362,0.688-0.685,0.92-0.968c0.23-0.282,0.395-0.539,0.495-0.768c0.099-0.228,0.149-0.45,0.149-0.666
			c0-0.19-0.033-0.361-0.102-0.512c-0.068-0.149-0.155-0.275-0.262-0.377c-0.104-0.101-0.224-0.178-0.352-0.231
			c-0.129-0.053-0.255-0.079-0.377-0.079c-0.137,0-0.262,0.016-0.378,0.048c-0.116,0.031-0.232,0.083-0.349,0.156
			c-0.116,0.072-0.238,0.169-0.369,0.291c-0.128,0.124-0.272,0.275-0.433,0.458l-0.21-0.248c0.159-0.215,0.334-0.418,0.52-0.61
			c0.186-0.189,0.38-0.355,0.581-0.498c0.2-0.142,0.404-0.252,0.612-0.333c0.207-0.081,0.413-0.122,0.615-0.122
			c0.233,0,0.448,0.038,0.647,0.112s0.369,0.18,0.515,0.317c0.143,0.138,0.256,0.306,0.338,0.504
			c0.083,0.199,0.125,0.421,0.125,0.666c0,0.208-0.05,0.422-0.146,0.645c-0.099,0.222-0.253,0.462-0.464,0.72
			c-0.209,0.258-0.483,0.537-0.814,0.837c-0.333,0.301-0.733,0.632-1.203,0.996v0.025h3.585L221.313,60.823z"/>
		<path fill="#FFFFFF" d="M228.864,59.639c0,0.422-0.081,0.819-0.241,1.191c-0.162,0.373-0.381,0.699-0.66,0.978
			c-0.28,0.279-0.605,0.5-0.98,0.66c-0.375,0.161-0.775,0.241-1.202,0.241c-0.428,0-0.827-0.08-1.199-0.241
			c-0.373-0.16-0.697-0.381-0.978-0.66c-0.278-0.278-0.499-0.604-0.658-0.978c-0.161-0.372-0.243-0.77-0.243-1.191
			c0-0.423,0.082-0.821,0.243-1.193c0.159-0.373,0.38-0.697,0.658-0.974c0.28-0.277,0.604-0.496,0.978-0.657
			c0.372-0.161,0.771-0.242,1.199-0.242c0.427,0,0.827,0.081,1.202,0.242s0.7,0.379,0.98,0.657c0.279,0.277,0.498,0.602,0.66,0.974
			C228.783,58.817,228.864,59.215,228.864,59.639z M225.78,57.354c-0.316,0-0.615,0.06-0.896,0.181
			c-0.279,0.121-0.521,0.285-0.729,0.492c-0.207,0.208-0.372,0.45-0.491,0.727c-0.121,0.277-0.183,0.572-0.183,0.886
			c0,0.316,0.062,0.614,0.183,0.891c0.119,0.277,0.284,0.52,0.491,0.727s0.449,0.37,0.729,0.491c0.28,0.121,0.579,0.181,0.896,0.181
			c0.317,0,0.615-0.06,0.896-0.181c0.282-0.121,0.526-0.284,0.734-0.491c0.207-0.207,0.37-0.449,0.492-0.727
			c0.118-0.276,0.18-0.574,0.18-0.891c0-0.313-0.062-0.609-0.18-0.886c-0.122-0.277-0.285-0.519-0.492-0.727
			c-0.208-0.207-0.452-0.371-0.734-0.492C226.396,57.414,226.098,57.354,225.78,57.354z"/>
		<path fill="#FFFFFF" d="M235.766,60.823h0.286l-0.367,1.688c-0.432-0.009-0.868-0.015-1.313-0.019
			c-0.442-0.004-0.891-0.008-1.339-0.008c-0.449,0-0.898,0.004-1.348,0.008c-0.451,0.004-0.901,0.01-1.356,0.019v-0.209
			c0.566-0.486,1.044-0.912,1.426-1.272c0.382-0.362,0.689-0.685,0.92-0.968c0.229-0.282,0.396-0.539,0.495-0.768
			c0.099-0.228,0.147-0.45,0.147-0.666c0-0.19-0.033-0.361-0.101-0.512c-0.066-0.149-0.154-0.275-0.26-0.377
			c-0.106-0.101-0.224-0.178-0.352-0.231c-0.13-0.053-0.256-0.079-0.378-0.079c-0.135,0-0.262,0.016-0.377,0.048
			c-0.116,0.031-0.234,0.083-0.35,0.156c-0.116,0.072-0.239,0.169-0.367,0.291c-0.13,0.124-0.275,0.275-0.435,0.458l-0.21-0.248
			c0.161-0.215,0.333-0.418,0.52-0.61c0.187-0.189,0.38-0.355,0.582-0.498c0.199-0.142,0.404-0.252,0.611-0.333
			c0.207-0.081,0.412-0.122,0.616-0.122c0.232,0,0.448,0.038,0.647,0.112c0.196,0.074,0.367,0.18,0.512,0.317
			c0.145,0.138,0.258,0.306,0.341,0.504c0.082,0.199,0.124,0.421,0.124,0.666c0,0.208-0.05,0.422-0.147,0.645
			c-0.098,0.222-0.25,0.462-0.462,0.72s-0.482,0.537-0.816,0.837c-0.331,0.301-0.731,0.632-1.201,0.996v0.025h3.585L235.766,60.823z
			"/>
		<path fill="#FFFFFF" d="M243.315,59.639c0,0.422-0.079,0.819-0.24,1.191c-0.159,0.373-0.38,0.699-0.66,0.978
			c-0.279,0.279-0.604,0.5-0.979,0.66c-0.375,0.161-0.775,0.241-1.203,0.241c-0.427,0-0.826-0.08-1.198-0.241
			c-0.373-0.16-0.698-0.381-0.978-0.66c-0.279-0.278-0.498-0.604-0.66-0.978c-0.159-0.372-0.24-0.77-0.24-1.191
			c0-0.423,0.081-0.821,0.24-1.193c0.162-0.373,0.381-0.697,0.66-0.974c0.279-0.277,0.604-0.496,0.978-0.657
			c0.372-0.161,0.771-0.242,1.198-0.242c0.428,0,0.828,0.081,1.203,0.242s0.7,0.379,0.979,0.657c0.28,0.277,0.501,0.602,0.66,0.974
			C243.236,58.817,243.315,59.215,243.315,59.639z M240.232,57.354c-0.317,0-0.614,0.06-0.895,0.181
			c-0.279,0.121-0.522,0.285-0.729,0.492c-0.206,0.208-0.371,0.45-0.492,0.727c-0.119,0.277-0.181,0.572-0.181,0.886
			c0,0.316,0.062,0.614,0.181,0.891c0.121,0.277,0.286,0.52,0.492,0.727c0.207,0.207,0.45,0.37,0.729,0.491
			c0.28,0.121,0.577,0.181,0.895,0.181c0.318,0,0.618-0.06,0.898-0.181c0.281-0.121,0.526-0.284,0.732-0.491
			c0.208-0.207,0.372-0.449,0.492-0.727c0.12-0.276,0.181-0.574,0.181-0.891c0-0.313-0.061-0.609-0.181-0.886
			c-0.12-0.277-0.284-0.519-0.492-0.727c-0.206-0.207-0.451-0.371-0.732-0.492C240.851,57.414,240.551,57.354,240.232,57.354z"/>
	</g>
	<g>
		<path fill="#FFFFFF" d="M189.455,77.103c0,0.229,0.031,0.405,0.091,0.53c0.059,0.125,0.141,0.217,0.242,0.277
			c0.105,0.058,0.229,0.094,0.372,0.106s0.302,0.021,0.475,0.025v0.336c-0.324-0.008-0.638-0.015-0.938-0.019
			c-0.302-0.005-0.604-0.007-0.907-0.007c-0.293,0-0.589,0.002-0.893,0.007c-0.302,0.004-0.617,0.011-0.947,0.019v-0.336
			c0.282,0,0.505-0.018,0.668-0.054c0.164-0.035,0.287-0.106,0.369-0.208c0.082-0.105,0.135-0.253,0.157-0.446
			c0.025-0.193,0.035-0.447,0.035-0.766v-5.766c0-0.267-0.015-0.475-0.046-0.625c-0.031-0.149-0.094-0.263-0.186-0.34
			c-0.091-0.075-0.216-0.124-0.376-0.145c-0.161-0.022-0.369-0.038-0.622-0.046v-0.343c0.461,0,0.927,0.007,1.396,0.017
			c0.468,0.01,0.944,0.016,1.421,0.016c0.594,0,1.184-0.001,1.776-0.003c0.593-0.003,1.179-0.013,1.758-0.029l0.076,1.835
			l-0.299,0.051c-0.033-0.275-0.095-0.507-0.184-0.694c-0.089-0.189-0.217-0.341-0.381-0.454c-0.165-0.114-0.372-0.195-0.622-0.244
			c-0.249-0.05-0.551-0.072-0.907-0.072h-1.529v3.69h1.529c0.268,0,0.479-0.012,0.637-0.036c0.154-0.027,0.277-0.079,0.365-0.157
			c0.09-0.077,0.155-0.188,0.198-0.33c0.042-0.141,0.084-0.325,0.128-0.555h0.296c-0.008,0.063-0.015,0.151-0.018,0.261
			c-0.006,0.11-0.01,0.23-0.017,0.365c-0.007,0.133-0.011,0.268-0.012,0.406c-0.003,0.137-0.004,0.265-0.004,0.385
			c0,0.1,0.001,0.213,0.004,0.339c0.001,0.124,0.005,0.248,0.012,0.373c0.007,0.124,0.011,0.244,0.017,0.359
			c0.003,0.113,0.01,0.215,0.018,0.305h-0.253c-0.039-0.226-0.074-0.413-0.11-0.562c-0.037-0.15-0.097-0.271-0.179-0.366
			c-0.083-0.092-0.203-0.157-0.361-0.195s-0.38-0.057-0.663-0.057h-1.587V77.103z"/>
		<path fill="#FFFFFF" d="M197.237,78.042h0.158c0.081,0,0.159-0.006,0.238-0.019c0.077-0.014,0.146-0.031,0.205-0.058
			c0.06-0.025,0.107-0.056,0.146-0.095c0.038-0.039,0.057-0.084,0.057-0.141c0-0.08-0.008-0.151-0.024-0.213
			c-0.018-0.061-0.043-0.134-0.076-0.217l-0.483-1.314h-2.207l-0.285,0.845c-0.013,0.041-0.032,0.099-0.057,0.171
			c-0.026,0.072-0.05,0.147-0.074,0.228c-0.023,0.081-0.044,0.16-0.062,0.242c-0.021,0.081-0.029,0.148-0.029,0.203
			c0,0.08,0.023,0.145,0.069,0.194c0.047,0.047,0.105,0.084,0.175,0.109c0.07,0.025,0.144,0.042,0.223,0.051
			c0.078,0.008,0.149,0.013,0.214,0.013h0.15v0.336c-0.221-0.008-0.438-0.015-0.661-0.019c-0.219-0.005-0.44-0.007-0.665-0.007
			c-0.169,0-0.345,0.002-0.525,0.007c-0.183,0.004-0.362,0.011-0.54,0.019v-0.336c0.166,0,0.303-0.016,0.416-0.046
			c0.111-0.032,0.204-0.076,0.278-0.125c0.075-0.051,0.132-0.11,0.172-0.174c0.04-0.066,0.072-0.133,0.099-0.201l1.858-4.746
			c0.034-0.076,0.062-0.149,0.09-0.225c0.024-0.074,0.037-0.141,0.037-0.201c0-0.033-0.003-0.063-0.007-0.092
			c-0.003-0.026-0.01-0.057-0.019-0.09l1.002-0.375l1.948,5.507c0.053,0.147,0.104,0.271,0.161,0.371
			c0.059,0.1,0.127,0.179,0.208,0.238c0.078,0.059,0.177,0.101,0.292,0.123c0.114,0.022,0.257,0.035,0.431,0.035v0.336
			c-0.249-0.008-0.495-0.015-0.732-0.019c-0.24-0.005-0.479-0.007-0.722-0.007c-0.239,0-0.484,0.002-0.729,0.007
			c-0.245,0.004-0.489,0.011-0.729,0.019V78.042z M196.38,72.948h-0.025l-0.945,2.626h1.909L196.38,72.948z"/>
		<path fill="#FFFFFF" d="M201.881,72.921c0-0.122-0.021-0.222-0.063-0.298s-0.104-0.133-0.188-0.173
			c-0.083-0.042-0.184-0.068-0.306-0.08c-0.119-0.014-0.255-0.02-0.408-0.02v-0.343c0.25,0.01,0.5,0.017,0.749,0.023
			c0.25,0.005,0.499,0.008,0.748,0.008c0.264,0,0.526-0.003,0.79-0.008c0.265-0.007,0.517-0.014,0.758-0.023v0.343
			c-0.151,0-0.287,0.006-0.407,0.02c-0.122,0.012-0.223,0.038-0.307,0.08c-0.081,0.04-0.144,0.097-0.186,0.173
			c-0.043,0.076-0.064,0.176-0.064,0.298v4.551c0,0.122,0.021,0.22,0.064,0.294c0.042,0.075,0.104,0.134,0.186,0.175
			c0.084,0.043,0.185,0.069,0.307,0.083c0.12,0.013,0.256,0.019,0.407,0.019v0.336c-0.241-0.008-0.493-0.015-0.758-0.019
			c-0.264-0.005-0.526-0.007-0.79-0.007c-0.249,0-0.498,0.002-0.748,0.007c-0.249,0.004-0.499,0.011-0.749,0.019v-0.336
			c0.153,0,0.289-0.006,0.408-0.019c0.122-0.014,0.223-0.04,0.306-0.083c0.083-0.041,0.146-0.1,0.188-0.175
			c0.042-0.074,0.063-0.172,0.063-0.294V72.921z"/>
		<path fill="#FFFFFF" d="M207.286,72.428h-0.989c-0.199,0-0.36,0.009-0.485,0.028c-0.125,0.019-0.228,0.062-0.312,0.133
			c-0.083,0.069-0.151,0.17-0.206,0.301c-0.054,0.131-0.11,0.309-0.165,0.526h-0.335l0.177-1.719h0.26
			c0,0.063,0.016,0.114,0.052,0.155c0.033,0.041,0.077,0.072,0.132,0.096c0.055,0.022,0.117,0.04,0.185,0.048
			s0.135,0.012,0.203,0.012h4.151c0.073,0,0.141-0.002,0.198-0.006s0.112-0.016,0.164-0.035c0.055-0.019,0.105-0.05,0.155-0.092
			c0.051-0.042,0.105-0.102,0.164-0.178h0.261l-0.126,1.719h-0.349c-0.022-0.207-0.047-0.375-0.074-0.504s-0.065-0.229-0.116-0.302
			c-0.051-0.071-0.118-0.119-0.204-0.146c-0.084-0.024-0.19-0.037-0.323-0.037h-1.3v5.044c0,0.122,0.021,0.22,0.065,0.294
			c0.046,0.075,0.11,0.134,0.197,0.175c0.086,0.043,0.195,0.069,0.323,0.083c0.13,0.013,0.281,0.019,0.453,0.019v0.336
			c-0.278-0.008-0.553-0.015-0.824-0.019c-0.27-0.005-0.537-0.007-0.798-0.007c-0.251,0-0.504,0.002-0.76,0.007
			c-0.256,0.004-0.526,0.011-0.814,0.019v-0.336c0.173,0,0.323-0.006,0.454-0.019c0.127-0.014,0.236-0.04,0.322-0.083
			c0.088-0.041,0.151-0.1,0.197-0.175c0.043-0.074,0.066-0.172,0.066-0.294V72.428z"/>
		<path fill="#FFFFFF" d="M212.533,72.921c0-0.122-0.021-0.222-0.063-0.298s-0.105-0.133-0.186-0.173
			c-0.084-0.042-0.184-0.068-0.303-0.08c-0.118-0.014-0.253-0.02-0.405-0.02v-0.343c0.249,0.01,0.496,0.017,0.745,0.023
			c0.246,0.005,0.495,0.008,0.745,0.008c0.264,0,0.525-0.003,0.79-0.008c0.265-0.007,0.517-0.014,0.757-0.023v0.343
			c-0.143,0-0.273,0.004-0.394,0.016c-0.116,0.011-0.219,0.035-0.303,0.074c-0.086,0.038-0.15,0.095-0.199,0.17
			c-0.045,0.076-0.067,0.181-0.067,0.311v1.961h3.552v-1.961c0-0.13-0.022-0.234-0.068-0.311c-0.049-0.075-0.113-0.132-0.196-0.17
			c-0.086-0.039-0.187-0.063-0.305-0.074c-0.12-0.012-0.25-0.016-0.395-0.016v-0.343c0.241,0.01,0.494,0.017,0.76,0.023
			c0.264,0.005,0.527,0.008,0.789,0.008c0.249,0,0.499-0.003,0.744-0.008c0.248-0.007,0.497-0.014,0.747-0.023v0.343
			c-0.152,0-0.288,0.006-0.407,0.02c-0.118,0.012-0.219,0.038-0.3,0.08c-0.084,0.04-0.146,0.097-0.188,0.173
			s-0.063,0.176-0.063,0.298v4.551c0,0.122,0.021,0.22,0.063,0.294c0.042,0.075,0.104,0.134,0.188,0.175
			c0.081,0.043,0.182,0.069,0.3,0.083c0.119,0.013,0.255,0.019,0.407,0.019v0.336c-0.25-0.008-0.499-0.015-0.747-0.019
			c-0.245-0.005-0.495-0.007-0.744-0.007c-0.262,0-0.525,0.002-0.789,0.007c-0.266,0.004-0.519,0.011-0.76,0.019v-0.336
			c0.145,0,0.274-0.005,0.395-0.013c0.118-0.009,0.219-0.032,0.305-0.069c0.083-0.04,0.147-0.096,0.196-0.172
			c0.046-0.076,0.068-0.183,0.068-0.316v-2.171h-3.552v2.171c0,0.134,0.022,0.24,0.067,0.316c0.049,0.076,0.113,0.132,0.199,0.172
			c0.084,0.037,0.187,0.061,0.303,0.069c0.12,0.008,0.251,0.013,0.394,0.013v0.336c-0.24-0.008-0.492-0.015-0.757-0.019
			c-0.265-0.005-0.526-0.007-0.79-0.007c-0.25,0-0.499,0.002-0.745,0.007c-0.249,0.004-0.496,0.011-0.745,0.019v-0.336
			c0.152,0,0.287-0.006,0.405-0.019c0.119-0.014,0.219-0.04,0.303-0.083c0.08-0.041,0.143-0.1,0.186-0.175
			c0.043-0.074,0.063-0.172,0.063-0.294V72.921z"/>
		<path fill="#FFFFFF" d="M221.359,72.921c0-0.122-0.021-0.222-0.064-0.298c-0.042-0.076-0.104-0.133-0.187-0.173
			c-0.082-0.042-0.185-0.068-0.304-0.08c-0.121-0.014-0.259-0.02-0.41-0.02v-0.343c0.424,0.01,0.843,0.017,1.263,0.023
			c0.418,0.005,0.84,0.008,1.264,0.008c0.304,0,0.583-0.001,0.837-0.003s0.489-0.004,0.706-0.005c0.219-0.003,0.425-0.006,0.62-0.01
			c0.194-0.004,0.386-0.01,0.576-0.014l0.053,1.435h-0.262c-0.042-0.225-0.096-0.404-0.158-0.539
			c-0.064-0.136-0.153-0.238-0.267-0.309c-0.114-0.069-0.265-0.115-0.452-0.135c-0.185-0.023-0.421-0.032-0.708-0.032h-1.391v2.454
			h1.225c0.161,0,0.3-0.006,0.418-0.016c0.12-0.011,0.217-0.04,0.291-0.092c0.078-0.051,0.134-0.129,0.17-0.238
			c0.037-0.108,0.054-0.261,0.054-0.461h0.336c-0.007,0.171-0.014,0.342-0.019,0.515c-0.005,0.175-0.006,0.35-0.006,0.527
			c0,0.177,0.001,0.358,0.006,0.536c0.005,0.18,0.012,0.36,0.019,0.543h-0.336c0-0.202-0.012-0.365-0.038-0.485
			c-0.024-0.12-0.073-0.212-0.143-0.271c-0.071-0.059-0.166-0.097-0.285-0.114c-0.12-0.017-0.276-0.025-0.467-0.025h-1.225v1.911
			c0,0.172,0.018,0.313,0.054,0.421c0.036,0.108,0.091,0.191,0.166,0.251c0.072,0.059,0.166,0.101,0.279,0.123
			c0.11,0.022,0.243,0.035,0.396,0.035h0.273v0.336c-0.254-0.008-0.521-0.015-0.805-0.019c-0.28-0.005-0.597-0.007-0.947-0.007
			c-0.25,0-0.498,0.002-0.749,0.007c-0.25,0.004-0.498,0.011-0.748,0.019v-0.336c0.151,0,0.289-0.006,0.41-0.019
			c0.119-0.014,0.222-0.04,0.304-0.083c0.083-0.041,0.145-0.1,0.187-0.175c0.043-0.074,0.064-0.172,0.064-0.294V72.921z"/>
		<path fill="#FFFFFF" d="M227.647,72.813c0-0.114-0.032-0.203-0.094-0.267s-0.136-0.11-0.225-0.139
			c-0.088-0.03-0.186-0.045-0.289-0.052c-0.103-0.004-0.199-0.006-0.288-0.006v-0.343c0.241,0.01,0.488,0.017,0.738,0.023
			c0.252,0.005,0.499,0.008,0.74,0.008c0.228,0,0.459-0.003,0.695-0.008c0.233-0.007,0.462-0.014,0.682-0.023v0.343
			c-0.1,0-0.196,0.002-0.295,0.006c-0.101,0.007-0.191,0.021-0.274,0.049c-0.082,0.028-0.148,0.069-0.199,0.13
			c-0.052,0.06-0.076,0.144-0.076,0.253v3.535c0,0.299,0.043,0.556,0.131,0.768c0.088,0.211,0.206,0.384,0.365,0.521
			c0.154,0.134,0.34,0.234,0.555,0.299c0.213,0.062,0.444,0.094,0.694,0.094c0.305,0,0.558-0.037,0.765-0.112
			c0.205-0.072,0.375-0.175,0.511-0.302c0.135-0.13,0.239-0.283,0.311-0.459c0.072-0.175,0.125-0.363,0.159-0.565
			c0.034-0.2,0.052-0.408,0.062-0.627c0.005-0.219,0.008-0.434,0.008-0.649v-1.534c0-0.329-0.013-0.583-0.034-0.771
			c-0.024-0.186-0.071-0.326-0.141-0.422c-0.068-0.095-0.17-0.154-0.302-0.177c-0.129-0.021-0.305-0.035-0.52-0.035v-0.343
			c0.215,0.01,0.433,0.017,0.649,0.023c0.219,0.005,0.437,0.008,0.649,0.008c0.183,0,0.362-0.003,0.538-0.008
			c0.175-0.007,0.357-0.014,0.543-0.023v0.343c-0.111,0-0.213,0.007-0.309,0.023c-0.095,0.013-0.178,0.053-0.247,0.114
			c-0.07,0.06-0.125,0.151-0.165,0.271c-0.039,0.12-0.061,0.287-0.061,0.499v2.638c0,0.374-0.048,0.721-0.143,1.041
			c-0.095,0.321-0.246,0.6-0.454,0.837c-0.207,0.237-0.477,0.424-0.809,0.56c-0.331,0.135-0.734,0.203-1.208,0.203
			c-0.414,0-0.787-0.041-1.118-0.125c-0.328-0.081-0.608-0.21-0.838-0.383c-0.229-0.174-0.403-0.396-0.526-0.666
			c-0.122-0.271-0.182-0.595-0.182-0.97V72.813z"/>
		<path fill="#FFFFFF" d="M235.977,72.921c0-0.122-0.022-0.222-0.067-0.298c-0.044-0.076-0.106-0.133-0.189-0.173
			c-0.082-0.042-0.184-0.068-0.303-0.08c-0.116-0.014-0.252-0.02-0.405-0.02v-0.343c0.251,0.01,0.5,0.017,0.749,0.023
			c0.25,0.005,0.499,0.008,0.749,0.008c0.257,0,0.518-0.003,0.783-0.008c0.265-0.007,0.516-0.014,0.759-0.023v0.343
			c-0.146,0-0.274,0.004-0.391,0.016c-0.117,0.011-0.217,0.035-0.301,0.074c-0.085,0.038-0.151,0.095-0.196,0.17
			c-0.049,0.076-0.072,0.181-0.072,0.311v4.328c0,0.135,0.016,0.248,0.043,0.341c0.027,0.089,0.084,0.163,0.168,0.218
			c0.086,0.054,0.206,0.094,0.361,0.117c0.157,0.022,0.364,0.035,0.623,0.035c0.287,0,0.525-0.016,0.719-0.046
			c0.191-0.029,0.357-0.089,0.495-0.176c0.137-0.09,0.259-0.214,0.365-0.375c0.104-0.16,0.22-0.372,0.344-0.635h0.322l-0.387,1.649
			c-0.056,0-0.146-0.001-0.27-0.003c-0.125-0.002-0.266-0.005-0.423-0.005c-0.156-0.003-0.322-0.006-0.497-0.008
			c-0.177-0.003-0.344-0.004-0.501-0.006c-0.159-0.002-0.303-0.004-0.429-0.004c-0.128,0-0.222,0-0.286,0
			c-0.457,0-0.912,0.002-1.364,0.007c-0.452,0.004-0.907,0.011-1.364,0.019v-0.336c0.153,0,0.289-0.006,0.405-0.019
			c0.119-0.014,0.221-0.04,0.303-0.083c0.083-0.041,0.146-0.1,0.189-0.175c0.045-0.074,0.067-0.172,0.067-0.294V72.921z"/>
	</g>
	<g>
		<path fill="#FFFFFF" d="M196.355,85.421h-0.988c-0.2,0-0.362,0.01-0.486,0.028c-0.126,0.018-0.229,0.063-0.312,0.133
			c-0.083,0.07-0.15,0.169-0.206,0.301c-0.055,0.132-0.11,0.307-0.165,0.527h-0.337l0.179-1.72h0.261
			c0,0.064,0.015,0.114,0.049,0.155c0.036,0.041,0.079,0.072,0.135,0.094c0.054,0.024,0.116,0.041,0.184,0.049
			c0.067,0.009,0.135,0.012,0.203,0.012h4.149c0.076,0,0.142-0.001,0.199-0.005c0.059-0.004,0.113-0.017,0.166-0.035
			c0.053-0.021,0.104-0.049,0.155-0.093c0.05-0.042,0.105-0.101,0.165-0.177h0.259l-0.126,1.72h-0.349
			c-0.022-0.207-0.047-0.376-0.073-0.507c-0.028-0.127-0.067-0.226-0.117-0.3c-0.051-0.071-0.119-0.119-0.203-0.145
			c-0.084-0.027-0.193-0.038-0.324-0.038h-1.3v5.043c0,0.123,0.021,0.221,0.066,0.295s0.109,0.132,0.196,0.175
			c0.086,0.042,0.194,0.069,0.323,0.083c0.131,0.013,0.281,0.017,0.455,0.017v0.339c-0.279-0.009-0.556-0.016-0.825-0.021
			c-0.271-0.003-0.537-0.005-0.801-0.005c-0.249,0-0.501,0.002-0.758,0.005c-0.257,0.006-0.527,0.013-0.814,0.021v-0.339
			c0.174,0,0.323-0.004,0.454-0.017c0.128-0.014,0.236-0.041,0.323-0.083c0.087-0.043,0.152-0.101,0.197-0.175
			c0.042-0.074,0.065-0.172,0.065-0.295V85.421z"/>
		<path fill="#FFFFFF" d="M200.696,88.161c0-0.507,0.1-0.967,0.303-1.377c0.199-0.41,0.468-0.758,0.804-1.044
			c0.337-0.285,0.727-0.505,1.164-0.66c0.439-0.154,0.899-0.231,1.377-0.231c0.525,0,1.002,0.085,1.432,0.254
			c0.429,0.169,0.796,0.401,1.102,0.695c0.304,0.293,0.539,0.641,0.702,1.044c0.165,0.401,0.248,0.837,0.248,1.306
			c0,0.268-0.036,0.537-0.111,0.81c-0.072,0.272-0.18,0.534-0.32,0.783c-0.14,0.25-0.312,0.482-0.517,0.701
			c-0.205,0.217-0.439,0.406-0.705,0.568c-0.265,0.161-0.557,0.288-0.877,0.382c-0.322,0.092-0.669,0.139-1.042,0.139
			c-0.537,0-1.024-0.083-1.462-0.247c-0.438-0.167-0.812-0.396-1.124-0.692c-0.309-0.296-0.55-0.652-0.721-1.066
			C200.779,89.11,200.696,88.656,200.696,88.161z M201.973,88.033c0,0.436,0.062,0.842,0.186,1.214
			c0.126,0.375,0.297,0.702,0.514,0.979c0.22,0.277,0.476,0.494,0.771,0.65c0.296,0.155,0.615,0.235,0.958,0.235
			c0.409,0,0.753-0.083,1.028-0.246c0.273-0.162,0.496-0.376,0.663-0.644c0.166-0.266,0.285-0.568,0.354-0.906
			c0.07-0.34,0.105-0.684,0.105-1.034c0-0.458-0.06-0.871-0.182-1.241c-0.12-0.371-0.286-0.688-0.501-0.951
			c-0.212-0.264-0.466-0.469-0.761-0.612s-0.614-0.216-0.955-0.216c-0.389,0-0.723,0.078-1,0.234
			c-0.276,0.157-0.503,0.363-0.679,0.622c-0.175,0.258-0.304,0.553-0.384,0.888S201.973,87.684,201.973,88.033z"/>
		<path fill="#FFFFFF" d="M214.596,85.421h-0.987c-0.201,0-0.363,0.01-0.487,0.028c-0.125,0.018-0.228,0.063-0.312,0.133
			c-0.081,0.07-0.15,0.169-0.205,0.301c-0.054,0.132-0.11,0.307-0.165,0.527h-0.337l0.18-1.72h0.259
			c0,0.064,0.016,0.114,0.051,0.155c0.033,0.041,0.077,0.072,0.133,0.094c0.055,0.024,0.116,0.041,0.184,0.049
			c0.069,0.009,0.136,0.012,0.202,0.012h4.151c0.075,0,0.141-0.001,0.198-0.005s0.112-0.017,0.166-0.035
			c0.053-0.021,0.105-0.049,0.153-0.093c0.053-0.042,0.108-0.101,0.167-0.177h0.26l-0.126,1.72h-0.349
			c-0.022-0.207-0.047-0.376-0.073-0.507c-0.028-0.127-0.067-0.226-0.118-0.3c-0.052-0.071-0.117-0.119-0.203-0.145
			c-0.085-0.027-0.192-0.038-0.323-0.038h-1.3v5.043c0,0.123,0.021,0.221,0.065,0.295c0.044,0.074,0.109,0.132,0.197,0.175
			c0.087,0.042,0.195,0.069,0.323,0.083c0.128,0.013,0.28,0.017,0.454,0.017v0.339c-0.28-0.009-0.555-0.016-0.824-0.021
			c-0.271-0.003-0.539-0.005-0.801-0.005c-0.249,0-0.502,0.002-0.757,0.005c-0.257,0.006-0.528,0.013-0.816,0.021v-0.339
			c0.174,0,0.324-0.004,0.456-0.017c0.127-0.014,0.235-0.041,0.321-0.083c0.088-0.043,0.151-0.101,0.196-0.175
			s0.066-0.172,0.066-0.295V85.421z"/>
		<path fill="#FFFFFF" d="M219.844,85.915c0-0.121-0.022-0.223-0.064-0.299c-0.042-0.075-0.104-0.133-0.188-0.175
			c-0.082-0.039-0.183-0.066-0.299-0.079c-0.119-0.014-0.256-0.019-0.406-0.019V85c0.248,0.01,0.496,0.017,0.744,0.024
			c0.247,0.005,0.496,0.008,0.745,0.008c0.263,0,0.527-0.003,0.79-0.008c0.265-0.008,0.519-0.015,0.758-0.024v0.344
			c-0.143,0-0.273,0.004-0.392,0.017c-0.12,0.01-0.221,0.034-0.306,0.071c-0.086,0.039-0.15,0.096-0.196,0.172
			c-0.048,0.077-0.069,0.18-0.069,0.312v1.961h3.553v-1.961c0-0.132-0.022-0.234-0.07-0.312c-0.047-0.076-0.111-0.133-0.196-0.172
			c-0.085-0.037-0.188-0.062-0.306-0.071c-0.118-0.013-0.248-0.017-0.392-0.017V85c0.24,0.01,0.493,0.017,0.758,0.024
			c0.263,0.005,0.527,0.008,0.789,0.008c0.25,0,0.499-0.003,0.745-0.008c0.249-0.008,0.496-0.015,0.747-0.024v0.344
			c-0.152,0-0.289,0.005-0.406,0.019c-0.119,0.013-0.22,0.04-0.302,0.079c-0.083,0.042-0.146,0.1-0.188,0.175
			c-0.042,0.076-0.062,0.178-0.062,0.299v4.549c0,0.123,0.021,0.221,0.062,0.295s0.105,0.132,0.188,0.175
			c0.082,0.042,0.183,0.069,0.302,0.083c0.117,0.013,0.254,0.017,0.406,0.017v0.339c-0.251-0.009-0.498-0.016-0.747-0.021
			c-0.246-0.003-0.495-0.005-0.745-0.005c-0.262,0-0.526,0.002-0.789,0.005c-0.265,0.006-0.518,0.013-0.758,0.021v-0.339
			c0.144,0,0.273-0.003,0.392-0.012c0.118-0.007,0.221-0.03,0.306-0.068c0.085-0.04,0.149-0.096,0.196-0.171
			c0.048-0.078,0.07-0.184,0.07-0.318v-2.17h-3.553v2.17c0,0.135,0.021,0.24,0.069,0.318c0.046,0.075,0.11,0.131,0.196,0.171
			c0.085,0.038,0.186,0.062,0.306,0.068c0.118,0.009,0.249,0.012,0.392,0.012v0.339c-0.239-0.009-0.493-0.016-0.758-0.021
			c-0.263-0.003-0.527-0.005-0.79-0.005c-0.249,0-0.498,0.002-0.745,0.005c-0.248,0.006-0.496,0.013-0.744,0.021v-0.339
			c0.15,0,0.287-0.004,0.406-0.017c0.116-0.014,0.217-0.041,0.299-0.083c0.084-0.043,0.146-0.101,0.188-0.175
			s0.064-0.172,0.064-0.295V85.915z"/>
		<path fill="#FFFFFF" d="M232.85,91.372c-0.469-0.009-0.934-0.016-1.396-0.021c-0.461-0.003-0.925-0.005-1.396-0.005
			c-0.418,0-0.838,0.002-1.253,0.005c-0.417,0.006-0.835,0.013-1.255,0.021v-0.339c0.154,0,0.288-0.004,0.408-0.017
			c0.118-0.014,0.218-0.041,0.301-0.083c0.081-0.043,0.146-0.101,0.188-0.175c0.043-0.074,0.063-0.172,0.063-0.295v-4.549
			c0-0.121-0.021-0.223-0.063-0.299c-0.042-0.075-0.106-0.133-0.188-0.175c-0.083-0.039-0.183-0.066-0.301-0.079
			c-0.12-0.014-0.254-0.019-0.408-0.019V85c0.293,0.01,0.586,0.017,0.877,0.024c0.292,0.005,0.585,0.008,0.876,0.008
			c0.538,0,1.071-0.003,1.605-0.008c0.532-0.008,1.063-0.015,1.591-0.024l0.078,1.384h-0.273c-0.038-0.22-0.085-0.395-0.143-0.522
			c-0.058-0.129-0.146-0.227-0.267-0.292c-0.121-0.065-0.286-0.106-0.491-0.123c-0.208-0.018-0.477-0.025-0.812-0.025h-0.967v2.455
			h1.078c0.168,0,0.309-0.005,0.427-0.017c0.118-0.01,0.216-0.045,0.292-0.101c0.075-0.059,0.131-0.147,0.169-0.271
			c0.035-0.121,0.053-0.295,0.053-0.52h0.337c-0.009,0.169-0.015,0.341-0.021,0.514c-0.004,0.173-0.007,0.349-0.007,0.526
			c0,0.179,0.003,0.356,0.007,0.534c0.006,0.178,0.012,0.358,0.021,0.544h-0.337c0-0.176-0.013-0.319-0.037-0.424
			c-0.026-0.106-0.072-0.186-0.144-0.241c-0.069-0.056-0.166-0.09-0.289-0.104s-0.28-0.022-0.471-0.022h-1.078v1.896
			c0,0.141,0.022,0.259,0.067,0.355c0.045,0.099,0.121,0.176,0.229,0.236c0.106,0.058,0.249,0.101,0.428,0.129
			c0.179,0.027,0.402,0.042,0.673,0.042c0.325,0,0.584-0.014,0.777-0.04c0.192-0.023,0.351-0.074,0.475-0.148
			c0.125-0.075,0.234-0.177,0.328-0.311c0.093-0.132,0.202-0.308,0.329-0.523h0.323L232.85,91.372z"/>
	</g>
	<g>
		<path fill="#FFFFFF" d="M195.275,102.582c0.291-0.609,0.588-1.215,0.89-1.819c0.304-0.602,0.603-1.206,0.902-1.81
			c0.297-0.605,0.591-1.214,0.879-1.821c0.288-0.608,0.567-1.222,0.836-1.84c0.179,0.008,0.357,0.016,0.534,0.021
			c0.178,0.008,0.354,0.011,0.531,0.011c0.192,0,0.381-0.007,0.571-0.017c0.192-0.011,0.382-0.016,0.572-0.016v0.342
			c-0.221,0-0.405,0.011-0.555,0.028c-0.151,0.021-0.27,0.061-0.354,0.123c-0.085,0.071-0.147,0.162-0.187,0.28
			c-0.039,0.119-0.06,0.285-0.06,0.501c0,0.518,0.007,1.036,0.019,1.562c0.013,0.523,0.026,1.048,0.045,1.572
			c0.018,0.524,0.034,1.044,0.057,1.558c0.02,0.515,0.038,1.017,0.051,1.506c0.004,0.247,0.021,0.449,0.048,0.611
			c0.027,0.16,0.087,0.29,0.182,0.387c0.092,0.097,0.231,0.165,0.417,0.204c0.188,0.043,0.442,0.061,0.768,0.061v0.337
			c-0.359,0-0.716-0.003-1.071-0.012c-0.355-0.01-0.713-0.014-1.072-0.014c-0.317,0-0.635,0.002-0.948,0.006
			c-0.317,0.005-0.633,0.012-0.949,0.02v-0.337c0.229,0,0.425-0.005,0.591-0.015c0.166-0.012,0.302-0.046,0.411-0.105
			c0.118-0.062,0.204-0.164,0.258-0.297c0.054-0.136,0.079-0.33,0.079-0.583l-0.089-6.2H198.6l-3.065,6.369
			c-0.035,0.076-0.075,0.171-0.123,0.283c-0.049,0.113-0.097,0.229-0.143,0.349c-0.047,0.12-0.092,0.239-0.138,0.353
			c-0.044,0.115-0.078,0.213-0.104,0.298h-0.26c-0.554-1.247-1.135-2.479-1.742-3.692c-0.606-1.213-1.222-2.438-1.843-3.675h-0.024
			l-0.102,4.709c0,0.043,0,0.099-0.004,0.172c-0.001,0.071-0.002,0.147-0.002,0.229c0,0.079-0.001,0.157-0.004,0.235
			c-0.002,0.074-0.003,0.138-0.003,0.183c0,0.317,0.02,0.569,0.057,0.752c0.038,0.185,0.11,0.321,0.215,0.416
			c0.103,0.093,0.236,0.152,0.407,0.18c0.168,0.028,0.382,0.041,0.64,0.041v0.337c-0.266,0-0.534-0.003-0.805-0.012
			c-0.271-0.01-0.539-0.014-0.807-0.014c-0.287,0-0.575,0.002-0.861,0.006c-0.288,0.005-0.576,0.012-0.863,0.02v-0.337
			c0.232,0,0.439-0.018,0.625-0.061c0.184-0.039,0.343-0.127,0.476-0.265c0.132-0.138,0.238-0.337,0.313-0.594
			c0.077-0.259,0.121-0.604,0.134-1.041c0.025-0.896,0.055-1.786,0.087-2.667c0.036-0.882,0.053-1.769,0.053-2.662
			c0-0.229-0.019-0.416-0.054-0.562c-0.036-0.146-0.101-0.256-0.192-0.334c-0.091-0.08-0.209-0.134-0.353-0.163
			c-0.148-0.03-0.329-0.046-0.545-0.046v-0.342c0.229,0.008,0.459,0.016,0.688,0.021c0.231,0.008,0.46,0.011,0.689,0.011
			c0.137,0,0.274-0.007,0.417-0.017c0.141-0.011,0.278-0.016,0.415-0.016L195.275,102.582z"/>
		<path fill="#FFFFFF" d="M203.32,98.909c0-0.123-0.021-0.223-0.064-0.3c-0.043-0.074-0.105-0.133-0.187-0.174
			c-0.083-0.04-0.186-0.066-0.306-0.079c-0.12-0.012-0.257-0.02-0.409-0.02v-0.342c0.25,0.009,0.498,0.015,0.749,0.021
			c0.25,0.007,0.499,0.011,0.749,0.011c0.262,0,0.525-0.004,0.791-0.011c0.264-0.007,0.514-0.013,0.757-0.021v0.342
			c-0.152,0-0.288,0.008-0.409,0.02c-0.122,0.013-0.223,0.039-0.306,0.079c-0.083,0.041-0.145,0.1-0.188,0.174
			c-0.041,0.077-0.063,0.177-0.063,0.3v4.547c0,0.124,0.022,0.223,0.063,0.297c0.043,0.073,0.104,0.132,0.188,0.174
			c0.083,0.041,0.184,0.07,0.306,0.083c0.121,0.012,0.257,0.018,0.409,0.018v0.337c-0.243-0.008-0.493-0.015-0.757-0.02
			c-0.266-0.004-0.529-0.006-0.791-0.006c-0.25,0-0.499,0.002-0.749,0.006c-0.251,0.005-0.499,0.012-0.749,0.02v-0.337
			c0.152,0,0.289-0.006,0.409-0.018c0.12-0.013,0.223-0.042,0.306-0.083c0.081-0.042,0.144-0.101,0.187-0.174
			c0.043-0.074,0.064-0.173,0.064-0.297V98.909z"/>
		<path fill="#FFFFFF" d="M206.866,102.791h0.298c0.063,0.228,0.14,0.43,0.229,0.602c0.089,0.176,0.196,0.318,0.32,0.436
			c0.125,0.116,0.274,0.204,0.448,0.264c0.173,0.06,0.378,0.089,0.614,0.089c0.25,0,0.455-0.038,0.616-0.11
			c0.16-0.075,0.286-0.167,0.377-0.277c0.092-0.11,0.155-0.227,0.19-0.351c0.036-0.125,0.055-0.238,0.055-0.34
			c0-0.131-0.02-0.254-0.06-0.366c-0.043-0.111-0.108-0.222-0.201-0.326s-0.215-0.209-0.361-0.312
			c-0.148-0.1-0.332-0.209-0.552-0.322c-0.355-0.182-0.648-0.355-0.883-0.518c-0.232-0.162-0.417-0.33-0.556-0.501
			c-0.136-0.171-0.231-0.357-0.285-0.552c-0.052-0.196-0.078-0.423-0.078-0.677c0-0.22,0.044-0.431,0.136-0.634
			c0.092-0.204,0.22-0.383,0.388-0.539c0.167-0.157,0.365-0.281,0.6-0.373c0.232-0.095,0.49-0.14,0.772-0.14
			c0.124,0,0.252,0.005,0.39,0.017c0.134,0.014,0.269,0.027,0.401,0.042s0.263,0.029,0.39,0.041
			c0.128,0.013,0.243,0.022,0.351,0.025l0.119,1.275h-0.272c-0.038-0.131-0.087-0.261-0.144-0.387s-0.135-0.241-0.234-0.343
			c-0.099-0.103-0.222-0.183-0.369-0.243c-0.145-0.063-0.325-0.094-0.54-0.094c-0.169,0-0.323,0.026-0.461,0.081
			c-0.137,0.053-0.256,0.125-0.355,0.218s-0.177,0.203-0.23,0.33c-0.056,0.128-0.084,0.265-0.084,0.411
			c0,0.157,0.018,0.295,0.052,0.412c0.033,0.116,0.102,0.228,0.202,0.335c0.102,0.107,0.248,0.219,0.435,0.333
			c0.188,0.114,0.438,0.247,0.752,0.4c0.344,0.169,0.621,0.331,0.834,0.491c0.214,0.157,0.381,0.318,0.499,0.478
			c0.119,0.162,0.198,0.33,0.241,0.506c0.041,0.175,0.062,0.364,0.062,0.566c0,0.264-0.058,0.503-0.172,0.721
			c-0.113,0.219-0.271,0.405-0.475,0.562c-0.203,0.158-0.445,0.279-0.728,0.368c-0.281,0.089-0.589,0.133-0.923,0.133
			c-0.3,0-0.581-0.03-0.844-0.089c-0.262-0.059-0.518-0.146-0.768-0.266L206.866,102.791z"/>
		<path fill="#FFFFFF" d="M212.635,102.791h0.296c0.064,0.228,0.141,0.43,0.229,0.602c0.088,0.176,0.196,0.318,0.32,0.436
			c0.125,0.116,0.273,0.204,0.448,0.264c0.172,0.06,0.377,0.089,0.615,0.089c0.249,0,0.454-0.038,0.613-0.11
			c0.161-0.075,0.287-0.167,0.38-0.277c0.09-0.11,0.153-0.227,0.188-0.351c0.036-0.125,0.054-0.238,0.054-0.34
			c0-0.131-0.02-0.254-0.059-0.366c-0.041-0.111-0.107-0.222-0.2-0.326s-0.214-0.209-0.363-0.312c-0.146-0.1-0.33-0.209-0.55-0.322
			c-0.356-0.182-0.65-0.355-0.882-0.518c-0.234-0.162-0.419-0.33-0.556-0.501s-0.234-0.357-0.287-0.552
			c-0.053-0.196-0.078-0.423-0.078-0.677c0-0.22,0.046-0.431,0.136-0.634c0.093-0.204,0.221-0.383,0.389-0.539
			c0.166-0.157,0.366-0.281,0.6-0.373c0.231-0.095,0.49-0.14,0.773-0.14c0.122,0,0.252,0.005,0.387,0.017
			c0.135,0.014,0.27,0.027,0.403,0.042c0.133,0.015,0.263,0.029,0.391,0.041c0.126,0.013,0.242,0.022,0.349,0.025l0.12,1.275h-0.273
			c-0.038-0.131-0.086-0.261-0.143-0.387c-0.058-0.126-0.134-0.241-0.234-0.343c-0.101-0.103-0.224-0.183-0.369-0.243
			c-0.146-0.063-0.325-0.094-0.542-0.094c-0.168,0-0.322,0.026-0.458,0.081c-0.14,0.053-0.257,0.125-0.358,0.218
			c-0.098,0.093-0.175,0.203-0.23,0.33c-0.055,0.128-0.081,0.265-0.081,0.411c0,0.157,0.016,0.295,0.049,0.412
			c0.035,0.116,0.103,0.228,0.204,0.335s0.246,0.219,0.434,0.333c0.189,0.114,0.44,0.247,0.752,0.4
			c0.343,0.169,0.621,0.331,0.835,0.491c0.214,0.157,0.381,0.318,0.498,0.478c0.118,0.162,0.199,0.33,0.241,0.506
			c0.042,0.175,0.063,0.364,0.063,0.566c0,0.264-0.057,0.503-0.171,0.721c-0.115,0.219-0.273,0.405-0.476,0.562
			c-0.204,0.158-0.445,0.279-0.727,0.368s-0.59,0.133-0.923,0.133c-0.302,0-0.583-0.03-0.845-0.089
			c-0.263-0.059-0.519-0.146-0.768-0.266L212.635,102.791z"/>
		<path fill="#FFFFFF" d="M219.169,98.909c0-0.123-0.022-0.223-0.064-0.3c-0.042-0.074-0.104-0.133-0.187-0.174
			c-0.084-0.04-0.185-0.066-0.306-0.079c-0.12-0.012-0.257-0.02-0.409-0.02v-0.342c0.251,0.009,0.5,0.015,0.75,0.021
			s0.499,0.011,0.748,0.011c0.263,0,0.524-0.004,0.789-0.011s0.518-0.013,0.76-0.021v0.342c-0.153,0-0.289,0.008-0.409,0.02
			c-0.121,0.013-0.224,0.039-0.306,0.079c-0.083,0.041-0.145,0.1-0.186,0.174c-0.043,0.077-0.065,0.177-0.065,0.3v4.547
			c0,0.124,0.022,0.223,0.065,0.297c0.041,0.073,0.103,0.132,0.186,0.174c0.082,0.041,0.185,0.07,0.306,0.083
			c0.12,0.012,0.256,0.018,0.409,0.018v0.337c-0.242-0.008-0.495-0.015-0.76-0.02c-0.265-0.004-0.526-0.006-0.789-0.006
			c-0.249,0-0.498,0.002-0.748,0.006c-0.25,0.005-0.499,0.012-0.75,0.02v-0.337c0.152,0,0.289-0.006,0.409-0.018
			c0.121-0.013,0.222-0.042,0.306-0.083c0.083-0.042,0.145-0.101,0.187-0.174c0.042-0.074,0.064-0.173,0.064-0.297V98.909z"/>
		<path fill="#FFFFFF" d="M222.65,101.154c0-0.507,0.104-0.967,0.303-1.377c0.201-0.41,0.47-0.758,0.806-1.044
			c0.336-0.284,0.726-0.505,1.164-0.659c0.44-0.154,0.898-0.23,1.376-0.23c0.525,0,1.003,0.083,1.433,0.252
			c0.427,0.169,0.795,0.401,1.101,0.695c0.303,0.294,0.538,0.642,0.704,1.043c0.165,0.403,0.247,0.839,0.247,1.308
			c0,0.266-0.037,0.537-0.11,0.808c-0.075,0.275-0.182,0.535-0.321,0.784c-0.14,0.251-0.312,0.484-0.518,0.702
			c-0.205,0.217-0.438,0.406-0.702,0.567c-0.266,0.161-0.559,0.288-0.88,0.382c-0.321,0.093-0.669,0.138-1.04,0.138
			c-0.54,0-1.025-0.082-1.463-0.246c-0.438-0.165-0.813-0.396-1.124-0.693c-0.312-0.295-0.551-0.65-0.721-1.064
			C222.736,102.104,222.65,101.649,222.65,101.154z M223.928,101.026c0,0.437,0.062,0.842,0.188,1.216
			c0.123,0.374,0.294,0.701,0.513,0.978c0.219,0.277,0.475,0.492,0.771,0.65c0.295,0.156,0.614,0.235,0.957,0.235
			c0.411,0,0.753-0.083,1.028-0.244c0.275-0.163,0.497-0.379,0.664-0.645c0.166-0.267,0.284-0.57,0.354-0.907
			c0.068-0.339,0.105-0.684,0.105-1.034c0-0.458-0.06-0.87-0.182-1.24c-0.122-0.371-0.288-0.688-0.501-0.952
			c-0.214-0.264-0.468-0.469-0.762-0.613c-0.295-0.144-0.613-0.215-0.956-0.215c-0.389,0-0.722,0.078-0.997,0.234
			c-0.277,0.158-0.504,0.364-0.681,0.622c-0.176,0.259-0.302,0.554-0.384,0.888C223.967,100.334,223.928,100.677,223.928,101.026z"
			/>
		<path fill="#FFFFFF" d="M231.989,98.946c0-0.144-0.041-0.256-0.126-0.34c-0.083-0.083-0.185-0.144-0.297-0.184
			c-0.114-0.04-0.23-0.064-0.346-0.073c-0.116-0.008-0.207-0.013-0.271-0.013v-0.342c0.16,0.009,0.316,0.015,0.467,0.021
			s0.3,0.011,0.446,0.011c0.136,0,0.281-0.004,0.436-0.011c0.155-0.007,0.299-0.013,0.434-0.021l3.966,4.658v-3.409
			c0-0.223-0.022-0.396-0.067-0.521c-0.044-0.122-0.109-0.212-0.195-0.269c-0.087-0.058-0.197-0.092-0.328-0.103
			c-0.13-0.01-0.28-0.016-0.448-0.016v-0.342c0.205,0.009,0.419,0.015,0.639,0.021c0.221,0.007,0.436,0.011,0.647,0.011
			c0.191,0,0.386-0.004,0.584-0.011c0.199-0.007,0.394-0.013,0.584-0.021v0.342c-0.152,0-0.285,0.005-0.397,0.013
			c-0.111,0.009-0.204,0.035-0.279,0.079c-0.073,0.046-0.128,0.112-0.164,0.204c-0.035,0.09-0.053,0.217-0.053,0.378v5.512h-0.318
			l-4.39-5.119v3.464c0,0.237,0.012,0.431,0.035,0.58c0.023,0.15,0.073,0.268,0.152,0.353c0.076,0.085,0.19,0.145,0.336,0.179
			c0.146,0.033,0.337,0.049,0.58,0.049v0.337c-0.216-0.008-0.441-0.015-0.677-0.02c-0.234-0.004-0.464-0.006-0.688-0.006
			c-0.22,0-0.439,0.002-0.659,0.006c-0.22,0.005-0.442,0.012-0.666,0.02v-0.337c0.266,0,0.471-0.032,0.614-0.097
			c0.145-0.066,0.249-0.162,0.317-0.286c0.067-0.125,0.106-0.279,0.117-0.46c0.01-0.182,0.015-0.393,0.015-0.628V98.946z"/>
	</g>
</g>
</svg>
