<svg height="121" viewBox="0 0 257 121" width="257" xmlns="http://www.w3.org/2000/svg" xmlns:xlink="http://www.w3.org/1999/xlink"><mask id="a" fill="#fff"><path d="m.05546763.67855396h40.63743167v21.34394244h-40.63743167z" fill="#fff" fill-rule="evenodd"/></mask><mask id="b" fill="#fff"><path d="m.40029137.43079856h23.71241003v78.09287054h-23.71241003z" fill="#fff" fill-rule="evenodd"/></mask><g fill="none" fill-rule="evenodd"><g fill="#fffffe"><path d="m98.2923309 58.1827662c-2.0939028 0-2.068018 1.0206043-2.068018 4.2136906v7.5380504c0 3.5582482-2.2233273 6.2317878-6.8308381 6.2317878-4.322777 0-6.9121906-2.0966763-6.9926187-6.543331v-9.5579964c0-1.8304316-.991946-1.8581654-2.3814101-1.8822014v-.6822518c1.2295324.0268093 2.4359533.0536187 3.6127914.0536187 1.2036475 0 2.407295-.0268094 3.7172554-.0536187v.6822518c-1.3885396.024036-2.3814101.0517698-2.3814101 1.8822014v8.8997806c0 3.1145072 1.0206044 6.1263993 5.1039461 6.1263993 4.3458885 0 4.7655935-3.3502446 4.7655935-5.1566403v-7.4594712c0-4.2922698-.1571583-4.2136907-2.487723-4.2922698v-.6822518c1.1010324.0268093 2.196518.0536187 3.2993993.0536187.8911798 0 1.7518525-.0536187 2.6430323-.0536187z"/><path d="m120.178932 76.0063633h-.6009l-13.691259-15.0234065v9.7641511c0 3.6127914.287508 4.3440396 3.117281 4.3440396v.6794784c-1.153727 0-2.334263-.0508453-3.484291-.0508453-1.151878 0-2.332414.0240359-3.481518.0508453v-.6794784c1.595618 0 2.799266 0 2.799266-3.3234353v-10.524982c0-2.2529101-.96791-3.059964-3.217123-3.059964v-.6822518c.807979.0268093 1.595619.0536187 2.405447.0536187.707212 0 1.441233-.0536187 2.148446-.0536187 1.072374 1.5974676 3.505554 3.9779532 6.491561 7.2773525 2.223327 2.4590648 4.685165 5.0484784 6.464752 6.9898453v-10.418669c0-2.4082195-.551903-3.142241-3.163504-3.166277v-.6822518c1.19995.0268093 2.429482.0536187 3.634978.0536187 1.021529 0 2.015324-.0536187 3.035004-.0536187v.6822518c-1.59377 0-2.45814.1294244-2.45814 2.6975755z"/><path d="m128.408478 60.0649676c0-1.8304316-.993795-1.8581654-2.383259-1.8822014v-.6822518c1.229533.0268093 2.435029.0536187 3.612792.0536187 1.206421 0 2.410068-.0268094 3.716331-.0536187v.6822518c-1.386691.024036-2.380486.0517698-2.380486 1.8822014v13.1412051c0 1.8276582.993795 1.8609388 2.380486 1.8849748v.6794784c-1.253569 0-2.380486-.0508453-3.534213-.0508453-1.257266 0-2.486798.0240359-3.79491.0508453v-.6794784c1.389464-.024036 2.383259-.0573166 2.383259-1.8849748z"/><path d="m141.130903 65.324223c-.653594-1.6732734-1.414425-3.3715072-2.013475-5.0752877-.602748-1.5706583-1.024302-2.0661691-2.752119-2.0661691v-.6822518c1.233231.0268093 2.464612.0536187 3.694144.0536187 1.100108 0 2.225176-.0536187 3.32436-.0536187v.6822518c-.395669.024036-.758058.024036-1.125068.0785791-.367936.0212626-.684101.2329641-.684101.6230864 0 .8689928 1.388539 4.0352697 1.676047 4.7933273l3.482442 8.9543237 1.988514-5.1843741c.631407-1.7010072 1.358957-3.3770539 1.911785-5.0780611.263471-.8338633.810751-2.1207122.810751-2.9841583 0-1.2295324-1.045564-1.1509532-1.988514-1.202723v-.6822518c1.020604.0268093 2.069867.0536187 3.089547.0536187.810752 0 1.625201-.0268094 2.435953-.0536187v.6822518c-.892104 0-1.386691.3928957-1.754626 1.0206043-.157158.2902806-1.937669 4.8155144-1.992212 4.9486367l-4.787781 12.0142878h-.969759z"/><path d="m162.950942 65.7716619h3.455634c2.121636 0 2.121636-1.6492374 2.199291-2.2510612h.524169c-.052694.5740899-.106313 1.9885144-.106313 2.933313 0 .8338633.133122 2.066169.106313 2.9065036h-.524169c0-2.5136079-.83941-2.5136079-2.856583-2.5136079h-2.798342v4.449428c0 2.9065036.106313 3.6405252 2.695727 3.6405252h1.621504c2.565377-.1331223 3.720028-.4742482 4.737859-3.2716655l.63418.1026151c-.420629 1.3053382-.816298 2.6411835-1.076072 4.0029137-2.617147 0-5.237993-.0508453-7.85514-.0508453-1.938594 0-3.872565 0-5.812083.0508453v-.6794784c2.278795 0 2.490497-.4197051 2.490497-2.9573489v-11.62509c0-2.1447482-.416932-2.2473633-2.490497-2.3259424v-.6822518c1.759248.0536187 3.536061.0536187 5.290687.0536187 2.513608 0 4.999482 0 7.5399-.0536187v3.9021475l-.523245.1331223c-.395669-2.4673849-1.570658-3.1986331-4.18873-3.1986331h-3.064587z"/><path d="m181.366194 58.3371511c-.655442 0-1.102881.0785791-1.574356.1571583v7.6730215c.390122.0758058.945723.1266511 1.392238.1266511 3.217122 0 4.472539-2.1179388 4.472539-4.005687 0-2.2750972-1.200874-3.9511439-4.290421-3.9511439m-1.574356 8.796241v6.0727806c0 1.8304316 1.000266 1.8609388 2.383259 1.8849748v.6794784c-1.256342 0-2.383259-.0508453-3.531439-.0508453-1.259115 0-2.488647.0240359-3.797683.0508453v-.6794784c1.309036.0785791 2.382334-.2597734 2.382334-1.752777v-13.2734029c0-1.8304316-.995644-1.8581654-2.382334-1.8822014v-.6822518c1.439385.0268093 2.697575.0536187 3.976104.0536187.918914 0 1.835979-.0536187 3.513874-.0536187 4.946788 0 6.045047 2.7780036 6.045047 4.6333957 0 2.2242518-1.676971 3.8734892-3.714482 4.4771618 2.378637 3.4805936 3.633129 5.5791187 4.761896 6.8308382.833863.9447985 1.623352 1.6492374 2.9555 1.6492374v.6794784c-.649896 0-1.30349-.0508453-1.960781-.0508453-.731248 0-1.493004.0240359-2.224252.0508453-2.383259-2.616223-4.135111-5.6789604-6.023784-8.6372338z"/><path d="m194.133917 71.4533957h.602748c.441893 1.9663273 1.906238 3.8734892 4.082418 3.8734892 2.011626 0 3.585982-1.4144245 3.585982-3.4805935 0-4.8691331-7.749752-3.4288238-7.749752-9.6116151 0-3.3724317 2.409144-5.1242842 5.601306-5.1242842 1.072374 0 2.148446.232964 3.19401.3901223l.418781 3.353018h-.601824c-.288431-1.8369029-1.491154-2.9120504-3.376129-2.9120504-1.991288 0-3.145015 1.4440072-3.145015 3.353018 0 4.8728309 8.064993 3.5342122 8.064993 9.555223 0 3.4020144-3.061813 5.316572-6.153208 5.316572-1.361731 0-2.773382-.3198633-4.002914-.8911799z"/><path d="m210.163137 60.0649676c0-1.8304316-.996569-1.8581654-2.383259-1.8822014v-.6822518c1.227683.0268093 2.432255.0536187 3.611867.0536187 1.203647 0 2.410068-.0268094 3.717255-.0536187v.6822518c-1.38854.024036-2.383259.0517698-2.383259 1.8822014v13.1412051c0 1.8276582.994719 1.8609388 2.383259 1.8849748v.6794784c-1.252644 0-2.383259-.0508453-3.533288-.0508453-1.260039 0-2.486798.0240359-3.795834.0508453v-.6794784c1.38669-.024036 2.383259-.0573166 2.383259-1.8849748z"/><path d="m234.726975 60.9265647h-.708137c-.077655-1.411651 0-2.3509028-2.091129-2.3509028h-3.982576v14.6305108c0 1.8304316.998417 1.8609388 2.383259 1.8849748v.6794784c-1.254493 0-2.383259-.0508453-3.535137-.0508453-1.253568 0-2.4831.0240359-3.793985.0508453v-.6794784c1.388539-.024036 2.383259-.0545432 2.383259-1.8849748v-14.6305108h-3.428824c-2.354601 0-2.462763.6582158-2.906504 2.3509028h-.677629l.285658-4.1572985h.525094c.283809.7062878.991946.7312482 1.647388.7312482h11.883939c.94295 0 1.594694-.232964 1.706554-.7312482h.543583z"/><path d="m248.563374 73.2061727c0 1.8304316.99472 1.8609388 2.38141 1.8849748v.6794784c-1.305338-.0268094-2.513608-.0508453-3.714482-.0508453-1.176838 0-2.383259.0240359-3.61464.0508453v-.6794784c1.388539-.024036 2.383259-.0545432 2.383259-1.8849748v-6.332554l-5.469108-7.5426727c-.759907-1.0696007-.893953-1.0187554-2.437802-1.1481798v-.6822518c.498284.0268093 2.437802.0536187 3.638676.0536187 1.077921 0 2.119788-.0536187 3.19586-.0536187v.6822518c-.42063 0-1.466194 0-1.466194.5472806 0 .313392.36701.9179892.861597 1.6242769l3.66641 5.1547914 3.428823-4.6805432c.312468-.4465143 1.022454-1.2859244 1.022454-1.8877482 0-.7580575-.523245-.7580575-1.858166-.7580575v-.6822518c.992871.0268093 2.011626.0536187 3.008194.0536187.708137 0 1.4135-.0536187 2.148447-.0536187v.6822518c-1.099184.024036-1.597468.7312482-2.175256 1.5161151l-4.999482 6.7550324z"/><path d="m80.6175719 36.3303705h.9808526c.722928 3.1986331 3.1089604 6.3057446 6.645946 6.3057446 3.2799856 0 5.8351942-2.2972842 5.8351942-5.666018 0-7.9226259-12.6105647-5.5800431-12.6105647-15.6335503 0-5.4949928 3.9178633-8.3497267 9.1170288-8.3497267 1.7481547 0 3.4935359.3818022 5.1991654.6397267l.6813274 5.4543165h-.9808525c-.4696259-2.9850827-2.4285576-4.7313885-5.4959173-4.7313885-3.236536 0-5.1113417 2.3425828-5.1113417 5.4515432 0 7.9253993 13.1199424 5.7556906 13.1199424 15.5521978 0 5.5384425-4.9846906 8.6483274-10.0119065 8.6483274-2.2131582 0-4.5132158-.5121511-6.517446-1.4486295z"/><path d="m102.866561 21.3531871c-2.545964 0-2.649503.6119928-3.1579567 3.0904712h-1.0196798c.1358956-.9503454.3069208-1.9016151.4095359-2.88709.1340468-.9512697.2024569-1.9016151.2024569-2.8870899h.8172227c.269943 1.0206043 1.118597.9854748 2.037511.9854748h17.524996c.91799 0 1.76572-.0351295 1.833206-1.0511115l.814449.1331223c-.134971.9179892-.269942 1.8359784-.371633 2.7539677-.06841.9133669-.06841 1.8313561-.06841 2.7493453l-1.020604.3762554c-.067486-1.2618885-.235738-3.2633453-2.511759-3.2633453h-5.569874v18.0676546c0 2.6171475 1.188856 2.9231439 2.818679 2.9231439h.644349v1.0187554c-1.324751 0-3.701539-.1358957-5.532895-.1358957-2.03936 0-4.419846.1358957-5.741824.1358957v-1.0187554h.645273c1.868335 0 2.819605-.1710252 2.819605-2.8556583v-18.1351402z"/><path d="m121.684878 43.8711942c-1.426443 0-2.683709-1.2239856-2.683709-2.684633 0-1.4245936 1.257266-2.7160648 2.683709-2.7160648 1.426442 0 2.71514 1.2914712 2.71514 2.7160648 0 1.4606474-1.253568 2.684633-2.71514 2.684633"/><path d="m143.986561 39.6972554c0 5.7529173-.808903 7.2024712-1.96078 9.2039281-1.14818 2.0014568-3.917864 3.5397589-6.642249 3.5397589-2.13273 0-4.391187-.8126007-4.391187-2.8575071 0-1.2785288.937403-1.917331 1.79068-1.8766547.683176 0 1.36173.514 1.36173 1.5355288 0 1.1509532 1.066828 1.8304316 2.301907 1.8304316 3.364111 0 3.364111-5.3239676 3.364111-8.7315288v-24.541651c0-2.9786116-1.619654-3.0248346-3.875338-3.0655108v-1.1075036c2.001457.0425251 3.962238.0832014 5.879569.0832014 1.958931 0 3.919712-.0406763 6.050593-.0832014v1.1075036c-2.259381.0406762-3.879036.0868992-3.879036 3.0655108z"/><path d="m160.893094 42.3791151c6.589553 0 7.744205-5.8074604 7.744205-10.7690396 0-4.9588057-2.68186-10.9696474-8.320144-10.9696474-5.94613 0-7.711849 5.3008561-7.711849 9.8482769 0 6.0829497 2.787248 11.8904101 8.287788 11.8904101m-.509378-23.2335396c7.236676 0 13.009007 4.4827087 13.009007 11.7166116 0 7.8107661-5.604079 13.0090071-12.837982 13.0090071-7.202471 0-12.702086-4.8894712-12.702086-12.193633 0-7.0638022 5.467259-12.5319857 12.531061-12.5319857"/><path d="m182.434871 40.4063165c0 1.835054 1.428291 1.9376691 2.649503 1.9376691h.648047v1.0187554c-1.494853 0-3.671033-.1358957-5.503313-.1358957-1.731514 0-3.770874.1358957-5.127982.1358957v-1.0187554h.476097c1.223061 0 2.511759-.1710252 2.511759-1.9376691v-17.7995611c0-1.7601727-1.288698-1.9302734-2.511759-1.9302734h-.476097v-1.0215288c1.357108 0 3.396468.1358957 5.127982.1358957 1.83228 0 4.00846-.1358957 5.503313-.1358957v1.0215288h-.648047c-1.221212 0-2.649503.0970684-2.649503 1.9302734v7.4400575h12.332302v-7.4400575c0-1.833205-1.428292-1.9302734-2.648579-1.9302734h-.644349v-1.0215288c1.494852 0 3.66641.1358957 5.499615.1358957 1.731514 0 3.7681-.1358957 5.129831-.1358957v1.0215288h-.478871c-1.222137 0-2.511759.1701007-2.511759 1.9302734v17.7995611c0 1.7666439 1.289622 1.9376691 2.511759 1.9376691h.478871v1.0187554c-1.361731 0-3.398317-.1358957-5.129831-.1358957-1.833205 0-4.004763.1358957-5.499615.1358957v-1.0187554h.644349c1.220287 0 2.648579-.1026151 2.648579-1.9376691v-8.4578884h-12.332302z"/><path d="m226.958734 36.668723.067485-.0674856v-12.7316691c0-2.7900215-1.93582-3.1958597-2.958273-3.1958597h-.743266v-1.0187554c1.59377 0 3.157957.1358957 4.751726.1358957 1.395936 0 2.784475-.1358957 4.180411-.1358957v1.0187554h-.509378c-1.428292 0-3.022061.2708669-3.022061 4.3144569v15.4532805c0 1.1897806.034205 2.3795612.201532 3.4297482h-1.288698l-17.49264-19.4950215v13.9935575c0 2.9527266.575939 3.971482 3.192162 3.971482h.577788v1.0215288c-1.460648 0-2.923144-.1331223-4.381943-.1331223-1.528133 0-3.091396.1331223-4.618604.1331223v-1.0215288h.474248c2.346281 0 3.057191-1.5956187 3.057191-4.3098345v-14.3032518c0-1.9006906-1.561414-3.0544173-3.089547-3.0544173h-.441892v-1.0187554c1.288698 0 2.614374.1358957 3.904921.1358957 1.018755 0 2.00423-.1358957 3.022985-.1358957z"/><path d="m234.382151 28.2136079c1.494853-.2708669 3.497234-1.2212122 3.497234-2.8870899 0-1.0187554-.747889-1.2239856-1.460648-1.4948525-.711834-.2708669-1.426442-.6119928-1.426442-1.8664856 0-1.4624964 1.123219-2.3102267 2.480327-2.3102267 1.968177 0 2.99063 1.6982339 2.99063 3.5314389 0 3.2291403-2.755817 5.2657266-5.605004 6.0450467z"/><path d="m254.692547 24.6793957c-.237587-2.2048381-1.665878-4.3089101-4.011234-4.3089101-2.68186 0-4.173014 1.5946943-4.173014 4.2784029 0 5.6364352 10.18478 3.9382014 10.18478 12.091018 0 4.6879388-3.868867 7.1312877-8.216604 7.1312877-1.901615 0-3.733896-.676705-5.400698-1.529982-.170101-1.7315144-.405838-3.4269748-.575939-5.1575647l.949421-.2089281c.406763 2.88709 2.036586 5.4043957 5.263878 5.4043957 2.309302 0 4.177636-1.4634209 4.177636-3.8707158 0-6.015464-9.985097-4.1471295-9.985097-12.3341511 0-4.4124496 3.125601-7.0286727 7.508468-7.0286727.949421 0 3.836511.3744065 4.887622.5093777 0 1.5956187.138669 3.2254425.341126 4.8561907z"/><path d="m31.4935935 79.0968345c-.2579244-.138669-6.3833993-3.4537841-11.7073669-7.0148057-8.3719137-5.5994569-12.98312228-13.8382482-12.98312228-23.1984101l.00092446-37.1096906h12.87773382c-.0009245-.0425252-.0305072-2.05969788-.0305072-2.05969788l1.8618633-.51215108c.8976511-.24683094 1.7370612-.60737051 2.4960432-1.06960072 0 0 .1802698-.11093525.232964-.14514029l-.0268094-5.53382014h4.8839245c.817223-1.11397482 2.1151655-1.8248849 3.5545504-1.8248849 1.4375359 0 2.7354784.71091008 3.5536259 1.8248849h4.8321546v5.51255755c.1534605.10723741.2921295.19783453.3734821.24128417l.0915215.04344964.0637878.03697842c.6730072.38180216 1.4079532.68317626 2.1826511.8948777l1.8674101.51030216s-.0305072 2.03196407-.0323562 2.08096047h12.8675648v37.1096906c0 9.3620108-4.6112086 17.6008022-12.9831223 23.1984101-5.2056367 3.4833669-11.3283381 6.8631942-11.5871871 7.0055611l-1.1925539.6554425z"/></g><path d="m30.5450971 35.8699892c-.0305072-.0101691-.1784208-.0360539-.1784208-.0360539-.0203382-.001849-8.2831655-.012018-8.2831655-.012018v-5.1150396h-12.81024821v17.9724352c0 8.553108 4.19982371 15.9894677 11.87561871 21.122072 5.2879137 3.5369856 10.6978561 6.519295 10.6978561 6.519295v-39.0963562c-.0776547-.6831762-.6277086-1.2480215-1.3016403-1.3543345" fill="#cf0a2c"/><path d="m42.9282446 30.7068777v5.1150396h-7.9438885c-.829241 0-1.4902302.6591403-1.5151906 1.4800611-.0046223.0027734-.0129425.0036979-.0157159.0092446v39.0150036s5.4284317-3.0608885 10.6054101-6.5248417c7.6785684-5.1326043 11.8746943-12.568964 11.8746943-21.122072v-17.9724352z" fill="#cf0a2c"/><path d="m42.708223 14.0656655c.2144748-.8578993.3438993-1.7509281.3577662-2.6790864-.9854748-.2699424-1.9145575-.6535935-2.7558165-1.1315395-.5167734-.2394353-1.6668022-1.13338852-1.7916044-1.28500003l-.0009244-.18951439v-4.03526978h-3.9474461c-.1248021-1.02707554-.9429496-1.82396044-1.9422913-1.82396044-.9993418 0-1.8202626.7968849-1.9422914 1.82396044h-3.9890468l.0212626 4.2941187s-.6582158.51584892-.9854748.73309712c-.0545432.03790288-.3901223.25515108-.4492878.28658278-.945723.5759388-1.9986834 1.0335467-3.1339208 1.3450899.0138669.9207626.1460647 1.809169.3642374 2.6615216h-13.24012231v15.092741h12.81117271v-5.3221187h8.4162877l.2089281.0369784c.6498957.0637878 1.3007158.3291079 1.9506115.9374029.6517446-.608295 1.3044137-.8736151 1.9552338-.9374029l.2061547-.0369784h8.1065935v5.3221187h13.0570791v-15.092741z" fill="#0e1828"/><path d="m44.9075144 44.8058237c0-1.99591 1.6168813-3.6127913 3.6127914-3.6127913 1.9968345 0 3.6155647 1.6168813 3.6155647 3.6127913 0 .7506619-.0915216 1.1823849-.6156906 2.0208705-.5250936.8394101-6.5867806 9.0264317-6.5867806 9.0264317s-6.0820252-8.2739209-6.577536-9.0264317c-.4955108-.7506618-.6175396-1.2702086-.6175396-2.0208705 0-1.99591 1.6196547-3.6127913 3.6155648-3.6127913 1.9968345 0 3.6137158 1.6168813 3.6137158 3.6127913" fill="#fffffe"/><path d="m23.9878993 47.0254532c-.8366367 0-1.5595648.3096943-2.1077698.8542015-.0258849.0305072-.0545432.0573165-.0887482.0767302-.0055468.0046223-.0101691.0101691-.0138669.0157158-.0018489 0 0-.0055467-.0018489-.0055467-.0379029.0194136-.0795036.0323561-.1257267.0323561-.1617805 0-.2939784-.1321979-.2939784-.2949029 0-.0785791.0323561-.1497626.0832015-.2033813 0 0 0 0 0-.0009245 0 0 .0027734 0 .0027734-.0018489 0 0 0-.0018489.0027733-.0018489.6498957-.5287914 1.0806943-1.4116511 1.0806943-2.4165396 0-.3623885-.0545432-.4955108-.1571583-.8153741-.3549928-1.110277-2.3342626-3.1625791-2.3342626-3.1625791s-.0083201.0083201-.0138669.0138669c-.0055468-.0055468-.0129424-.0138669-.0129424-.0138669s-1.9801943 2.0523021-2.3333382 3.1625791c-.1016906.3198633-.1590072.4529856-.1590072.8153741 0 1.0048885.4298741 1.8877482 1.0834677 2.4165396l.0018489.0018489.0009244.0018489v.0009245c.0517698.0536187.0841259.1248022.0841259.2033813 0 .162705-.1303489.2949029-.2949028.2949029-.0434497 0-.0850504-.0129425-.1248022-.0323561v.0055467c-.0055468-.0055467-.0110935-.0110935-.0166403-.0157158-.0351295-.0194137-.0628633-.046223-.0887482-.0767302-.5454316-.5445072-1.2702086-.8542015-2.1059208-.8542015-1.6815936 0-3.0433238 1.3608058-3.0433238 3.0433238 0 1.3210539.8477302 2.4313309 2.0236439 2.8538093-.2043058-.3411259-.3318813-.7358705-.3318813-1.1638957 0-1.2433992 1.005813-2.2492122 2.2464389-2.2492122.6693093 0 1.2646618.2921295 1.6741978.7525108.397518.5204712.5334137 1.074223.5657698 1.8128669h-2.0180971c-.3522195 0-.6388022.2875072-.6388022.6397266 0 .3522195.2865827.6388022.6388022.6388022h1.9173309c-.1534604.7072122-.4650036 1.3561834-.9105935 1.8905216h.9004244c-.0600899.1331223-.0933705.2764136-.0933705.4307985 0 .57409.4640792 1.040018 1.040018 1.040018.5740899 0 1.040018-.465928 1.040018-1.040018 0-.1543849-.034205-.2976762-.0961439-.4307985h.8930288c-.443741-.5343382-.7552842-1.1833094-.9078202-1.8905216h1.8720324c.3522194 0 .6397266-.2865827.6397266-.6388022 0-.3522194-.2875072-.6397266-.6397266-.6397266h-1.9718741c.0305072-.7386439.1654784-1.2923957.5639209-1.8128669.4086115-.4603813 1.0048885-.7525108 1.6732734-.7525108 1.2406259 0 2.2482877 1.005813 2.2482877 2.2492122 0 .4280252-.1275755.8227698-.3337302 1.1638957 1.1759137-.4224784 2.0227194-1.5327554 2.0227194-2.8538093 0-1.682518-1.3608057-3.0433238-3.0405503-3.0433238" fill="#fffffe"/><path d="m32.6168129 6.10975899c-.1839676 5.34523021-.4391187 10.69323381-.7580575 16.03569061.2412842.0175648.4788705.0369785.724777.0369785.2921295 0 .5805611-.0194137.8671439-.0425252-.3411259-5.3424569-.6166151-10.6867626-.8089029-16.03014391z" fill="#fffffe"/><path d="m31.2107086 7.33466906c-.9281582 4.31815464-2.5616798 8.60765104-4.9671259 12.63922304.3716331.2921295.7645288.5583741 1.1731403.7996583 1.9284245-4.370849 3.1745971-8.9007051 3.8217194-13.43703241-.0083201 0-.0175647-.00092446-.0277338-.00184893" fill="#fffffe"/><path d="m29.4237266 7.97347122c-1.4791367 2.73455398-3.6534676 5.30270508-6.4758453 7.40862588.162705.4576079.3522194.9022734.5768633 1.3256763 2.6966511-2.6023561 4.6712986-5.6087015 5.9257914-8.72320865-.0083202-.00369784-.0184892-.00924461-.0268094-.01109353" fill="#fffffe"/><path d="m35.8182194 7.97347122c-.0110935.00184892-.0184892.00739569-.0249604.01109353 1.2433993 3.09324465 3.2023309 6.08294965 5.8740216 8.67421225.220946-.4243274.4095359-.8689928.5676187-1.3247518-2.7955684-2.0948274-4.9486367-4.6454137-6.4166799-7.36055398" fill="#fffffe"/><path d="m34.006277 7.33744245c.6415755 4.52153595 1.8822014 9.04307195 3.7995324 13.40097845.4095359-.2431331.8024316-.5093777 1.1703669-.8042806-2.3971259-4.019554-4.0177051-8.2951835-4.9449389-12.6003957-.0110935.00277339-.0166403.00369785-.0249604.00369785" fill="#fffffe"/><path d="m26.2361871 19.9840612c.0027733-.0027734.0055467-.0064713.0055467-.0101691-.0332806-.0268094-.070259-.0508453-.104464-.0785792.034205.0277339.0656367.0591655.0989173.0887483" fill="#0b0e16"/><path d="m23.5219712 16.7105468c.0055468.0110935.0110935.0203381.0184892.0314316-.0073957-.0110935-.010169-.0231115-.0157158-.0332806-.0027734.001849-.0027734.001849-.0027734.001849" fill="#0b0e16"/><path d="m27.523036 25.7480719h2.007928v.5814857h-1.3247518v.9078201h1.2128921v.5824101h-1.2128921v1.0353957h1.3349209v.5814856h-2.0180971z" fill="#cf0a2c"/><path d="m32.5141978 29.3839748c-.2486798.0637878-.5167733.116482-.7746978.116482-1.1010324 0-1.8674101-.5962769-1.8674101-1.845223 0-1.2628129.7109101-1.9718741 1.8674101-1.9718741.2237194 0 .5213957.048072.771.1553094l-.0489964.6212374c-.2588489-.1580828-.4927374-.1932123-.736795-.1932123-.7016654 0-1.1417086.5796367-1.1417086 1.3358454 0 .7515863.4298741 1.3173561 1.1565 1.3173561.2680935 0 .5851835-.0647122.746964-.1534604z" fill="#cf0a2c"/><path d="m35.4928094 29.3839748c-.2496044.0637878-.5167734.116482-.7756223.116482-1.1019569 0-1.8664857-.5962769-1.8664857-1.845223 0-1.2628129.7109101-1.9718741 1.8664857-1.9718741.2237194 0 .5223201.048072.771.1553094l-.0489965.6212374c-.2579244-.1580828-.4927374-.1932123-.7367949-.1932123-.7016655 0-1.1407842.5796367-1.1407842 1.3358454 0 .7515863.4289497 1.3173561 1.1555756 1.3173561.2690179 0 .5851834-.0647122.7460395-.1534604z" fill="#cf0a2c"/><path d="m35.9938669 25.7480719h2.0088525v.5814857h-1.3266007v.9078201h1.2128921v.5824101h-1.2128921v1.0353957h1.3358453v.5814856h-2.0180971z" fill="#cf0a2c"/><path d="m26.2666942 31.0646439h-.010169l-.491813 1.5216619h.993795zm-.3753309-.7414173h.7700755l1.3358454 3.6913705h-.7552842l-.293054-.8468057h-1.3792949l-.2976763.8468057h-.7072122z" fill="#cf0a2c"/><path d="m30.898241 31.0378345c-.2634712-.1331223-.6055216-.1959856-.8782374-.1959856-.795036 0-1.2332302.5805612-1.2332302 1.3367698 0 .7506619.4289496 1.3164317 1.1546511 1.3164317.186741 0 .3318813-.0194137.4483633-.0526943v-.9623633h-.7210792v-.5814856h1.3746727v1.9885144c-.361464.1063129-.7358705.1895144-1.1019568.1895144-1.1019569 0-1.8674101-.5972015-1.8674101-1.8433741 0-1.2646619.712759-1.9718741 1.8674101-1.9718741.3947446 0 .7072122.0563921.9993417.1516115z" fill="#cf0a2c"/><path d="m31.7247086 30.3232266h.8384856l1.297018 2.7585899h.0092446v-2.7585899h.654518v3.6913705h-.8347877l-1.3016403-2.7622877h-.0092446v2.7622877h-.6535936z" fill="#cf0a2c"/><path d="m35.1544568 30.3232266h.6841008v2.1308813c0 .6277086.1858165 1.0409425.7062877 1.0409425.5223202 0 .7081367-.4132339.7081367-1.0409425v-2.1308813h.6822518v2.3573741c0 .9891727-.5167734 1.3959353-1.3903885 1.3959353-.8726906 0-1.3903885-.4067626-1.3903885-1.3959353z" fill="#cf0a2c"/><g transform="translate(0 29.582734)"><path d="m40.4285036 1.41719784c-.2126259-.09984172-.4520612-.15808273-.6914964-.15808273-.2338885 0-.5352626.11001079-.5352626.51215108 0 .64065108 1.4911547.37163309 1.4911547 1.60856115 0 .80797842-.5898058 1.11397482-1.2766799 1.11397482-.3707086 0-.536187-.05269425-.8736151-.14144245l.0637878-.66746043c.2357374.1377446.501982.22741727.7700755.22741727.2588489 0 .6045971-.14051799.6045971-.47517267 0-.70443884-1.4911546-.41323381-1.4911546-1.63352158 0-.8246187.5898057-1.12506834 1.1888561-1.12506834.2921295 0 .5657698.04160072.8144496.13127338z" fill="#bd2531" mask="url(#a)"/><g fill="#fffffe"><path d="m3.7662518 9.52748921v1.95153599h-.54358274v-1.2711331h-.98917266v1.2008741h-.54080935v-1.2008741h-1.09733453v1.3266007h-.54265828v-2.00700359z" mask="url(#a)"/><path d="m.57501439 13.1680144v.2301906c0 .7654533.52047122 1.110277 1.3339964 1.110277.81260072 0 1.33676979-.3448237 1.33676979-1.110277v-.2301906zm3.19123741-.6794784v.9669856c0 1.1601978-.62770863 1.7758885-1.85724101 1.7758885-1.2498705 0-1.85631655-.7441907-1.85631655-1.7758885v-.9669856z" mask="url(#a)"/><path d="m3.7662518 16.680964h-2.40544604c-.61569065 0-.81907195.1858166-.81907195.5851835 0 .3891978.2033813.5796367.81907195.5796367h2.40544604v.6804029h-2.40544604c-.97715468 0-1.36080576-.5648454-1.36080576-1.2600396 0-.7016655.38365108-1.2665108 1.36080576-1.2665108h2.40544604z" mask="url(#a)"/><path d="m.19875899 22.0224964c-.07857913-.1349712-.14976259-.4622302-.15993165-.7987338-.0397518-1.1269173.76175539-1.7352122 1.84707194-1.7731151 1.08439209-.0379029 1.92842446.5112266 1.9672518 1.6178057.01294245.3771799-.07673022.6896475-.12572662.829241l-.61106834-.0157158c.06378776-.1414424.18858992-.361464.17657194-.7090611-.01941367-.5639209-.4206295-1.0335468-1.38206835-.9993418-.96236331.0351295-1.32752518.5306403-1.30718705 1.0945612.01294245.3300324.09984173.5445072.21632374.6942698z" mask="url(#a)"/></g></g><g fill="#fffffe"><path d="m1.96355396 54.2112842 1.64738849-.712759-.00184892-.012018-1.7897554-.2551511zm-.49643525.2172482-.18396763-1.262813-.92261151-.1331223-.09799281-.6748561 3.85315108.6942698.10816187.7395683-3.50093165 1.7204209-.10169065-.6961187z"/><path d="m4.16839209 55.8244676-.19783454-.8061295.52786691-.1303489.55744964 2.2677014-.52694245.1285-.19691007-.7996582-3.0793777.758982-.16085611-.6600648z"/><path d="m5.34985252 58.0191367.21447482.6471223-3.52496763 1.1648201-.21447482-.6443489z"/><path d="m3.58413309 62.1006295c.1728741.3965935.64897123.5666942 1.58360072.1562338.93740288-.409536 1.13431295-.8736151.96143885-1.2692842-.17379856-.3928956-.6471223-.5629964-1.58267626-.1534604-.93647841.4086115-1.13431295.8736151-.96236331 1.2665108zm3.02298562-1.3219784c.30969424.7081367.06656115 1.588223-1.15742447 2.1207122-1.22398561.5352626-2.03473741.1174065-2.34258273-.5888813-.30969424-.7062878-.06656115-1.5836007 1.15742446-2.1197878 1.22398561-.536187 2.03288849-.1174064 2.34258274.5879569z"/><path d="m7.03976619 69.096946c-.14144245-.0721079-.3808777-.3078453-.57501439-.5787122-.65544245-.9179892-.31986331-1.8683345.56484532-2.5015899.88008633-.6267842 1.88867266-.6341799 2.53302159.267169.21909712.3078454.315241.6166152.35314388.7580576l-.51954676.3254101c-.02403597-.152536-.04344964-.4058382-.24498202-.688723-.32633453-.455759-.91983813-.6295576-1.70378057-.070259-.78394245.5611474-.81352518 1.1740647-.48719065 1.6353705.19228777.2680935.38272662.397518.56392086.4585323z"/><path d="m10.3530324 67.5799065.4696259.4936618-1.09456118 1.0437159.76083098.7941115 1.0927122-1.040018.4696259.4918129-2.68833095 2.5616799-.4696259-.4918129 1.18608275-1.1306152-.75805757-.7978093-1.18793165 1.132464-.4696259-.4955108z"/><path d="m12.3341511 71.8019173c.2653201.2468309.572241.2773381.829241 0 .2902806-.3087698.1978345-.5417338-.0813525-.8015072l-.2033813-.1876655-.7469641.8015072zm.4012158-1.8359785.8495791.7904137c.4816439.4492878.6073705.9688346.1432914 1.4689676-.3309568.3559173-.7737734.3864245-1.120446.1506871l-.0110936.0129424c.0859749.1090864.1571583.258849.0055468.5944281l-.608295 1.3654281-.5306402-.4927375.5537518-1.1352374c.1331223-.2754892.0711834-.4668525-.1127842-.6360287l-.1127842-.1035396-1.0880899 1.1666691-.4992087-.4640792z"/><path d="m15.1297194 72.0099209.5232446.4354208-2.3740144 2.8538094-.5232446-.4344964z"/><path d="m14.6545468 75.4045396c.0545431.1488381.2015323.4409676.4890395.6591403.2375864.1802697.5491295.208928.7746979-.0868993.1608561-.2126259.1081618-.3984425-.0443741-.7414173l-.1590072-.3605396c-.1701007-.383651-.1839676-.7617554.1072374-1.1426331.4012158-.5297158 1.0474137-.4751726 1.5429244-.0961438.3133921.2385108.4723993.4853417.5361871.5750144l-.3688597.4335719c-.0924461-.1516115-.2080036-.3568417-.4576079-.5472806-.2717914-.2080036-.5204713-.1691762-.6748561.0342051-.1673274.2190971-.0841259.4178561.010169.6360287l.1811943.4178561c.1996834.4603813.2227949.7719245-.0924461 1.1870072-.4566834.6018238-1.1038057.5639209-1.6677266.1358957-.2949029-.2255683-.4918129-.4428165-.5713165-.6452734z"/><path d="m18.8811799 75.4442914-.6914964-.4603813.3004496-.4520612 1.9450647 1.2951691-.3004496.4511367-.6877986-.4566835-1.7564748 2.640259-.5676187-.3781043z"/><path d="m21.1137518 76.2457986.572241.3697841-2.0162482 3.1182051-.5713165-.3697842z"/><path d="m22.7028993 79.9806187.5250935-1.7194964-.0101691-.0018489-1.3543345 1.1953273zm-.1553094.5186223-1.0825431-.6794784-.6988921.6147662-.5777878-.3614641 3.0276079-2.4858741.6314065.397518-.9605144 3.7828921-.5935036-.373482z"/><path d="m25.4050971 78.8879065.70259.3993669-.3660864 3.1440899.0092446.0046223 1.4393849-2.533946.5371115.3041475-1.8350539 3.2291402-.7072123-.4030647.3605396-3.120054-.0092446-.0055467-1.4292158 2.5145323-.5352626-.3050719z"/><path d="m28.9300647 83.4445719.3725576-1.7592482-.0092446-.0036978-1.2452482 1.3108849zm-.1109352.5287914-1.1361619-.5824101-.6443489.6748562-.606446-.3096943 2.8011151-2.7401007.6637626.3411259-.6286331 3.8513021-.6249353-.3198633z"/><path d="m37.1753273 83.1330288-1.2970179-1.2591151-.0092447.0046223.4511367 1.762946zm.3928957.3762554-1.1047302.6572913.2311151.9096691-.5888813.3522194-.8347878-3.855.644349-.3808777 2.9453309 2.594036-.6073705.361464z"/><path d="m38.0776007 80.0998741.6933453-.4261763 2.5977339 1.8452231.0083201-.0046223-1.5392266-2.4978921.5287913-.3281835 1.9626295 3.1829173-.698892.4298741-2.5810936-1.8295072-.010169.0046223 1.5290575 2.4821763-.5269424.3263345z"/><path d="m41.704259 77.7933453.5777878-.3670108 2.0042302 3.1533346-.5777878.3679352z"/><path d="m46.575241 75.3869748-.0083201.0064712.9401762 3.1154317-.407687.269018-2.465536-2.104072-.0101691.0055468 1.7204209 2.5977338-.5176978.3429748-2.0633957-3.1172805.853277-.5648454 2.1835755 1.9016151.0073957-.0055467-.8828597-2.7622878.8264676-.5445072 2.0615468 3.1145072-.5186224.3438993z"/><path d="m50.629 74.5817698-1.4652698-1.0603561-.0092446.0083201.6998166 1.6797446zm.4418921.3170899-.9984173.8089029.3568417.8671439-.5315647.4335719-1.379295-3.6950683.5833346-.4714748 3.2901546 2.1438237-.5509784.4474388z"/><path d="m50.910036 71.5828201 1.4403093-1.341392.3707087.3984424-.9364785.8726907.678554.7321726.8865576-.8255432.371633.4002914-.8847086.8246187.7497374.8061295.9771547-.9087446.3707086.4012158-1.4772877 1.3765216z"/><path d="m56.8931439 67.4356906c.2468309-.349446.1858165-.6221618-.1469892-.8597482-.3318813-.2338884-.6073705-.1996834-.8542015.1506871l-.1469892.2098525 1.0002662.7090612zm-1.973723-.243133.618464-.8745396c.4465144-.6295576 1.0289245-.7099856 1.6057878-.3022986.5759388.4123094.6979676.9900971.2523777 1.6205792l-.2218705.3115431 1.1934784.8477302-.3984425.5592986z"/><path d="m57.0345863 64.6049928.9494209-1.7194964.477946.2643957-.6193885 1.120446.8726907.4788705.584259-1.0566582.477946.2616223-.584259 1.0612805.9651367.5334137.6434245-1.1675935.4788705.2634712-.9762302 1.7675683z"/><path d="m60.5077842 61.2279388c.1368201-.3346546.0563921-.6351043-.2976763-.7793201-.3947446-.1599316-.5796367.0064712-.7238525.363313l-.104464.2597733 1.0206043.4150828zm-1.8720324.2801116.4391187-1.0797698c.2505288-.6166151.6988921-.9198382 1.3339964-.6619137.4502122.1830432.6378777.5898058.5398849 1.0002662l.0147914.0064712c.0730323-.1211043.1904388-.2394352.5574496-.2190971l1.5031727.0850504-.2736403.6757805-1.2665108-.1174064c-.3069209-.0268094-.4613058.1016906-.5565252.3337302l-.0600899.1432913 1.4874568.6055216-.257.6351043z"/><path d="m59.9900863 58.1004892.501982-1.823036.5250936.1460648-.3189389 1.1601978.9808525.2727159.305072-1.1121259.5269424.1460647-.3059964 1.110277 1.5688094.4307985-.1821187.6600648z"/><path d="m60.8359676 54.8140324.3115432-1.9385936.5389604.0868993-.2043057 1.262813.9845503.1562338.1922878-1.192554.538036.0878238-.1913633 1.1916295 1.0890143.1774964.2126259-1.3155072.5361871.0850503-.3198633 1.9949857z"/><path d="m65.0496583 49.3966942c.0693345.142367.1109352.4760972.0970683.8153741-.0499208 1.1333885-.9078201 1.6769713-1.9986834 1.6279749s-1.893295-.6711583-1.8433741-1.7823597c.0184892-.3808777.1340467-.6859497.1922877-.8227698l.6138418.0647122c-.0767303.1368201-.2190972.349446-.234813.6970432-.0249604.5685431.3374281 1.0714496 1.3044137 1.1148992.969759.0443741 1.377446-.4243273 1.4024065-.9910215.0157158-.3318813-.0554677-.5537518-.1617806-.7136835z"/><path d="m62.0128058 47.263964v.8366367h-.5472806v-2.3518273h.5472806v.8301654h3.1903129v.6850252z"/><path d="m61.3693813 44.3389712h3.7375935v-.6841007h-3.7375935z"/><g transform="translate(61.014388 38.827338)"><path d="m3.71817986 1.91917986c0-.43357195-.36885972-.78209353-1.39870864-.78209353-1.02522662 0-1.39685971.34852158-1.39685971.78209353 0 .43357194.37163309.78209352 1.39685971.78209352 1.02984892 0 1.39870864-.34852158 1.39870864-.78209352zm-3.31788849 0c0-.77654677.57593885-1.4883813 1.91917985-1.4883813 1.34508993 0 1.92380216.71183453 1.92380216 1.4883813 0 .77747122-.57871223 1.48745683-1.92380216 1.48745683-1.343241 0-1.91917985-.70998561-1.91917985-1.48745683z" mask="url(#b)"/><path d="m13.3861871 73.8458993h.6036726c.1109353.4945863.2856583.9762302.526018 1.4412338.2385108.4668525.5315647.8828597.8782374 1.2452482s.746964.654518 1.1999496.8726906c.4529857.2172482.9531188.3254101 1.5003993.3254101.5047554 0 .9753058-.082277 1.4116511-.2486798.4363453-.1654785.8162986-.4049137 1.1417086-.7136835.3254101-.3059964.5796367-.6739316.7626799-1.1019568.1839676-.4280252.2773381-.9022734.2773381-1.4236691 0-.6055216-.1118597-1.1259928-.3337302-1.5577158-.222795-.433572-.5158489-.8107518-.8800863-1.1370864-.363313-.3244856-.7783957-.6138417-1.2443238-.8662194-.465928-.2505288-.9429496-.5047554-1.4301402-.7626798-.4871907-.257-.9642123-.5334137-1.4301403-.8264677-.4659281-.2967518-.8819353-.6480467-1.2443238-1.0529604-.3633129-.4058381-.6572913-.8856331-.8791618-1.4440072-.2218706-.5565252-.3337303-1.2239856-.3337303-2.0014568 0-.8477302.1432914-1.590072.4298741-2.230723.2875072-.6415756.6794785-1.1786871 1.180536-1.6094857.5001331-.4335719 1.0945612-.758982 1.7832842-.9771546.6877985-.2181727 1.4310647-.3263346 2.2261007-.3263346.5389604 0 1.0751475.0462231 1.6094856.1340468.5352626.0896727 1.0668273.1728741 1.5983921.2505288l.4224784 3.3724316h-.6027482c-.1451403-.9309316-.5093777-1.6510863-1.0908633-2.1595395-.5814856-.5084533-1.3469388-.7645288-2.2963597-.7645288-.5047554 0-.9512698.0850503-1.3404676.2579244-.3901223.1710252-.7183058.4067626-.9882482.7044389-.269018.2995252-.4742482.6535935-.6156907 1.0659029-.1414424.4104604-.2117014.8551259-.2117014 1.3330719 0 .608295.1155575 1.1296907.3466726 1.5641871.2311151.4372698.5361871.8190719.9170648 1.1500287.3808777.3300324.8126007.6212375 1.2951691.877313.4834928.257.979928.5149245 1.4893057.771.5084532.2560755 1.003964.5315647 1.4874568.8273921.4834928.2949029.9152159.6434244 1.2960936 1.0455647.3808777.4030648.6868741.8745396.9170647 1.4190468.2311151.5426583.3475971 1.190705.3475971 1.9432158 0 .8560504-.1784208 1.6141079-.5334136 2.2760216-.3540684.6646871-.8209209 1.2212122-1.3987087 1.6751223-.5768633.4529856-1.2360036.7978094-1.9755719 1.0316978-.7395684.234813-1.4939281.3540684-2.2640036.3540684-.6924209 0-1.3839173-.0776547-2.0717158-.2311151-.6896475-.1553094-1.3413921-.3771799-1.9570828-.6674604z" mask="url(#b)"/></g><path d="m98.7647302 116.457054c-.4539101.13682-.8458813.257-1.1740647.365162-.3300324.105388-.6498957.197834-.9623633.276413-.3115432.076731-.6397267.135896-.981777.172875-.3420504.037902-.748813.057316-1.2184389.057316-1.1629712 0-2.2002158-.171025-3.1108093-.512151-.911518-.342975-1.6797446-.815374-2.302831-1.418122-.6249352-.603673-1.1028813-1.315507-1.4310647-2.143824-.3291079-.823694-.4936619-1.720421-.4936619-2.686482 0-1.035396.1876655-1.970025.5648453-2.803888.3762554-.832939.8884065-1.540152 1.5392267-2.122562.6498957-.58241 1.4125755-1.030773 2.2898885-1.346014.8763884-.318014 1.8147158-.476097 2.8159064-.476097.3596151 0 .6748561.014791.9494209.045298.2736403.028659.526018.070259.7571331.121105.2311151.049921.4511367.105388.6600647.16178.2098526.054543.4298741.109087.6609892.159932.2320396.052694.4807195.098917.7506619.140518.269018.04345.584259.06841.9429497.077655l.1534604 3.052568h-.6027482c0-.154385-.0573166-.390122-.1728741-.711835-.1155576-.321712-.3180144-.644348-.6092194-.975305-.2912051-.327259-.6914964-.616615-1.1999497-.865295-.5084532-.24868-1.1528021-.374407-1.9302734-.374407-.5731654 0-1.1629712.096144-1.7703417.282885-.608295.189515-1.1611223.499209-1.6612554.931856-.5010575.431723-.911518 1.002115-1.2323057 1.712101-.3207878.709986-.4807195 1.587299-.4807195 2.63009 0 .743266.1174065 1.489306.3531439 2.238119.2338885.749737.5703921 1.422744 1.0067374 2.021795.4354209.597201.9632878 1.083467 1.5845252 1.4551.620313.373482 1.3182806.558374 2.0976007.558374.443741 0 .8662195-.044374 1.262813-.134971.3984424-.090597.7663777-.24868 1.1038057-.479795.3374281-.232039.6461979-.548205.923536-.95127.2791871-.401215.5195468-.912442.724777-1.538302l.6933453.088748z"/><path d="m102.806471 105.975522c0-.247756-.042525-.450213-.1285-.602749-.085975-.154385-.211701-.272715-.379029-.352219-.166402-.084126-.369784-.135896-.608295-.161781-.240359-.025885-.514-.038827-.82092-.038827v-.693345c.503831.019413 1.006737.03328 1.50687.046223.500133.012018 1.002115.018489 1.507795.018489.529716 0 1.062205-.006471 1.596543-.018489.534338-.012943 1.045565-.02681 1.53368-.046223v.693345c-.291205 0-.556525.011094-.79596.031432-.238511.023111-.444666.070259-.615691.147913-.171025.075806-.304147.191364-.397518.347597-.095219.153461-.141442.363313-.141442.628634v3.961313h7.184906v-3.961313c0-.265321-.047147-.475173-.141442-.628634-.094295-.156233-.226493-.271791-.397518-.347597-.17195-.077654-.376256-.124802-.616615-.147913-.238511-.020338-.503831-.031432-.794112-.031432v-.693345c.486266.019413.997493.03328 1.531831.046223.535263.012018 1.067752.018489 1.598392.018489.503831 0 1.006737-.006471 1.506871-.018489.500133-.012943 1.003039-.02681 1.508719-.046223v.693345c-.30877 0-.58241.012942-.821845.038827-.239436.025885-.443741.077655-.610144.161781-.166403.079504-.293054.197834-.378105.352219-.085974.152536-.1285.354993-.1285.602749v9.198381c0 .247755.042526.446514.1285.595352.085051.150687.211702.269018.378105.354069.166403.08505.370708.140518.610144.168252.239435.02496.513075.035129.821845.035129v.680403c-.50568-.01664-1.008586-.029583-1.508719-.036979-.500134-.009244-1.00304-.012942-1.506871-.012942-.53064 0-1.063129.003698-1.598392.012942-.534338.007396-1.045565.020339-1.531831.036979v-.680403c.290281 0 .555601-.006471.794112-.024036.240359-.01664.444665-.063788.616615-.140518.171025-.077655.303223-.194137.397518-.347597s.141442-.367011.141442-.640651v-4.387489h-7.184906v4.387489c0 .27364.046223.487191.141442.640651.093371.15346.226493.269942.397518.347597.171025.07673.37718.123878.615691.140518.239435.017565.504755.024036.79596.024036v.680403c-.488115-.01664-.999342-.029583-1.53368-.036979-.534338-.009244-1.066827-.012942-1.596543-.012942-.50568 0-1.007662.003698-1.507795.012942-.500133.007396-1.003039.020339-1.50687.036979v-.680403c.30692 0 .580561-.010169.82092-.035129.238511-.027734.441893-.083202.608295-.168252.167328-.085051.293054-.203382.379029-.354069.085975-.148838.1285-.347597.1285-.595352z"/><path d="m121.024813 110.260396c0 .88101.124802 1.699158.37718 2.457216.252378.755284.59905 1.414424 1.040018 1.974647.440043.561147.95959 1.000266 1.55864 1.316432.59905.314316 1.245248.473323 1.936745.473323.830165 0 1.52351-.163629 2.079111-.491813.555601-.330956 1.003964-.765453 1.341392-1.303489.337428-.53896.576864-1.150953.718306-1.835054.140518-.685025.211701-1.381144.211701-2.090205 0-.926309-.122028-1.759248-.365161-2.508985-.244058-.749738-.58241-1.391313-1.015058-1.924727-.430799-.535263-.944799-.946647-1.539227-1.238777-.595352-.290281-1.237852-.43727-1.931197-.43727-.786716 0-1.461572.160856-2.020871.476097-.560223.31709-1.017831.734946-1.371899 1.257267-.355917.521395-.613842 1.119521-.775622 1.798075-.16363.674856-.244058 1.366353-.244058 2.077263zm-2.579245.255151c0-1.027076.204306-1.952461.610144-2.782626.406763-.830166.949421-1.534604 1.627975-2.109619.680403-.578712 1.46527-1.023378 2.355525-1.334921.887482-.314316 1.817489-.468701 2.783551-.468701 1.060356 0 2.025492.170101 2.893561.513075.866219.342975 1.61041.809828 2.225176 1.403331.616615.595353 1.090863 1.300716 1.422745 2.112392.335579.811677.501982 1.692687.501982 2.642108 0 .538961-.073957 1.085317-.222795 1.636295-.151612.551903-.366087 1.07977-.648972 1.583601-.283809.50568-.632331.978079-1.046489 1.418122-.415083.440043-.89118.823695-1.424593 1.149105-.534338.323561-1.127842.579636-1.774964.769151-.65082.189514-1.352486.28196-2.104997.28196-1.087165 0-2.071716-.164554-2.958273-.500133-.883784-.33373-1.642766-.800583-2.270475-1.397784-.627709-.598126-1.113975-1.318281-1.456025-2.154917-.341126-.840335-.513076-1.758324-.513076-2.760439z"/><path d="m138.023791 110.260396c0 .88101.125727 1.699158.37718 2.457216.253302.755284.599975 1.414424 1.040943 1.974647.440967.561147.95959 1.000266 1.55864 1.316432.598126.314316 1.245248.473323 1.93582.473323.83109 0 1.523511-.163629 2.080036-.491813.554676-.330956 1.00304-.765453 1.340468-1.303489.337428-.53896.577787-1.150953.718305-1.835054.141443-.685025.213551-1.381144.213551-2.090205 0-.926309-.124802-1.759248-.36886-2.508985-.242209-.749738-.581486-1.391313-1.01136-1.924727-.432647-.535263-.944798-.946647-1.540151-1.238777-.594428-.290281-1.238777-.43727-1.931198-.43727-.785791 0-1.459723.160856-2.019946.476097-.560223.31709-1.017831.734946-1.372823 1.257267-.355918.521395-.614767 1.119521-.774698 1.798075-.164554.674856-.245907 1.366353-.245907 2.077263zm-2.576471.255151c0-1.027076.201533-1.952461.607371-2.782626.406762-.830166.949421-1.534604 1.629823-2.109619.679479-.578712 1.463421-1.023378 2.353677-1.334921.888406-.314316 1.817489-.468701 2.78355-.468701 1.060356 0 2.023644.170101 2.894486.513075.867144.342975 1.607636.809828 2.224251 1.403331.616616.595353 1.090864 1.300716 1.425518 2.112392.332806.811677.500133 1.692687.500133 2.642108 0 .538961-.075805 1.085317-.225568 1.636295-.150687.551903-.365162 1.07977-.647122 1.583601-.282885.50568-.631407.978079-1.04464 1.418122-.416008.440043-.892105.823695-1.424594 1.149105-.535263.323561-1.127842.579636-1.776813.769151-.651745.189514-1.351561.28196-2.103147.28196-1.087166 0-2.07449-.164554-2.959198-.500133-.884709-.33373-1.640918-.800583-2.269551-1.397784-.629557-.598126-1.11305-1.318281-1.456025-2.154917-.342975-.840335-.512151-1.758324-.512151-2.760439z"/><path d="m154.498601 105.975522c0-.247756-.045299-.450213-.135896-.602749-.089673-.154385-.217248-.272715-.383651-.352219-.169176-.084126-.372558-.135896-.609219-.161781-.239436-.025885-.515849-.038827-.82277-.038827v-.693345c.503831.019413 1.008586.03328 1.51519.046223.501982.012018 1.007662.018489 1.511493.018489.523245 0 1.050187-.006471 1.586374-.018489.533414-.012943 1.044641-.02681 1.53368-.046223v.693345c-.293978 0-.555601.011094-.789489.031432-.234813.023111-.439119.070259-.610144.147913-.172874.075806-.304147.191364-.397518.347597-.09337.153461-.140518.363313-.140518.628634v8.749093c0 .274565.026809.501982.080428.68595.058241.183043.17195.331881.341126.443741.17195.110935.416007.189514.733097.237586.316166.046223.734946.070259 1.256342.070259.580561 0 1.067752-.031432 1.45695-.090597.387348-.059166.722003-.178421.999341-.36054.277338-.180269.524169-.429874.73772-.754359.21355-.327259.44559-.753436.693345-1.284076h.655442l-.783018 3.334529c-.111859 0-.294902-.001849-.546356-.005547-.253302-.003698-.537111-.009244-.851428-.014791-.318939-.003698-.653593-.007396-1.008586-.012018-.354993-.003698-.693345-.006471-1.013209-.012018-.320787-.003698-.611068-.005547-.866219-.005547-.257925 0-.448363 0-.576863 0-.924461 0-1.844299.003698-2.759515.012942-.915216.007396-1.833205.020339-2.757665.036979v-.680403c.306921 0 .583334-.010169.82277-.035129.236661-.027734.440043-.083202.609219-.168252.166403-.085051.293978-.203382.383651-.354069.090597-.148838.135896-.347597.135896-.595352z"/><path d="m174.408705 110.260396c0 .88101.127576 1.699158.379029 2.457216.252378.755284.59905 1.414424 1.039093 1.974647.439119.561147.960515 1.000266 1.557716 1.316432.599975.314316 1.244324.473323 1.938594.473323.828316 0 1.521662-.163629 2.077262-.491813.556525-.330956 1.003964-.765453 1.342317-1.303489.338352-.53896.575014-1.150953.716457-1.835054.143291-.685025.21355-1.381144.21355-2.090205 0-.926309-.122953-1.759248-.367011-2.508985-.243133-.749738-.58241-1.391313-1.011359-1.924727-.434497-.535263-.945724-.946647-1.542-1.238777-.59258-.290281-1.236004-.43727-1.929349-.43727-.788565 0-1.460648.160856-2.020871.476097-.560223.31709-1.015982.734946-1.371899 1.257267-.356842.521395-.615691 1.119521-.778396 1.798075-.159932.674856-.243133 1.366353-.243133 2.077263zm-2.576471.255151c0-1.027076.201532-1.952461.60737-2.782626.406763-.830166.948497-1.534604 1.631673-2.109619.678554-.578712 1.462496-1.023378 2.351827-1.334921.889331-.314316 1.816565-.468701 2.784475-.468701 1.062205 0 2.025493.170101 2.892637.513075.867144.342975 1.609485.809828 2.225176 1.403331.61754.595353 1.092712 1.300716 1.425518 2.112392.33373.811677.500133 1.692687.500133 2.642108 0 .538961-.074881 1.085317-.224644 1.636295-.149762.551903-.365162 1.07977-.648971 1.583601-.281036.50568-.628633.978079-1.04464 1.418122-.415083.440043-.890256.823695-1.423669 1.149105-.534338.323561-1.126918.579636-1.774964.769151-.651745.189514-1.35341.28196-2.104997.28196-1.087165 0-2.071716-.164554-2.958273-.500133-.883784-.33373-1.642766-.800583-2.271399-1.397784-.626785-.598126-1.1149-1.318281-1.456026-2.154917-.341125-.840335-.511226-1.758324-.511226-2.760439z"/><path d="m190.510957 105.975522c0-.247756-.044374-.450213-.1285-.602749-.085051-.154385-.212626-.272715-.379029-.352219-.165478-.084126-.371633-.135896-.613842-.161781-.245906-.025885-.519546-.038827-.830165-.038827v-.693345c.85605.019413 1.708403.03328 2.554284.046223.846806.012018 1.698234.018489 2.554284.018489.615691 0 1.177763-.001849 1.692687-.006471.514-.003698.988248-.007396 1.431065-.012018.440043-.003698.85605-.009245 1.249871-.018489.392895-.008321.783017-.017565 1.168517-.027734l.102616 2.900957h-.527867c-.084126-.452062-.190439-.818148-.320788-1.090864-.126651-.274565-.305996-.481644-.538961-.622162-.228341-.140518-.533413-.233888-.909669-.276413-.375331-.04345-.855125-.062864-1.436611-.062864h-2.81036v4.96158h2.475705c.327259 0 .607371-.008321.84773-.029583.239436-.021263.436346-.083202.591655-.185817.152536-.102615.26532-.262547.337428-.481644.073957-.218172.110011-.526942.110011-.929082h.680403c-.017565.341126-.028658.688723-.039752 1.039093-.006471.349446-.012942.706288-.012942 1.064979 0 .357766.006471.721079.012942 1.083467.011094.364238.022187.727551.039752 1.09641h-.680403c0-.409536-.025885-.736795-.077655-.981777-.050845-.243133-.147913-.425252-.289356-.544507-.137744-.122029-.331881-.19691-.575939-.231115-.244057-.032356-.557449-.050845-.943874-.050845h-2.475705v3.859622c0 .353144.037903.637878.108162.854201.073957.218173.186741.389198.336504.508454.147913.119255.335579.201532.562072.247755.225568.048996.49551.070259.803356.070259h.550978v.680403c-.512151-.01664-1.054809-.029583-1.622428-.036979-.570392-.009244-1.20827-.012942-1.916406-.012942-.50568 0-1.012285.003698-1.51704.012942-.504755.007396-1.009511.020339-1.514266.036979v-.680403c.310619 0 .584259-.010169.830165-.035129.242209-.027734.448364-.083202.613842-.168252.166403-.085051.293978-.203382.379029-.354069.084126-.148838.1285-.347597.1285-.595352z"/><path d="m221.25204 117.007108c-1.120446-.025885-2.232572-.038827-3.337303-.044374-1.102881-.003698-2.21778-.005547-3.345622-.005547-1.171291 0-2.333338.001849-3.482442.005547-1.152802.005547-2.310227.018489-3.471349.044374v-.680403c.324485.018489.630482.007396.922611-.029583.291205-.040676.545432-.125726.761756-.257.220946-.134046.391971-.318014.514-.551903.125726-.234813.187665-.541733.187665-.919838v-13.327946c0-.461306-.06009-.818147-.179345-1.064054-.121105-.2477551-.28381-.4307983-.494587-.5509781-.208928-.1201799-.46223-.1922878-.756208-.2190971-.295828-.0258849-.613842-.0434497-.955892-.0508454v-.6933453c.614766.0184892 1.223061.0323561 1.826734.0452986.603672.012018 1.199949.0194136 1.792528.0194136.613842 0 1.223986-.0073956 1.832281-.0194136.606446-.0129425 1.240626-.0268094 1.898842-.0452986v.6933453c-.350371.0073957-.673008.0249605-.962364.0508454-.29028.0268093-.540809.0989172-.750662.2190971-.208003.1201798-.37533.303223-.494586.5509781-.118331.245907-.18027.602748-.18027 1.064054v12.162202c0 .488115.041601.905046.122954 1.250795.080428.347597.26532.63418.551902.859748.285659.227417.703515.391047 1.25172.495511.546356.10169 1.285924.15346 2.219629.15346.760831 0 1.409803-.05177 1.941367-.15346.537112-.104464.989173-.282885 1.359882-.533414.375331-.252378.683176-.587032.931856-1.006737.247755-.418781.473323-.95127.679478-1.591921l.577788.115557z"/><path d="m228.912119 106.027291h-.05177l-1.912709 5.310101h3.860547zm1.729665 10.299414h.323561c.160856 0 .320788-.010169.479795-.035129.157159-.027734.294903-.064713.415083-.118331.121104-.049921.220022-.114633.295827-.192288.077655-.07673.115558-.170101.115558-.281036 0-.161781-.015716-.305072-.05177-.429874-.032356-.122953-.082277-.270867-.152536-.443741l-.97623-2.654126h-4.464219l-.575939 1.706554c-.027734.084126-.065637.200608-.116482.345748-.049921.144216-.099842.297676-.147914.46223-.046223.162705-.089673.32541-.127576.487191-.039751.162705-.057316.30045-.057316.411385 0 .159931.045298.291205.140518.390122.094295.097993.211701.173799.354068.225568.140518.049921.289356.085051.449288.101691.157158.017565.301374.024036.427101.024036h.309694v.680403c-.443741-.01664-.89118-.029583-1.334921-.036979-.44559-.009244-.894878-.012942-1.347863-.012942-.342051 0-.696119.003698-1.064979.012942-.366086.007396-.730323.020339-1.089938.036979v-.680403c.33373 0 .61569-.029583.841259-.094295.226492-.063788.414158-.147914.562996-.251453.149763-.102615.26532-.218173.346673-.351295.083201-.132198.147913-.268094.199683-.404914l3.758856-9.595899c.067486-.153461.126651-.305072.179345-.454835.050846-.149762.07858-.285658.07858-.404913 0-.06841-.006472-.129425-.013867-.185817-.011094-.055467-.021263-.117406-.039752-.187665l2.027342-.755284 3.938201 11.135125c.10354.299526.211702.550054.329108.749738.114633.200608.253302.364237.416007.483493.162705.119255.358691.201532.59073.247755.23204.048996.521396.070259.870842.070259v.680403c-.503831-.01664-.996568-.029583-1.480061-.036979-.484417-.009244-.969759-.012942-1.456025-.012942-.48904 0-.981777.003698-1.476364.012942-.494586.007396-.986399.020339-1.476363.036979z"/><path d="m246.047917 108.489129 1.205497-2.667992c.042525-.093371.078579-.18859.102615-.282885.027734-.093371.040676-.212626.040676-.359615 0-.084126-.032356-.152536-.091522-.203382-.059165-.053618-.134971-.088748-.222795-.110935-.091521-.020338-.184892-.03328-.278262-.036978-.093371-.005547-.179345-.007396-.257-.007396h-.921687c-.31709 0-.526943.022187-.629558.064712-.103539.040677-.154385.150687-.154385.318939 0 .146989.016641.290281.050846.432648.034205.140518.078579.270867.130349.391046zm-9.006093-2.258456c-.146065-.333731-.29213-.592579-.435421-.783018-.146065-.184892-.293979-.329108-.443741-.421554-.149763-.09522-.303223-.151612-.46223-.174723-.157159-.020338-.318939-.031432-.481644-.031432v-.693345c.43727.019413.869917.03328 1.302565.046223.432647.012018.867143.018489 1.303489.018489.376255 0 .746039-.006471 1.108428-.018489.365162-.012943.729399-.02681 1.097334-.046223v.693345c-.06841 0-.151611.001849-.249604.007396-.098917.003698-.194137.01664-.287507.045298-.096144.024961-.177497.061939-.246831.114633-.066561.050846-.099842.124803-.099842.216324 0 .190439.031432.380878.096144.577788.062863.199683.141442.403065.236662.616615l3.528665 8.482849 1.85909-3.736669-2.464611-5.643831c-.13682-.291205-.307846-.476097-.518623-.55745-.209852-.082277-.485341-.122953-.827392-.122953v-.693345c.367936.019413.736795.03328 1.103806.046223.367011.012018.734946.018489 1.103806.018489.263471 0 .556525-.010169.871766-.031432.316166-.021262.610144-.03328.886558-.03328h2.153068c.215399 0 .442817.012018.687799.03328.243133.021263.47055.031432.686874.031432.237586 0 .477021-.006471.716456-.018489.24036-.012943.470551-.02681.69427-.046223v.693345c-.28196 0-.509377.018489-.681327.052694-.170101.032356-.319863.102615-.449288.202457-.125726.10354-.24868.254227-.365162.450212-.114633.19691-.262546.458533-.443741.783018l-1.576205 3.180144 2.232572 5.262029 3.605396-8.673288c.085975-.1701.126651-.372557.126651-.601824 0-.16178-.032356-.289356-.101691-.379028-.067485-.091522-.165478-.153461-.288431-.193213-.124803-.038827-.26532-.061014-.424328-.070259-.157158-.007395-.326334-.012942-.506604-.012942v-.693345c.376255.019413.743266.03328 1.097335.046223.354992.012018.716456.018489 1.086241.018489.322636 0 .636953-.006471.940176-.018489.304147-.012943.613842-.02681.930931-.046223v.693345c-.204305 0-.389197.01664-.551902.044374-.159932.031432-.313393.096144-.455759.191363-.139594.098918-.27549.246831-.40399.438195-.127575.193212-.260697.446514-.395669.761755l-4.979144 11.073187h-.807054l-2.283417-5.311949-2.554284 5.311949h-.835712z"/></g><path d="m255.481112 87.7155791h-179.6171156" stroke="#fffffe" stroke-width=".518"/></g></svg>