<svg version="1.1" id="Layer_1" xmlns="http://www.w3.org/2000/svg" xmlns:xlink="http://www.w3.org/1999/xlink" x="0" y="0" height="129" width="274" viewBox="0 0 274.1 129.5" xml:space="preserve"><style>.st0{fill:#fff}</style><g id="Logo"><path class="st0" d="M51.7 44.2c0 7.9-3.9 14.8-10.9 19.5-4.8 3.2-9.8 6-9.8 6V33.6c0-.8.7-1.3 1.4-1.3h7.4v-4.7h12l-.1 16.6zM29.8 28.1v2.6h-.6v-3.5h.8l1.2 2.6v-2.6h.6v3.5H31l-1.2-2.6zm-.4 41.6s-5-2.8-9.9-6c-7.1-4.8-11-11.6-11-19.5V27.6h11.8v4.7h7.8c.7.1 1.1.7 1.2 1.2v36.2h.1zm-5.6-42.4h.7l1.2 3.5H25l-.2-.8h-1.2l-.2.8h-.7c0-.1 1.1-3.5 1.1-3.5zm1.5-4.2h1.9v.6H26v.9h1.1v.6H26v1h1.2v.6h-1.9v-3.7zm2.2 7.1h.5v-.9h-.7v-.6h1.2v1.9c-.3.1-.7.2-1 .2-1 0-1.8-.6-1.8-1.7s.7-1.8 1.8-1.8c.3 0 .7 0 .9.1v.6c-.2-.1-.6-.2-.8-.2-.8 0-1.1.6-1.1 1.2s.3 1.2 1 1.2zm1.7-7.3c.2 0 .4 0 .7.1v.6c-.2-.1-.4-.2-.7-.2-.7 0-1 .6-1 1.2 0 .7.4 1.2 1.1 1.2.2 0 .6-.1.7-.1v.6c-.2.1-.4.1-.7.1-1 0-1.7-.6-1.7-1.7-.1-1.1.6-1.8 1.6-1.8zm2.8 0c.2 0 .4 0 .7.1v.6c-.2-.1-.4-.2-.7-.2-.7 0-1 .6-1 1.2 0 .7.4 1.2 1.1 1.2.2 0 .6-.1.7-.1v.6c-.2.1-.4.1-.7.1-1 0-1.7-.6-1.7-1.7-.2-1.1.4-1.8 1.6-1.8zm1.6 7.3c.4 0 .7-.3.7-1v-2h.7v2.2c0 .9-.4 1.3-1.3 1.3-.8 0-1.3-.3-1.3-1.3v-2.2h.6v2c0 .6.2 1 .6 1zm-.4-7.1h1.9v.6h-1.2v.9H35v.6h-1.1v1h1.2v.6h-1.9v-3.7zm3.3 4.1c.2 0 .6 0 .8.1l-.1.6c-.2-.1-.4-.1-.7-.1s-.4.1-.4.4c0 .6 1.3.3 1.3 1.4 0 .8-.6 1-1.2 1-.3 0-.4 0-.8-.1l.1-.7c.2.1.4.2.7.2s.6-.1.6-.4c0-.7-1.3-.3-1.3-1.6-.1-.5.5-.8 1-.8zm5.2-17v-2l-1.4-.4c-.8-.2-1.4-.4-2.1-.9l-.2-.1c-.1-.1-.3-.2-.6-.3V1.7h-4.2c-.7-1-1.8-1.7-3-1.7s-2.5.7-3.1 1.7h-4.3v4.9h-.1s-.2.1-.3.2c-.8.4-1.6.8-2.5 1l-1.4.4v2H6.7v33.9c0 8.5 4.2 16 11.8 21.2 4.9 3.2 10.6 6.3 10.8 6.5l.9.4.9-.6c.2-.1 5.9-3.2 10.7-6.5C49.3 60 53.6 52.6 53.6 44V10.2H41.7z"/><path class="st0" d="M24.2 28l-.4 1.3h.9l-.5-1.3zm66.6 25c-1.9 0-1.9.9-1.9 3.9v7c0 3.3-2 5.8-6.3 5.8-4 0-6.3-1.9-6.5-6v-8.8c0-1.7-.9-1.7-2.2-1.8v-.8h6.8v.7c-1.3 0-2.2 0-2.2 1.8V63c0 2.9.9 5.7 4.7 5.7 4 0 4.5-3.1 4.5-4.8V57c0-4-.1-3.9-2.3-4v-.7h5.5l-.1.7zm20.1 16.4h-.6L97.8 55.6v9c0 3.3.2 4 2.9 4v.7h-6.5v-.7c1.4 0 2.6 0 2.6-3.1v-9.7c0-2.1-.9-2.8-3-2.8v-.7H98c1 1.4 3.2 3.7 6 6.7 2 2.2 4.3 4.7 6 6.5v-9.6c0-2.2-.6-2.9-2.9-2.9v-.7h6.1v.7c-1.4 0-2.2.1-2.2 2.5l-.1 13.9zm7.7-14.7c0-1.7-.9-1.7-2.2-1.8v-.6h6.8v.7c-1.3 0-2.2 0-2.2 1.8v12c0 1.7.9 1.7 2.2 1.8v.7h-6.7v-.7c1.3 0 2.2 0 2.2-1.8l-.1-12.1zm11.7 4.9c-.6-1.6-1.3-3.1-1.9-4.7-.6-1.4-.9-1.9-2.6-1.9v-.7h6.6v.7c-.3 0-.7 0-1 .1-.3 0-.7.2-.7.6 0 .8 1.3 3.7 1.6 4.5l3.2 8.2 1.8-4.8c.6-1.6 1.2-3.1 1.8-4.7.2-.8.8-2 .8-2.8 0-1.1-1-1.1-1.8-1.1v-.7h5.1v.7c-.8 0-1.3.3-1.7.9-.1.2-1.8 4.5-1.9 4.6l-4.5 11.1h-.9c.1 0-3.9-10-3.9-10zm20.2.4h3.2c2 0 2-1.6 2-2.1h.4c0 .6-.1 1.8-.1 2.7 0 .8.1 1.9.1 2.7h-.4c0-2.3-.8-2.3-2.7-2.3h-2.6v4c0 2.7.1 3.3 2.5 3.3h1.4c2.3-.1 3.5-.4 4.3-3l.6.1c-.3 1.2-.8 2.5-1 3.7h-12.6v-.7c2.1 0 2.3-.3 2.3-2.8V55c0-2-.3-2.1-2.3-2.1v-.6h11.9v3.6l-.4.1c-.3-2.2-1.4-3-3.9-3h-2.8c.1 0 .1 7 .1 7zm17-6.9c-.6 0-1 .1-1.4.1v7.1c.3.1.9.1 1.3.1 3 0 4.1-2 4.1-3.7 0-2-1.1-3.6-4-3.6m-1.4 8.2v5.6c0 1.7.9 1.7 2.2 1.8v.7h-6.7v-.7c1.2.1 2.2-.2 2.2-1.7V54.7c0-1.7-.9-1.7-2.2-1.8v-.6h6.9c4.6 0 5.6 2.6 5.6 4.2 0 2-1.6 3.6-3.5 4.1 2.2 3.2 3.3 5.1 4.3 6.3.8.9 1.4 1.6 2.8 1.6v.7H174c-2.2-2.5-3.8-5.2-5.6-8h-2.3v.1zm13.2 4h.6c.4 1.8 1.8 3.6 3.8 3.6 1.9 0 3.3-1.3 3.3-3.2 0-4.5-7.1-3.1-7.1-8.9 0-3.1 2.2-4.8 5.1-4.8 1 0 2 .2 2.9.3l.3 3.1h-.6c-.2-1.7-1.3-2.7-3.1-2.7-1.9 0-2.9 1.3-2.9 3.1 0 4.5 7.5 3.2 7.5 8.8 0 3.1-2.8 4.9-5.7 4.9-1.2 0-2.6-.3-3.7-.8l-.4-3.4zm14.8-10.6c0-1.7-.9-1.7-2.2-1.8v-.6h6.8v.7c-1.3 0-2.2 0-2.2 1.8v12c0 1.7.9 1.7 2.2 1.8v.7H192v-.7c1.3 0 2.2 0 2.2-1.8l-.1-12.1zm22.7.8h-.7c-.1-1.3 0-2.2-1.9-2.2h-3.8v13.6c0 1.7.9 1.7 2.2 1.8v.7H206v-.7c1.3 0 2.2 0 2.2-1.8V53.3h-3.1c-2.2 0-2.2.6-2.7 2.2h-.7l.2-3.8h.4c.2.7.9.7 1.6.7h11c.9 0 1.4-.2 1.6-.7h.6l-.3 3.8zm12.7 11.3c0 1.7.9 1.7 2.2 1.8v.7H225v-.7c1.3 0 2.2 0 2.2-1.8v-5.9l-5-7c-.7-1-.8-.9-2.2-1.1v-.4h6.3v.6c-.4 0-1.3 0-1.3.6 0 .3.3.9.8 1.6l3.3 4.8 3.1-4.3c.3-.4.9-1.2.9-1.8 0-.7-.4-.7-1.7-.7v-.8h4.8v.6c-1 0-1.4.7-2 1.4l-4.6 6.2-.1 6.2zM74.4 32.7h.9c.7 3 2.9 5.8 6.1 5.8 3 0 5.3-2.1 5.3-5.2 0-7.4-11.7-5.1-11.7-14.5 0-5.1 3.6-7.7 8.5-7.7 1.7 0 3.2.3 4.8.6l.7 5h-.9c-.4-2.8-2.2-4.3-5.1-4.3-3 0-4.7 2.1-4.7 5 0 7.4 12.1 5.3 12.1 14.4 0 5.1-4.6 8-9.2 8-2 0-4.1-.4-6-1.3 0-.1-.8-5.8-.8-5.8zM95 18.9c-2.3 0-2.5.6-2.9 2.9h-.9c.1-.9.3-1.8.3-2.7.1-.9.2-1.8.2-2.7h.7c.2.9 1 .9 1.9.9h16.1c.9 0 1.7 0 1.7-1l.8.1c-.1.9-.2 1.7-.3 2.6-.1.9-.1 1.7-.1 2.6l-.9.3c-.1-1.1-.2-3-2.3-3h-5.1v16.7c0 2.5 1.1 2.7 2.6 2.7h.6v.9c-1.2 0-3.5-.1-5.1-.1-1.9 0-4.1.1-5.3.1v-.9h.6c1.7 0 2.6-.1 2.6-2.7V18.9H95zm17.4 20.9c-1.3 0-2.5-1.1-2.5-2.5 0-1.3 1.1-2.6 2.5-2.6s2.6 1.2 2.6 2.6c-.1 1.3-1.3 2.5-2.6 2.5m20.6-3.9c0 5.3-.8 6.7-1.8 8.5s-3.7 3.2-6.1 3.2c-2 0-4-.8-4-2.7 0-1.2.9-1.8 1.7-1.8.7 0 1.2.4 1.2 1.4 0 1.1 1 1.7 2.1 1.7 3.1 0 3.1-4.9 3.1-8V15.7c0-2.8-1.4-2.8-3.6-2.8v-1c1.9 0 3.7.1 5.5.1s3.6 0 5.6-.1v1c-2.1 0-3.6.1-3.6 2.8l-.1 20.2zm15.6 2.5c6.1 0 7.1-5.3 7.1-9.9s-2.5-10.1-7.7-10.1c-5.5 0-7.1 4.9-7.1 9.1 0 5.5 2.7 10.9 7.7 10.9m-.5-21.5c6.7 0 12 4.1 12 10.8 0 7.2-5.1 12-11.8 12s-11.7-4.6-11.7-11.2c-.1-6.6 4.9-11.6 11.5-11.6m20.4 19.6c0 1.7 1.3 1.8 2.5 1.8h.6v.9c-1.3 0-3.3-.1-5.1-.1-1.6 0-3.5.1-4.8.1v-.9h.4c1.1 0 2.3-.1 2.3-1.8V20.2c0-1.7-1.2-1.8-2.3-1.8h-.4v-.9c1.2 0 3.1.1 4.8.1 1.7 0 3.7-.1 5.1-.1v.9h-.6c-1.1 0-2.5.1-2.5 1.8v6.9h11.4v-6.9c0-1.7-1.3-1.8-2.5-1.8h-.6v-.9c1.3 0 3.3.1 5.1.1 1.6 0 3.5-.1 4.8-.1v.9h-.4c-1.1 0-2.3.1-2.3 1.8v16.5c0 1.7 1.2 1.8 2.3 1.8h.4v.9c-1.2 0-3.1-.1-4.8-.1-1.7 0-3.7.1-5.1.1v-.9h.6c1.1 0 2.5-.1 2.5-1.8v-7.8h-11.4v7.6zm41.1-3.4l.1-11.8c0-2.6-1.8-3-2.8-3h-.7v-.9c1.4 0 2.9.1 4.3.1 1.3 0 2.6-.1 3.9-.1v.9h-.4c-1.3 0-2.8.2-2.8 4v14.3c0 1.1 0 2.2.2 3.1h-1.2l-16.1-18v12.9c0 2.7.6 3.7 2.9 3.7h.6v.9c-1.3 0-2.7-.1-4-.1-1.4 0-2.9.1-4.2.1v-.9h.4c2.1 0 2.8-1.4 2.8-4v-13c0-1.8-1.4-2.8-2.9-2.8h-.4v-.9c1.2 0 2.5.1 3.6.1.9 0 1.9-.1 2.8-.1l13.9 15.5zm6.9-7.8c1.3-.2 3.2-1.1 3.2-2.7 0-.9-.7-1.1-1.3-1.3s-1.3-.6-1.3-1.7c0-1.3 1-2.1 2.3-2.1 1.8 0 2.8 1.6 2.8 3.2 0 3-2.6 4.9-5.1 5.6l-.6-1zm18.7-3.2c-.2-2-1.6-4-3.7-4-2.5 0-3.9 1.4-3.9 3.9 0 5.2 9.5 3.7 9.5 11.1 0 4.3-3.6 6.6-7.6 6.6-1.8 0-3.5-.7-5-1.4-.1-1.6-.3-3.1-.6-4.8l.9-.2c.3 2.7 1.9 5 4.9 5 2.1 0 3.9-1.3 3.9-3.6 0-5.6-9.2-3.8-9.2-11.4 0-4.1 2.9-6.5 6.9-6.5.9 0 3.6.3 4.6.4 0 1.4.1 3 .3 4.5l-1 .4zM41.4 40.6c0-1.9 1.4-3.3 3.3-3.3s3.3 1.4 3.3 3.3c0 .7-.1 1.1-.6 1.9-.4.8-6.1 8.4-6.1 8.4s-5.6-7.7-6.1-8.4c-.4-.7-.6-1.2-.6-1.9 0-1.9 1.4-3.3 3.3-3.3s3.6 1.5 3.5 3.3m-19.2 2.1c-.8 0-1.4.3-1.9.8l-.1.1H20c-.1 0-.2-.1-.2-.2s0-.1.1-.2c.6-.4 1-1.3 1-2.2 0-.3 0-.4-.1-.8-.3-1-2.1-2.9-2.1-2.9s-1.8 1.9-2.1 2.9c-.1.3-.1.4-.1.8 0 .9.4 1.8 1 2.2 0 0 .1.1.1.2s-.1.2-.2.2h-.1s-.1 0-.1-.1c-.6-.6-1.2-.8-1.9-.8-1.6 0-2.8 1.2-2.8 2.8 0 1.2.8 2.2 1.9 2.7-.3-.4-.4-.8-.4-1.2 0-1.1.9-2.1 2.1-2.1.7 0 1.1.2 1.6.7.3.4.4 1 .6 1.7h-1.9c-.3 0-.6.2-.6.6 0 .3.2.6.6.6h1.8c-.1.7-.4 1.2-.9 1.8h.7c0 .1-.1.2-.1.4 0 .6.4 1 1 1s1-.4 1-1c0-.1 0-.2-.1-.4h.8c-.4-.4-.7-1.1-.9-1.8h1.8c.3 0 .6-.2.6-.6 0-.3-.2-.6-.6-.6h-1.8c0-.7.1-1.2.6-1.7.3-.4.9-.7 1.6-.7 1.1 0 2.1.9 2.1 2.1 0 .4-.1.8-.3 1.1 1.1-.4 1.9-1.4 1.9-2.7-.7-1.5-1.9-2.7-3.4-2.7"/><path d="M39.4 12.3c.2-.8.3-1.7.3-2.5-.9-.2-1.8-.6-2.6-1-.4-.3-1.6-1.1-1.7-1.3V3.6h-3.7c-.1-1-.9-1.7-1.8-1.7s-1.7.8-1.8 1.7h-3.7v4s-.6.4-.9.7c0 0-.3.2-.4.2-.9.6-1.9 1-2.9 1.2 0 .9.1 1.7.3 2.5h-12v13.9h11.8v-4.9h8c.6.1 1.2.3 1.8.9.6-.6 1.2-.8 1.8-.9h7.7v4.9h12V12.3H39.4z" fill="#071c2c"/><path class="st0" d="M30.1 4.9c-.2 4.9-.4 9.9-.7 14.8h1.4c-.2-5-.5-9.9-.7-14.8zM28.8 6c-.9 4-2.3 7.9-4.6 11.7.3.2.7.6 1.1.8 1.8-4.1 3-8.4 3.5-12.5m-1.6.6c-1.3 2.6-3.3 4.9-6 6.8.1.4.3.8.6 1.2 2.4-2.3 4.3-5.1 5.4-8m5.9 0c1.1 2.9 2.9 5.7 5.5 8 .2-.4.3-.8.6-1.2-2.8-1.9-4.8-4.3-6.1-6.8M31.4 6c.6 4.2 1.8 8.4 3.6 12.4.3-.2.8-.4 1.1-.8-2.4-3.7-3.8-7.6-4.7-11.6"/><path d="M24.3 17.7c-.1-.1-.1-.1 0 0-.1-.1-.1 0 0 0" fill="#061828"/><path class="st0" d="M3.5 35.3v1.8H3V36h-.9v1.1h-.5V36h-1v1.2H0v-1.9h3.5zM.6 38.6v.2c0 .7.4 1 1.2 1s1.2-.3 1.2-1v-.2H.6zm2.9-.5v.9c0 1.1-.6 1.7-1.7 1.7S.1 40 .1 39v-.9h3.4z"/><defs><path id="SVGID_1_" d="M0 0h237.1v78.1H0z"/></defs><clipPath id="SVGID_2_"><use xlink:href="#SVGID_1_" overflow="visible"/></clipPath><path d="M3.5 41.9H1.2c-.6 0-.8.2-.8.6 0 .3.2.6.8.6h2.2v.7H1.2c-.9 0-1.2-.6-1.2-1.1 0-.7.3-1.2 1.2-1.2h2.2v.4z" clip-path="url(#SVGID_2_)" fill="#fff"/><g><defs><path id="SVGID_3_" d="M0 0h237.1v78.1H0z"/></defs><clipPath id="SVGID_4_"><use xlink:href="#SVGID_3_" overflow="visible"/></clipPath><path d="M.2 46.9c-.1-.1-.2-.5-.2-.8 0-1 .7-1.6 1.7-1.7 1 0 1.8.4 1.8 1.4 0 .3-.1.7-.1.8h-.6c.1 0 .2-.3.1-.6 0-.6-.3-1-1.2-.9-.9 0-1.2.4-1.2 1 0 .3.1.6.2.7l-.5.1z" clip-path="url(#SVGID_4_)" fill="#fff"/></g><path class="st0" d="M1.8 49.2l1.6-.6-1.7-.2.1.8zm-.5.2l-.2-1.1-.9-.1-.1-.7 3.6.7.1.7-3.2 1.6-.1-.7c-.1 0 .8-.4.8-.4zm2.6 1.4l-.2-.8.4-.1.6 2.1-.4.1-.3-.8-2.9.8-.1-.6 2.9-.7zm1 2l.2.6-3.2 1.1-.2-.6 3.2-1.1zm-1.6 3.8c.1.3.6.6 1.4.1.9-.3 1-.8.9-1.2-.1-.4-.6-.6-1.4-.1-.9.4-1.1.8-.9 1.2zm2.8-1.2c.3.7.1 1.4-1.1 2-1.1.4-1.9.1-2.1-.6-.2-.7-.1-1.4 1.1-2 1.1-.5 1.8-.1 2.1.6zm.4 7.6l-.6-.6c-.6-.9-.3-1.8.6-2.3.8-.6 1.8-.6 2.3.2.2.4.3.6.3.7l-.4.3c0-.1 0-.3-.2-.7-.3-.4-.9-.6-1.6-.1-.8.6-.8 1.1-.4 1.6.2.2.3.3.6.4-.1.1-.6.5-.6.5zm3.1-1.4l.4.4-1 1 .7.8 1-1 .4.4-2.5 2.3-.4-.4 1.1-1-.8-.8-1.1 1.1-.3-.4 2.5-2.4zm1.8 3.9c.2.2.6.2.8 0 .2-.3.2-.4-.1-.8l-.1-.1-.7.8c-.1 0 .1.1.1.1zm.4-1.7l.8.8c.4.4.6.9.1 1.3-.3.3-.7.3-1 .1.1.1.1.2 0 .6l-.6 1.2-.4-.4.6-1c.1-.2.1-.4-.1-.6l-.2-.1-1 1.1-.4-.4c-.1 0 2.2-2.6 2.2-2.6zm2.2 1.9l.4.4-2.2 2.6-.4-.3 2.2-2.7zm-.4 3.1c0 .1.2.4.4.6.2.2.6.2.7-.1.1-.2.1-.3 0-.7l-.2-.2c-.1-.3-.2-.7.1-1 .3-.4 1-.4 1.4-.1.3.2.4.4.4.6l-.3.4c-.1-.1-.2-.3-.4-.6-.2-.2-.4-.1-.7 0-.1.2-.1.3 0 .6l.2.3c.2.4.2.7-.1 1.1-.4.6-1 .6-1.6.1l-.5-.5.6-.5zm3.9.1l-.7-.4.2-.5 1.9 1.2-.3.3-.7-.3-1.6 2.5-.6-.4 1.8-2.4zm2 .7l.6.3-1.9 2.9-.6-.3 1.9-2.9zm1.4 3.5l.4-1.6-1.2 1.1.8.5zm-.1.4l-1-.7-.7.7-.6-.3 2.8-2.3.6.3-.8 3.6-.6-.3c.1-.1.3-1 .3-1zm2.7-1.4l.7.3-.3 3 1.3-2.3.4.2-1.7 3-.7-.4.3-2.8-1.3 2.2-.4-.2 1.7-3zm3.2 4.2l.3-1.7-1.1 1.2.8.5zm-.1.4l-1-.6-.7.7-.6-.3 2.6-2.6.7.3-.5 3.8-.6-.3c0-.1.1-1 .1-1zm7.7-.7l-1.2-1.1.4 1.7.8-.6zm.4.3l-1 .6.2.9-.6.3-.8-3.6.6-.3 2.7 2.5-.5.3-.6-.7zm.5-3.1l.7-.3 2.3 1.7-1.4-2.3.6-.3 1.8 3-.7.3-2.3-1.7 1.4 2.3-.6.3-1.8-3zm3.3-2.1l.6-.3 1.8 2.9-.4.3-2-2.9zm4.5-2.3l.9 2.9-.3.2-2.3-1.9 1.6 2.3-.4.3-1.9-2.9.8-.4 2 1.7-.8-2.6.8-.4 1.9 2.9-.4.3-1.9-2.4zm3.8-.8l-1.3-1 .7 1.6c-.1 0 .6-.6.6-.6zm.4.4l-.9.8.3.8-.4.4-1.2-3.5.6-.4 3 2-.7.3-.7-.4zm-.2-3l1.3-1.3.3.4-.8.8.6.7.9-.8.3.3-.9.8.7.8 1-.9.3.4-1.4 1.2-2.3-2.4zm5.6-3.9c.2-.3.2-.6-.1-.8s-.6-.2-.8.1l-.1.2.9.7.1-.2zm-1.8-.2l.6-.8c.4-.6 1-.7 1.4-.2.6.3.7.9.2 1.4l-.2.3 1.1.8-.3.6-2.8-2.1zm1.9-2.4l.9-1.7.4.3-.6 1 .8.4.6-1 .4.2-.6 1 .9.4.6-1 .4.2-.9 1.7-2.9-1.5zm3.2-3.1c.1-.3 0-.6-.2-.7-.3-.1-.6 0-.7.3l-.1.2.9.3.1-.1zm-1.8.2l.4-1c.2-.6.7-.9 1.2-.6.4.2.6.6.4.9.1-.1.2-.2.6-.2l1.3.1-.2.6-1.1-.1c-.3 0-.4.1-.6.3v.1l1.3.6-.2.6c.2-.1-3.1-1.3-3.1-1.3zm1.4-3.1l.4-1.7.4.1-.3 1 1 .3.2-1.1.6.2-.3 1 1.4.3-.2.7-3.2-.8zm.7-3.1l.2-1.8.6.1-.2 1.2.9.1.2-1.1.4.1-.1 1.1 1 .1.1-1.2.6.1-.3 1.8-3.4-.5zm3.9-5c.1.1.1.4.1.8 0 1-.9 1.6-1.9 1.6-1 0-1.8-.7-1.7-1.7 0-.3.1-.7.2-.8l.6.1c-.1.1-.2.3-.2.7 0 .6.3 1 1.2 1 .9 0 1.2-.4 1.3-.9 0-.3 0-.6-.1-.7.1 0 .5-.1.5-.1zm-2.9-1.9v.8h-.4v-2.2h.4v.8h3v.7h-3zm-.5-2.7v-.7h3.5v.7h-3.5zm3.1-3.3c0-.4-.3-.7-1.3-.7s-1.3.3-1.3.7c0 .4.3.7 1.3.7 1-.1 1.3-.4 1.3-.7zm-3.1 0c0-.7.6-1.3 1.8-1.3 1.2 0 1.8.7 1.8 1.3 0 .7-.6 1.3-1.8 1.3-1.3 0-1.8-.7-1.8-1.3z"/></g><path id="Line" d="M71.4 79.7h166.2" fill="none" stroke="#fff" stroke-width=".562" stroke-miterlimit="10"/><path class="st0" d="M49.9 94.4h-.6c-.1-.7-.3-1.2-.6-1.7-.3-.4-.7-.9-1.1-1.1-.4-.3-.9-.6-1.4-.7s-1.1-.2-1.8-.2c-.4 0-.9 0-1.4.1-.4.1-1 .2-1.4.6-.4.2-.9.6-1.3.9-.4.3-.8.9-1.1 1.3-.3.6-.6 1.1-.8 1.9-.3.7-.4 1.6-.4 2.5 0 1.1.2 2.2.6 3.2.3 1 .9 1.8 1.6 2.6.7.7 1.3 1.2 2.2 1.7.8.4 1.7.6 2.6.6.6 0 1.1-.1 1.7-.3.6-.2 1-.4 1.3-.8.4-.3.8-.8 1-1.2.3-.4.4-1 .6-1.7l.6.1-.6 3.3c-.2.1-.6.3-1 .4-.4.1-.9.2-1.3.4-.4.1-1 .2-1.4.3-.4.1-.9.1-1.3.1-1.3 0-2.6-.2-3.7-.7s-2-1-2.8-1.8c-.8-.8-1.3-1.7-1.8-2.7-.4-1.1-.7-2.2-.7-3.6 0-.8.1-1.6.3-2.2.2-.7.6-1.3.9-2 .4-.6.9-1.1 1.4-1.7.6-.4 1.1-.9 1.8-1.2s1.3-.6 2-.8c.7-.2 1.4-.2 2.2-.2.4 0 .9 0 1.3.1s.9.1 1.3.2l1.3.3c.4.1.9.3 1.3.4l.5 3.6zm2.3 6.3c0-.9.2-1.7.6-2.5.3-.8.8-1.3 1.4-1.9.6-.6 1.3-.9 2-1.1.8-.2 1.6-.4 2.5-.4s1.8.1 2.6.4c.8.3 1.4.7 1.9 1.2.6.6 1 1.1 1.2 1.9.3.7.4 1.4.4 2.3 0 .4-.1 1-.2 1.4-.1.4-.3.9-.6 1.3-.2.4-.6.9-.9 1.2-.3.3-.8.7-1.2 1-.4.3-1 .6-1.6.7-.6.1-1.2.2-1.9.2-1 0-1.8-.1-2.6-.4-.8-.3-1.4-.7-2-1.2-.6-.6-1-1.1-1.2-1.9-.3-.6-.4-1.3-.4-2.2zm2.3-.2c0 .8.1 1.4.3 2.1.2.7.6 1.2.9 1.8.3.4.9.9 1.3 1.1.6.2 1.1.4 1.7.4.8 0 1.3-.1 1.8-.4.4-.3.9-.7 1.2-1.1.3-.4.6-1 .7-1.6s.2-1.2.2-1.8c0-.8-.1-1.6-.3-2.2-.2-.7-.6-1.2-.9-1.7-.4-.4-.8-.8-1.4-1.1-.6-.2-1.1-.3-1.7-.3-.7 0-1.2.1-1.8.4-.6.3-.9.7-1.2 1.1-.3.4-.6 1-.7 1.6 0 .4-.1 1-.1 1.7zm14.8-3.8c0-.2 0-.4-.1-.6l-.3-.3h-1.1v-.6h5.3v.6h-.7c-.2 0-.3.1-.6.1l-.3.3c-.2.1-.2.2-.2.4v7.7c0 .2 0 .4.1.6 0 .1.1.3.3.3.1.1.3.1.7.2.2 0 .7.1 1.1.1.6 0 .9 0 1.2-.1.3 0 .7-.1.9-.3.2-.1.4-.3.7-.7.2-.3.3-.7.6-1.1h.6l-.7 2.9h-9.2v-.4h.7c.2 0 .3-.1.6-.1l.3-.3c.1-.1.1-.3.1-.6-.1 0 0-8.1 0-8.1zm11.6 0c0-.2 0-.4-.1-.6l-.3-.3h-1.2v-.6h5.3v.6h-.7c-.2 0-.3.1-.6.1l-.3.3c-.1.1-.1.3-.1.6v7.7c0 .2 0 .4.1.6s.1.3.3.3c.1.1.3.1.7.2.2 0 .7.1 1.1.1.6 0 .9 0 1.2-.1.3 0 .7-.1.9-.3.2-.1.4-.3.7-.7.2-.3.3-.7.6-1.1h.5l-.7 2.9h-9.2v-.6h.7c.2 0 .3-.1.6-.1l.3-.3c.1-.1.1-.3.1-.6-.1 0 .1-8.1.1-8.1zm18.4 9.7H90v-.6h.7c.1 0 .3-.1.6-.1l.3-.3c.1-.1.1-.3.1-.6v-8c0-.2 0-.4-.1-.6l-.3-.3c-.1-.1-.3-.1-.6-.1H90v-.6h8.7l.1 2.5h-.4c-.1-.3-.1-.7-.2-.9-.1-.2-.2-.4-.4-.6-.2-.1-.6-.2-.9-.2h-3.1v4.2h2.7c.2 0 .3-.1.6-.2.1-.1.2-.2.3-.4.1-.2.1-.6.1-.9h.6v3.7h-.6c0-.3 0-.6-.1-.8 0-.2-.1-.3-.2-.4s-.3-.1-.6-.2h-2.7v3.3c0 .2 0 .4.1.7s.2.3.4.4c.2.1.4.2.8.2.3 0 .7.1 1.2.1s1 0 1.3-.1.7-.1.9-.2c.2-.1.4-.3.6-.6s.3-.6.6-.9h.6c-.2 0-1.1 2.5-1.1 2.5zm13.6-8.3h-.6c-.1-.3-.3-.7-.4-.9-.1-.3-.3-.6-.7-.9-.2-.2-.6-.4-1-.6-.3-.1-.9-.2-1.4-.2-.7 0-1.2.1-1.8.3-.6.2-1 .6-1.4.9-.4.4-.8 1-1 1.6-.2.7-.3 1.4-.3 2.3 0 .3 0 .8.1 1.1.1.4.2.8.3 1.1.1.3.3.8.6 1.1.2.3.6.7.9.9.3.2.8.4 1.2.7.4.1 1 .2 1.7.2.3 0 .6 0 .8-.1.2-.1.6-.1.8-.2v-2.5c0-.2-.1-.3-.2-.6-.1-.1-.3-.2-.6-.2-.2 0-.6-.1-1-.1v-.6h4.9v.6h-.8c-.2 0-.3.1-.4.1-.1.1-.2.1-.2.3v2.5c0 .1.1.1.1.2.1.1.1.1.2.1v.4c-.3.1-.7.2-1 .2-.3.1-.8.2-1.1.2-.4.1-.8.1-1.2.2-.4 0-.9.1-1.3.1-.9 0-1.8-.1-2.6-.4-.8-.3-1.4-.7-2-1.2-.6-.6-1-1.1-1.3-1.9-.3-.7-.4-1.4-.4-2.2 0-.9.2-1.8.4-2.5.3-.8.8-1.3 1.3-1.9.6-.6 1.2-.9 2-1.2.8-.3 1.7-.4 2.6-.4h.9c.1 0 .3 0 .6.1.2 0 .4 0 .7.1.1 0 .2 0 .4.1.2 0 .4.1.7.1s.4.1.7.1.3.1.4.1c-.1.1.4 2.9.4 2.9zm11.9 8.3h-9.4v-.6h.7c.1 0 .3-.1.6-.1l.3-.3c.1-.1.1-.3.1-.6v-8c0-.2 0-.4-.1-.6l-.3-.3c-.1-.1-.3-.1-.6-.1h-.7v-.6h8.7l.1 2.5h-.4c-.1-.3-.1-.7-.2-.9-.1-.2-.2-.4-.4-.6-.2-.1-.6-.2-.9-.2h-3.1v4.2h2.7c.2 0 .3-.1.6-.2.1-.1.2-.2.3-.4.1-.2.1-.6.1-.9h.6v3.7h-.6c0-.3 0-.6-.1-.8 0-.2-.1-.3-.2-.4s-.3-.1-.6-.2h-2.8v3.3c0 .2 0 .4.1.7s.2.3.4.4c.2.1.4.2.8.2.3 0 .7.1 1.2.1s1 0 1.3-.1c.3 0 .7-.1.9-.2.2-.1.4-.3.6-.6s.3-.6.6-.9h.6l-.9 2.5zm9.1-5.7c0-.9.2-1.7.6-2.5.3-.8.8-1.3 1.4-1.9.6-.6 1.3-.9 2-1.1.8-.2 1.6-.4 2.5-.4s1.8.1 2.6.4c.8.3 1.4.7 1.9 1.2.6.6 1 1.1 1.2 1.9.3.7.4 1.4.4 2.3 0 .4-.1 1-.2 1.4-.1.4-.3.9-.6 1.3-.2.4-.6.9-.9 1.2-.3.3-.8.7-1.2 1-.4.3-1 .6-1.6.7-.6.1-1.2.2-1.9.2-1 0-1.8-.1-2.6-.4-.8-.3-1.4-.7-2-1.2s-1-1.1-1.2-1.9c-.3-.6-.4-1.3-.4-2.2zm2.2-.2c0 .8.1 1.4.3 2.1.2.7.6 1.2.9 1.8.3.4.9.9 1.3 1.1.6.2 1.1.4 1.7.4.8 0 1.3-.1 1.8-.4.4-.3.9-.7 1.2-1.1.3-.4.6-1 .7-1.6s.2-1.2.2-1.8c0-.8-.1-1.6-.3-2.2-.2-.7-.6-1.2-.9-1.7-.3-.4-.8-.8-1.3-1.1-.6-.2-1.1-.3-1.7-.3-.7 0-1.2.1-1.8.4-.6.3-.9.7-1.2 1.1-.3.4-.6 1-.7 1.6-.1.4-.2 1-.2 1.7zm14.6-3.8c0-.2 0-.4-.1-.6l-.3-.3c-.1-.1-.3-.1-.6-.1h-.8v-.6h9.2l.1 2.6h-.4c-.1-.4-.1-.7-.3-1-.1-.2-.2-.4-.4-.6-.2-.1-.4-.2-.8-.2s-.8-.1-1.2-.1h-2.5v4.5h2.9c.2 0 .3-.1.6-.1s.2-.2.3-.4c.1-.2.1-.4.1-.8h.6v3.8h-.6c0-.3 0-.7-.1-.9 0-.2-.1-.3-.2-.4-.1-.1-.3-.2-.6-.2h-2.9v3.3c0 .3 0 .6.1.8s.1.3.3.4c.2.1.3.2.4.2.2 0 .4.1.7.1h.4v.6h-5.8v-.8h.8c.2 0 .4-.1.6-.1l.3-.3c.1-.1.1-.3.1-.6l.1-8.2zm15.7-6.4h5.7c.4 0 .8 0 1.2.1.4.1.9.1 1.3.3.4.1.9.3 1.2.6.3.2.8.6 1 .9.3.3.6.8.7 1.2.2.4.2 1 .2 1.6 0 .7-.1 1.3-.4 1.9-.3.6-.7 1-1.1 1.4-.4.4-1 .7-1.6.9-.6.2-1.2.3-1.8.3h-1.2v-.8h.9c.4 0 .9-.1 1.3-.3.3-.2.7-.6.9-.9s.4-.8.6-1.1c.1-.4.2-.9.2-1.2 0-.8-.1-1.4-.3-2-.2-.6-.6-1-.9-1.2-.3-.3-.8-.6-1.2-.7-.4-.1-.9-.2-1.2-.2h-1v13c0 .4 0 .7.1.9.1.2.2.3.4.4s.4.2.7.2h.9v.6h-6.5v-.4h.9c.2 0 .4-.1.7-.2.2-.1.3-.2.4-.4.1-.2.1-.6.1-.9v-11c0-.4 0-.8-.1-1.1 0-.3-.1-.6-.3-.7-.2-.1-.3-.3-.7-.3-.2-.1-.7-.1-1-.1l-.1-.8zm14.7 6.4c0-.2 0-.4-.1-.6l-.3-.3c-.1-.1-.3-.1-.6-.1h-.7v-.6h5.5v.6h-.7c-.2 0-.4.1-.6.1l-.3.3c-.1.1-.1.3-.1.6v3.6h6.2v-3.5c0-.2 0-.4-.1-.6l-.3-.3c-.1-.1-.3-.1-.6-.1h-.7v-.6h5.5v.6h-.7c-.2 0-.3.1-.6.1l-.3.3c-.1.1-.1.3-.1.6v8c0 .2 0 .4.1.6l.3.3c.1.1.3.1.6.1h.7v.6h-5.5v-.6h.7c.2 0 .4-.1.6-.1l.3-.3c.1-.1.1-.3.1-.6V101h-6.2v3.8c0 .2 0 .4.1.6l.3.3c.1.1.3.1.6.1h.7v.6h-5.5v-.6h.7c.2 0 .3-.1.6-.1l.3-.3c.1-.1.1-.3.1-.6v-8.1zm20.1 9.1h.8c.1 0 .2-.1.3-.1s.2-.1.2-.2c.1-.1.1-.1.1-.2v-.3c0-.1-.1-.2-.1-.3l-.9-2.3h-3.9l-.6 1.4c0 .1 0 .2-.1.3 0 .1-.1.2-.1.4 0 .1-.1.3-.1.4v.3c0 .1 0 .2.1.3.1.1.2.1.3.2.1 0 .2.1.4.1h.6v.6H194v-.7c.3 0 .6 0 .8-.1s.3-.1.4-.2l.3-.3c.1-.1.1-.2.2-.3l3.2-8.4c.1-.1.1-.2.1-.4 0-.1.1-.2.1-.3v-.2l1.8-.7 3.5 9.7.3.7c.1.2.2.3.3.4s.3.2.6.2.4.1.8.1v.6h-5.2v-.7zm-1.5-9l-1.7 4.7h3.3l-1.6-4.7zm9.4-.1c0-.2 0-.4-.1-.6l-.3-.3c-.1-.1-.3-.1-.6-.1h-.7v-.6h6c.4 0 .9.1 1.3.2s.8.3 1.1.6c.3.2.6.6.8.9.2.3.2.8.2 1.2 0 .7-.2 1.2-.7 1.7-.4.4-1 .8-1.8 1.1.4.7.8 1.3 1.1 1.9.3.6.6 1 .9 1.3.2.3.4.7.7.9l.6.6.6.3c.2.1.4.1.7.2v.6H216c-.2-.2-.4-.6-.8-1-.3-.4-.6-.9-.9-1.3-.3-.4-.7-1-.9-1.6-.3-.6-.7-1-.9-1.6h-1.4v3.7c0 .2 0 .4.1.6l.3.3c.1.1.3.1.6.1h.7v.6h-5.5v-.6h.7c.2 0 .3-.1.6-.1l.3-.3c.1-.1.1-.3.1-.6l.1-8.1zm2.8 3.6c1 0 1.7-.2 2.2-.6s.8-1 .8-1.9c0-.8-.2-1.2-.7-1.7-.4-.3-1.1-.6-2-.6h-1.1v4.6l.8.2zm20.5-5.2h3.3v.6c-.6 0-1 .1-1.2.2-.2.1-.3.3-.3.6v1.3l.2 6c0 .4 0 .9.1 1.1s.1.4.3.7c.1.1.3.2.6.2h.9v.6H231v-.6h.8c.2 0 .3-.1.6-.1l.3-.3c.1-.1.1-.3.1-.6 0-.9 0-1.9-.1-3.2s-.1-2.8-.1-4.3l-4.3 9.5h-.3l-4.3-9.1c0 .3-.1.8-.1 1.2 0 .4-.1.9-.1 1.4 0 .4-.1 1-.1 1.4s0 .9-.1 1.3v1.7c0 .4.1.8.4 1 .3.2.8.3 1.3.3v.6h-4.5v-.8c.3 0 .7 0 .9-.1s.4-.1.6-.3c.1-.1.2-.3.2-.4 0-.2.1-.4.1-.7l.4-6V96.5c0-.1 0-.2-.1-.3 0-.1-.1-.1-.2-.2s-.4 0-.7 0h-.8v-.6h3.5l4.1 8.5 3.9-8.8zm12.3 10.7h.8c.1 0 .2-.1.3-.1s.2-.1.2-.2c.1-.1.1-.1.1-.2v-.3c0-.1-.1-.2-.1-.3l-.9-2.3h-3.9l-.6 1.4c0 .1 0 .2-.1.3-.1.1-.1.2-.1.4 0 .1-.1.3-.1.4v.3c0 .1 0 .2.1.3.1.1.2.1.3.2.1 0 .2.1.4.1h.6v.6h-4.2v-.7c.3 0 .6 0 .8-.1s.3-.1.4-.2l.3-.3c.1-.1.1-.2.2-.3l3.2-8.4c.1-.1.1-.2.1-.4 0-.1.1-.2.1-.3v-.2l1.8-.7 3.5 9.7.3.7c.1.2.2.3.3.4s.3.2.6.2.4.1.8.1v.6h-5.2v-.7zm-1.6-9l-1.7 4.7h3.3l-1.6-4.7zm17.8 9.1c-.4.1-.8.2-1 .3-.3.1-.6.2-.9.2s-.6.1-.9.1H257c-1 0-1.9-.1-2.7-.4-.8-.3-1.4-.7-2-1.2s-1-1.1-1.2-1.9c-.3-.7-.4-1.6-.4-2.3 0-.9.1-1.7.4-2.5.3-.8.8-1.3 1.3-1.9.6-.6 1.2-.9 2-1.2s1.6-.4 2.5-.4h.8c.2 0 .4.1.7.1.2 0 .4.1.6.1.2 0 .3.1.6.1.2 0 .4.1.7.1.2 0 .6.1.8.1l.1 2.7h-.6c0-.1 0-.3-.1-.7-.1-.3-.3-.6-.6-.9-.2-.3-.6-.6-1-.8s-1-.3-1.7-.3c-.4 0-1 .1-1.6.2s-1 .4-1.4.8c-.4.3-.8.9-1.1 1.4-.3.7-.4 1.3-.4 2.3 0 .7.1 1.3.3 2s.4 1.2.9 1.8c.3.6.9 1 1.3 1.2.6.3 1.1.4 1.8.4.4 0 .8 0 1.1-.1s.7-.2 1-.4c.3-.2.6-.4.8-.8.2-.3.4-.8.7-1.3l.6.1-.3 3.1zm8.4-.9c0 .2 0 .3.1.4.1.1.2.2.4.2s.3.1.6.1h.7v.6h-5.8v-.6h.8c.2 0 .4 0 .6-.1.1-.1.2-.1.3-.2.1-.1.1-.3.1-.6v-3.6l-3.7-5c-.2-.2-.4-.4-.7-.6-.2-.1-.4-.1-.8-.1v-.6h5.1v.6h-.8c-.1 0-.2 0-.3.1-.1 0-.1.1-.1.2s0 .2.1.3c0 .1.1.2.2.3l2.6 3.7 2.2-3.1c.1-.1.2-.3.3-.4.1-.1.1-.3.1-.4V96c0-.1-.1-.1-.2-.1s-.2-.1-.4-.1h-.7v-.6h4.1v.6h-.6c-.1 0-.3.1-.4.1-.1.1-.3.2-.6.3-.2.1-.4.4-.7.8l-3 3.9.5 4.1zM47.8 128.7h.8c.1 0 .2-.1.3-.1s.2-.1.2-.2c.1-.1.1-.1.1-.2v-.3c0-.1-.1-.2-.1-.3l-.9-2.3h-3.9l-.6 1.4c0 .1-.1.2-.1.3 0 .1-.1.2-.1.4 0 .1-.1.3-.1.4v.3c0 .1 0 .2.1.3s.2.1.3.2c.1 0 .2.1.4.1h.6v.6h-4.2v-.6c.3 0 .6 0 .8-.1.2-.1.3-.1.4-.2l.3-.3c.1-.1.1-.2.2-.3l3.3-8.4c.1-.1.1-.2.1-.4 0-.1.1-.2.1-.3v-.2l1.8-.7 3.5 9.7.3.7c.1.2.2.3.3.4.1.1.3.2.6.2s.4.1.8.1v.6H48l-.2-.8zm-1.6-9l-1.7 4.7h3.3l-1.6-4.7zm9.5 0c0-.2-.1-.4-.2-.6-.1-.1-.3-.2-.6-.3-.2-.1-.4-.1-.6-.1h-.4v-.7H57l7 8.2v-6c0-.4 0-.7-.1-.9-.1-.2-.2-.3-.3-.4s-.3-.1-.6-.2h-.8v-.7h4.2v.6h-.7c-.2 0-.3.1-.4.1l-.3.3c-.1.1-.1.3-.1.7v9.8h-.6l-7.8-9v6.1c0 .4 0 .8.1 1 .1.2.1.4.2.7.1.1.3.2.6.3.2.1.6.1 1 .1v.6h-4.8v-.6c.4 0 .8-.1 1.1-.2.2-.1.4-.3.6-.6.1-.2.2-.4.2-.8V126l.2-6.3zm14.4 0c0-.2 0-.4-.1-.6l-.3-.3c-.1-.1-.3-.1-.6-.1h-.7v-.7h6.3c.8 0 1.4.1 2.1.2.7.1 1.2.3 1.7.7.4.2.9.6 1.2.9.3.3.7.8.9 1.1l.6 1.2c.1.4.2.9.2 1.3 0 .8-.1 1.3-.2 1.9-.2.6-.4 1.1-.8 1.4-.3.4-.7.8-1.1 1.1-.4.3-.9.6-1.3.7-.4.2-1 .3-1.6.4-.6.1-1.1.1-1.7.1h-6.1v-.6h.7c.2 0 .4-.1.6-.1l.3-.3c.1-.1.1-.3.1-.6 0 .2-.2-7.7-.2-7.7zm1.8 7.5c0 .3 0 .6.1.8.1.2.2.3.3.4.1.1.3.1.6.2h.8c.3 0 .8 0 1.1-.1.4 0 .8-.1 1.1-.2.3-.1.8-.3 1.1-.6.3-.2.7-.6.9-.9.2-.3.4-.8.6-1.2.1-.4.2-1.1.2-1.8s-.1-1.3-.2-2c-.2-.7-.4-1.1-.8-1.6-.3-.4-.8-.8-1.3-1.1-.6-.2-1.2-.4-2-.4h-2.5v8.5zm31.2-6.6v-5c0-.4 0-.7-.1-.9-.1-.2-.2-.3-.4-.4-.2-.1-.4-.2-.7-.2h-.9v-.6h6.6v.6h-.9c-.2 0-.4.1-.7.2-.2.1-.3.2-.4.4-.1.2-.1.6-.1.9v11.6c0 .4 0 .7.1.9.1.2.2.3.4.4.2.1.4.2.7.2h.9v.6h-6.5v-.6h.9c.2 0 .4-.1.7-.2.2-.1.3-.2.4-.4.1-.2.1-.6.1-.9v-5.6H94v5.6c0 .4 0 .7.1.9.1.2.2.3.4.4.2.1.4.2.7.2h.9v.6h-6.5v-.6h.9c.2 0 .4-.1.7-.2.2-.1.3-.2.4-.4.1-.2.1-.6.1-.9v-11.6c0-.4 0-.7-.1-.9-.1-.2-.2-.3-.4-.4-.2-.1-.4-.2-.7-.2h-.9v-.6H96v.6h-.9c-.2 0-.4.1-.7.2s-.3.2-.4.4c-.1.2-.1.6-.1.9v5h9.2zm15.2 8.7h-9.4v-.6h.7c.1 0 .3-.1.6-.1l.3-.3c.1-.1.1-.3.1-.6v-8c0-.2 0-.4-.1-.6l-.3-.3c-.1-.1-.3-.1-.6-.1h-.7v-.7h8.7l.1 2.5h-.4c-.1-.3-.1-.7-.2-.9-.1-.2-.2-.4-.4-.6-.2-.1-.6-.2-.9-.2h-3.1v4.3h2.7c.2 0 .3-.1.6-.2.1-.1.2-.2.3-.4.1-.2.1-.6.1-.9h.6v3.7h-.6c0-.3 0-.6-.1-.8 0-.2-.1-.3-.2-.4-.1-.1-.3-.1-.6-.2h-2.7v3.3c0 .2 0 .4.1.7.1.2.2.3.4.4.2.1.4.2.8.2.3 0 .7.1 1.2.1.6 0 1 0 1.3-.1s.7-.1.9-.2c.2-.1.4-.3.6-.6s.3-.6.6-.9h.6c-.1 0-1 2.5-1 2.5zm8.7-.6h.8c.1 0 .2-.1.3-.1.1 0 .2-.1.2-.2.1-.1.1-.1.1-.2v-.3c0-.1-.1-.2-.1-.3l-.9-2.3h-3.9l-.6 1.4c0 .1 0 .2-.1.3s-.1.2-.1.4c0 .1-.1.3-.1.4v.3c0 .1 0 .2.1.3s.2.1.3.2c.1.1.2.1.4.1h.6v.6h-4.2v-.6c.3 0 .6 0 .8-.1.2-.1.3-.1.4-.2l.3-.3c.1-.1.1-.2.2-.3l3.3-8.4c.1-.1.1-.2.1-.4 0-.1.1-.2.1-.3v-.2l1.8-.7 3.5 9.7.3.7c.1.2.2.3.3.4.1.1.3.2.6.2s.4.1.8.1v.6h-5.2c.1 0-.1-.8-.1-.8zm-1.6-9l-1.7 4.7h3.3l-1.6-4.7zm10 0c0-.2 0-.4-.1-.6l-.3-.3c-.1-.1-.3-.1-.6-.1h-.7v-.7h5.3v.6h-.7c-.2 0-.3.1-.6.1l-.3.3c-.1.1-.1.3-.1.6v7.7c0 .2 0 .4.1.6 0 .1.1.3.3.3.1.1.3.1.7.2.2 0 .7.1 1.1.1.6 0 .9 0 1.2-.1.3 0 .7-.1.9-.3.2-.1.4-.3.7-.7.2-.3.4-.7.6-1.1h.6l-.7 2.9h-9.2v-.6h.7c.2 0 .3-.1.6-.1l.3-.3c.1-.1.1-.3.1-.6.1.1.1-7.9.1-7.9zm12.9-.9h-2.7c-.2 0-.4.1-.6.2s-.2.3-.3.6l-.3.9h-.6l.3-3h.4c0 .1 0 .2.1.2l.2.2c.1 0 .2.1.3.1h8c.1 0 .2 0 .3-.1.1-.1.2-.1.2-.1l.3-.3h.4l-.2 3h-.7c0-.3-.1-.7-.1-.9 0-.2-.1-.4-.2-.6-.1-.1-.2-.2-.3-.2s-.3-.1-.6-.1h-2.3v8.9c0 .2 0 .4.1.6l.3.3c.1.1.3.1.6.1h.8v.6H146v-.6h.8c.2 0 .4-.1.6-.1l.3-.3c.1-.1.1-.3.1-.6l.5-8.8zm9.3.9c0-.2 0-.4-.1-.6l-.3-.3c-.1-.1-.3-.1-.6-.1h-.7v-.7h5.5v.6h-.7c-.2 0-.4.1-.6.1l-.3.3c-.1.1-.1.3-.1.6v3.5h6.2v-3.5c0-.2 0-.4-.1-.6l-.3-.3c-.1-.1-.3-.1-.6-.1h-.7v-.6h5.5v.6h-.7c-.2 0-.3.1-.6.1l-.3.3c-.1.1-.1.3-.1.6v8c0 .2 0 .4.1.6l.3.3c.1.1.3.1.6.1h.7v.6h-5.5v-.6h.7c.2 0 .4-.1.6-.1l.3-.3c.1-.1.1-.3.1-.6v-3.8h-6.2v3.8c0 .2 0 .4.1.6l.3.3c.1.1.3.1.6.1h.7v.6h-5.5v-.6h.7c.2 0 .3-.1.6-.1l.3-.3c.1-.1.1-.3.1-.6v-7.9zm20.1 5.8h.6c.1.4.2.9.4 1.2.2.4.4.8.8 1.1.3.3.7.6 1 .8.4.2.8.3 1.3.3.4 0 .9-.1 1.2-.2.3-.1.7-.3 1-.7.3-.2.6-.6.7-1 .1-.3.2-.8.2-1.2 0-.6-.1-1-.3-1.3-.2-.3-.4-.7-.8-1s-.7-.6-1.1-.8-.8-.4-1.2-.7c-.4-.2-.9-.4-1.2-.7-.4-.2-.8-.6-1.1-.9-.3-.3-.6-.8-.8-1.2s-.3-1.1-.3-1.8c0-.8.1-1.3.3-2 .2-.6.6-1 1-1.4.4-.3 1-.7 1.6-.9.6-.2 1.2-.3 1.9-.3.4 0 .9 0 1.4.1.4.1.9.1 1.4.2l.3 2.9h-.6c-.1-.8-.4-1.4-1-1.9-.6-.4-1.2-.7-2-.7-.4 0-.8.1-1.2.2-.3.1-.7.3-.9.7-.2.2-.4.6-.6.9-.1.3-.2.8-.2 1.1 0 .6.1 1 .3 1.3.2.3.4.7.8 1 .3.3.7.6 1.1.8l1.3.7c.4.2.9.4 1.3.8.4.2.8.6 1.1.9s.6.8.8 1.2c.2.4.3 1 .3 1.7 0 .8-.1 1.4-.4 2-.3.6-.7 1.1-1.2 1.4-.6.4-1.1.7-1.8.9-.7.2-1.3.3-2 .3-.6 0-1.2-.1-1.8-.2-.6-.1-1.2-.3-1.7-.6l.1-3zm21.9 3.4c-.4.1-.8.2-1 .3-.3.1-.6.2-.9.2-.3 0-.6.1-.9.1h-1.1c-1 0-1.9-.1-2.7-.4-.8-.3-1.4-.7-2-1.2-.6-.6-1-1.1-1.2-1.9-.3-.7-.4-1.6-.4-2.3 0-.9.1-1.7.4-2.5.3-.8.8-1.3 1.3-1.9s1.2-.9 2-1.2c.8-.2 1.6-.4 2.5-.4h.8c.2 0 .4.1.7.1.2 0 .4.1.6.1.2 0 .3.1.6.1s.4.1.7.1c.2 0 .6.1.8.1l.1 2.7h-.3c0-.1 0-.3-.1-.7s-.3-.6-.6-.9-.6-.6-1-.8c-.4-.2-1-.3-1.7-.3-.4 0-1 .1-1.6.2s-1 .4-1.4.8c-.4.3-.8.9-1.1 1.4-.3.7-.4 1.3-.4 2.3 0 .7.1 1.3.3 2 .2.7.4 1.2.9 1.8.3.6.9 1 1.3 1.2.6.3 1.1.4 1.8.4.4 0 .8 0 1.1-.1.3-.1.7-.2 1-.4.3-.2.6-.4.8-.8.2-.3.4-.8.7-1.3l.6.1-.6 3.1zm4.2-9.2c0-.2 0-.4-.1-.6l-.3-.3c-.1-.1-.3-.1-.6-.1h-.7v-.7h5.5v.6h-.8c-.2 0-.4.1-.6.1l-.3.3c-.1.1-.1.3-.1.6v8c0 .2 0 .4.1.6l.3.3c.1.1.3.1.6.1h.8v.6h-5.5v-.6h.7c.2 0 .4-.1.6-.1l.3-.3c.1-.1.1-.3.1-.6v-7.9zm15 9.6h-9.4v-.6h.7c.2 0 .3-.1.6-.1l.3-.3c.1-.1.1-.3.1-.6v-8c0-.2 0-.4-.1-.6l-.3-.3c-.1-.1-.3-.1-.6-.1h-.7v-.7h8.7l.1 2.5h-.4c-.1-.3-.1-.7-.2-.9-.1-.2-.2-.4-.4-.6s-.4-.2-.9-.2h-3.1v4.3h2.7c.2 0 .3-.1.6-.2.1-.1.2-.2.3-.4.1-.2.1-.6.1-.9h.6v3.7h-.6c0-.3 0-.6-.1-.8 0-.2-.1-.3-.2-.4-.1-.1-.3-.1-.6-.2h-2.7v3.3c0 .2 0 .4.1.7.1.2.2.3.4.4.2.1.4.2.8.2.3 0 .7.1 1.2.1s1 0 1.3-.1c.3 0 .7-.1.9-.2.2-.1.4-.3.6-.6s.3-.6.6-.9h.6l-1 2.5zm3.8-9.6c0-.2-.1-.4-.2-.6-.1-.1-.3-.2-.6-.3-.2-.1-.4-.1-.6-.1h-.4v-.7h3.1l7 8.2v-6c0-.4 0-.7-.1-.9-.1-.2-.2-.3-.3-.4s-.3-.1-.6-.2h-.8v-.7h4.2v.6h-.7c-.2 0-.3.1-.4.1l-.3.3c-.1.1-.1.3-.1.7v9.8h-.6l-7.8-9v6.1c0 .4 0 .8.1 1 0 .2.1.4.2.7.1.1.3.2.6.3s.6.1 1 .1v.6h-4.8v-.6c.4 0 .8-.1 1.1-.2.2-.1.4-.3.6-.6.1-.2.2-.4.2-.8V126l.2-6.3zm22.9 9.2c-.4.1-.8.2-1 .3-.3.1-.6.2-.9.2-.2.1-.6.1-.9.1h-1.1c-1 0-1.9-.1-2.7-.4-.8-.3-1.4-.7-2-1.2-.6-.6-1-1.1-1.2-1.9-.3-.7-.4-1.6-.4-2.3 0-.9.1-1.7.4-2.5.3-.8.8-1.3 1.3-1.9.6-.6 1.2-.9 2-1.2.8-.2 1.6-.4 2.5-.4h.8c.2 0 .4.1.7.1.2 0 .4.1.6.1.2 0 .3.1.6.1s.4.1.7.1c.2 0 .6.1.8.1l.1 2.7h-.8c0-.1 0-.3-.1-.7-.1-.3-.3-.6-.6-.9s-.6-.6-1-.8c-.4-.2-1-.3-1.7-.3-.4 0-1 .1-1.6.2s-1 .4-1.4.8c-.4.3-.8.9-1.1 1.4-.3.7-.4 1.3-.4 2.3 0 .7.1 1.3.3 2 .2.7.4 1.2.9 1.8.3.6.9 1 1.3 1.2.6.3 1.1.4 1.8.4.4 0 .8 0 1.1-.1.3-.1.7-.2 1-.4.3-.2.6-.4.8-.8.2-.3.4-.8.7-1.3l.6.1-.1 3.1zm11.6.4h-9.4v-.6h.7c.2 0 .3-.1.6-.1l.3-.3c.1-.1.1-.3.1-.6v-8c0-.2 0-.4-.1-.6l-.3-.3c-.1-.1-.3-.1-.6-.1h-.7v-.7h8.7l.1 2.5h-.4c-.1-.3-.1-.7-.2-.9-.1-.2-.2-.4-.4-.6s-.4-.2-.9-.2h-3.1v4.3h2.7c.2 0 .3-.1.6-.2.1-.1.2-.2.3-.4.1-.2.1-.6.1-.9h.6v3.7h-.8c0-.3 0-.6-.1-.8 0-.2-.1-.3-.2-.4-.1-.1-.3-.1-.6-.2h-2.7v3.3c0 .2 0 .4.1.7.1.2.2.3.4.4.2.1.4.2.8.2s.7.1 1.2.1 1 0 1.3-.1c.3 0 .7-.1.9-.2.2-.1.4-.3.6-.6s.3-.6.6-.9h.6l-.8 2.5zm2.8-2.8h.6c.1.4.2.8.4 1.1.1.3.3.6.6.8.2.2.4.3.8.4.3.1.7.1 1.1.1s.8-.1 1.1-.2c.3-.1.6-.3.7-.4l.3-.7c.1-.2.1-.4.1-.6 0-.2 0-.4-.1-.7l-.3-.6c-.1-.2-.3-.3-.7-.6-.2-.2-.6-.3-1-.6-.7-.3-1.1-.7-1.6-.9-.4-.3-.8-.6-1-.9-.2-.3-.4-.7-.6-1-.1-.3-.1-.8-.1-1.2 0-.3.1-.8.2-1.1.1-.3.4-.7.7-1 .3-.2.7-.4 1.1-.7.4-.1.9-.2 1.3-.2h.7c.2 0 .4 0 .7.1.2 0 .4 0 .7.1s.4 0 .7 0l.2 2.2h-.4c-.1-.2-.1-.4-.2-.7-.1-.2-.2-.4-.4-.6-.2-.2-.4-.3-.7-.4s-.6-.1-1-.1c-.3 0-.6 0-.8.1l-.7.3c-.2.1-.3.3-.4.6-.1.2-.1.4-.1.8 0 .2 0 .6.1.8l.3.6c.2.2.4.3.8.6s.8.4 1.3.7c.6.3 1.1.6 1.4.9s.7.6.9.9c.2.3.3.6.4.9.1.3.1.7.1 1 0 .4-.1.9-.3 1.2-.2.3-.4.7-.9 1-.3.2-.8.4-1.3.7-.4.1-1 .2-1.7.2-.6 0-1 0-1.4-.1-.4-.1-.9-.2-1.3-.4l-.3-2.4z" id="Layer_5"/></svg>
