<svg height="60" viewBox="0 0 186 60" width="186" xmlns="http://www.w3.org/2000/svg" xmlns:xlink="http://www.w3.org/1999/xlink"><mask id="a" fill="#fff"><path d="m.04087912.45443956h28.71826378v15.65806594h-28.71826378z" fill="#fff" fill-rule="evenodd"/></mask><g fill="none" fill-rule="evenodd"><path d="m30.3343516 8.27734066c.1601099-.62885714.2561759-1.28496703.2663957-1.96696703-.729011-.19758242-1.413055-.47896704-2.0344176-.83052748-.3815385-.17578022-1.2297802-.83325274-1.3217583-.94362637l-.0013626-.13830769v-2.96373627h-2.9126374c-.0912967-.75421978-.694945-1.33947252-1.4334945-1.33947252-.0027253 0-.0061318.00068132-.0095384.00068132s-.0068132-.00068132-.0102198-.00068132c-.7358242 0-1.3387912.58457143-1.4314506 1.33947252h-2.9242197v.00476923h-.0156704l.0156704 3.15995605c-.0735825.05791209-.4912308.38085714-.7112968.52597802-.0395164.02861539-.2875164.18872528-.3318021.21052747-.6969891.42378022-1.475055.75898901-2.3123957.98927473 0 .00613187.0013627.01158242.0013627.0183956-.0047692.00068132-.0088572.00272528-.0136264.0034066.0109011.66837362.106967 1.31221978.262989 1.93085714h-9.75103295v.03065934h-.00068131v11.1238901l.00068131 1.0655824h-.00068131v13.1978242c0 .0068132.00068131.014989.00068131.0211209v.1028791c0 4.2234945 1.3967033 8.077033 4.01841759 11.3003517 1.29041756 1.6140439 2.87448356 3.0700219 4.74334066 4.3141098 1.4995824.9981319 3.0986374 1.9744616 4.5014725 2.8022638 1.9594726 1.178 3.3718462 1.9587912 3.3718462 1.9587912l.6152307.3004615.5702638-.3004615s.6043297-.342022 1.5622637-.9047912c1.6855824-.9715605 4.1083517-2.4098242 6.2817583-3.8562638 5.6672088-3.7704175 8.7631208-9.4587472 8.7631208-15.7384615v-25.41795604z" fill="#fff"/><path d="m21.342989 24.3775824c-.0238461-.0074945-.1328571-.0265714-.1328571-.0265714-.014989-.0013626-6.1046154-.0074945-6.1046154-.0074945v-3.7710989h-9.43967035v13.2468791c0 6.3008352 3.10476923 11.8324615 8.76175825 15.6144615 3.8964615 2.608088 7.8733187 4.7556044 7.8733187 4.7556044v-28.8136483c-.0572308-.5034945-.4626154-.9190989-.9579341-.9981319" fill="#cf0a2c"/><path d="m30.4692527 20.5730989v3.7704176h-5.8552527c-.6104615 0-1.0982857.4850989-1.118044 1.0894286-.0020439.0027252-.0074945.0034065-.0095384.0068131v28.755055s4.0381758-2.217011 7.8542417-4.7719561c5.659033-3.782 8.7515385-9.2645714 8.7515385-15.5654066v-13.2455164z" fill="#cf0a2c"/><path d="m31.9265934 30.9645714c0-1.473011 1.192989-2.6653187 2.6646374-2.6653187 1.470967 0 2.6632747 1.1923077 2.6632747 2.6653187 0 .5511868-.0674506.8707253-.4544396 1.488-.386989.6186374-4.8537143 6.6537583-4.8537143 6.6537583s-4.4823956-6.0978022-4.8469011-6.6537583c-.3658681-.5539121-.4544395-.9368132-.4544395-1.488 0-1.473011 1.192989-2.6653187 2.6646374-2.6653187 1.4696043 0 2.661912 1.1923077 2.661912 2.6653187" fill="#fff"/><path d="m16.509033 32.5990549c-.6159121 0-1.1493846.2302858-1.5534066.6295385-.0183956.0224835-.0395165.0422418-.064044.0572308-.0034066.0034066-.0088571.0061318-.0109011.0102198-.0006813 0 0-.0013627-.0006813-.0013627-.0292967.0122638-.059956.0211209-.094022.0211209-.1178681 0-.215978-.0994725-.215978-.2152967 0-.059956.0231648-.1117363.0626813-.1492088l-.0013626-.0027253h.0020439s0-.0020439.0013627-.0020439c.4803296-.389033.7971428-1.0437802.7971428-1.7796044 0-.2684396-.0401978-.3658682-.1165055-.6029671-.260945-.8182637-1.7196483-2.3294285-1.7196483-2.3294285s-.0061319.0047692-.0102198.0088571c-.0040879-.0040879-.0095385-.0088571-.0095385-.0088571s-1.4587033 1.5111648-1.7196483 2.3294285c-.0756264.2370989-.1171868.3345275-.1171868.6029671 0 .7358242.3161318 1.3905714.7985055 1.7796044l.0013626.0020439h.0013626c.0374726.0401978.0606374.0919781.0606374.1519341 0 .1158242-.0960659.2152967-.215978.2152967-.0327033 0-.064044-.0088571-.091978-.0211209v.0013627c-.0040879-.004088-.0081759-.0068132-.0129451-.0102198-.0258901-.014989-.047011-.0347473-.0654066-.0572308-.4026593-.3992527-.9354505-.6295385-1.5527253-.6295385-1.23931864 0-2.24290105 1.0029011-2.24290105 2.2422198 0 .9736044.62545054 1.7939121 1.49208791 2.1039121-.15125275-.2514066-.24459341-.543011-.24459341-.8584615 0-.9143297.74195605-1.6569671 1.65628575-1.6569671.4925934 0 .9306813.2159781 1.2338681.5552748.2916044.3829011.3924396.7903296.4156044 1.3360659h-1.4873187c-.2589011 0-.4694286.2098462-.4694286.4721538 0 .2595825.2105275.4707913.4694286.4707913h1.4137363c-.1130989.5205274-.342022.9981318-.6717802 1.3932967h.664967c-.0442857.0974285-.0701758.2037142-.0701758.3168131 0 .4230989.3427033.7664836.7664835.7664836.4230989 0 .7664835-.3433847.7664835-.7664836 0-.1130989-.0252088-.2193846-.0694945-.3168131h.6588352c-.3283956-.3951649-.5586814-.8727693-.6710989-1.3932967h1.3803516c.2602637 0 .4721538-.2112088.4721538-.4707913 0-.2623076-.2118901-.4721538-.4721538-.4721538h-1.4532527c.0224835-.5457363.121956-.9531648.4156044-1.3360659.3011428-.3392967.7405934-.5552748 1.2325054-.5552748.9156924 0 1.6576484.7426374 1.6576484 1.6569671 0 .3154505-.094022.6070549-.2466374.8584615.8673187-.31 1.4914066-1.1303077 1.4914066-2.1039121 0-1.2393187-1.0029011-2.2422198-2.2415384-2.2422198" fill="#fff"/><path d="m30.3057363 8.27734066c.1601099-.63158242.2854725-1.28292308.295011-1.96696703-.7269671-.19962638-1.4103297-.48101099-2.031011-.83325275-.3815385-.17714286-1.2284176-.83597802-1.3197143-.94771429l-.0327033-.11582417v-2.97463737h-2.9092308c-.0906154-.75694505-.6935824-1.34424175-1.4307692-1.34424175s-1.3421978.5872967-1.4314506 1.34424175h-2.9398901l.0156704 3.16472528s-.4850989.38017582-.7269671.5396044c-.0381538.02861538-.2868351.18940659-.3304395.21189011-.6963077.42446153-1.4736923.7623956-2.3103517.99131868.0109011.67927472.109011 1.30336263.2691209 1.93085714h-9.75784616v11.15454944h9.44103296v-3.923033h6.2034066l.1532967.0258902c.478967.0483736.9592967.243912 1.4382637.6922197.4796484-.4483077.9606594-.6438461 1.440989-.6922197l.1519341-.0258902h5.9758462v3.923033h9.6215824v-11.15454944z" fill="#071b2c"/><g fill="#fff"><path d="m22.8684615 2.44525275c-.1349011 3.93938461-.3236263 7.88013185-.558 11.81815385.1771429.0115824.3542858.0265714.5334726.0265714.215978 0 .4285494-.014989.6390769-.0306593-.250044-3.938022-.4551209-7.87604397-.5954725-11.81406595z"/><path d="m21.8321758 3.34731868c-.6833626 3.18243956-1.887934 6.34375824-3.6607253 9.31498902.2738902.2152967.5634506.4121978.8652748.5886593 1.4212307-3.2205934 2.3396483-6.55905491 2.8158901-9.90228568-.0061319 0-.0122638-.00068132-.0204396-.00136264"/><path d="m20.5165495 3.81879121c-1.0914726 2.01602198-2.6932528 3.90804395-4.7733187 5.45940659.1199121.33725275.2589011.66496704.4244615.977011 1.9874066-1.9179121 3.4433846-4.13356045 4.3686154-6.42892309-.0074945-.00272527-.0143077-.00681318-.0197582-.0074945"/><path d="m25.2278681 3.81879121c-.0054505.00068132-.012945.00476923-.0183956.0074945.917055 2.28037363 2.3614506 4.48307693 4.3290989 6.39349449.1628352-.31340657.3011429-.64043954.4196923-.97701097-2.0603077-1.54386813-3.6477802-3.42430769-4.7303956-5.42397802"/><path d="m23.8924835 3.34868132c.4735165 3.33437363 1.3878462 6.66465938 2.8029451 9.87639558.3004615-.1785055.5893406-.3740439.8605055-.5920659-1.7666594-2.96237364-2.9616923-6.11279122-3.6443737-9.28569232-.0074945.00068132-.012945.00136264-.0190769.00136264"/></g><path d="m18.1666813 12.6698022c.0013627-.0034066.0034066-.0047692.0040879-.0074945-.0252088-.0197582-.0517802-.0374725-.076989-.0579121.0252088.0204396.0476923.0442857.0729011.0654066" fill="#000026"/><path d="m16.1663297 10.2579341c.0034066.0074945.0081758.014989.0122637.0218022-.0040879-.0068132-.0068132-.014989-.0109011-.0245275-.0013626.0013626-.0013626.0027253-.0013626.0027253" fill="#000026"/><g fill="#cf0a2c"><path d="m69.2260659 40.9288571c-1.5431868 0-1.5241099.7521759-1.5241099 3.1061319v5.5554725c0 2.623077-1.6385714 4.592088-5.0342637 4.592088-3.1851648 0-5.0942198-1.5445495-5.1534945-4.8223737v-7.0434725c0-1.349011-.7310549-1.3701319-1.7550769-1.3878462v-.5028131c.9061538.0197582 1.795956.0401978 2.6625934.0401978.8870769 0 1.7741538-.0204396 2.7402637-.0401978v.5028131c-1.0233406.0177143-1.7557582.0388352-1.7557582 1.3878462v6.5590549c0 2.2946814.7521758 4.5150989 3.7615604 4.5150989 3.2028791 0 3.5121978-2.4697802 3.5121978-3.8003956v-5.4968791c0-3.1647253-.1158242-3.1074945-1.8327472-3.1647253v-.5028131c.8107692.0197582 1.6188132.0401978 2.430945.0401978.6567912 0 1.2917802-.0401978 1.9478901-.0401978z"/><path d="m85.3556044 54.0646813h-.4421758l-10.091011-11.0714286v7.1947253c0 2.6639561.2132527 3.2028791 2.2974066 3.2028791v.5007693c-.8502857 0-1.7203297-.0374726-2.5672088-.0374726-.8489231 0-1.718967.017033-2.5658462.0374726v-.5007693c1.1759561 0 2.0637143 0 2.0637143-2.4493406v-7.7568132c0-1.6610549-.7133406-2.2558462-2.3716703-2.2558462v-.5028131c.5954725.0197582 1.1766373.0401978 1.7734725.0401978.5205275 0 1.0614945-.0401978 1.5833846-.0401978.7896484 1.178 2.5828792 2.9330769 4.7828572 5.3640219 1.639934 1.8123077 3.4536044 3.7206814 4.7651428 5.1514506v-7.6798242c0-1.7734725-.4060659-2.3151209-2.3314725-2.3328352v-.5028131c.8843517.0197582 1.7905055.0401978 2.6782637.0401978.7535385 0 1.4852748-.0401978 2.2381319-.0401978v.5028131c-1.175956 0-1.812989.096066-1.812989 1.988088z"/><path d="m91.4220659 42.3167033c0-1.349011-.7324175-1.3701319-1.7557582-1.3878462v-.5028131c.9054725.0197582 1.7939121.0401978 2.6632747.0401978.8863956 0 1.7748352-.0204396 2.7368572-.0401978v.5028131c-1.0219781.0177143-1.7543956.0388352-1.7543956 1.3878462v9.6835824c0 1.3483297.7324175 1.3721758 1.7543956 1.3905714v.5007693c-.9238682 0-1.7543956-.0374726-2.604-.0374726-.9265934 0-1.8327473.017033-2.7961319.0374726v-.5007693c1.0233407-.0183956 1.7557582-.0422417 1.7557582-1.3905714z"/><path d="m100.797692 46.1934066c-.481692-1.2338681-1.0424173-2.4861319-1.4818678-3.7418022-.4462638-1.1568791-.7562638-1.5227473-2.0296484-1.5227473v-.5028131c.9081978.0197582 1.8163956.0401978 2.7225492.0401978.81077 0 1.638572-.0401978 2.449341-.0401978v.5028131c-.291604.0177143-.558681.0177143-.828484.0572308-.271164.0177143-.504857.1716923-.504857.4605714 0 .6404396 1.024022 2.9739561 1.235231 3.5333187l2.567209 6.5972088 1.464835-3.8187912c.466022-1.2536264 1.00222-2.4902198 1.409648-3.7431648.194176-.6152308.596836-1.5636264.596836-2.1999781 0-.9061538-.770572-.8475604-1.465517-.8863956v-.5028131c.752857.0197582 1.524791.0401978 2.277648.0401978.596836 0 1.197759-.0204396 1.794594-.0401978v.5028131c-.656791 0-1.021978.2888792-1.293824.7521759-.115825.213934-1.426682 3.5503516-1.465517 3.6470989l-3.530593 8.8544176h-.714704z"/><path d="m116.879538 46.5218022h2.548132c1.561583 0 1.561583-1.2147912 1.619495-1.6576484h.384945c-.037473.4217363-.076308 1.4634726-.076308 2.1611429 0 .6145495.096747 1.5220659.076308 2.1407033h-.384945c0-1.8525055-.618638-1.8525055-2.105275-1.8525055h-2.062352v3.2805495c0 2.1407033.077671 2.6823516 1.986044 2.6823516h1.197077c1.889297-.0981099 2.739583-.3495165 3.490396-2.4111868l.466022.0763077c-.309319.962022-.599561 1.9465275-.792374 2.9501099-1.928132 0-3.858989-.0374726-5.787121-.0374726-1.430769 0-2.855406 0-4.284813.0374726v-.5007693c1.678769 0 1.834791-.31 1.834791-2.1809011v-8.5655384c0-1.5806594-.307956-1.6583297-1.834791-1.7155605v-.5028131c1.295187.0401978 2.604682.0401978 3.898506.0401978 1.851824 0 3.685252 0 5.556835-.0401978v2.8758461l-.384945.0981099c-.291605-1.8177582-1.158242-2.3566813-3.088418-2.3566813h-2.257209z"/><path d="m130.450725 41.0433187c-.483055 0-.81145.0572308-1.159604.1144615v5.6556264c.288198.0558681.696308.0947033 1.025384.0947033 2.373033 0 3.295539-1.5609011 3.295539-2.9528352 0-1.6767252-.88367-2.911956-3.161319-2.911956m-1.159604 6.4834286v4.4735384c0 1.3496923.736505 1.3721758 1.756439 1.3905714v.5007693c-.92523 0-1.756439-.0374726-2.603318-.0374726-.927275 0-1.83411.017033-2.798176.0374726v-.5007693c.964066.0572308 1.755077-.1928131 1.755077-1.2917802v-9.7823736c0-1.349011-.731736-1.3701319-1.755077-1.3878462v-.5028131c1.060813.0197582 1.988088.0401978 2.931714.0401978.675868 0 1.353099-.0401978 2.587649-.0401978 3.646417 0 4.455142 2.0480439 4.455142 3.4161318 0 1.6378901-1.235912 2.8526813-2.736857 3.2989451 1.752352 2.5638022 2.677583 4.1117582 3.508791 5.0335824.616594.6976703 1.195715 1.2161538 2.178176 1.2161538v.5007693c-.478967 0-.959978-.0374726-1.445077-.0374726-.538923 0-1.100329.017033-1.639252.0374726-1.75644-1.9281319-3.047539-4.1867033-4.438792-6.3648791z"/><path d="m139.859736 50.7098681h.445583c.324989 1.4491649 1.406241 2.854044 3.008022 2.854044 1.482549 0 2.642835-1.0417363 2.642835-2.5644835 0-3.5885055-5.710813-2.5276923-5.710813-7.0843517 0-2.4854505 1.774153-3.7765494 4.128791-3.7765494.789648 0 1.582022.1716923 2.351912.2875165l.31 2.4711428h-.443539c-.213252-1.3530989-1.099648-2.1447912-2.488857-2.1447912-1.466879 0-2.317846 1.0628571-2.317846 2.4711429 0 3.5898681 5.944506 2.604 5.944506 7.0414285 0 2.5072528-2.257209 3.9175825-4.533495 3.9175825-1.005626 0-2.043956-.235055-2.951472-.6567913z"/><path d="m151.674484 42.3167033c0-1.349011-.734462-1.3701319-1.75644-1.3878462v-.5028131c.90411.0197582 1.792549.0401978 2.660549.0401978.88844 0 1.77688-.0204396 2.742308-.0401978v.5028131c-1.025385.0177143-1.756439.0388352-1.756439 1.3878462v9.6835824c0 1.3483297.731054 1.3721758 1.756439 1.3905714v.5007693c-.925912 0-1.756439-.0374726-2.606044-.0374726-.928637 0-1.832747.017033-2.796813.0374726v-.5007693c1.021978-.0183956 1.75644-.0422417 1.75644-1.3905714z"/><path d="m169.77644 42.9516923h-.520528c-.057231-1.0403736 0-1.7325934-1.541143-1.7325934h-2.935121v10.7811868c0 1.3496923.735825 1.3721758 1.75644 1.3905714v.5007693c-.925231 0-1.75644-.0374726-2.606044-.0374726-.923187 0-1.830022.017033-2.796132.0374726v-.5007693c1.024022-.0183956 1.75644-.0408791 1.75644-1.3905714v-10.7811868h-2.527011c-1.734638 0-1.814352.4844176-2.141385 1.7325934h-.499407l.209847-3.0645714h.386989c.211208.5218901.730373.5389231 1.213428.5389231h8.759033c.694945 0 1.176638-.1716924 1.257033-.5389231h.401297z"/><path d="m179.97578 52.0002857c0 1.3496923.731055 1.3721758 1.753715 1.3905714v.5007693c-.962704-.0204396-1.851825-.0374726-2.736858-.0374726-.868681 0-1.755077.017033-2.664637.0374726v-.5007693c1.024022-.0183956 1.75644-.0408791 1.75644-1.3905714v-4.6663516l-4.03-5.5581978c-.560726-.7896484-.658836-.7508132-1.796638-.8468792v-.5028131c.367231.0197582 1.796638.0401978 2.681671.0401978.793736 0 1.562263-.0401978 2.355318-.0401978v.5028131c-.31 0-1.080571 0-1.080571.4033407 0 .2316484.269121.6758681.634307 1.1977582l2.702792 3.7976704 2.527011-3.4488352c.229604-.3290769.752857-.9477143.752857-1.3905714 0-.5593627-.384264-.5593627-1.369451-.5593627v-.5028131c.732418.0197582 1.483231.0401978 2.217693.0401978.520527 0 1.041736-.0401978 1.582703-.0401978v.5028131c-.810088.0177143-1.178.5389231-1.603143 1.118044l-3.683209 4.9783956z"/><path d="m56.1999341 24.8258901h.7228791c.5327912 2.356 2.2912747 4.6459121 4.898 4.6459121 2.4173187 0 4.3004835-1.6930769 4.3004835-4.1751209 0-5.8382198-9.2938681-4.1124395-9.2938681-11.5217802 0-4.05043956 2.8874285-6.15298901 6.7191648-6.15298901 1.2883736 0 2.5747033.28070329 3.8317363.47079121l.5021318 4.0184176h-.7228791c-.3461099-2.19793409-1.7898242-3.48630771-4.0504395-3.48630771-2.3852967 0-3.7663297 1.72714281-3.7663297 4.01909891 0 5.8402637 9.6685934 4.2398461 9.6685934 11.4597802 0 4.0831429-3.6736703 6.3737363-7.3786813 6.3737363-1.6310769 0-3.3261978-.3760879-4.8032967-1.0669451z"/><path d="m72.5979121 13.7864835c-1.877033 0-1.9533407.4517143-2.3273846 2.2776484h-.7521759c.1008352-.6997143.2261979-1.4014726.3025055-2.1284396.0981099-.6997143.1485275-1.4007912.1485275-2.1270769h.6022857c.1989451.7528571.8243956.7262857 1.5016264.7262857h12.9157582c.6758682 0 1.3013187-.0252088 1.3524176-.7746593l.5995605.0987912c-.1001539.6758681-.2003077 1.3524175-.2738901 2.028967-.0517803.6738242-.0517803 1.3503736-.0517803 2.0269231l-.7514945.2766154c-.0497362-.93-.1737362-2.405055-1.8511428-2.405055h-4.1049451v13.3163736c0 1.9281319.8761758 2.1522858 2.0773407 2.1522858h.4748791v.7514945c-.9756484 0-2.728-.0994726-4.0783736-.0994726-1.5023077 0-3.256022.0994726-4.230989.0994726v-.7514945h.4755604c1.3762637 0 2.078022-.124 2.078022-2.1018682v-13.3667912z"/><path d="m86.4654725 30.382044c-1.0505934 0-1.9771868-.902066-1.9771868-1.9785495 0-1.0499121.9265934-2.0017143 1.9771868-2.0017143 1.0519561 0 2.0023956.9518022 2.0023956 2.0017143 0 1.0764835-.9245494 1.9785495-2.0023956 1.9785495"/><path d="m102.902967 27.3065714c0 4.2371209-.596835 5.3054286-1.445077 6.7825275-.846198 1.4743736-2.8881098 2.6080879-4.8959559 2.6080879-1.5711209 0-3.2355825-.5988791-3.2355825-2.105956 0-.9422638.6915385-1.4123737 1.319033-1.383077.5028132 0 1.0056264.3781319 1.0056264 1.1323517 0 .8482418.7848791 1.3496923 1.6951209 1.3496923 2.4793186 0 2.4793186-3.9271209 2.4793186-6.4350549v-18.0862858c0-2.1972527-1.1923076-2.23063732-2.8567692-2.25993402v-.81621978c1.4764176.03065934 2.9201319.062 4.3338677.062 1.443715 0 2.88811-.03134066 4.45855-.062v.81621978c-1.664462.0292967-2.858132.06268132-2.858132 2.25993402z"/><path d="m115.362242 29.2817143c4.856439 0 5.707406-4.280044 5.707406-7.936 0-3.6539121-1.976505-8.0831648-6.132549-8.0831648-4.379517 0-5.682879 3.9046373-5.682879 7.2574065 0 4.4817143 2.054176 8.7617583 6.108022 8.7617583m-.374044-17.1208572c5.332681 0 9.586154 3.3023517 9.586154 8.6343517 0 5.7571428-4.130154 9.5868352-9.461473 9.5868352-5.307472 0-9.361319-3.6034945-9.361319-8.9865935 0-5.2052747 4.03-9.2345934 9.236638-9.2345934"/><path d="m131.240374 27.8298242c0 1.3503736 1.050593 1.4253187 1.951978 1.4253187h.476241v.7514945c-1.101692 0-2.704835-.0994726-4.05589-.0994726-1.274747 0-2.779099.0994726-3.779274.0994726v-.7514945h.35156c.900022 0 1.851143-.1267253 1.851143-1.4253187v-13.1181099c0-1.2985934-.951121-1.4246374-1.851143-1.4246374h-.35156v-.7521758c1.000175 0 2.504527.1008352 3.779274.1008352 1.351055 0 2.954198-.1008352 4.05589-.1008352v.7521758h-.476241c-.901385 0-1.951978.0729011-1.951978 1.4246374v5.4825714h9.086747v-5.4825714c0-1.3517363-1.050594-1.4246374-1.951978-1.4246374h-.475561v-.7521758c1.102374 0 2.702792.1008352 4.054528.1008352 1.275428 0 2.777055-.1008352 3.779956-.1008352v.7521758h-.352242c-.89934 0-1.851143.126044-1.851143 1.4246374v13.1181099c0 1.2985934.951803 1.4253187 1.851143 1.4253187h.352242v.7514945c-1.002901 0-2.504528-.0994726-3.779956-.0994726-1.351736 0-2.952154.0994726-4.054528.0994726v-.7514945h.475561c.901384 0 1.951978-.0749451 1.951978-1.4253187v-6.2347473h-9.086747z"/><path d="m164.052 25.0752527.049736-.0497362v-9.3851649c0-2.0541758-1.426681-2.353956-2.179538-2.353956h-.549143v-.7514945c1.175956 0 2.328066.1008352 3.504703.1008352 1.026747 0 2.052132-.1008352 3.078879-.1008352v.7514945h-.375406c-1.051956 0-2.227912.1996264-2.227912 3.1797143v11.3882417c0 .8761759.02589 1.7516704.14989 2.5263297h-.95044l-12.891912-14.3656044v10.3124396c0 2.1754505.425143 2.9276264 2.354638 2.9276264h.424461v.7514945c-1.076483 0-2.15433-.0994726-3.229451-.0994726-1.126901 0-2.278329.0994726-3.403186.0994726v-.7514945h.348154c1.729186 0 2.253802-1.1766374 2.253802-3.1776704v-10.5393187c0-1.4014725-1.15211-2.2517582-2.277649-2.2517582h-.324307v-.7514945c.949077 0 1.925406.1008352 2.877208.1008352.750814 0 1.477099-.1008352 2.229275-.1008352z"/><path d="m169.522989 18.8432308c1.102374-.2003077 2.57811-.9007033 2.57811-2.1277583 0-.7514945-.551868-.9020659-1.076484-1.1016923-.525296-.2003077-1.051274-.4517143-1.051274-1.3749011 0-1.0785275.827121-1.703978 1.827296-1.703978 1.452572 0 2.204066 1.2515824 2.204066 2.604 0 2.3778022-2.028967 3.8787473-4.130154 4.4544615z"/><path d="m184.49156 16.2385495c-.17578-1.6256264-1.227736-3.1769891-2.954879-3.1769891-1.977186 0-3.076835 1.1773187-3.076835 3.1538242 0 4.1553627 7.508132 2.9030989 7.508132 8.9102857 0 3.4556484-2.853363 5.2563737-6.056923 5.2563737-1.401473 0-2.753209-.5007693-3.980264-1.1269011-.126044-1.2761099-.29978-2.5263297-.425143-3.8024396l.700396-.1519341c.300461 2.1277583 1.500945 3.9823077 3.878747 3.9823077 1.703297 0 3.079561-1.0778461 3.079561-2.8540439 0-4.4319781-7.359605-3.055033-7.359605-9.0887912 0-3.2526154 2.303539-5.1793847 5.532989-5.1793847.70244 0 2.828835.2738902 3.604176.374044 0 1.175956.100835 2.3784835.251407 3.5796484z"/><path d="m19.0530769 16.8864835h1.4798242v.4285495h-.9763297v.6697362h.8945715v.4285495h-.8945715v.7637582h.9838242v.4278682h-1.4873187z"/><path d="m22.7315165 19.5667912c-.1825934.0463297-.3808572.0858462-.5716264.0858462-.8107692 0-1.3749011-.4401319-1.3749011-1.3599121 0-.9306813.5232528-1.4539341 1.3749011-1.4539341.1662418 0 .3849451.0361099.5682198.1144615l-.0354286.4585275c-.1914505-.1165055-.3631428-.1430769-.543011-.1430769-.5171208 0-.8414285.4278681-.8414285.9845055 0 .5545934.3168131.9708791.8516483.9708791.1982637 0 .4319561-.047011.5511868-.1130989z"/><path d="m24.9267253 19.5667912c-.1839561.0463297-.3815385.0858462-.5716264.0858462-.8114505 0-1.3755824-.4401319-1.3755824-1.3599121 0-.9306813.5232527-1.4539341 1.3755824-1.4539341.1641978 0 .3842637.0361099.5675385.1144615l-.0361099.4585275c-.1900879-.1165055-.3624616-.1430769-.543011-.1430769-.5164396 0-.8407473.4278681-.8407473.9845055 0 .5545934.3168132.9708791.8523297.9708791.1982637 0 .4305934-.047011.5498242-.1130989z"/><path d="m25.296 16.8864835h1.4805055v.4285495h-.9783736v.6697362h.8952527v.4285495h-.8952527v.7637582h.9851868v.4278682h-1.4873187z"/><path d="m18.1264835 20.8047473h-.0068132l-.3631428 1.1221318h.7337802zm-.2766154-.5464176h.5682198l.9838242 2.7211868h-.5566374l-.2146154-.6240879h-1.0172088l-.2193846.6240879h-.5212088z"/><path d="m21.5405714 20.7856703c-.1941758-.0987912-.4462637-.1451208-.6472527-.1451208-.5859341 0-.9095605.4278681-.9095605.9858681 0 .5539121.3168132.9695165.8509671.9695165.1376263 0 .2445934-.0136264.3311209-.0388352v-.7092527h-.5314286v-.4278682h1.0131209v1.4648352c-.2657143.0783516-.5423297.1396703-.8128132.1396703-.8107693 0-1.3749011-.4394505-1.3749011-1.3585494 0-.9306814.523934-1.4532528 1.3749011-1.4532528.2922857 0 .5225714.0422418.7371868.1117363z"/><path d="m22.1496703 20.2583297h.6179561l.9552088 2.0337362h.0074945v-2.0337362h.4823736v2.7211868h-.6152308l-.9586154-2.0357802h-.0074945v2.0357802h-.4816923z"/><path d="m24.678044 20.2583297h.5034945v1.5704395c0 .4632967.1362637.7671649.5212088.7671649.3835824 0 .5212087-.3038682.5212087-.7671649v-1.5704395h.5028132v1.7380439c0 .729011-.3808571 1.0281099-1.0240219 1.0281099-.6445275 0-1.0247033-.2990989-1.0247033-1.0281099z"/><g transform="translate(0 19.758242)"><path d="m28.564967.99949451c-.1580659-.07426374-.3345274-.11718682-.5103077-.11718682-.1716923 0-.3938022.08107693-.3938022.37813187 0 .47147253 1.0982858.27320879 1.0982858 1.18481319 0 .59547252-.4346814.82098901-.9409011.82098901-.2725275 0-.3951649-.03815385-.6431649-.10356044l.0456484-.49191209c.1737362.10083517.369956.16692308.5682198.16692308.1907692 0 .4455824-.10356044.4455824-.3501978 0-.51848352-1.0996484-.30454946-1.0996484-1.2032088 0-.60841758.4353627-.82984615.8768572-.82984615.215978 0 .4176483.03065934.6002417.09742857z" mask="url(#a)"/><path d="m2.81248352 7.05096703v1.45734066h-.40606594v-.94907692h-.73854945v.89593407h-.40470329v-.89593407h-.81894506v.98927472h-.40402198v-1.49753846z" mask="url(#a)"/><path d="m.42923077 9.67131868v.17032967c0 .57094505.38903297.82916485.99676923.82916485s.99813187-.2582198.99813187-.82916485v-.17032967zm2.38325275-.50962637v.72424176c0 .86595603-.46874726 1.32652743-1.38648352 1.32652743-.93340659 0-1.3858022-.555956-1.3858022-1.32652743v-.72424176z" mask="url(#a)"/><path d="m2.81248352 12.2453407h-1.79595605c-.46057143 0-.61114285.1396703-.61114285.4360439 0 .2902418.15057142.4326374.61114285.4326374h1.79595605v.5096264h-1.79595605c-.73037362 0-1.01652747-.4217363-1.01652747-.9422638 0-.5239341.28615385-.9443077 1.01652747-.9443077h1.79595605z" mask="url(#a)"/><path d="m.14920879 16.1125055c-.05927472-.1015165-.11173626-.3474725-.12059341-.5961539-.0292967-.8427912.56958242-1.2965494 1.37967033-1.3244835.8094066-.0292967 1.4403077.3822198 1.4696044 1.2072967.00953846.282066-.05654945.5137143-.09402198.62l-.45716483-.0122637c.04837362-.1049231.14103296-.2711648.1314945-.5307473-.01362637-.4190109-.31272527-.7705714-1.03083516-.7453626-.71879121.0252088-.99131868.3965275-.97632967.8169011.00885714.2466374.07426373.4074286.16079121.5191648z" mask="url(#a)"/></g><path d="m1.3932967 37.6455824 1.23046154-.5321099-.00136264-.0095384-1.33674725-.1900879zm-.37063736.1607912-.13762637-.942945-.68881319-.0987912-.07358242-.5041759 2.87720879.5198462.08039561.5498242-2.61353846 1.2856483-.0763077-.5191648z"/><path d="m2.96646154 38.8501538-.14716484-.602967.3938022-.0960659.41628572 1.6930769-.39312088.0967473-.14852748-.5988792-2.29808791.5668572-.12127472-.4932747z"/><path d="m3.77586813 40.2686593.15874725.483055-2.63125274.8700439-.16010989-.4816923z"/><path d="m2.31103297 43.243978c.12808791.295011.48441758.4217363 1.18208791.1158242.69903297-.3065934.84687912-.6506593.71742857-.9477143-.12945055-.2943297-.48305494-.4203736-1.18208791-.1144615-.69903297.3045494-.84687912.652022-.71742857.9463516zm2.25652747-.9872307c.23096703.5280219.04905494 1.1841318-.86391209 1.5833846-.91364835.4006154-1.51934066.0878901-1.75030769-.4408132-.23028571-.5266594-.04905495-1.1827692.86459341-1.5833846.91432967-.3992528 1.51865934-.0865275 1.74962637.4408132z"/><path d="m4.48375824 47.6698242c-.10287912-.0545055-.27593406-.2357363-.41287912-.4442198-.46397802-.7044835-.19008791-1.4041978.48714286-1.8511429.67586813-.4462637 1.42804395-.4244615 1.88384615.2657143.15602198.2357363.2187033.4687473.24323077.5763956l-.39720879.2275605c-.01294506-.1130989-.02043956-.3031868-.16283516-.5191649-.23232968-.3508791-.66905495-.4946373-1.26997803-.0981099-.60024176.3951649-.63975824.8543737-.40742857 1.2066154.13626374.205077.27525275.3072748.40810989.357011z"/><path d="m7.03802198 46.5613187.32362637.3924395-.87004395.7201539.52393406.6315824.86868132-.7167472.32498901.3910769-2.13865934 1.765978-.32294505-.3917582.94226373-.7794286-.52257143-.6336264-.94430769.7801099-.32362637-.3924396z"/><path d="m8.28074725 49.7853187c.19213187.1907692.41969231.2200659.61863737.0190769.22415384-.2248352.1607912-.3992527-.04224176-.6002418l-.14648352-.1451208-.57707692.5804835zm.34134066-1.3612747.61659341.6084175c.34951648.3474726.42991209.7399121.07221978 1.1016923-.25481319.2568572-.58525275.2691209-.8387033.0851649l-.00885714.0095384c.062.0838022.11105494.1982638-.00953846.4428572l-.48646154 1.0063077-.3829011-.3794945.43808791-.8332528c.10628572-.2043956.06336264-.3467912-.06881318-.478967l-.08175825-.0810769-.83938461.8461978-.36178022-.3576923z"/><path d="m10.2954066 50.0210549.3863077.3311209-1.81094507 2.0998242-.38494505-.3311209z"/><path d="m9.81643956 52.5480659c.04156044.1117363.14989011.3277143.36518684.4912308.1771428.1355824.4101538.1567033.5784395-.064044.1199121-.1580659.0803956-.2970549-.0333846-.553912l-.1185494-.2698022c-.126044-.2861539-.1369451-.5695825.0797143-.853011.3004615-.3965275.7828351-.3536044 1.1521098-.0715385.2343737.1764615.3522418.3631429.4012967.4292308l-.275934.3236264c-.0688132-.1117363-.1546594-.2663957-.342022-.4101539-.2023516-.153978-.3883516-.1246813-.5041758.0272528-.124.1648791-.0626813.3106813.0088571.4748791l.1349011.3140879c.1492088.342022.1662418.575033-.0688132.885033-.3413406.4483076-.8243956.4203736-1.24545052.1008351-.22074725-.168967-.36791208-.3297582-.42650549-.4803297z"/><path d="m12.9723077 52.5773626-.5164396-.3433846.2248352-.337934 1.4518901.9674725-.2241538.3365714-.513033-.3406593-1.3115385 1.9724176-.4237802-.282066z"/><path d="m14.5420659 53.1271868.4271868.2752528-1.5050329 2.3287472-.4271868-.2745714z"/><path d="m15.7282418 55.9158242.3924395-1.2822418-.0068132-.0040879-1.0110769.8938901zm-.1158242.3863077-.808044-.5069011-.5218901.4598901-.431956-.2698022 2.2612967-1.8552308.4714725.2956923-.7167472 2.8233846-.4435385-.277978z"/><path d="m17.6904396 55.1166374.5157582.3113626-.3392967 2.338967.0061319.0040879 1.1282637-1.8613626.3944835.2377802-1.4375824 2.373033-.5191648-.3168132.3352088-2.3219341-.0074945-.0040879-1.1187253 1.847055-.3944835-.2384616z"/><path d="m20.2249451 58.6254286.3515604-1.2945055-.0068132-.0027253-.9824615.9245495zm-.1042418.3897143-.823033-.4816924-.5082637.4762418-.4387692-.2568571 2.2027033-1.924044.4803296.2807033-.6295384 2.8465495-.4523956-.2663956z"/><path d="m26.3070769 58.2275385-.9701978-.9409011-.0054505.0054505.3365714 1.3176703zm.2929671.2807033-.825077.4912307.173055.6785934-.4414945.262989-.622044-2.8765274.481011-.2861539 2.1992967 1.9376704-.4530769.2698022z"/><path d="m26.8337363 56.0118901.5171208-.3195385 1.9403956 1.3789891.0061319-.004088-1.1493846-1.8640879.3951648-.2452747 1.4655165 2.3750769-.5218901.3222638-1.9281319-1.3653627-.0061318.0027253 1.1412088 1.8525055-.3944836.2432308z"/><path d="m29.5412967 54.2888352.431956-.2745715 1.4968572 2.3553187-.4312747.2759341z"/><path d="m33.0323736 52.5398901-.0061318.0068132.7024395 2.3246593-.3052308.2023517-1.8402417-1.5718022-.0081758.0040879 1.284967 1.9403956-.386989.2568571-1.5404615-2.3287472.6370329-.4203736 1.6303956 1.4185055.0061319-.0040879-.6588352-2.0623517.6165934-.4087912 1.5397803 2.3287472-.3869891.2554946z"/><path d="m35.9613626 51.9396484-1.0935164-.7916924-.0068132.0068132.5225714 1.2536264zm.3311209.2370989-.7460439.6043296.2663956.6479341-.3965275.3222637-1.0294725-2.7586593.4346813-.3515605 2.4568351 1.6010989-.4115164.3324836z"/><path d="m35.9102637 49.7028791 1.0396923-1.0376483.2875165.2902417-.6765494.6731429.525978.528022.6390769-.6383956.2895605.2888791-.6411209.6383956.5818461.5845714.7051649-.7044835.2881978.2888791-1.0676264 1.0649011z"/><path d="m40.0915165 46.9101538c.183956-.260945.138989-.4660219-.109011-.6418022-.2486813-.1757802-.4537582-.1498901-.6383956.1117363l-.1103736.1587473.7474066.5280219zm-1.4743736-.1825934.461934-.6520219c.3338462-.4707912.7678462-.5293847 1.1991209-.2248352.4305934.3059121.5218901.7385494.188044 1.2066154l-.1655605.2343736.8911649.6336264-.297055.4162857z"/><path d="m39.9770549 44.7224396.7092528-1.2842858.3563297.1982638-.4626154.835978.6527033.3590549.4353626-.7903296.3576923.1955384-.4367253.7916923.7215165.3978902.4803297-.870044.357011.1969011-.7283297 1.3197143z"/><path d="m42.4461538 42.4815824c.1015165-.2514066.0415605-.4741978-.2221098-.5818461-.295011-.1212748-.434.0040879-.5409671.2718461l-.0790329.1914506.7637582.3113626zm-1.3980659.2098462.3277143-.8073627c.1873626-.4592088.5218901-.6867692.9960879-.493956.3365714.136945.4769231.4394505.4033407.7467253l.0115824.0040879c.0538242-.0906154.141033-.1785055.4156044-.1628352l1.1228132.064044-.2037143.5028132-.947033-.0865275c-.2282417-.0183956-.3447472.0763077-.4156044.2507253l-.0442857.1076483 1.1112308.451033-.1928132.4735165z"/><path d="m41.9528791 40.2938681.3754066-1.3599121.3917583.1076484-.2377803.8673187.7324176.2023516.2275605-.8291648.3938022.1083297-.2282418.8284835 1.1718681.3236264-.136945.493956z"/><path d="m42.4877143 38.0673187.2323297-1.4478022.4033406.0640439-.1526154.9436264.7344616.1171868.1437582-.8918461.401978.0667692-.1437582.8911648.8141758.1308132.1587473-.9824615.399934.0640439-.2384615 1.4886814z"/><path d="m45.6197363 34.097956c.0510989.1076484.0824395.3563297.0729011.6084176-.0388352.8475605-.6792748 1.2529451-1.4934506 1.2175165-.8134945-.0374725-1.4137363-.5021319-1.3755824-1.3306154.0129451-.2847912.0987912-.5123516.1430769-.6152307l.4585275.0476923c-.0572308.1028791-.1641978.260945-.1764615.5218901-.0177143.4230989.2527692.7985055.974967.8318901.7249231.0333846 1.0281099-.3168132 1.0465055-.7399121.0115824-.2486813-.0401978-.4142418-.1199121-.5334725z"/><path d="m43.2773626 32.5792967v.6240879h-.4074285v-1.7550769h.4074285v.62h2.3832528v.510989z"/><path d="m42.9264835 30.4862857h2.7913627v-.510989h-2.7913627z"/><path d="m45.3090549 27.8598022c0-.3236264-.2752527-.5832088-1.0437802-.5832088-.7651209 0-1.0437802.2595824-1.0437802.5832088s.2786593.5825275 1.0437802.5825275c.7685275 0 1.0437802-.2589011 1.0437802-.5825275zm-2.477956 0c0-.5784396.4312747-1.1112308 1.4341758-1.1112308 1.0042638 0 1.4362198.5327912 1.4362198 1.1112308 0 .5798022-.431956 1.1112308-1.4362198 1.1112308-1.0029011 0-1.4341758-.5314286-1.4341758-1.1112308z"/></g></g></svg>